<?xml version="1.0" standalone="no"?>
<!DOCTYPE svg PUBLIC "-//W3C//DTD SVG 20010904//EN"
 "http://www.w3.org/TR/2001/REC-SVG-20010904/DTD/svg10.dtd">
<svg version="1.0" xmlns="http://www.w3.org/2000/svg"
 width="300.000000pt" height="300.000000pt" viewBox="0 0 300.000000 300.000000"
 preserveAspectRatio="xMidYMid meet">
<metadata>
Created by potrace 1.11, written by Peter Selinger 2001-2013
</metadata>
<g transform="translate(0.000000,300.000000) scale(0.100000,-0.100000)"
fill="#000000" stroke="none">
<path d="M1850 2858 c-25 -16 -67 -52 -95 -78 -71 -68 -155 -113 -187 -101
-17 7 -39 5 -71 -6 -49 -16 -77 -8 -77 23 0 24 -125 80 -200 90 -19 3 -43 6
-53 9 -34 7 -11 -20 35 -42 65 -32 174 -141 180 -181 4 -31 4 -31 -30 -27 -19
2 -60 12 -90 21 -83 24 -132 20 -199 -14 -32 -16 -77 -37 -101 -47 -31 -13
-39 -21 -29 -26 8 -5 25 -6 38 -4 13 3 40 8 59 11 19 3 48 13 64 21 34 18 67
11 112 -23 37 -29 117 -53 182 -56 91 -3 36 -28 -203 -93 -88 -24 -172 -56
-260 -99 -120 -59 -137 -70 -207 -144 -101 -108 -168 -222 -174 -299 l-5 -58
26 30 c15 17 41 47 58 67 43 51 157 138 237 181 105 57 270 89 291 56 7 -12 6
-23 -7 -82 -8 -40 -79 -211 -108 -264 -14 -24 -37 -83 -52 -131 -15 -48 -43
-111 -63 -142 -46 -72 -72 -128 -61 -135 5 -3 12 -1 15 5 6 10 73 6 84 -6 3
-2 6 -24 8 -47 5 -78 26 -141 66 -207 70 -114 100 -150 160 -190 21 -14 57
-50 82 -81 l44 -56 -38 -25 c-39 -26 -98 -43 -181 -53 -25 -3 -67 -10 -95 -15
-27 -5 -90 -14 -138 -20 -49 -6 -109 -18 -134 -26 -41 -14 -74 -20 -123 -23
-8 -1 -28 -13 -45 -27 -40 -35 -66 -44 -125 -43 -57 2 -96 -19 -110 -57 -17
-43 -11 -63 30 -108 63 -68 166 -117 295 -140 17 -3 62 -13 100 -22 95 -21
175 -29 175 -16 0 5 -15 21 -32 35 -79 60 -118 112 -118 156 0 36 22 101 34
102 43 3 262 9 481 13 322 6 343 9 373 42 23 27 23 27 6 129 -12 70 -49 191
-75 246 -16 33 -29 63 -29 68 0 5 -7 22 -15 37 -13 26 -13 29 3 35 23 8 230
24 272 20 8 -1 27 -27 42 -59 15 -31 42 -73 59 -92 17 -19 70 -82 118 -139 47
-57 110 -132 139 -165 68 -78 72 -97 38 -157 -16 -29 -24 -54 -20 -66 13 -34
55 -83 126 -144 63 -54 73 -60 83 -45 16 21 -3 144 -38 244 -25 69 -26 83 -25
260 1 147 -2 199 -15 242 -9 30 -30 105 -46 165 -38 137 -91 245 -145 291 -80
69 -178 114 -281 129 -22 4 -47 8 -55 10 -16 4 -113 16 -161 19 -37 3 -39 5
-45 57 -2 24 -11 63 -20 86 -15 41 -15 44 12 104 l28 61 18 -23 c41 -52 78
-96 113 -133 20 -22 43 -52 53 -68 23 -39 66 -39 80 0 19 48 28 54 87 58 70 5
166 29 217 55 40 20 159 135 244 235 l51 60 -15 49 c-9 28 -20 53 -25 56 -14
10 -68 -8 -194 -62 -62 -27 -136 -55 -165 -63 -52 -13 -54 -13 -88 14 -19 15
-54 39 -77 53 -34 22 -50 43 -85 114 -43 86 -81 135 -148 185 l-34 27 23 49
c17 37 24 67 23 115 0 64 1 66 32 81 42 20 82 60 98 99 7 17 25 55 40 85 16
31 27 57 25 58 -1 1 -22 -11 -47 -28z"/>
</g>
</svg>
