<?xml version="1.0" encoding="utf-8"?>
<!-- Generator: Adobe Illustrator 23.1.1, SVG Export Plug-In . SVG Version: 6.00 Build 0)  -->
<svg version="1.1" id="Layer_1" xmlns="http://www.w3.org/2000/svg" xmlns:xlink="http://www.w3.org/1999/xlink" x="0px" y="0px"
	 viewBox="0 0 200 300" style="enable-background:new 0 0 200 300;" xml:space="preserve">
<style type="text/css">
	.st0{fill:none;stroke:#000000;stroke-width:0.25;stroke-miterlimit:10;}
	.st1{fill:none;stroke:#000000;stroke-width:0.5;stroke-miterlimit:10;}
	.st2{fill:none;stroke:#000000;stroke-width:0.75;stroke-miterlimit:10;}
	.st3{fill:none;stroke:#000000;stroke-miterlimit:10;}
	.st4{fill:none;stroke:#000000;stroke-width:1.25;stroke-miterlimit:10;}
	.st5{fill:none;stroke:#000000;stroke-width:1.5;stroke-miterlimit:10;}
	.st6{fill:none;stroke:#000000;stroke-width:1.75;stroke-miterlimit:10;}
	.st7{fill:none;stroke:#000000;stroke-width:2;stroke-miterlimit:10;}
	.st8{fill:#22B573;}
	.st9{font-family:'ShreeDev0714';}
	.st10{font-size:258.5965px;}
	.st11{fill:none;stroke:#FFFFFF;stroke-width:14.5;stroke-miterlimit:10;}
</style>
<line class="st0" x1="19" y1="60" x2="48" y2="60"/>
<line class="st0" x1="19" y1="62" x2="49" y2="62"/>
<line class="st0" x1="19" y1="64" x2="50" y2="64"/>
<line class="st0" x1="19" y1="66" x2="51" y2="66"/>
<line class="st0" x1="19" y1="69" x2="52" y2="69"/>
<line class="st0" x1="19" y1="72" x2="54" y2="72"/>
<line class="st1" x1="19" y1="75" x2="56" y2="75"/>
<line class="st1" x1="19" y1="78" x2="58" y2="78"/>
<line class="st1" x1="19" y1="81" x2="60" y2="81"/>
<line class="st1" x1="18" y1="85" x2="64" y2="85"/>
<line class="st1" x1="18" y1="90" x2="67" y2="90"/>
<line class="st1" x1="18" y1="95" x2="70" y2="95"/>
<line class="st2" x1="18" y1="100" x2="74" y2="100"/>
<line class="st2" x1="18" y1="105" x2="77" y2="105"/>
<line class="st2" x1="18" y1="110" x2="80" y2="110"/>
<line class="st2" x1="18" y1="115" x2="83" y2="115"/>
<line class="st2" x1="18" y1="120" x2="89" y2="120"/>
<line class="st2" x1="18" y1="125" x2="92" y2="125"/>
<line class="st3" x1="18" y1="131" x2="95" y2="131"/>
<line class="st3" x1="18" y1="137" x2="101" y2="137"/>
<line class="st3" x1="17" y1="143" x2="106" y2="143"/>
<line class="st3" x1="17" y1="150" x2="112" y2="150"/>
<line class="st3" x1="17" y1="156" x2="118" y2="156"/>
<line class="st3" x1="17" y1="162" x2="124" y2="162"/>
<line class="st4" x1="16.5" y1="169.5" x2="129.5" y2="169.5"/>
<line class="st4" x1="16.5" y1="176.5" x2="134.5" y2="176.5"/>
<line class="st4" x1="16.5" y1="185.5" x2="139.5" y2="185.5"/>
<line class="st5" x1="16.5" y1="194.5" x2="144.5" y2="194.5"/>
<line class="st5" x1="16" y1="203" x2="149" y2="203"/>
<line class="st6" x1="16" y1="213" x2="155" y2="214"/>
<line class="st6" x1="16" y1="224" x2="162" y2="225"/>
<line class="st7" x1="16" y1="236" x2="174" y2="236"/>
<text transform="matrix(1.019 0 0 1 1.2983 245.2031)" class="st8 st9 st10">N</text>
<circle class="st8" cx="163.5" cy="79.5" r="26"/>
<line class="st11" x1="163.5" y1="49.4" x2="163.5" y2="105.1"/>
</svg>
