<?xml version="1.0" encoding="utf-8"?>
<!-- Generator: Adobe Illustrator 23.1.1, SVG Export Plug-In . SVG Version: 6.00 Build 0)  -->
<svg version="1.1" id="Layer_1" xmlns="http://www.w3.org/2000/svg" xmlns:xlink="http://www.w3.org/1999/xlink" x="0px" y="0px"
	 viewBox="0 0 200 300" style="enable-background:new 0 0 200 300;" xml:space="preserve">
<style type="text/css">
	.st0{fill:#FFFFFF;}
	.st1{fill:none;stroke:#4D4D4D;stroke-width:2;stroke-miterlimit:10;}
	.st2{fill:#ABADB1;stroke:#333333;stroke-width:2;stroke-miterlimit:10;}
	.st3{display:none;fill:#FFFF00;}
</style>
<rect x="45.5" y="72.1" class="st0" width="113.4" height="156.4"/>
<path d="M51.8,44.6c3.6-3.7,7.6-5.2,9.6-5.8c27.2,0,54.4,0,81.6,0c1.5,0.2,6.8,1.2,11,6c3.7,4.2,4.4,8.9,4.5,10.5
	c0,5.6,0,11.2,0,16.8c-37.7,0-75.3,0-113,0c0-5,0.1-10,0.1-15C45.9,55,47,49.4,51.8,44.6z"/>
<path d="M45.5,228.6c37.8,0,75.6,0,113.4,0c0.1,5.3,0.1,10.5,0.2,15.8c-0.4,2.1-1.4,6.1-4.6,10.1c-4,5-9.1,6.8-11.1,7.4
	c-41.5,3.1-72.2,2.8-81.4,0.2c-7-2-10.9-6.2-10.9-6.2c-3.1-3.3-4.2-7-5-9.6C43.9,239.1,44.6,232.7,45.5,228.6z"/>
<path class="st1" d="M138.6,262.4H65.7c-11.1,0-20.3-9.4-20.3-21.1V59.4c0-11.7,9-21.1,20.3-21.1h72.9c11.1,0,20.3,9.4,20.3,21.1
	v182C158.8,253,149.7,262.4,138.6,262.4z"/>
<ellipse class="st2" cx="101.5" cy="243.2" rx="9.8" ry="9.5"/>
<polygon class="st3" points="164.4,95 158.1,92.6 152.5,96.4 152.9,89.6 147.5,85.5 154,83.8 156.3,77.4 160,83.1 166.8,83.2 
	162.5,88.5 "/>
<polygon class="st3" points="160.9,166.8 155.8,162 148.9,163.5 151.9,157.1 148.3,151 155.3,151.9 160,146.6 161.3,153.5 
	167.8,156.4 161.6,159.8 "/>
<polygon class="st3" points="168.1,208.7 160.7,211.8 159.1,219.8 153.8,213.7 145.8,214.6 149.9,207.7 146.6,200.3 154.4,202.1 
	160.4,196.7 161.1,204.7 "/>
<polygon class="st3" points="49,193.5 42.5,191.6 37.2,195.8 37,189 31.3,185.3 37.7,183 39.5,176.4 43.7,181.8 50.5,181.5 
	46.6,187.1 "/>
<polygon class="st3" points="52.1,93.1 45.5,91.8 40.7,96.6 39.9,89.9 33.9,86.8 40,84 41,77.3 48.6,82.2 52.3,81.2 49.1,87.1 "/>
<polygon class="st3" points="46,151.8 41.2,151.8 38.4,155.7 36.9,151.1 32.3,149.7 36.2,146.8 36.2,142 40.1,144.9 44.7,143.3 
	43.1,147.9 "/>
</svg>
