<?xml version="1.0" encoding="utf-8"?>
<!-- Generator: Adobe Illustrator 23.1.1, SVG Export Plug-In . SVG Version: 6.00 Build 0)  -->
<svg version="1.1" id="Layer_1" xmlns="http://www.w3.org/2000/svg" xmlns:xlink="http://www.w3.org/1999/xlink" x="0px" y="0px"
	 viewBox="0 0 200 300" style="enable-background:new 0 0 200 300;" xml:space="preserve">
<style type="text/css">
	.st0{display:none;}
	.st1{display:inline;}
	.st2{fill:#FFFFFF;}
	.st3{fill:#F6F0E9;}
	.st4{opacity:0.78;fill:#D6CAAB;stroke:#FFFFFF;stroke-width:2;stroke-miterlimit:10;}
	.st5{fill:#33CCFF;}
	.st6{display:none;fill:#F6F0E9;}
	.st7{fill:#D6CAAB;}
	.st8{fill:none;stroke:#FFFFFF;stroke-width:2;stroke-miterlimit:10;}
	.st9{fill:none;stroke:#FFFFFF;stroke-miterlimit:10;}
</style>
<g class="st0">
	<g class="st1">
		<path class="st2" d="M28.89,230.33c-1.95-2.41-3.68-4.49-5.34-6.62c-3.17-4.05-6.31-8.13-9.46-12.19
			c-2.25-2.91-4.52-5.81-6.74-8.75c-0.35-0.46-0.58-1.09-0.65-1.67c-0.71-6.32-1.41-12.63-2.02-18.96c-0.05-0.55,0.43-1.36,0.9-1.73
			c7.05-5.5,14.13-10.95,21.21-16.4c2.11-1.62,4.24-3.21,6.64-5.03c0.1,0.84,0.2,1.35,0.21,1.87c0.02,2.32,0.08,4.65,0,6.97
			c-0.05,1.4,0.48,1.86,1.86,1.83c7.07-0.14,14.14-0.24,21.21-0.3c4.95-0.05,9.91-0.01,14.86-0.02c2.61-0.01,3.18-0.68,2.76-3.18
			c-1.56-9.31-3.12-18.62-4.68-27.94c-0.37-2.21-0.51-2.34-3.04-2.81c-2.33-0.44-4.69-0.77-6.65-2.31
			c-3.5-2.73-4.02-9.52,0.51-11.85c1.97-1.01,3.9-2.08,5.88-3.07c1.45-0.72,0.79-2.01,0.93-3.08c0.14-1.01-0.66-1.01-1.33-1.25
			c-2.98-1.1-6.01-2.15-8.13-4.72c-2.54-3.08-1.58-7.85,1.85-9.96c2.1-1.29,4.26-2.22,6.71-2.58c1.5-0.22,1.37-0.51,0.68-1.8
			c-0.76-1.42-1.43-3.08-1.47-4.65c-0.09-4.1,0.56-6.14,4.91-8.09c1.61-0.72,3.21-1.49,4.89-2c1.63-0.5,3.35-0.69,4.82-0.98
			c-1.04-1.16-2.28-2.17-3.05-3.47c-2.29-3.87-0.56-6.58,3.03-8.49c3.16-1.68,6.62-1.63,10.01-2.03c2.25-0.27,4.52-0.41,6.78-0.68
			c0.58-0.07,1.18-0.33,1.66-0.67c1.27-0.9,1.27-1.81,0.08-2.82c-0.45-0.38-0.92-0.74-1.43-1.16c2.61-1.23,6.77-0.44,8.62,1.56
			c4.37,4.71,9.9,6.76,16.2,7.13c1.29,0.08,2.62,0.3,3.84,0.72c2.44,0.84,3.51,2.83,2.78,5.28c-0.42,1.39-1.25,2.66-2,4.21
			c1.17,0.36,2.64,0.78,4.09,1.26c2.38,0.79,4.3,2.06,5.23,4.6c0.75,2.05,0.25,3.89-0.53,5.72c-0.61,1.43-1.39,2.79-2.19,4.35
			c0.39,0.17,0.81,0.44,1.26,0.55c4.09,0.98,6.82,3.75,9.15,7.01c0.26,0.36,0.51,0.81,0.53,1.23c0.16,3.23-0.09,6.42-2.49,8.88
			c-0.89,0.91-2.16,1.46-3.28,2.13c-0.65,0.39-1.41,0.61-2.01,1.05c-0.65,0.47-1.18,1.11-1.76,1.68c0.63,0.41,1.21,0.97,1.9,1.22
			c3.42,1.23,5.19,5.01,4.15,9.1c-1.2,4.74-4.24,7.7-8.87,9.03c-1.32,0.38-2,1.1-2.42,2.39c-0.57,1.77-0.73,3.76-2.33,5.09
			c-0.26,0.22-0.3,0.73-0.4,1.13c-1.72,7.17-3.41,14.35-5.18,21.5c-0.36,1.46,0.28,1.83,1.5,1.87c2.98,0.11,5.95,0.24,8.93,0.31
			c5.2,0.13,10.48-0.31,15.57,0.48c4.76,0.74,6.16-2.6,8.43-5.14c1.11-1.24,2.05-2.63,3.17-3.85c0.4-0.43,1.1-0.59,1.68-0.85
			c0.13-0.06,0.3-0.02,0.45-0.02c8.89-0.1,17.78-0.21,26.67-0.3c2.15-0.02,2.23,0.18,1.98,2.25c-0.97,7.85-3.02,15.45-5.12,23.04
			c-0.34,1.22-0.24,2.22,0.47,3.27c3.99,6.02,7.97,12.05,11.88,18.11c0.39,0.6,0.62,1.55,0.45,2.21c-1.48,5.93-3.08,11.83-4.6,17.74
			c-0.27,1.07-0.89,1.29-1.87,1.31c-6.82,0.08-13.63,0.17-20.45,0.3c-2.17,0.04-4.34,0.14-6.5,0.29c-1.39,0.09-2.34-0.38-3.19-1.54
			c-2.15-2.93-4.48-5.72-6.64-8.65c-0.76-1.03-1.62-1.34-2.83-1.32c-8.18,0.13-16.36,0.27-24.54,0.3
			c-31.53,0.12-63.06,0.21-94.59,0.28c-1.39,0-2.12,0.29-2.24,1.85c-0.27,3.52-0.71,7.02-1.08,10.53
			C29.09,229.29,29.02,229.58,28.89,230.33z"/>
	</g>
</g>
<path class="st3" d="M164.68,140.1c0.64-0.47,8.17-6.12,6.6-12.57c-1.4-5.76-9.66-10.52-19.8-9.78c1.31-0.65,5.45-2.88,6.6-6.99
	c1.79-6.38-5.26-11.58-6.6-12.57c-4.41-3.26-9.36-3.99-11.55-4.19c3.53-0.76,6.18-2.98,6.6-5.59c0.63-3.86-3.95-6.46-4.95-6.99
	c-2.95-1.55-4.9-0.87-9.9-1.4c-2.05-0.21-8.78-0.97-14.85-4.19c-4.98-2.64-6.08-5.12-11.55-6.99c-2.75-0.94-5.22-1.25-5.7-1.3
	c-2.35-0.28-4.37-0.22-5.85-0.09c1.78,1.5,4.07,3.84,3.3,5.59c-0.52,1.18-2.34,1.91-11.55,2.79c-10.42,1-11.15,0.36-14.85,1.4
	c-1.54,0.43-11.2,3.14-11.55,8.38c-0.23,3.51,3.84,6.28,4.95,6.99c-3.29,1.44-7.97,3.7-13.2,6.99c-6.92,4.35-7.89,6.17-8.25,6.99
	c-2.55,5.82,3.46,12.41,4.95,13.97c-5.43-1.51-11.25-0.44-14.85,2.79c-4.25,3.82-3.44,8.87-3.3,9.78c0.76,4.77,4.62,8.18,8.25,9.78
	c3.67,1.62,7.25,1.44,8.25,1.4c15.66-0.64,68.99,4.81,107.25,0C155.15,144.04,160.24,143.35,164.68,140.1z"/>
<polygon class="st4" points="96.09,256.18 143.59,145.04 55.37,145.04 "/>
<polygon class="st5" points="118.02,249.51 140.79,249.37 95.99,281 65.75,241.65 80.75,241.55 78.4,80.68 64.69,68.49 64.45,30.32 
	94.51,39.68 97.25,42.39 127.1,19.03 131.19,19 131.46,62.63 115.18,76.36 "/>
<path class="st8" d="M164.92,140.33c0.64-0.47,8.17-6.12,6.6-12.57c-1.4-5.76-9.66-10.52-19.8-9.78c1.31-0.65,5.45-2.88,6.6-6.99
	c1.79-6.38-5.26-11.58-6.6-12.57c-4.41-3.26-9.36-3.99-11.55-4.19c3.53-0.76,6.18-2.98,6.6-5.59c0.63-3.86-3.95-6.46-4.95-6.99
	c-2.95-1.55-4.9-0.87-9.9-1.4c-2.05-0.21-8.78-0.97-14.85-4.19c-4.98-2.64-6.08-5.12-11.55-6.99c-2.75-0.94-5.22-1.25-5.7-1.3
	c-2.35-0.28-4.37-0.22-5.85-0.09c1.78,1.5,4.07,3.84,3.3,5.59c-0.52,1.18-2.34,1.91-11.55,2.79c-10.42,1-11.15,0.36-14.85,1.4
	c-1.54,0.43-11.2,3.14-11.55,8.38c-0.23,3.51,3.84,6.28,4.95,6.99c-3.29,1.44-7.97,3.7-13.2,6.99c-6.92,4.35-7.89,6.17-8.25,6.99
	c-2.55,5.82,3.46,12.41,4.95,13.97c-5.43-1.51-11.25-0.44-14.85,2.79c-4.25,3.82-3.44,8.87-3.3,9.78c0.76,4.77,4.62,8.18,8.25,9.78
	c3.67,1.62,7.25,1.44,8.25,1.4c15.66-0.64,68.99,4.81,107.25,0C155.39,144.27,160.49,143.57,164.92,140.33z"/>
<polygon class="st9" points="96.77,256.52 144.28,145.38 56.05,145.38 "/>
</svg>
