<?xml version="1.0" encoding="utf-8"?>
<!-- Generator: Adobe Illustrator 23.1.1, SVG Export Plug-In . SVG Version: 6.00 Build 0)  -->
<svg version="1.1" id="Layer_1" xmlns="http://www.w3.org/2000/svg" xmlns:xlink="http://www.w3.org/1999/xlink" x="0px" y="0px"
	 viewBox="0 0 200 300" style="enable-background:new 0 0 200 300;" xml:space="preserve">
<style type="text/css">
	.st0{fill:#FF0000;}
</style>
<g>
	<g>
		<path class="st0" d="M59.3,205.7c-2-2.5-3.6-4.7-4.8-6.2c-4.8-14.4-9.4-28.2-14-41.9c0,0,0,0-0.1,0c-0.3-1.2-0.6-2.4-1-4.1
			c0.2-0.4,0.6-1.3,1.1-2.3c0.6,0.1,1.2,0.3,1.6,0.4c5.3-3.5,10.5-7,15.8-10.4c2.8-1.8,4-1.2,4.7,2c0.4,2.1,0.6,4.3,0.8,6.4
			c1,8.8,2.1,17.6,3,26.4c0.2,1.9-0.2,3.9-0.3,5.8c0.8-0.2,1.7-0.4,2.6-0.5c0.1-0.6,0.2-1.3,0.2-1.8c6.2-5.6,12.3-11.1,18.4-16.5
			c3.7-3.3,7.5-6.6,11.3-9.9c0.6-0.5,1.4-0.8,1.6-0.9c1.4-1.7,2.6-3.1,3.7-4.4c0.5-0.6,1.1-1,1.7-1.6c3.7-3.5,7.4-7,11.1-10.5
			c2.3-2.2,4.4-4.6,6.7-6.7c1.4-1.3,3.1-2.3,4.8-3.2c6.2-5.8,12.4-11.6,18.7-17.7c6.7,3.4,13.1,6.7,19.4,10.1
			c1.2,0.7,1.9,2.2,3.2,3.6c-6.3,2.4-11.1,6.2-15.7,10.1c-7.6,6.2-15.3,12.3-22.9,18.5c-6.1,5-12.1,10.2-18.3,15.1
			c-7,5.5-14.2,10.8-21.4,16c-6.9,4.9-13.9,9.8-20.2,15.5c-3.2,2.9-6.8,5.5-10.2,8.2C60.4,205.6,59.8,205.6,59.3,205.7z"/>
	</g>
</g>
</svg>
