<?xml version="1.0" encoding="utf-8"?>
<!-- Generator: Adobe Illustrator 23.1.1, SVG Export Plug-In . SVG Version: 6.00 Build 0)  -->
<svg version="1.1" id="Layer_1" xmlns="http://www.w3.org/2000/svg" xmlns:xlink="http://www.w3.org/1999/xlink" x="0px" y="0px"
	 viewBox="0 0 200 300" style="enable-background:new 0 0 200 300;" xml:space="preserve">
<style type="text/css">
	.st0{fill:#FFADC6;stroke:#FFFFFF;stroke-miterlimit:10;}
</style>
<path class="st0" d="M100.6,15.5c-12.8,55.9-27.2,100-38.4,131.2C48.3,185,37.6,207.5,46.5,235c6.8,21.1,26.5,49.5,54.2,49.9
	c25.9,0.4,46.4-23.8,54.2-44.2c10.4-27.2-0.9-50.9-15.7-92.6C128.4,117.9,114,73.1,100.6,15.5z"/>
<g>
	<path d="M87.8,74c3.8-12.4,7.6-24.8,11.4-37c0.4-1.9,1-3.8,1.4-5.7c3.8,14.3,7.6,28.5,11.4,42.8c-1.1,0.2-2.1,0.4-3.3,0.6
		l-3.2-10.5c-3.7,0.2-7.6,0.3-11.3,0.5c-1.2,3.3-2.2,6.6-3.4,9.9C89.8,74.4,88.8,74.2,87.8,74z M104.9,62.1l-5.1-17.5l-5.2,17.5
		H104.9z"/>
</g>
<g>
	<path d="M75.6,117.4c3.1-11.1,6.2-22.2,9.3-33.3h31.2c0.3,0.6,0.5,1.3,0.9,1.9c-10,0-20,0-30,0c-1,4.3-1.9,8.5-2.9,12.8
		c11.8,0,23.8,0,35.6,0c0.4,1,1,1.9,1.4,2.9c-12.8,0-25.6,0-38.5,0c-1.4,4.7-2.9,9.5-4.3,14.3c15.7,0,31.4,0,47.1,0
		c0.4,0.4,1,1,1.4,1.4C109.9,117.4,92.8,117.4,75.6,117.4z"/>
</g>
<g>
	<path d="M95.7,161.6c0.5-10,1.1-20,1.6-30c1.8,0,3.6,0,5.4,0c0.5,10,1,20,1.5,30C101.4,161.6,98.5,161.6,95.7,161.6z"/>
</g>
<g>
	<path d="M62.8,222.7c-9.5-5.9-14.2-13.8-14.2-23.5c0-10.1,4.7-18.1,14.2-24.2s22.1-9.1,37.9-9.1s28.4,3,37.9,9.1
		c9.5,6.1,14.2,14.1,14.2,24.2c0,9.7-4.7,17.5-14.2,23.5c-9.5,5.9-22.1,8.9-37.9,8.9S72.2,228.5,62.8,222.7z M132.7,219.8
		c8-5.1,12.1-12,12.1-20.6c0-8.9-4.1-15.9-12.1-21.2s-18.7-8-32.1-8s-24.1,2.7-32.1,8s-12.1,12.4-12.1,21.2
		c0,8.6,4.1,15.5,12.1,20.6c8,5.2,18.8,7.8,32.1,7.8S124.7,225,132.7,219.8z"/>
</g>
<g>
	<path d="M75.6,272.8c-7.9-5.6-12.3-12.3-14.3-15.7c-1.9-3.3-3.1-6.3-3.8-8.5v-17h7.7c0.1,5.7,0.2,11.3,0.3,17
		c0.6,1.5,1.5,3.4,2.9,5.7c1.8,3,6,9.7,14.3,14.3c1.5,0.9,8.6,4.6,18.6,4.3c3.4-0.1,13.8-0.5,22.8-8.5c6.4-5.7,9-12.4,10-15.7
		c0.1-5.7,0.2-11.3,0.3-17h7.7v17c-1,3.9-3.7,13.3-12.4,21.3c-1.8,1.7-13.1,11.8-30,11.4C87.7,281,79.2,275.3,75.6,272.8z"/>
</g>
<ellipse cx="100" cy="125.3" rx="3.5" ry="2.9"/>
</svg>
