<?xml version="1.0" encoding="utf-8"?>
<!-- Generator: Adobe Illustrator 23.1.1, SVG Export Plug-In . SVG Version: 6.00 Build 0)  -->
<svg version="1.1" id="Layer_1" xmlns="http://www.w3.org/2000/svg" xmlns:xlink="http://www.w3.org/1999/xlink" x="0px" y="0px"
	 viewBox="0 0 200 300" style="enable-background:new 0 0 200 300;" xml:space="preserve">
<style type="text/css">
	.st0{fill:#2F0F07;}
	.st1{fill:#FFB7CD;}
	.st2{fill:#D5D8C8;}
	.st3{fill:#B1AA85;}
	.st4{fill:#D1D4C0;}
	.st5{fill:#BCA180;}
	.st6{fill:#E0BDBB;}
	.st7{fill:#8E7556;}
	.st8{fill:#674E37;}
	.st9{fill:#ACA47C;}
	.st10{fill:#BEBC9F;}
	.st11{fill:#DCB3AC;}
	.st12{fill:#CBCAB2;}
	.st13{fill:#B9B48E;}
	.st14{fill:#C3C3A8;}
	.st15{fill:#A4986F;}
	.st16{fill:#BBB896;}
	.st17{fill:#DFB8B5;}
	.st18{fill:#D2A59A;}
	.st19{fill:#DAB1AA;}
	.st20{fill:#CDA093;}
	.st21{fill:#E4C3C1;}
	.st22{fill:#C59685;}
</style>
<g>
	<g>
		<path class="st0" d="M124.5,53.5c-0.1,0-0.2-0.1-0.2-0.2c0.1-0.1,0.1-0.2,0.2-0.2c0.1,0,0.2,0.1,0.3,0.2
			C124.7,53.4,124.6,53.5,124.5,53.5z M131,60.9c-0.5-0.5-0.9-1.2-1.3-1.8c-0.7-1.2-1.3-2.4-2.3-3.3c-0.3-0.3-0.5-0.7-0.7-1.1
			c-0.7-1.5-1.1-3.1-2.2-4.4c-1.1-1.3-1.8-3-2.2-4.6c-0.7-2.4-2-4.3-3.5-6.2c-1.4-1.8-3-3.4-3.8-5.6c-0.1-0.2-0.1-0.3-0.2-0.4
			c-1.1-1-2.1-2.1-3.2-3.2c-0.8-0.8-1.4-1.6-1.8-2.6c-0.7-1.7-1.9-2.8-3.9-2.9c-0.7,0-1.3-0.2-2-0.4c-1.2-0.5-2.4-0.4-3.5,0.2
			c-0.6,0.4-1,0.2-1.4-0.3c-0.2-0.4-0.5-0.8-1-0.8c-1.3-0.1-2.6-0.3-3.9-0.4c-0.4,0-0.8,0.1-1.2,0.2c-0.7,0.2-1.4,0.5-2.1,0.7
			c-0.9,0.2-1.5,0.7-1.8,1.6c-0.1,0.3-0.2,0.8-0.5,0.9c-1,0.4-1.2,1.2-1.4,2.1c-1.2,0.2-2,0.9-2,2.2c0,0.2-0.3,0.4-0.4,0.6
			c-0.7,0.8-1.5,1.6-2.2,2.4c-0.3,0.3-0.5,0.7-0.5,1.1c-0.2,1.3-0.4,2.7-0.6,4c-0.2,2.3-0.3,4.6-0.5,6.9c0,0.5-0.1,0.9-0.2,1.4
			c-0.9,2.4-1.9,4.8-2.9,7.1c-0.5,1-1.1,2-1.9,2.8c-0.8,0.7-1.5,1.3-1.8,2.4c-0.3,1.1-0.7,2.2-0.9,3.4c-0.2,1.4-0.6,2.6-2,3.4
			c-1.3,0.8-2,2.1-2.5,3.5c-0.1,0.4-0.2,0.9,0.5,1.2c0.3-1,1-1.7,2.1-1.7c1.5-0.1,2.7-0.7,4.1-1.7c0.1,1.9,0.1,3.6,0.2,5.4
			c0.1,0.2,0.2,0.4,0.3,0.6c0.1,0,0.2,0,0.2,0c1.2-0.5,2.3-1.4,3.7-1.7c0.6-0.1,1.1-0.9,1.7-1.4c0.2-0.3,0.4-0.7,0.6-1
			c0.1-0.1,0.1-0.2,0.2-0.3c0-0.2,0-0.3,0-0.5c0.4-1.8,1.3-3.3,2.2-4.8c0.2-0.5,0.4-1.1,0.6-1.6c0.1-0.4,0.2-0.7,0.3-1.1
			c0-0.6,0-1.1,0-1.7c-0.1-3.1-0.3-6.3-0.4-9.4c0-1,0.3-2,0.5-3c0.5-2.3,0.8-4.6,1.2-6.9c0.3-1.4,0.6-2.9,1.1-4.3
			c0.2-0.6,0.9-1.2,1.5-1.7c0.6-0.6,1.4-0.9,1.7-1.8c0.1-0.3,0.4-0.5,0.7-0.6c1.3-0.7,2.6-1.3,4.1-1.6c0.9-1,2.1-1.4,3.5-1.3
			c0.8,0.1,1.6-0.1,2.5-0.2c0.1,0.2,0.3,0.4,0.3,0.7c0,0.6,0.4,0.9,0.8,1.2c0.4,0.3,0.9,0.6,0.9,1.2c0.2,0.1,0.3,0.2,0.5,0.2
			c0.4,0,1-0.5,1.2,0.3c0.1,0.1,0.2,0.2,0.4,0.3c0.5-0.1,0.8,0.1,0.8,0.7l0,0.1c0.1,0.1,0.1,0.1,0.2,0.2c0.4,0.5,0.8,1,1.1,1.5
			c0.5,0.3,0.8,0.7,0.7,1.3c0.2,0.5,0.4,1,0.7,1.5c0.4,0.5,0.8,1.1,1.1,1.6c0.2,0.4,0.5,0.8,0.6,1.2c0.6,3,1,5.9,0.7,9
			c-0.2,2.3-0.3,4.6,0.2,7c0.4,1.5,0.5,3.1,0.8,4.7c0.1,0.1,0.3,0.2,0.4,0.4c0.2,0.1,0.3,0.1,0.4,0.2c0.1,0.1,0.1,0.2,0.2,0.3
			c0.2,0.2,0.3,0.3,0.5,0.5c0.1,0.1,0.1,0.3,0.2,0.4l0.1,0c0,0,0,0,0-0.1c0,0,0,0,0.1,0c0,0,0,0-0.1,0c0.2,0.1,0.3,0.2,0.5,0.4
			c0.5,0.5,0.9,1.1,1.4,1.6c0.3,0.1,0.6,0.2,0.9,0.4c0.3,0.2,0.5,0.3,0.6-0.1c0-0.2,0-0.3-0.1-0.5c0-0.1,0-0.1-0.1-0.2
			c0,0,0-0.1,0-0.1c-0.2-0.2-0.4-0.5-0.6-0.8c-0.5-0.6-1.2-1.1-1.5-1.8c-0.7-1.4-1.1-3-1.7-4.7c0.5,0.2,0.9,0.3,1.1,0.5
			c1,0.9,1.9,1.8,2.1,3.3c0.1,0.9,0.6,1.5,1.5,1.9c0.4,0.2,0.8,0.6,1.1,0.8c0.8,0.1,1.4,0.2,2.1,0.2c0.4-0.7,1.1-0.8,2-0.6
			c1.6,2.2,3,4.6,5.8,5.8c0.2-0.2,0.7-0.5,0.8-0.8c0.3-0.8,0.2-1.6-0.3-2.2c0.6-0.2,1.2-0.3,1.5-0.7C132.5,63.9,132.3,62.3,131,60.9
			z M113.5,36.1C113.5,36.1,113.5,36.1,113.5,36.1L113.5,36.1C113.5,36.1,113.5,36.1,113.5,36.1C113.5,36.1,113.5,36.1,113.5,36.1z
			 M113.8,37.3L113.8,37.3L113.8,37.3L113.8,37.3C113.8,37.3,113.8,37.3,113.8,37.3z M117.5,42.6L117.5,42.6c0,0,0,0.1,0.1,0.1
			C117.6,42.7,117.6,42.7,117.5,42.6z"/>
		<path class="st1" d="M96.8,176.2c-0.1,0-0.1-0.1-0.2-0.1C96.7,176.1,96.7,176.2,96.8,176.2L96.8,176.2
			C96.8,176.2,96.8,176.2,96.8,176.2z M96.9,176.2C96.9,176.2,96.9,176.2,96.9,176.2c0,0.1,0,0.2,0.1,0.4
			C97,176.4,96.9,176.3,96.9,176.2z"/>
		<path class="st2" d="M69.5,81.6c0.4,1.3-0.3,2.5-0.4,3.8c-0.1,0.6-0.2,1.2-0.4,1.8c-0.1,0.4-0.3,0.9-0.4,1.3
			c-0.1,0.5-0.2,1-0.3,1.4c-0.3,0.9-0.9,1.8-0.8,2.9c0,0.5-0.1,1-0.2,1.6c-1,0.1-0.4,0.8-0.5,1.2c-0.1,0.8,0,1.5-0.1,2.3
			c-0.3,2-0.6,4-1,6.1c-0.1,0.6-0.2,1.3-0.3,1.9c-0.4,0.9-0.8,1.8-0.7,2.8c-0.2,0.8-0.4,1.6-0.6,2.3c-0.4,0-0.8-0.2-1.2-0.1
			c-1,0.2-1,0.2-1.1,1.2c-0.1,1.1-0.5,2.2-1.4,3c0,0.1-0.1,0.3-0.1,0.4c-0.4,2.1-0.1,4.3-0.9,6.3c-0.2,0.4,0,1-0.1,1.5
			c0,0.3-0.3,0.6-0.4,0.8l-0.1,0c0,0.2,0,0.3-0.1,0.5c0,0.1,0,0.2,0,0.3c0,0.1,0,0.2,0.1,0.2c0,0.2,0,0.3,0.1,0.5
			c0.3,0.4,0.3,0.8-0.2,1.1c-0.1,0.4-0.2,0.8-0.2,1.2c0,0.3-0.1,0.7-0.1,1c0,0.2,0,0.5,0,0.8c0,0.2,0.1,0.3,0.1,0.5
			c0.2,0.4,0.3,0.8-0.2,1c0,0.2,0,0.5,0,0.7c0.1,0.7,0.2,1.3,0.2,2c0.1,1.7,0.2,3.4,0.2,5.2c0,0.5,0.1,0.8,0.6,1c0,0.1,0,0.3,0,0.4
			c-0.2,0.2-0.5,0.4-0.5,0.6c0.1,0.9,0.2,1.7,0.3,2.5c0,0.1,0.3,0.1,0.4,0.2c0.1,0.1,0.2,0.3,0.2,0.3c-0.6,0.5-0.4,1.1-0.3,1.7
			c0,0.2,0.2,0.6,0.1,0.7c-0.5,0.8-0.3,1.7-0.3,2.6c-0.1,0.5-0.4,1.1-0.3,1.6c0.2,0.9,0.1,1.8-0.3,2.7c-0.4,1-0.5,1.9-0.5,2.9
			c-0.6,0.5-0.6,1.1-0.2,1.7c0.1,0.1,0.2,0.2,0.2,0.2c0,0.3,0,0.7,0,1c-0.1,0.1-0.1,0.2-0.2,0.2c0,0.3,0,0.5,0,0.8
			c-0.2,0.9,0.3,1.8-0.1,2.7c0,0.1,0.1,0.2,0.2,0.3l-0.1,0.1c-0.7,0.1-0.9,0.5-0.6,1.1c0.2,0.5-0.1,0.7-0.3,1
			c-0.3,0.5-0.6,1-1.1,1.5c-0.5,0.4-1,0.9-1.7,0.4c-1.1-0.5-1.8-1.5-2.7-2.4c-1.8-1.7-3.8-3.2-5.4-5c-1.5-1.6-2.2-3.6-1.7-5.8
			c0.4-1.5,0.3-3.1,0.3-4.6c0-0.5-0.2-1-0.4-1.5c-0.2-0.6-0.4-1.2-0.6-1.8c-0.1-0.2-0.1-0.3-0.2-0.5c-0.2-0.8-0.4-1.7-0.5-2.5
			c-0.1-0.9-0.4-1.9-0.4-2.8c-0.1-2.5-0.1-5.1,0.6-7.6c0-0.5,0.1-0.9,0.1-1.4c-0.1-1.9,0-3.8-0.3-5.7c-0.4-2.9-0.5-5.7,0.1-8.5
			c0.5-2.4,0.8-4.9,1.4-7.3c0.9-3.8,2.7-7.2,4.9-10.4c1.2-1.8,2.3-3.6,3.5-5.4c1.3-2,2.4-4,4.1-5.7c0.6-0.6,1.4-1.1,2.1-1.6
			c2.4-1.6,4.9-3.1,7.4-4.6c0.5-0.3,1-0.5,1.4-0.8c0.1,0,0.2,0,0.3-0.1c0-0.1,0-0.1,0-0.2c0-0.6,0.1-1.2,0.1-1.7
			c0.4-1.2,1-2.2,2.4-2.3c0,0.2,0,0.5,0,0.7c0.1,0.3,0.2,0.5,0.3,0.8c-0.1,0.4-0.2,0.9-0.4,1.3c0,0.1,0,0.3,0,0.4
			C70.2,80.8,69.7,81.2,69.5,81.6z"/>
		<path class="st2" d="M95.8,198.6c-0.6,0-1.1,0.1-1.5,0.6c-0.2-0.1-0.4-0.3-0.6-0.4c-0.7-0.3-1.4-0.9-2.2-0.2
			c-0.3,0.2-0.8,0.2-1.2,0.3c-0.1,0.1-0.2,0.2-0.3,0.3c-0.1-0.2-0.2-0.3-0.3-0.5l0,0c-0.2-0.2-0.3-0.5-0.5-0.7
			c-0.9-0.5-1.1,0.4-1.5,0.8c-0.7,0.2-1-0.5-1.5-0.7c-0.3-0.2-0.6-0.3-1-0.5c-0.3,0.4-0.7,0.7-1,1h-0.5c-0.2-0.1-0.5-0.2-0.7-0.3
			c0-0.2,0-0.3,0-0.5c-0.2-0.2-0.3-0.3-0.5-0.5c-0.2,0-0.3,0-0.5,0c-0.2,0.9-1,0.8-1.6,0.9c-0.5-0.4-0.9-0.8-1.4-1.2
			c-0.4,0.5-0.7,0.9-1,1.3c-0.5-0.4-0.9-0.7-1.3-0.9c-0.7-0.5-0.9-0.5-1.5,0.4c0,0.2,0,0.5,0.1,0.7c-0.4,1.2-0.7,2.3-1.1,3.5
			c-0.3,1.4-0.6,2.7-0.9,4.1c0,0.1,0,0.2-0.1,0.2c-0.2,0.9-0.5,1.7-0.6,2.6c-0.5,4-0.9,8-1.3,12c-0.4,4.7,0.1,9.3,0.5,14
			c0.2,2.7,0.6,5.4,0.7,8.2c0.2,3.9,0.2,7.7,0.3,11.6c0.1,2.6,0.2,5.2,0.3,7.8c0.1,1,0.2,2,0.3,3c0.3,2.7,0.8,5.4,0.7,8.2
			c-0.1,1.5,0.2,2.8,0.7,4.2c0.1,0.4,0.1,0.9,0.3,1.2c0.5,0.7,1.1,1.4,1.7,2.1c0.9,0.9,1.8,1.6,3.1,1.7c0.8,0.1,1.6,0.2,2.3-0.3
			c0.1-0.1,0.2-0.1,0.2-0.2l0,0c1.2-0.3,2.1-1.2,3-2c0.4-0.5,0.8-1,1.3-1.5c0.5-0.4,1-0.8,1-1.5h0c1-0.5,1.4-1.5,1.7-2.4
			c0.5-1.7,0.8-3.4,1-5c0.3-2.3,0.4-4.7,0.6-7c0.1-1.1,0.2-2.2,0.3-3.3c0.2-2.6,0.5-5.2,0.7-7.7c0.2-1.9,0.4-3.8,0.6-5.8
			c0.3-2.6,0.6-5.2,0.9-7.8c0.2-1.8,0.4-3.5,0.6-5.3c0.3-2.6,0.6-5.2,0.9-7.7c0.2-1.8,0.4-3.6,0.6-5.4c0.2-2.6,0.5-5.3,0.7-7.9
			c0.1-0.9,0.2-1.9,0.2-2.8c0-0.2,0-0.3,0-0.5c0-0.2,0-0.3,0.1-0.5c0.1-0.4,0.1-0.9,0.2-1.3c0.1-0.4,0.2-0.8,0.2-1.2
			c0.1-1.2,0.1-2.4,0.1-3.6c0-1,0.2-1.9,0.2-3c0.4,0.1,0.7,0.2,1,0.2C97.6,198.4,96.6,198.6,95.8,198.6z M75.8,213.6L75.8,213.6
			L75.8,213.6L75.8,213.6z"/>
		<path class="st3" d="M75.8,213.6L75.8,213.6L75.8,213.6L75.8,213.6z"/>
		<path class="st4" d="M124.6,258.2L124.6,258.2C124.6,258.2,124.6,258.2,124.6,258.2L124.6,258.2z"/>
		<path class="st2" d="M158.7,120.2c-0.1,1.3-0.6,2.6-1,3.9c-0.2,0.6-0.5,1.2-0.8,1.8c-0.3,0.6-0.7,1.1-1.1,1.7
			c-0.9,1.2-2,2.2-2.9,3.5c-0.6,0.9-1,1.9-1.4,2.9c-1.3,3-2.6,6-3.7,9.1c-0.7,2-2,3.5-3.5,4.8c-0.6,0.5-1,1.1-0.8,2
			c-0.2,0.2-0.4,0.3-0.6,0.5c-0.2,0.2-0.4,0.3-0.6,0.5c0,0.2,0,0.3,0,0.5c-0.6-0.1-1.2-0.2-1.7-0.3l0,0c-0.2,0-0.3,0-0.5,0
			c-0.2,0-0.6,0-0.7,0.1c-0.8,0.9-2,0.4-2.8,1.1c-0.1,0.1-0.3,0-0.4,0c-0.7-0.3-1.5-0.7-2.2-1.1c-0.2-0.1-0.3-0.4-0.5-0.6
			c-0.3-0.2-0.6-0.4-0.9-0.5c-0.6-0.3-0.9-0.8-0.8-1.5c-0.1-0.2-0.2-0.3-0.2-0.5c-0.2-1.5-0.5-3-0.7-4.5c0-0.3,0-0.7,0-1
			c0.3-0.3,0.2-0.4-0.2-0.5c0-0.3-0.1-0.7-0.1-1c0-0.2,0-0.4,0-0.5c0-0.2,0-0.3,0-0.5c0-0.2,0-0.3,0-0.5c0-0.2,0-0.3,0-0.5
			c0-0.4,0.2-0.9,0.1-1.3c-0.4-1.6-0.5-3.1,0.2-4.6c0.1-0.3,0.2-0.7,0.2-1.1l-0.1-0.1c0-0.3,0-0.7,0-1c0.1-0.2,0.2-0.5,0.3-0.7
			c0.7,0.1,1-0.5,1.2-1c0.8-1.8,1.9-3.5,2.2-5.5c0.1-0.8,0.8-1.4,1.1-2.2c0.5-1,1.1-2,2-2.8c0.1-0.1,0.2-0.1,0.2-0.2
			c-0.2-1.1,1.2-1.2,1.2-2.1c-0.1-0.2-0.2-0.4-0.3-0.7c0.8-0.3,1.7-1.5,2-2.5c0.3,0,0.6-0.1,0.9-0.1c0-0.3,0-0.6-0.1-1
			c-0.5-0.7-0.7-1.5-0.8-2.3c-0.2-0.5-0.3-1-0.5-1.5c-0.6-0.5-0.5-1.1-0.5-1.8c-0.5-0.1-0.6-0.4-0.8-0.8c-0.8-2.2-1.7-4.4-2.5-6.5
			c-0.1,0-0.2,0-0.3,0c0.1-0.3,0.2-0.6,0.1-0.8c0-0.2-0.2-0.3-0.4-0.4v-0.2c-0.1,0-0.2,0-0.2,0c-0.2-0.4-0.3-0.8-0.5-1.3
			c-0.7-0.1-0.5-0.6-0.5-1c0-0.1,0-0.2,0-0.2h-0.5v-1c-0.4,0-0.7-0.1-0.7-0.6c0-0.6-0.1-1.1-0.1-1.7c-0.4-0.3-0.4-0.7,0-1v-0.5
			c-0.1-1.2-0.2-2.4-0.3-3.6c0-0.1-0.1-0.1-0.2-0.2c0.2-0.8-0.3-1.3-0.5-2c-0.4-0.7-0.3-1.3,0.2-1.8c0-0.3,0-0.5,0-0.8
			c-0.3-0.1-0.9,0.1-0.5-0.5c0-0.6,0-1.2,0-1.8c0-0.1,0-0.2,0-0.2c-0.1,0.1-0.2,0.2-0.5,0.4c-0.1-0.9-0.2-1.6-0.3-2.4
			c-0.7-0.3-1.3-0.7-2-1c-0.3-0.6-0.7-1.2-1-1.8c0-0.2,0-0.3,0-0.5V74c0-0.2,0-0.5,0-0.7c0-0.1,0-0.2,0-0.3c0.6,0.4,1.2,0.9,1.8,1.3
			c0.2,0.1,0.3,0.2,0.5,0.3c0.3,0.2,0.7,0.5,1,0.7c0.3,0.3,0.5,0.6,0.8,1c0.3,0.3,0.6,0.5,1,0.8c0.1,0.1,0.2,0.2,0.3,0.3
			c0.9,0.8,2,1.2,3.1,1.6c1.3,0.3,2.6,1,3.6,1.9c1.2,1,2.5,2,3.7,3c0.3,0.2,0.5,0.6,0.7,0.9c0.7,0.1,1.2,0.4,1.5,1
			c0.3,0.3,0.6,0.6,0.8,0.9c1.2,3.3,2.4,6.6,3.6,10c0.8,2.2,1.4,4.4,2.3,6.5c0.5,1.1,1.3,2.1,2,3.2c0.9,1.5,1.8,2.9,2.6,4.4
			c0.4,0.7,0.5,1.5,0.7,2.2C158.9,115.4,158.9,117.8,158.7,120.2z"/>
		<path class="st2" d="M131.4,208.2c-0.1-0.8-0.2-1.7-0.2-2.5c0-1.1,0-2.3,0-3.4c0-0.5,0-1,0-1.5c0-0.4,0.1-0.8,0.1-1.2
			c-0.6,0.2-1,0.9-1.8,0.8c-0.2,0-0.3,0-0.5,0c-0.7-0.1-1.3-0.2-2-0.2c-0.4-0.5-0.6,0-0.8,0.2c-0.2,0-0.5,0-0.7,0
			c-0.8-0.7-1.6-1.2-2.5-0.2c-0.1,0.2-0.5,0.1-0.8,0.2c-0.1,0-0.1,0-0.2,0c-0.1,0-0.2,0-0.3,0c-0.6-0.8-0.9-1-1.5-0.4
			c-0.5,0.5-1,0.3-1.5,0.2c-0.6-0.3-1.3-0.9-2-0.3c-0.2,0.5-0.6,0.5-1.1,0.5c-0.2-0.1-0.5-0.2-0.7-0.4c-0.4-0.2-0.7-0.5-1.1-0.7
			c-1.3,0.9-1.4,0.9-2.8,0.4c-0.2-0.1-0.4-0.1-0.6-0.1c-0.2-0.1-0.3-0.2-0.5-0.2c-0.2,0-0.4-0.1-0.6,0c-0.5,0.2-1,0.5-1.5,0.8
			c0.3,0.1,0.6,0.3,1,0.5v6.1c0,0.6,0,1.1,0,1.7c0,0.2-0.1,0.4-0.1,0.6c0,3.5-0.1,7,0,10.4c0.1,1.6,0.6,3.1,1,4.6
			c0.1,0.5,0.1,0.9,0.2,1.4c0.4,1.9,0.9,3.8,1.1,5.7c0.2,2.9,0,5.7-0.4,8.6c-0.4,2.5-0.7,5.1-0.9,7.6c-0.2,3.4,0.3,6.8,0.9,10.1
			c0.4,2.2,0.3,4.3-0.6,6.3c-0.8,1.7-0.9,3.4-0.9,5.2c0,0.6,0.2,1.1,0.7,1.4c0.3,0.2,0.6,0.4,0.8,0.6c0.9,0.8,1.9,1.5,2.8,2.3
			c0.9,0.6,1.7,1.3,2.6,1.8c1.2,0.6,2.4,1.5,3.9,1.6c0.9,0.3,1.7,0.3,2.6,0c0.2,0,0.3,0,0.5,0c0.5-0.1,1.1,0.3,1.3-0.5
			c0.4-0.8,0.8-1.6,1.2-2.5c0.4-0.8,0.8-1.7,1.3-2.5c0.5-0.9,1-1.7,1.6-2.6c0.4-0.7,0.9-1.3,1.4-1.9c0.5-0.6,0.9-1.1,0.8-1.9
			c0-0.2,0-0.5,0.1-0.7c0.5-1.9,0.3-3.8,0-5.7c-0.3-1.9-0.6-3.9-0.6-5.9c-0.1-3.5-0.1-7,0-10.5c0.1-3.6-0.1-7.1,0.2-10.7
			c0.3-3.3,0.4-6.7,0.5-10.1c0.1-2.2,0.2-4.4,0.3-6.7c0-0.2,0-0.4,0-0.6c0.1-1.6,0.3-3.2,0.4-4.7
			C131.5,208.7,131.4,208.4,131.4,208.2z M124.6,258.2L124.6,258.2L124.6,258.2C124.6,258.2,124.6,258.2,124.6,258.2z"/>
		<path class="st1" d="M147.4,169.4c-0.9-0.1-0.4-0.8-0.5-1.2c0.1-0.2,0.2-0.3,0.2-0.5C147.2,168.2,147.3,168.8,147.4,169.4z"/>
		<path class="st1" d="M148.6,190.4c-0.6,0-0.8-0.3-0.9-0.9c0.3,0,0.5-0.1,0.8-0.1C148.5,189.7,148.6,190.1,148.6,190.4z"/>
		<path class="st1" d="M148.3,175.5c-0.7-0.7-0.8-0.9-0.1-1.3C148.2,174.6,148.2,175,148.3,175.5z"/>
		<path class="st1" d="M145.6,158.5c-0.5-0.1-0.6-0.4-0.2-0.8C145.4,158,145.5,158.3,145.6,158.5z"/>
		<path class="st1" d="M145.8,159.5c-0.2-0.1-0.4-0.2-0.6-0.3l0.4-0.2C145.7,159.2,145.7,159.4,145.8,159.5z"/>
		<path class="st1" d="M146.8,165.3c-0.5-0.1-0.6-0.4-0.2-0.8C146.7,164.8,146.8,165.1,146.8,165.3z"/>
		<path class="st1" d="M147.1,166.9c-0.5-0.1-0.6-0.4-0.2-0.8C146.9,166.3,147,166.6,147.1,166.9z"/>
		<path class="st1" d="M148.4,177c-0.1-0.1-0.2-0.2-0.4-0.3c0.1-0.1,0.2-0.2,0.3-0.3C148.3,176.6,148.3,176.8,148.4,177z"/>
		<path class="st1" d="M66.5,196.7c0.1,0.1,0.1,0.1,0.2,0.2C66.7,196.8,66.6,196.7,66.5,196.7z"/>
		<path class="st5" d="M67.5,81.3c-0.1,0-0.2,0-0.3,0.1c0.1-0.1,0.2-0.2,0.2-0.2C67.6,81.1,67.6,81.2,67.5,81.3z"/>
		<path class="st6" d="M117.7,64.6C117.7,64.6,117.6,64.6,117.7,64.6c-0.1,0-0.1,0-0.1-0.1c0,0,0-0.1,0-0.1
			C117.6,64.5,117.7,64.5,117.7,64.6z"/>
		<path class="st1" d="M87,76.8c0,0-0.1,0-0.1-0.1C86.9,76.7,86.9,76.8,87,76.8L87,76.8z M147.7,189.5c0.3,0,0.5-0.1,0.8-0.1
			c0-0.7,0-1.4,0-2.1c0.5-1.5,0.5-3,0.4-4.5c-0.1-2-0.3-3.9-0.5-5.9c-0.1-0.1-0.2-0.2-0.4-0.3c0.1-0.1,0.2-0.2,0.3-0.3
			c0-0.3,0-0.7-0.1-1c-0.7-0.7-0.8-0.9-0.1-1.3c-0.2-1.6-0.5-3.2-0.7-4.8c-0.9-0.1-0.4-0.8-0.5-1.2c0.1-0.2,0.2-0.3,0.2-0.5
			c0-0.2,0-0.5,0-0.8c-0.5-0.1-0.6-0.4-0.2-0.8c0-0.2,0-0.5-0.1-0.8c-0.5-0.1-0.6-0.4-0.2-0.8c-0.2-0.8-0.3-1.5-0.5-2.3
			c-0.1-0.9-0.2-1.8-0.4-2.8c-0.2-0.1-0.4-0.2-0.6-0.3l0.4-0.2c0-0.2,0-0.3,0-0.5c-0.5-0.1-0.6-0.4-0.2-0.8c-0.3-1.7-0.6-3.3-1-5
			c-0.2-1-0.5-1.9-0.8-2.9c-0.2,0.2-0.4,0.3-0.6,0.5c-0.2,0.2-0.4,0.3-0.6,0.5c0,0.2,0,0.3,0,0.5c-0.6-0.1-1.2-0.2-1.7-0.3l0,0
			c-0.2,0-0.3,0-0.5,0c-0.2,0-0.6,0-0.7,0.1c-0.8,0.9-2,0.4-2.8,1.1c-0.1,0.1-0.3,0-0.4,0c-0.7-0.3-1.5-0.7-2.2-1.1
			c-0.2-0.1-0.3-0.4-0.5-0.6c-0.3-0.2-0.6-0.4-0.9-0.5c-0.6-0.3-0.9-0.8-0.8-1.5c-0.1-0.2-0.2-0.3-0.2-0.5c-0.2-1.5-0.5-3-0.7-4.5
			c0-0.3,0-0.7,0-1c0.3-0.3,0.2-0.4-0.2-0.5c0-0.3-0.1-0.7-0.1-1c0-0.2,0-0.4,0-0.5c0-0.2,0-0.3,0-0.5c0-0.2,0-0.3,0-0.5
			c0-0.2,0-0.3,0-0.5c0-0.4,0.2-0.9,0.1-1.3c-0.4-1.6-0.5-3.1,0.2-4.6c0.1-0.3,0.2-0.7,0.2-1.1l-0.1-0.1c0-0.3,0-0.7,0-1
			c0.1-0.2,0.2-0.5,0.3-0.7c0.7,0.1,1-0.5,1.2-1c0.8-1.8,1.9-3.5,2.2-5.5c0.1-0.8,0.8-1.4,1.1-2.2c0.5-1,1.1-2,2-2.8
			c0.1-0.1,0.2-0.1,0.2-0.2c-0.2-1.1,1.2-1.2,1.2-2.1c-0.1-0.2-0.2-0.4-0.3-0.7c0.8-0.3,1.7-1.5,2-2.5c0.3,0,0.6-0.1,0.9-0.1
			c0-0.3,0-0.6-0.1-1c-0.5-0.7-0.7-1.5-0.8-2.3c-0.2-0.5-0.3-1-0.5-1.5c-0.6-0.5-0.5-1.1-0.5-1.8c-0.5-0.1-0.6-0.4-0.8-0.8
			c-0.8-2.2-1.7-4.4-2.5-6.5c-0.1,0-0.2,0-0.3,0c0.1-0.3,0.2-0.6,0.1-0.8c0-0.2-0.2-0.3-0.4-0.4v-0.2c-0.1,0-0.2,0-0.2,0
			c-0.2-0.4-0.3-0.8-0.5-1.3c-0.7-0.1-0.5-0.6-0.5-1c0-0.1,0-0.2,0-0.2h-0.5v-1c-0.4,0-0.7-0.1-0.7-0.6c0-0.6-0.1-1.1-0.1-1.7
			c-0.4-0.3-0.4-0.7,0-1v-0.5c-0.1-1.2-0.2-2.4-0.3-3.6c0-0.1-0.1-0.1-0.2-0.2c0.2-0.8-0.3-1.3-0.5-2c-0.4-0.7-0.3-1.3,0.2-1.8
			c0-0.3,0-0.5,0-0.8c-0.3-0.1-0.9,0.1-0.5-0.5c0-0.6,0-1.2,0-1.8c0-0.1,0-0.2,0-0.2c-0.1,0.1-0.2,0.2-0.5,0.4
			c-0.1-0.9-0.2-1.6-0.3-2.4c-0.7-0.3-1.3-0.7-2-1c-0.3-0.6-0.7-1.2-1-1.8c0-0.2,0-0.3,0-0.5V74c0-0.2,0-0.5,0-0.7
			c0-0.1,0-0.2,0-0.3c-0.6-0.7-1.1-1.4-1.7-1.9c-1.3-1.1-2.8-2.2-4.4-2.9c-1.2-0.5-2.4-1.2-3.5-1.9c-0.4-0.3-0.7-0.7-1.1-1.1
			c-0.1,0.4-0.4,0.3-0.6,0.1c-0.3-0.2-0.6-0.3-0.9-0.4c-0.4-0.5-0.9-1.1-1.4-1.6c-0.1-0.1-0.3-0.3-0.5-0.4l0,0l-0.1,0
			c-0.1,0-0.1,0-0.2,0.1c0,0.2,0,0.3,0,0.5c0.1,0.4,0.2,0.8,0.3,1.3c-0.5,0.3-1,0.5-1.5,0.8c-0.2,0.3-0.5,0.5-0.8,0.8
			c0.1,0.6-0.2,0.8-0.8,0.8l0,0c-0.3,0.1-0.7,0.2-0.9,0.4c-0.3,0.2-0.6,0.6-0.8,0.9c-0.1,0.2-0.2,0.3-0.3,0.5
			c-0.2,0.2-0.3,0.3-0.5,0.5c-0.3,0.3-0.5,0.7-0.8,1c-0.3,0.1-0.7,0.1-0.9,0.4c-0.7,1.1-1.5,1.9-2.7,2.5c-0.1,0.1-0.2,0.3-0.2,0.4
			c-0.2-0.1-0.3-0.2-0.5-0.2c-0.2,0-0.5,0-0.7,0c-0.4,0.2-0.8,0.3-1.3,0.5c-0.2,0.1-0.3,0.2-0.5,0.2c-0.1,0-0.2,0-0.2,0
			c-0.4-0.1-0.9-0.2-1.3-0.3c-0.2,0-0.4,0.1-0.6,0.1c-1.1-0.5-2.1-1-3.1-1.6c-0.4-0.2-0.9-0.4-1.3-0.6c0,0,0-0.1,0-0.1
			c0,0,0-0.1,0.1-0.1c0-0.1,0-0.2,0-0.2L94.3,71c-0.3,0.1-0.5,0.2-0.8,0.2h-0.2c0-0.2,0-0.4-0.1-0.5c-0.8-0.2-1.5-0.3-2.2-0.5
			c-0.1-0.2-0.2-0.4-0.3-0.5c-1-0.3-2-0.5-3.1-0.8c-0.1,0-0.3,0.1-0.4,0.2c-1-0.1-2-0.2-3-0.2c-0.8,0-1.6,0.1-2.3,0.2
			c-0.1,0-0.1,0-0.2,0c-0.2,0.3-0.4,0.7-0.6,1c-0.6,0.5-1,1.3-1.7,1.4c-1.4,0.3-2.4,1.2-3.7,1.7c-0.1,0-0.2,0-0.2,0
			c-0.1-0.2-0.2-0.4-0.3-0.6c-0.4,0.5-0.7,1.1-1.2,1.5c-1,0.8-2.1,1.6-3.2,2.4c-0.2,0.2-0.5,0.3-0.8,0.5c0,0.2,0,0.5,0,0.7
			c0.1,0.3,0.2,0.5,0.3,0.8c-0.1,0.4-0.2,0.9-0.4,1.3c0,0.1,0,0.3,0,0.4c0.2,0.6-0.2,0.9-0.4,1.3c0.4,1.3-0.3,2.5-0.4,3.8
			c-0.1,0.6-0.2,1.2-0.4,1.8c-0.1,0.4-0.3,0.9-0.4,1.3c-0.1,0.5-0.2,1-0.3,1.4c-0.3,0.9-0.9,1.8-0.8,2.9c0,0.5-0.1,1-0.2,1.6
			c-1,0.1-0.4,0.8-0.5,1.2c-0.1,0.8,0,1.5-0.1,2.3c-0.3,2-0.6,4-1,6.1c-0.1,0.6-0.2,1.3-0.3,1.9c-0.4,0.9-0.8,1.8-0.7,2.8
			c-0.2,0.8-0.4,1.6-0.6,2.3c-0.4,0-0.8-0.2-1.2-0.1c-1,0.2-1,0.2-1.1,1.2c-0.1,1.1-0.5,2.2-1.4,3c0,0.1-0.1,0.3-0.1,0.4
			c-0.4,2.1-0.1,4.3-0.9,6.3c-0.2,0.4,0,1-0.1,1.5c0,0.3-0.3,0.6-0.4,0.8l-0.1,0c0,0.2,0,0.3-0.1,0.5c0,0.1,0,0.2,0,0.3
			c0,0.1,0,0.2,0.1,0.2c0,0.2,0,0.3,0.1,0.5c0.3,0.4,0.3,0.8-0.2,1.1c-0.1,0.4-0.2,0.8-0.2,1.2c0,0.3-0.1,0.7-0.1,1
			c0,0.2,0,0.5,0,0.8c0,0.2,0.1,0.3,0.1,0.5c0.2,0.4,0.3,0.8-0.2,1c0,0.2,0,0.5,0,0.7c0.1,0.7,0.2,1.3,0.2,2
			c0.1,1.7,0.2,3.4,0.2,5.2c0,0.5,0.1,0.8,0.6,1c0,0.1,0,0.3,0,0.4c-0.2,0.2-0.5,0.4-0.5,0.6c0.1,0.9,0.2,1.7,0.3,2.5
			c0,0.1,0.3,0.1,0.4,0.2c0.1,0.1,0.2,0.3,0.2,0.3c-0.6,0.5-0.4,1.1-0.3,1.7c0,0.2,0.2,0.6,0.1,0.7c-0.5,0.8-0.3,1.7-0.3,2.6
			c-0.1,0.5-0.4,1.1-0.3,1.6c0.2,0.9,0.1,1.8-0.3,2.7c-0.4,1-0.5,1.9-0.5,2.9c-0.6,0.5-0.6,1.1-0.2,1.7c0.1,0.1,0.2,0.2,0.2,0.2
			c0,0.3,0,0.7,0,1c-0.1,0.1-0.1,0.2-0.2,0.2c0,0.3,0,0.5,0,0.8c-0.2,0.9,0.3,1.8-0.1,2.7c0,0.1,0.1,0.2,0.2,0.3
			c0,0,0.1,0.1,0.1,0.1c0,0-0.1-0.1-0.1-0.1c-0.7,0.1-0.9,0.5-0.6,1.1c0.2,0.5-0.1,0.7-0.3,1c0.1,0.2,0.3,0.5,0.2,0.8
			c0,1.1-0.1,2.2-0.2,3.3c0,0.3,0.1,0.5,0.1,0.8c-0.1,0.1-0.1,0.2-0.2,0.3c-0.1,0.2-0.2,0.5-0.2,0.7c-0.2,2.5-0.4,4.9-0.6,7.4
			c-0.1,1.2-0.2,2.3-0.2,3.5c-0.1,0.8-0.2,1.7-0.3,2.5c0,1.3,0,2.5,0,3.8c-0.5,1.2,0,2.3,0.5,3.2c0.3,0.7,0.9,1.4,1.8,1.5v-0.8
			c1.4-1.1,2,0.6,3.1,0.9c0.1-0.4,0.2-0.7,0.3-1.2c0.1,0.3,0.2,0.5,0.2,0.7c0.7-0.3,1.3,0.1,1.6,0.7c0.3,0.5,0.8,0.5,1.3,0.5
			c0.3-0.2,0.7-0.3,1-0.5c0.6,0.4,1.1,0.9,1.5,1.2c0.7-0.2,1.3-0.5,2-0.7c0.4,0.4,0.7,0.9,1.1,1.3c0.6-0.2,1.1-0.5,1.8-0.8
			c0.2,0.2,0.5,0.4,0.8,0.7c-0.2,0.1-0.3,0.2-0.4,0.2c-0.3,0-0.7,0-0.6,0.4c0,0.2,0.4,0.3,0.6,0.4c0.1,0.1,0.2,0,0.4,0
			c1.2,0,1.2,0,1.6,1.1c0.4,0.1,0.9,0.2,1.3,0.3c0.7-0.9,0.8-0.9,1.5-0.4c0.4,0.2,0.7,0.5,1.3,0.9c0.3-0.4,0.6-0.8,1-1.3
			c0.5,0.4,0.9,0.8,1.4,1.2c0.6-0.2,1.4,0,1.6-0.9c0.2,0,0.3,0,0.5,0c0.4-0.3,0.5-0.3,0.5,0.5c0,0.2,0,0.3,0,0.5
			c0.2,0.1,0.5,0.2,0.7,0.3h0.5c0.3-0.3,0.6-0.7,1-1c0.4,0.2,0.7,0.4,1,0.5c0.5,0.2,0.8,0.9,1.5,0.7c0.5-0.4,0.7-1.2,1.5-0.8
			c0.2,0.2,0.3,0.5,0.5,0.7c0.2,0.1,0.3,0.2,0.5,0.3c0.4-0.1,0.9-0.1,1.2-0.3c0.8-0.7,1.5-0.2,2.2,0.2c0.2,0.1,0.4,0.2,0.6,0.4
			c0.3-0.6,0.9-0.7,1.5-0.6c0.9,0.1,1.8-0.2,2.3,0.9c0.5,0.4,0.8,0,1.2-0.2c0.4-0.3,0.7-0.4,1.1-0.1c0.7,0.7,1.4,0.6,2.2,0.1
			c0.2-0.1,0.4-0.2,0.6-0.3c0.5,0.4,0.9,0.8,1.4,1.3c0.6-0.4,1.1-0.8,1.6-1.2c0.5,0.3,1,0.6,1.4,0.9c0.5-0.3,1-0.6,1.5-0.8
			c0.2-0.1,0.4,0,0.6,0c0.2,0.1,0.3,0.2,0.5,0.2c0.2,0,0.4,0.1,0.6,0.1c1.5,0.5,1.5,0.5,2.8-0.4c0.3,0.2,0.7,0.5,1.1,0.7
			c0.2,0.1,0.5,0.2,0.7,0.4c0.4,0,0.9-0.1,1.1-0.5c0.8-0.6,1.4,0,2,0.3c0.5,0.1,1,0.2,1.5-0.2c0.6-0.6,0.9-0.4,1.5,0.4
			c0.1,0,0.2,0,0.3,0c0.1,0,0.1,0,0.2,0c0.3-0.1,0.6,0,0.8-0.2c0.9-1,1.7-0.5,2.5,0.2c0.2,0,0.5,0,0.7,0c0.2-0.3,0.3-0.7,0.8-0.2
			c0.7,0.1,1.3,0.2,2,0.2c0.2-0.3,0.4-0.3,0.5,0c0.8,0.2,1.2-0.6,1.8-0.8c0.6,0.1,1.2,0.6,1.6,0.4c0.9-0.3,1.7-0.4,2.6-0.3
			c0.6,0,1.2-0.2,1.7-0.3c1.5-0.3,3-0.5,4.4-0.8c0.2,0,0.4,0.1,0.6,0.1c0.4,0.1,0.9,0.2,1.5,0.3c0.3-0.6,0.8-1,1.5-0.6
			c0.8,0.4,1.5,0.3,2.1-0.3c0.4,0.1,0.7,0.2,1.2,0.3c0-1,0-1.9,0-2.8c0-1.1,0.1-2.3,0.1-3.4v-1.3c0-0.2,0-0.3,0-0.5
			C148,190.4,147.8,190.1,147.7,189.5z"/>
		<path class="st1" d="M87,76.8L87,76.8c0,0-0.1,0-0.1-0.1C86.9,76.7,86.9,76.8,87,76.8z"/>
		<path class="st7" d="M84.9,62.6c-0.2,0.3-0.3,0.7-0.5,1h-0.2c0.2-0.5,0.4-1.1,0.6-1.6C84.8,62.2,84.9,62.4,84.9,62.6z"/>
		<path class="st8" d="M113.5,36.1C113.5,36.1,113.5,36.1,113.5,36.1C113.5,36.1,113.5,36.1,113.5,36.1L113.5,36.1z"/>
		<path class="st8" d="M113.8,37.3C113.8,37.3,113.8,37.3,113.8,37.3L113.8,37.3L113.8,37.3L113.8,37.3z"/>
		<path class="st8" d="M124.8,53.3c-0.1,0.1-0.2,0.2-0.3,0.2c-0.1,0-0.2-0.1-0.2-0.2c0.1-0.1,0.1-0.2,0.2-0.2
			C124.6,53.1,124.7,53.2,124.8,53.3z"/>
		<path class="st8" d="M113.5,36.1L113.5,36.1C113.5,36.1,113.5,36.1,113.5,36.1L113.5,36.1z"/>
		<path class="st8" d="M117.6,42.8c0,0,0-0.1-0.1-0.1h0C117.6,42.7,117.6,42.7,117.6,42.8z"/>
		<path class="st9" d="M81.9,69.2c-0.1,0-0.1,0-0.2,0c0.1-0.1,0.1-0.2,0.2-0.3C81.9,69,81.9,69.1,81.9,69.2z"/>
		<path class="st10" d="M114.3,62.8C114.3,62.8,114.3,62.9,114.3,62.8L114.3,62.8C114.3,62.8,114.3,62.8,114.3,62.8
			C114.3,62.8,114.3,62.8,114.3,62.8z"/>
		<path class="st1" d="M91.7,169.9c0,0.1,0,0.3,0,0.5L91.7,169.9c0-0.1,0.1-0.2,0.1-0.4C91.8,169.7,91.8,169.8,91.7,169.9z
			 M92,173.6C92,173.6,92.1,173.6,92,173.6L92,173.6c-0.1,0.4-0.2,0.7-0.3,1.1C91.8,174.4,91.9,174,92,173.6L92,173.6L92,173.6z
			 M96.6,176.1c0.1,0,0.1,0.1,0.2,0.1v0C96.7,176.2,96.7,176.1,96.6,176.1z"/>
		<path class="st1" d="M117.8,170.3L117.8,170.3c0,0,0.1-0.1,0.1-0.2C117.9,170.2,117.9,170.3,117.8,170.3z M117.4,170.9
			c0.1-0.2,0.2-0.3,0.4-0.5c0,0,0,0,0,0C117.7,170.6,117.5,170.7,117.4,170.9z"/>
		<path class="st1" d="M101.1,133.2C101.1,133.2,101.1,133.2,101.1,133.2L101.1,133.2C101.1,133.3,101.1,133.3,101.1,133.2
			C101.1,133.3,101.1,133.3,101.1,133.2C101.1,133.2,101.1,133.2,101.1,133.2L101.1,133.2C101.1,133.2,101.1,133.2,101.1,133.2
			C101.1,133.2,101.1,133.2,101.1,133.2z"/>
		<path class="st1" d="M113.5,136.7L113.5,136.7C113.5,136.7,113.5,136.7,113.5,136.7C113.5,136.7,113.5,136.7,113.5,136.7
			C113.5,136.7,113.5,136.7,113.5,136.7z M114.2,140L114.2,140L114.2,140L114.2,140L114.2,140z M114.3,140L114.3,140
			c0,0.1,0,0.1,0.1,0.2C114.3,140.2,114.3,140.1,114.3,140z"/>
		<path class="st1" d="M114,175.9c-0.3,0.5-0.6,1-0.9,1.4c-0.9-0.2-1.8-0.4-1.6-1.7c0.3,0.3,0.5,0.5,0.9,0.9c0.1-0.3,0.1-0.6,0.2-1
			C113.1,175.4,113.6,175.3,114,175.9z"/>
		<path class="st1" d="M116.3,179c-0.9,0.2-1.4,0.3-2.1,0.4c-0.1-0.7-0.2-1.2-0.2-1.8C114.6,178,115.3,178.4,116.3,179z"/>
		<path class="st1" d="M126.4,186.8h-0.2c-0.2-0.3-0.5-0.5-0.6-0.8c-0.1-0.2-0.1-0.6-0.1-1C126.4,185.5,126.4,186.2,126.4,186.8z"/>
		<path class="st1" d="M116.2,196.6c-0.4,0.4-0.6,0.6-0.9,0.9c-0.1-0.2-0.2-0.4-0.2-0.5C115.1,196.3,115.5,196.5,116.2,196.6z"/>
		<path class="st1" d="M135.1,195.1c-0.1,0.4-0.3,0.6-0.7,0.4c-0.1,0-0.2-0.3-0.1-0.4C134.6,194.8,134.9,194.9,135.1,195.1z"/>
		<path class="st1" d="M115.5,172.2c-0.2-0.3-0.3-0.5-0.5-0.8C115.8,171.5,115.9,171.5,115.5,172.2z"/>
		<path class="st1" d="M113.5,166.2c-0.1,0.1-0.1,0.2-0.2,0.3c-0.1-0.1-0.2-0.2-0.3-0.3c0,0,0.1-0.2,0.2-0.2
			C113.3,166,113.4,166.1,113.5,166.2z"/>
		<path class="st1" d="M111.2,153.2c-0.1,0-0.1,0-0.2,0.1c-0.1-0.2-0.1-0.3-0.2-0.4c0.1,0,0.2-0.1,0.2-0.1
			C111.1,152.9,111.2,153.1,111.2,153.2z"/>
		<path class="st1" d="M107.4,155h-0.5v-0.5c0.1-0.1,0.2-0.2,0.3-0.2C107.3,154.5,107.4,154.7,107.4,155z"/>
		<path class="st11" d="M129.4,200.2c-0.2,0-0.3,0-0.5,0C129.1,200,129.3,200,129.4,200.2z"/>
		<path class="st1" d="M136.1,194.4c0,0,0,0.1-0.1,0.2c-0.1,0-0.2,0-0.2-0.1c0,0,0.1-0.1,0.1-0.2C136,194.3,136.1,194.3,136.1,194.4
			z"/>
		<path class="st1" d="M114.7,194.1c0,0.1,0,0.2-0.1,0.2c-0.1,0-0.2,0-0.2-0.1c0-0.1,0-0.2,0.1-0.2
			C114.5,194,114.6,194.1,114.7,194.1z"/>
		<path class="st1" d="M109.9,186.8c0,0.1,0,0.2-0.1,0.2c0,0-0.1-0.1-0.2-0.1c0-0.1,0.1-0.1,0.1-0.2
			C109.7,186.7,109.8,186.7,109.9,186.8z"/>
		<path class="st1" d="M109.5,185.8c-0.2,0.2-0.3,0.3-0.5,0.5v-0.5H109.5z"/>
		<path class="st1" d="M115.3,172.4v0.5c-0.1-0.1-0.3-0.2-0.4-0.3C115,172.5,115.1,172.5,115.3,172.4z"/>
		<path class="st1" d="M115.8,173.2c-0.4,0.4-0.5,0.1-0.5-0.3C115.4,173,115.6,173.1,115.8,173.2z"/>
		<path class="st1" d="M110.4,176.2C110.4,176.3,110.3,176.3,110.4,176.2c-0.1,0-0.1,0-0.1-0.1c0,0,0.1,0,0.1,0
			C110.4,176.2,110.4,176.2,110.4,176.2z"/>
		<polygon class="st1" points="111.8,189.8 111.7,189.9 111.8,189.8 		"/>
		<path class="st1" d="M111.5,175.7c0,0-0.1,0-0.1-0.1C111.4,175.7,111.5,175.7,111.5,175.7L111.5,175.7z"/>
		<path class="st1" d="M110,174.9c0,0,0.1,0,0.1,0.1C110,175,110,175,110,174.9L110,174.9z"/>
		<path class="st1" d="M104.9,162.5c-0.8-0.3-0.5-0.9-0.5-1.5c0.3-0.1,0.7-0.1,1.1-0.2C105.8,161.6,105.7,162.1,104.9,162.5z"/>
		<path class="st1" d="M102.6,186.4v1.2c-0.7-0.1-0.7-0.7-0.8-1.3C102.1,186.3,102.3,186.3,102.6,186.4z"/>
		<path class="st1" d="M96.4,177.9c-0.4-0.1-0.6-0.3-0.5-0.7c0-0.1,0.3-0.2,0.4-0.1C96.7,177.3,96.6,177.6,96.4,177.9z"/>
		<path class="st1" d="M93,179.5c0,0.3,0,0.5-0.1,0.9c-0.4-0.3-0.6-0.6-0.9-0.9H93z"/>
		<path class="st1" d="M111.2,183.8c-0.1,0-0.3,0.1-0.4,0.1c0-0.4-0.1-0.7-0.1-1.1c0.1,0,0.1,0,0.2,0
			C111,183.1,111.1,183.5,111.2,183.8z"/>
		<path class="st1" d="M112.7,193.2c-0.1,0.1-0.1,0.2-0.2,0.3c-0.1-0.1-0.2-0.2-0.3-0.3c0,0,0.1-0.2,0.2-0.2
			C112.6,193,112.7,193.1,112.7,193.2z"/>
		<path class="st1" d="M89.4,190.7c-0.1,0-0.1,0-0.2,0.1c-0.1-0.2-0.1-0.5-0.2-0.7c0.1,0,0.1,0,0.2,0
			C89.2,190.3,89.3,190.5,89.4,190.7z"/>
		<path class="st1" d="M103.2,188.5c-0.8-0.1-0.4-0.6-0.6-0.9C102.8,187.9,103,188.1,103.2,188.5z"/>
		<path class="st5" d="M90.3,199c-0.1,0.1-0.2,0.2-0.3,0.3c-0.1-0.2-0.2-0.3-0.3-0.5l0,0C89.9,198.8,90.1,198.9,90.3,199z"/>
		<path class="st1" d="M102.5,158.7c0,0.1,0,0.2-0.1,0.2c0,0-0.1,0-0.2-0.1c0-0.1,0.1-0.1,0.1-0.2
			C102.4,158.6,102.5,158.7,102.5,158.7z"/>
		<path class="st1" d="M89.1,189.3c0,0,0,0.1-0.1,0.2c-0.1,0-0.2,0-0.2-0.1c0-0.1,0.1-0.1,0.1-0.2C89,189.2,89.1,189.2,89.1,189.3z"
			/>
		<path class="st1" d="M102.3,162c0,0.1,0,0.2-0.1,0.2c0,0-0.2,0-0.2-0.1c0-0.1,0-0.1,0.1-0.2C102.1,161.9,102.2,161.9,102.3,162z"
			/>
		<path class="st1" d="M97.1,176.9c-0.1,0-0.1,0-0.2,0c0-0.2-0.1-0.5-0.1-0.8c0,0,0,0,0,0h0c0,0,0,0,0,0c0,0.1,0.1,0.2,0.1,0.4
			C97,176.7,97,176.8,97.1,176.9z"/>
		<path class="st1" d="M104.4,161C104.4,161,104.4,161,104.4,161c-0.1-0.1-0.1-0.2-0.2-0.3C104.3,160.8,104.3,160.9,104.4,161z"/>
		<path class="st1" d="M88.5,195.4c0,0,0-0.1,0.1-0.1C88.5,195.4,88.5,195.4,88.5,195.4L88.5,195.4z"/>
		<path class="st1" d="M86.7,186.1c0,0,0.1,0,0.1,0.1C86.8,186.1,86.7,186.1,86.7,186.1L86.7,186.1z"/>
		<path class="st1" d="M109,185.8c0,0-0.1,0-0.1-0.1C108.9,185.8,108.9,185.8,109,185.8L109,185.8z"/>
		<path class="st1" d="M112.7,180.2c0,0,0.1,0,0.1,0.1C112.8,180.3,112.8,180.3,112.7,180.2L112.7,180.2z"/>
		<polygon class="st1" points="101.1,178.5 101.1,178.6 101,178.5 		"/>
		<path class="st1" d="M108.2,166.1c0,0-0.1,0-0.1-0.1C108.1,166,108.2,166.1,108.2,166.1L108.2,166.1z"/>
		<path class="st1" d="M83.2,159.5c0,0,0,0.1-0.1,0.1C83.1,159.6,83.1,159.5,83.2,159.5L83.2,159.5z M94.2,151.9L94.2,151.9
			c0.1,0,0.2-0.1,0.2-0.1C94.3,151.8,94.3,151.9,94.2,151.9z M94.3,151.9C94.3,151.9,94.2,151.9,94.3,151.9c0,0.3,0.1,0.6,0.2,1
			C94.4,152.6,94.3,152.2,94.3,151.9z M94.5,152.9c0,0.1,0,0.1,0,0.2l0,0C94.5,153,94.5,152.9,94.5,152.9z M94.5,153.1
			c-0.1,0.1-0.3,0.2-0.4,0.2c0.2,0,0.3,0,0.5-0.1C94.5,153.1,94.5,153.1,94.5,153.1z M94.5,153c0,0.1,0,0.1,0,0.1
			c0.1,0,0.2,0.1,0.3,0.2C94.8,153.3,94.7,153.2,94.5,153z"/>
		<path class="st1" d="M87.5,183c-0.5,0.2-1,0.5-1.5,0.8c-0.2,0.3-0.3,0.5-0.5,0.8c-0.7-0.1-0.5-0.6-0.5-1c0.3-0.5,0.7-1,1.1-1.6
			c0.4,0.1,0.8,0.2,1.2,0.3C87.3,182.5,87.4,182.8,87.5,183z"/>
		<path class="st1" d="M82,173.6c-0.3,0.5-0.6,1-0.8,1.5c0-0.6-0.2-1-0.7-1.3c-0.4-0.2-0.3-0.6,0-0.9c0.2-0.2,0.4-0.3,0.7-0.5
			c0.1,0.5,0.2,0.9,0.3,1.3H82z"/>
		<path class="st1" d="M84.2,183.5c-0.1,0.2-0.2,0.5-0.3,0.8c-0.7-0.1-0.7-0.7-0.7-1.2c0-0.4,0.1-0.7,0.1-1.1
			C84.1,182.2,83.8,183.1,84.2,183.5z"/>
		<path class="st1" d="M80,184.6c-1-0.7-0.5-1.4-0.2-2.2C80.3,182.6,80.3,182.6,80,184.6z"/>
		<rect x="80" y="174.3" class="st1" width="0.2" height="1"/>
		<path class="st1" d="M81.8,182.4c-0.1,0.2-0.3,0.3-0.4,0.5c-0.1-0.1-0.2-0.1-0.2-0.2c0.2-0.1,0.3-0.3,0.5-0.4
			C81.6,182.3,81.7,182.4,81.8,182.4z"/>
		<path class="st1" d="M81.6,176.1c-0.1,0.1-0.2,0.2-0.3,0.2c-0.1,0-0.2-0.2-0.2-0.2c0.1-0.1,0.2-0.2,0.3-0.3
			C81.5,175.9,81.6,176,81.6,176.1z"/>
		<path class="st1" d="M82.9,174.4v0.2c-0.1-0.3-0.2-0.6-0.3-1c0.1,0,0.2,0,0.2-0.1C82.9,173.9,82.9,174.2,82.9,174.4z"/>
		<path class="st1" d="M87.4,179.9c0,0.2-0.1,0.4-0.2,0.6H87c0.1-0.2,0.1-0.4,0.2-0.7C87.2,179.9,87.3,179.9,87.4,179.9z"/>
		<path class="st1" d="M82,192.9c0,0,0,0.1-0.1,0.2c-0.1,0-0.2,0-0.2-0.1c0-0.1,0-0.1,0.1-0.2C81.9,192.8,82,192.8,82,192.9z"/>
		<path class="st1" d="M79.9,172.4v0.7c-0.1,0-0.2,0-0.2-0.1C79.7,172.9,79.8,172.6,79.9,172.4z"/>
		<path class="st1" d="M79.6,171.6c0,0.1-0.1,0.2-0.1,0.3c0-0.2-0.1-0.4-0.1-0.5C79.5,171.5,79.5,171.6,79.6,171.6z"/>
		<path class="st1" d="M87.5,182.3v0.8c-0.1-0.3-0.2-0.5-0.3-0.8H87.5z"/>
		<path class="st1" d="M82.7,192.8c0,0-0.1,0-0.1,0c0,0,0-0.1,0-0.1C82.6,192.7,82.7,192.7,82.7,192.8
			C82.7,192.7,82.7,192.8,82.7,192.8z"/>
		<path class="st1" d="M78.7,190.2c0,0-0.1,0-0.1-0.1v0C78.6,190.1,78.7,190.2,78.7,190.2z"/>
		<path class="st1" d="M79.9,172.4c0,0,0-0.1,0.1-0.1C79.9,172.3,79.9,172.4,79.9,172.4L79.9,172.4z"/>
		<path class="st10" d="M48.5,148.9c0,0,0,0.1-0.1,0.1C48.5,149,48.5,148.9,48.5,148.9L48.5,148.9z"/>
		<path class="st12" d="M88,223.8c0,0-0.1,0-0.1-0.1C87.9,223.7,87.9,223.7,88,223.8L88,223.8z"/>
		<path class="st12" d="M88,223.8c0,0,0.1,0,0.1,0.1C88,223.8,88,223.8,88,223.8L88,223.8z"/>
		<path class="st12" d="M88,232.9c0,0,0,0.1-0.1,0.1C87.9,232.9,87.9,232.9,88,232.9L88,232.9z"/>
		<path class="st13" d="M75.8,213.6L75.8,213.6L75.8,213.6L75.8,213.6z"/>
		<path class="st12" d="M123.9,224c0,0-0.1,0.1-0.1,0.1C123.8,224.1,123.8,224,123.9,224L123.9,224z"/>
		<path class="st2" d="M128.2,241.7c0,0,0.1,0,0.1,0.1C128.2,241.8,128.2,241.7,128.2,241.7L128.2,241.7z"/>
		<path class="st10" d="M142.3,126.4c0,0,0.1,0,0.1,0.1C142.4,126.4,142.4,126.4,142.3,126.4L142.3,126.4z"/>
		<path class="st12" d="M147.9,96.3c0,0,0.1,0,0.1,0.1C148,96.3,147.9,96.3,147.9,96.3C147.9,96.3,147.9,96.3,147.9,96.3z"/>
		<polygon class="st1" points="144.4,172.9 144.3,173 144.2,173 		"/>
		<path class="st14" d="M85.9,210.9c0,0,0.1,0,0.1,0.1C86,210.9,86,210.9,85.9,210.9L85.9,210.9z"/>
		<path class="st1" d="M82.4,94.2L82.4,94.2C82.4,94.2,82.5,94.2,82.4,94.2L82.4,94.2z"/>
		<path class="st14" d="M81.4,279.9c0,0,0,0.1-0.1,0.1C81.4,280,81.4,280,81.4,279.9L81.4,279.9z"/>
		<path class="st14" d="M120.3,274.6c0,0,0.1,0,0.1,0.1C120.4,274.6,120.4,274.6,120.3,274.6L120.3,274.6z"/>
		<path class="st7" d="M53.6,165.3c0,0,0,0.1-0.1,0.1C53.5,165.4,53.6,165.4,53.6,165.3L53.6,165.3z"/>
		<path class="st1" d="M82.9,197.7c-0.2-0.2-0.3-0.3-0.5-0.5C82.8,197,82.9,197,82.9,197.7z"/>
		<path class="st7" d="M57.5,163.4c0,0-0.1-0.1-0.1-0.1l0.1-0.1C57.4,163.3,57.5,163.4,57.5,163.4z"/>
		<path class="st2" d="M114.3,64.6c-0.5,0.3-1,0.5-1.5,0.8c-0.2,0.3-0.5,0.5-0.8,0.8c0.1,0.6-0.2,0.8-0.8,0.8l0,0
			c-0.3,0.1-0.7,0.2-0.9,0.4c-0.3,0.2-0.6,0.6-0.8,0.9c-0.1,0.1-0.2,0.2-0.2,0.2c0,0.1,0,0.2,0,0.3c-0.2,0.2-0.3,0.3-0.5,0.5
			c-0.3,0.3-0.5,0.7-0.8,1c-0.3,0.1-0.7,0.1-0.9,0.4c-0.7,1.1-1.5,1.9-2.7,2.5c-0.1,0.1-0.2,0.3-0.2,0.4c-0.2-0.1-0.3-0.2-0.5-0.2
			c-0.2,0-0.5,0-0.7,0c-0.4,0.2-0.8,0.3-1.3,0.5c-0.2,0.1-0.3,0.2-0.5,0.2c-0.1,0-0.2,0-0.2,0c-0.4-0.1-0.9-0.2-1.3-0.3
			c-0.2,0-0.4,0.1-0.6,0.1c-1.1-0.5-2.1-1-3.1-1.6c-0.4-0.2-0.9-0.4-1.3-0.6c0,0,0-0.1,0-0.1c0,0,0-0.1,0.1-0.1c0-0.1,0-0.2,0-0.2
			L94.3,71c-0.3,0.1-0.5,0.2-0.8,0.2h-0.2c0-0.2,0-0.4-0.1-0.5c-0.8-0.2-1.5-0.3-2.2-0.5c-0.1-0.2-0.2-0.4-0.3-0.5
			c-1-0.3-2-0.5-3.1-0.8c-0.1,0-0.3,0.1-0.4,0.2c-1-0.1-2-0.2-3-0.2c-0.8,0-1.6,0.1-2.3,0.2c0-0.1,0-0.2,0-0.3c0-0.2,0-0.3,0-0.5
			c0.4-1.8,1.3-3.3,2.2-4.8h0.2c0.2-0.3,0.3-0.7,0.5-1c0-0.2-0.1-0.4-0.1-0.6c0.1-0.4,0.2-0.7,0.3-1.1c0-0.6,0-1.1,0-1.7
			c-0.1-3.1-0.3-6.3-0.4-9.4c0-1,0.3-2,0.5-3c0.5-2.3,0.8-4.6,1.2-6.9c0.3-1.4,0.6-2.9,1.1-4.3c0.2-0.6,0.9-1.2,1.5-1.7
			c0.6-0.6,1.4-0.9,1.7-1.8c0.1-0.3,0.4-0.5,0.7-0.6c1.3-0.7,2.6-1.3,4.1-1.6c0.9-1,2.1-1.4,3.5-1.3c0.8,0.1,1.6-0.1,2.5-0.2
			c0.1,0.2,0.3,0.4,0.3,0.7c0,0.6,0.4,0.9,0.8,1.2c0.4,0.3,0.9,0.6,0.9,1.2c0.2,0.1,0.3,0.2,0.5,0.2c0.4,0,1-0.5,1.2,0.3
			c0.1,0.1,0.2,0.2,0.4,0.3c0.5-0.1,0.8,0.1,0.8,0.7l0,0.1c0.1,0.1,0.1,0.1,0.2,0.2c0.4,0.5,0.8,1,1.1,1.5c0.5,0.3,0.8,0.7,0.7,1.3
			c0.2,0.5,0.4,1,0.7,1.5c0.4,0.5,0.8,1.1,1.1,1.6c0.2,0.4,0.5,0.8,0.6,1.2c0.6,3,1,5.9,0.7,9c-0.2,2.3-0.3,4.6,0.2,7
			c0.4,1.5,0.5,3.1,0.8,4.7c0.1,0.1,0.3,0.2,0.4,0.4c0.2,0.1,0.3,0.1,0.4,0.2c0.1,0.1,0.1,0.2,0.2,0.3c0.2,0.2,0.3,0.3,0.5,0.5
			c0.1,0.1,0.1,0.3,0.2,0.4c-0.1,0-0.1,0-0.2,0.1c0,0.2,0,0.3,0,0.5C114.1,63.8,114.2,64.2,114.3,64.6z"/>
		<path class="st1" d="M101.1,133.2c-0.1,0-0.1,0-0.2,0C101,133.2,101.1,133.2,101.1,133.2C101.1,133.3,101.1,133.3,101.1,133.2
			C101.1,133.3,101.1,133.3,101.1,133.2C101.1,133.2,101.1,133.2,101.1,133.2C101.1,133.2,101.1,133.2,101.1,133.2z M101.1,133.2
			C101.1,133.2,101.1,133.2,101.1,133.2L101.1,133.2C101.1,133.2,101.1,133.2,101.1,133.2C101.1,133.2,101.1,133.2,101.1,133.2z"/>
		<path class="st1" d="M90,175.7v0.5c-0.4,0.1-0.8,0.2-1.3,0.3c-0.1,0.2-0.2,0.5-0.2,0.8l0,0c-0.2,0-0.3,0-0.5,0
			c0-1,0.2-1.9,0.1-2.9c0.1,0,0.2,0,0.3,0c0.3,0.2,0.6,0.5,0.9,0.7C89.3,175.4,89.5,175.7,90,175.7z"/>
		<path class="st1" d="M107.4,178.6c0,1,0,1.8-0.6,2.6c-0.3-0.8-0.6-1.7-0.9-2.6c0.3-0.1,0.5-0.1,0.6-0.2
			C106.8,178.5,107,178.5,107.4,178.6z"/>
		<path class="st1" d="M93.3,178.2c-0.2,0.4-0.2,0.9-0.3,1.3h-1v-1.9c0.5-0.2,0.8-0.4,1.2-0.6C93.6,177.3,93.5,177.7,93.3,178.2z"/>
		<path class="st1" d="M99.6,151.3c-0.7-0.7-0.7-1.6-0.7-2.4c0.3,0.1,0.7,0.2,1,0.3C100.1,149.8,100,150.5,99.6,151.3z"/>
		<path class="st1" d="M100.1,162.3c-0.2,0.2-0.5,0.5-0.8,0.8c-0.1-0.1-0.4-0.2-0.9-0.3c0.8-0.6,0.6-1.6,1.5-2.1
			C100,161.3,100,161.8,100.1,162.3z"/>
		<path class="st1" d="M101.5,174c-0.1,0.3-0.1,0.7-0.2,1c-0.6-0.6-1.3-1.1-0.7-2.2C101.6,173.2,101.6,173.2,101.5,174z"/>
		<path class="st1" d="M96.6,171.7c0,0.2,0,0.3,0,0.5c0,0.5-0.3,0.6-0.7,0.5c-0.4-0.1-0.6-0.4-0.5-0.8c0.1-0.3,0.3-0.5,0.5-0.8
			C96.1,171.3,96.4,171.5,96.6,171.7z"/>
		<path class="st1" d="M90.9,176.1c-0.3,0-0.6,0.1-0.9,0.1v-0.5c0-0.2,0-0.3,0-0.5c0-0.4,0.2-0.6,0.6-0.5c0.2,0.1,0.3,0.3,0.4,0.5
			C91,175.5,91,175.7,90.9,176.1z"/>
		<path class="st1" d="M94.8,172.7L94.8,172.7c-0.3-0.1-0.6-0.3-1.1-0.6c0.2-0.3,0.3-0.6,0.6-0.7c0.4-0.1,0.6,0.2,0.6,0.6
			C94.8,172.3,94.8,172.5,94.8,172.7z"/>
		<path class="st1" d="M100.9,166.3c-1-0.3-1-0.3-0.8-1.2C100.7,165.3,100.9,165.8,100.9,166.3z"/>
		<path class="st1" d="M95.2,171c-0.1,0-0.2,0-0.3,0c-0.2-0.5-0.4-1-0.6-1.5c0.1-0.1,0.3-0.1,0.5-0.3
			C95.1,169.9,95.1,170.4,95.2,171z"/>
		<path class="st1" d="M106.8,151.6v-1.3C107.2,151.1,107.2,151.1,106.8,151.6z"/>
		<path class="st1" d="M95.3,150.6c-0.1,0.2-0.3,0.3-0.4,0.5c-0.1-0.2-0.2-0.3-0.3-0.5C94.8,150.4,95,150,95.3,150.6z"/>
		<path class="st1" d="M91.3,172.7c-0.3,0.7-0.3,0.7-0.9,0.1C90.8,172.7,91.1,172.7,91.3,172.7z"/>
		<path class="st1" d="M92.1,173.7c-0.1,0.4-0.2,0.7-0.4,1.1C91.5,174.3,91.3,173.8,92.1,173.7L92.1,173.7L92.1,173.7z"/>
		<path class="st1" d="M98.3,152.4l-0.2,0.1c-0.1-0.2-0.1-0.4-0.2-0.7c0.1,0,0.2,0,0.3,0C98.3,152,98.3,152.2,98.3,152.4z"/>
		<path class="st1" d="M90.2,177.2c-0.3-0.1-0.5-0.2-0.8-0.2c0.2-0.1,0.4-0.1,0.6-0.2C90.5,176.8,90.5,177,90.2,177.2z"/>
		<path class="st1" d="M93.4,173.7c0,0-0.2,0.1-0.3,0.1c0-0.1-0.1-0.2-0.1-0.3c0-0.1,0.1-0.1,0.3-0.3
			C93.4,173.4,93.5,173.6,93.4,173.7z"/>
		<path class="st1" d="M96.8,170.2c-0.1,0-0.2,0.1-0.3,0.1c0-0.2-0.1-0.4-0.1-0.6c0.1,0,0.1,0,0.2-0.1
			C96.6,169.8,96.7,170,96.8,170.2z"/>
		<path class="st1" d="M91.8,169.9C91.8,169.9,91.7,169.9,91.8,169.9c0-0.1,0-0.2,0.1-0.3c0-0.1,0.1-0.2,0.1-0.4
			C92.2,169.6,92.2,169.6,91.8,169.9z"/>
		<path class="st1" d="M101.9,169.2c-0.1,0.1-0.2,0.2-0.2,0.2c-0.1-0.2-0.2-0.4-0.3-0.6C101.5,169,101.7,169.1,101.9,169.2z"/>
		<path class="st1" d="M97.8,151.1c-0.1,0-0.2,0.1-0.2,0.1c-0.1-0.1-0.1-0.2-0.2-0.3c0.1,0,0.2-0.1,0.3-0.1
			C97.7,150.9,97.8,151,97.8,151.1z"/>
		<path class="st1" d="M93.2,172.2c-0.1,0-0.2,0.1-0.2,0.1l-0.2-0.4c0.1,0,0.1,0,0.2-0.1C93,171.9,93.1,172.1,93.2,172.2z"/>
		<rect x="101.4" y="183.3" class="st1" width="0.1" height="0.8"/>
		<path class="st1" d="M100,164.5c0,0.1,0,0.2-0.1,0.2c0,0-0.1-0.1-0.2-0.1c0-0.1,0-0.2,0.1-0.2C99.9,164.4,99.9,164.5,100,164.5z"
			/>
		<path class="st1" d="M91.8,169.9v0.5c-0.1-0.1-0.3-0.1-0.4-0.2C91.5,170.1,91.6,170,91.8,169.9C91.7,169.9,91.8,169.9,91.8,169.9z
			"/>
		<path class="st1" d="M100.6,177.5c-0.1-0.1-0.3-0.2-0.4-0.3c0,0,0-0.1,0.1-0.1C100.4,177.2,100.5,177.3,100.6,177.5z"/>
		<path class="st1" d="M96.8,171c-0.1,0.2-0.2,0.5-0.2,0.7v-0.7C96.6,170.9,96.7,170.9,96.8,171z"/>
		<path class="st1" d="M92.1,172.4c0,0.1,0,0.2-0.1,0.2c-0.1,0-0.1-0.1-0.2-0.1c0-0.1,0.1-0.1,0.1-0.2
			C92,172.3,92.1,172.3,92.1,172.4z"/>
		<path class="st1" d="M88.7,176.5v0.5c-0.1,0.1-0.2,0.2-0.2,0.2C88.6,177,88.6,176.7,88.7,176.5z"/>
		<path class="st1" d="M91,178.2c-0.1-0.2-0.2-0.3-0.2-0.5C91,177.7,91,177.7,91,178.2z"/>
		<path class="st1" d="M96,173.1c0,0,0,0.1-0.1,0.2c0-0.1,0-0.1,0-0.1C95.9,173.1,95.9,173.1,96,173.1z"/>
		<path class="st1" d="M100,163.6C100,163.6,100,163.6,100,163.6c-0.1,0-0.1,0-0.1-0.1c0,0,0.1,0,0.1,0
			C100,163.5,100,163.6,100,163.6z"/>
		<path class="st1" d="M94,172.9C94,172.9,93.9,173,94,172.9c-0.1,0.1-0.1,0-0.1,0s0-0.1,0.1-0.1C93.9,172.9,94,172.9,94,172.9z"/>
		<polygon class="st1" points="92.1,173.6 92,173.6 92,173.7 92,173.7 92.1,173.6 92.1,173.6 		"/>
		<path class="st1" d="M94.9,172.7c0,0-0.1,0-0.1-0.1v0C94.8,172.7,94.9,172.7,94.9,172.7z"/>
		<path class="st1" d="M91.8,170.4c0,0,0.1,0,0.1,0.1C91.8,170.4,91.8,170.4,91.8,170.4L91.8,170.4z"/>
		<path class="st1" d="M108.2,150.2c0,0-0.1,0-0.1-0.1C108.1,150.1,108.2,150.1,108.2,150.2L108.2,150.2z"/>
		<path class="st1" d="M125.9,167.1c0,0.1,0,0.2,0,0.3C125.9,167.3,125.9,167.2,125.9,167.1C125.9,167.1,125.9,167.1,125.9,167.1z"
			/>
		<path class="st1" d="M134.5,170.5c0.1,0.2,0.3,0.5,0.4,0.9c-0.3,0-0.5,0.1-0.7,0.1c-0.4,0.1-0.7,0.1-1.1,0.2
			c-0.6,0.2-1.2,0.1-1.7-0.4c0-0.1,0.1-0.3,0.1-0.3c0.8-0.2,0.9-0.8,1-1.5c1.5-0.4,1.5-0.4,2.8,0.4
			C135,169.9,134.8,170.2,134.5,170.5z"/>
		<path class="st1" d="M121.8,179.6c-0.4-0.1-0.8-0.2-1.3-0.4c0.2-0.4,0.3-0.7,0.6-1.1c0.4,0.4,0.7,0.6,0.9,0.9
			C122,179.2,121.8,179.6,121.8,179.6z"/>
		<path class="st1" d="M118.6,171.5c-0.3,0.5-0.7,0.5-1,0.1c-0.3-0.3-0.2-0.5-0.1-0.8c0.1-0.2,0.2-0.3,0.3-0.5c0,0,0,0,0,0
			c0.1,0.1,0.1,0.2,0.2,0.3C118.2,171,118.4,171.3,118.6,171.5z"/>
		<path class="st1" d="M118.1,174.8c-0.4-0.7-0.4-0.7-0.2-1.2C118,173.9,118,174.3,118.1,174.8z"/>
		<path class="st1" d="M119,172.4c-0.2,0.7-0.4,0.8-0.9,0.4C118.4,172.7,118.6,172.6,119,172.4z"/>
		<path class="st1" d="M133.4,187.9c0,0.1,0,0.2,0,0.3c-0.2,0-0.5-0.1-0.7-0.1c0-0.1,0-0.1,0-0.2L133.4,187.9L133.4,187.9z"/>
		<path class="st1" d="M140.7,173.1c0,0.1,0,0.1-0.1,0.2c-0.1,0-0.2,0-0.2-0.1c0,0,0.1-0.1,0.1-0.2
			C140.6,173.1,140.7,173.1,140.7,173.1z"/>
		<path class="st1" d="M118.1,169.9c0,0.1-0.1,0.1-0.1,0.2c0,0.1-0.1,0.2-0.1,0.3v-0.5H118.1z"/>
		<path class="st1" d="M114.2,140L114.2,140L114.2,140L114.2,140L114.2,140z M114.3,140L114.3,140c0,0.1,0,0.1,0.1,0.2
			C114.3,140.2,114.3,140.1,114.3,140z"/>
		<path class="st1" d="M109.5,153.1c-0.6,0.4-0.9,0.5-1,0c-0.1-0.4-0.5-0.8-0.1-1.2c0.1-0.1,0.3-0.1,0.4,0c0.1,0.1,0.3,0.4,0.2,0.5
			C108.8,152.8,108.8,153,109.5,153.1z"/>
		<path class="st1" d="M103.6,145.1c-0.1,0-0.2-0.1-0.3-0.1C103.4,145,103.5,145.1,103.6,145.1L103.6,145.1z"/>
		<path class="st1" d="M101.1,140.3c0.1,0.1,0.1,0.2,0.2,0.3C101.2,140.5,101.2,140.4,101.1,140.3L101.1,140.3z"/>
		<rect x="114.2" y="140" class="st1" width="0" height="0"/>
		<path class="st1" d="M130.4,170.9v0.5c-0.1-0.1-0.3-0.1-0.4-0.2C130.2,171.1,130.3,171,130.4,170.9z"/>
		<path class="st4" d="M121.9,233.1c-0.1,0.1-0.2,0.2-0.2,0.3l0,0C121.7,233.3,121.8,233.2,121.9,233.1L121.9,233.1z"/>
		<path class="st4" d="M121.6,233.4c0,0,0,0.1-0.1,0.1C121.6,233.4,121.6,233.4,121.6,233.4L121.6,233.4z"/>
		<path class="st1" d="M106.9,154.4v0.5h-1c-0.1-0.8,0.5-0.8,1-0.8C106.9,154.3,106.9,154.4,106.9,154.4z"/>
		<path class="st1" d="M105.4,152.7c-0.1,0.5-0.4,0.6-0.9,0.7C104.5,152.7,105,152.7,105.4,152.7z"/>
		<path class="st1" d="M105.1,154.6c-0.1,0.1-0.3,0.2-0.4,0.3c0-0.2,0-0.3,0-0.5C104.8,154.5,104.9,154.6,105.1,154.6z"/>
		<path class="st1" d="M103.1,153.4c-0.1,0-0.1,0-0.2,0c0-0.2,0-0.3,0-0.5c0.1,0,0.1,0,0.1,0C103.1,153.1,103.1,153.3,103.1,153.4z"
			/>
		<rect x="102.5" y="155.1" class="st1" width="0.1" height="0.4"/>
		<path class="st1" d="M103.6,156v0.5C103.4,156.3,103.4,156.1,103.6,156z"/>
		<path class="st1" d="M107.2,154.2c-0.1,0.1-0.2,0.2-0.3,0.2c0-0.1,0-0.2,0-0.2H107.2z"/>
		<path class="st1" d="M107.4,155c-0.1,0.1-0.1,0.3-0.2,0.4c-0.1-0.1-0.2-0.3-0.3-0.4H107.4z"/>
		<path class="st1" d="M90.5,180.8c-0.1,0-0.3,0-0.3,0.1c-0.1,0.1-0.2,0.3-0.4,0.3c0.1-0.3,0.2-0.6,0.3-0.9
			C90.2,180.5,90.3,180.6,90.5,180.8z"/>
		<path class="st1" d="M85.4,184.6c0.2-0.3,0.3-0.5,0.5-0.8C86.2,184.5,86.2,184.5,85.4,184.6z"/>
		<path class="st1" d="M88.9,183.3C88.8,183.4,88.8,183.4,88.9,183.3c-0.2,0-0.3-0.2-0.4-0.3C88.6,183.1,88.7,183.2,88.9,183.3z"/>
		<path class="st1" d="M88.5,177.2c-0.1,0.1-0.1,0.3-0.2,0.4c-0.1-0.1-0.2-0.3-0.3-0.4C88.1,177.2,88.3,177.2,88.5,177.2z"/>
		<path class="st1" d="M106.4,157.5c-0.2,0.2-0.4,0.4-0.7,0.6c-0.1,0-0.1-0.1-0.2-0.1c0-0.4,0.1-0.8,0.1-1.2
			C106.2,156.7,106.4,157,106.4,157.5z"/>
		<path class="st1" d="M88.4,152.4c-0.6-0.9-0.6-0.9,0-1.5c0.1,0.1,0.2,0.3,0.3,0.4c0,0,0.1,0,0.1-0.1c-0.1-0.1-0.3-0.2-0.4-0.3
			c0-0.6,0.5-0.5,0.9-0.6C89.8,151.4,89,151.8,88.4,152.4z"/>
		<path class="st1" d="M86,152c-0.1,0.1-0.3,0.1-0.4,0.2c-0.2-0.2-0.6-0.5-0.6-0.8c-0.1-0.4-0.2-0.9,0.7-1.1
			C85.7,150.9,85.9,151.4,86,152z"/>
		<path class="st1" d="M93.9,155.9c-0.9-1.6-0.9-1.6-0.1-2.1C94.2,154.3,94,154.9,93.9,155.9z"/>
		<path class="st1" d="M88.9,147.8c-0.2-0.3-0.3-0.6-0.5-0.9c-0.1-0.2-0.2-0.5-0.3-0.8c0.3,0.1,0.5,0.2,0.8,0.2
			C89.6,147.1,89.6,147.1,88.9,147.8z"/>
		<path class="st1" d="M91.1,151.4c-0.9-0.7-1-1.3-0.6-2C90.7,150,90.9,150.5,91.1,151.4z"/>
		<path class="st1" d="M94.5,153.2c-0.1,0-0.3,0-0.5,0.1c-0.1,0-0.1,0-0.2,0c0-0.5-0.4-1.1,0.4-1.3c0,0,0,0,0.1,0
			c0.1,0.3,0.1,0.6,0.2,1c0,0.1,0,0.1,0,0.2C94.5,153.1,94.5,153.1,94.5,153.2z"/>
		<path class="st1" d="M96.8,155.5c-0.1-0.3-0.2-0.7-0.3-1c0-0.1,0-0.2,0.1-0.2C97.1,154.9,97.1,154.9,96.8,155.5z"/>
		<path class="st1" d="M84.2,157.7c0.1-0.4,0.2-0.8,0.3-1.3C84.9,157,84.6,157.4,84.2,157.7z"/>
		<path class="st1" d="M89,146.4c-0.3-0.1-0.5-0.2-0.8-0.2v-0.5h0.5C88.8,145.8,88.9,146.1,89,146.4z"/>
		<path class="st1" d="M95.3,158c0,0-0.1,0.1-0.1,0.1c-0.1-0.1-0.3-0.2-0.4-0.3c0.1-0.1,0.2-0.3,0.2-0.4
			C95.1,157.6,95.2,157.8,95.3,158z"/>
		<path class="st1" d="M91.4,158.6c-0.1,0-0.2,0.1-0.2,0.1c0,0-0.1-0.1-0.1-0.2c0.1,0,0.2-0.1,0.2-0.1
			C91.4,158.4,91.4,158.5,91.4,158.6z"/>
		<path class="st1" d="M94.9,153.5c-0.1,0-0.2,0-0.3-0.1c0,0,0-0.1-0.1-0.2c0,0,0-0.1,0-0.1C94.7,153.2,94.8,153.3,94.9,153.5
			C94.9,153.4,94.9,153.5,94.9,153.5z"/>
		<path class="st1" d="M83.3,151.3c0,0.1,0,0.2-0.1,0.2c0,0-0.1,0-0.2-0.1c0-0.1,0-0.2,0.1-0.2C83.2,151.2,83.3,151.3,83.3,151.3z"
			/>
		<path class="st1" d="M85.1,171.5C85,171.5,85,171.5,85.1,171.5c-0.2,0-0.3-0.2-0.4-0.3l0,0C84.8,171.2,84.9,171.4,85.1,171.5z"/>
		<path class="st1" d="M94.6,151.7c-0.1,0.1-0.1,0.1-0.2,0.2c0,0-0.1,0-0.1,0h-0.1c0.1,0,0.1-0.1,0.2-0.1
			C94.5,151.8,94.5,151.8,94.6,151.7z"/>
		<path class="st1" d="M91.2,159.9c0,0,0,0.1-0.1,0.2c0-0.1,0-0.1,0-0.1C91.1,160,91.1,159.9,91.2,159.9z"/>
		<path class="st1" d="M89.7,149.4c0,0,0,0.1,0,0.1c0,0-0.1,0-0.1,0C89.5,149.4,89.6,149.4,89.7,149.4
			C89.6,149.3,89.7,149.3,89.7,149.4z"/>
		<polygon class="st1" points="91,169.1 90.9,169.1 90.9,169 		"/>
		<path class="st1" d="M83.2,159.5c0,0,0,0.1-0.1,0.1C83.1,159.6,83.1,159.5,83.2,159.5L83.2,159.5z"/>
		<path class="st1" d="M84.4,156.5c0,0-0.1,0-0.1-0.1C84.4,156.4,84.4,156.5,84.4,156.5L84.4,156.5z"/>
		<path class="st1" d="M87.5,140.6c0-0.2-0.1-0.3-0.1-0.5c-0.1-0.3-0.2-0.5-0.3-0.8c0.2,0,0.4,0,0.4,0
			C87.7,139.7,87.7,140.1,87.5,140.6z"/>
		<path class="st1" d="M80,162.6c-0.1,0.2-0.2,0.6-0.6,0.2c0.1-0.2,0.2-0.5,0.3-0.8C80,162.1,80.2,162.2,80,162.6z"/>
		<path class="st1" d="M83.8,145.9c-0.3-0.4-0.4-0.6-0.6-0.8h0C83.6,145.1,84,145.1,83.8,145.9z"/>
		<path class="st1" d="M86.1,142.8c0,0-0.1,0.1-0.1,0.1c-0.2-0.1-0.3-0.3-0.4-0.4c0.1-0.1,0.2-0.2,0.2-0.2
			C85.8,142.5,86,142.7,86.1,142.8z"/>
		<path class="st1" d="M79.1,161c-0.1,0.1-0.2,0.2-0.3,0.2c-0.1,0-0.2-0.2-0.2-0.2c0.1-0.1,0.2-0.2,0.3-0.3
			C79,160.7,79,160.8,79.1,161z"/>
		<rect x="88.1" y="140" class="st1" width="0.1" height="0.4"/>
		<path class="st1" d="M86.7,138c-0.1,0.1-0.2,0.2-0.2,0.3c0-0.1-0.1-0.3-0.1-0.4C86.5,137.9,86.6,138,86.7,138z"/>
		<path class="st1" d="M84.6,148.6C84.6,148.7,84.6,148.7,84.6,148.6c-0.1,0.1-0.1,0-0.1,0s0-0.1,0.1-0.1
			C84.6,148.6,84.6,148.6,84.6,148.6z"/>
		<path class="st1" d="M88.2,145.6c-0.1-0.1-0.1-0.2-0.2-0.3C88.1,145.4,88.2,145.5,88.2,145.6L88.2,145.6z"/>
		<path class="st1" d="M67.5,172.4c0,0,0.1,0,0.1,0.1C67.6,172.4,67.5,172.4,67.5,172.4L67.5,172.4z"/>
		<path class="st12" d="M51.8,121.8c0,0,0,0.1-0.1,0.1C51.8,121.9,51.8,121.9,51.8,121.8L51.8,121.8z"/>
		<path class="st13" d="M46.5,134.5c0,0.1-0.1,0.2-0.1,0.3C46.4,134.7,46.5,134.6,46.5,134.5L46.5,134.5z"/>
		<path class="st10" d="M84.4,202.8c0,0.1-0.1,0.2-0.1,0.3C84.4,203,84.4,202.9,84.4,202.8L84.4,202.8z"/>
		<path class="st10" d="M81.9,219.5c0-0.1,0.1-0.2,0.1-0.3C82,219.2,81.9,219.4,81.9,219.5L81.9,219.5z"/>
		<path class="st10" d="M84.7,234.4c0,0,0-0.1,0.1-0.1C84.7,234.3,84.7,234.4,84.7,234.4L84.7,234.4z"/>
		<path class="st14" d="M83.7,206.8c0.2-0.2,0.3-0.3,0.5-0.5l0,0C84,206.5,83.8,206.6,83.7,206.8L83.7,206.8z"/>
		<path class="st14" d="M81.7,226.8c0,0,0,0.1-0.1,0.1C81.6,226.9,81.6,226.8,81.7,226.8L81.7,226.8z"/>
		<path class="st3" d="M75.8,222c0,0,0.1,0,0.1,0.1C75.9,222,75.9,222,75.8,222L75.8,222z"/>
		<path class="st10" d="M80.6,252.1c-0.1,0.1-0.2,0.1-0.3,0.2C80.5,252.2,80.5,252.2,80.6,252.1L80.6,252.1z"/>
		<path class="st15" d="M84.4,199.2c0,0-0.1,0-0.1-0.1C84.4,199.2,84.4,199.2,84.4,199.2L84.4,199.2z"/>
		<path class="st4" d="M124.6,258.2C124.6,258.2,124.6,258.2,124.6,258.2L124.6,258.2L124.6,258.2z"/>
		<path class="st16" d="M119.6,264.2c0,0.1-0.1,0.2-0.1,0.3C119.5,264.5,119.5,264.3,119.6,264.2L119.6,264.2z"/>
		<path class="st4" d="M120.3,255.6c0,0,0.1,0,0.1,0.1C120.4,255.7,120.4,255.7,120.3,255.6L120.3,255.6z"/>
		<path class="st4" d="M123.1,233.1c0,0,0,0.1-0.1,0.1C123.1,233.2,123.1,233.2,123.1,233.1L123.1,233.1z"/>
		<path class="st10" d="M136.8,131.4c-0.1,0-0.2-0.1-0.3-0.1C136.6,131.4,136.7,131.4,136.8,131.4L136.8,131.4z"/>
		<path class="st13" d="M138.3,140c0,0,0.1,0,0.1,0.1C138.4,140.1,138.3,140.1,138.3,140L138.3,140z"/>
		<path class="st13" d="M138.3,138c0,0,0.1,0,0.1,0.1C138.4,138.1,138.3,138,138.3,138L138.3,138z"/>
		<path class="st12" d="M144.9,101.6c0,0,0.1,0,0.1,0.1C144.9,101.6,144.9,101.6,144.9,101.6L144.9,101.6z"/>
		<path class="st1" d="M107.4,95.9c0,0-0.1,0-0.1-0.1c0,0,0,0,0,0L107.4,95.9C107.4,95.9,107.4,95.9,107.4,95.9z"/>
		<path class="st5" d="M109.5,68.2c-0.1,0.2-0.2,0.3-0.3,0.5c0-0.1,0-0.2,0-0.3C109.3,68.4,109.4,68.3,109.5,68.2z"/>
		<path class="st17" d="M130.9,85.4C130.9,85.4,130.9,85.4,130.9,85.4c0,0.1-0.1,0.1-0.1,0.1c0,0,0-0.1,0-0.1
			C130.8,85.4,130.9,85.4,130.9,85.4z"/>
		<rect x="95.9" y="103.3" class="st1" width="0.1" height="0.4"/>
		<path class="st1" d="M90.2,100.8c0,0-0.1,0-0.1,0c0,0,0-0.1,0-0.1C90.1,100.7,90.1,100.7,90.2,100.8
			C90.2,100.8,90.2,100.8,90.2,100.8z"/>
		<path class="st1" d="M100.1,107.1c0,0,0.1,0,0.1,0.1C100.2,107.2,100.1,107.2,100.1,107.1L100.1,107.1z"/>
		<path class="st1" d="M82.5,94.2C82.5,94.2,82.4,94.2,82.5,94.2L82.5,94.2L82.5,94.2z"/>
		<path class="st18" d="M87,76.8L87,76.8c0,0-0.1,0-0.1-0.1C86.9,76.7,86.9,76.8,87,76.8z"/>
		<path class="st16" d="M116.3,267.5c0,0,0-0.1,0.1-0.1C116.3,267.5,116.3,267.5,116.3,267.5L116.3,267.5z"/>
		<path class="st1" d="M107.4,95.9c0,0-0.1,0-0.1-0.1c0,0,0,0,0,0L107.4,95.9C107.4,95.9,107.4,95.9,107.4,95.9z"/>
		<path class="st1" d="M101.1,133.2C101.1,133.2,101.1,133.2,101.1,133.2L101.1,133.2C101.1,133.2,101.1,133.2,101.1,133.2
			L101.1,133.2c-0.1,0-0.1,0-0.2,0C101,133.2,101.1,133.2,101.1,133.2C101.1,133.2,101.1,133.2,101.1,133.2
			C101.1,133.2,101.1,133.2,101.1,133.2z"/>
		<path class="st1" d="M97.8,145.8c-0.2,0.1-0.4,0.3-0.6,0.3c-0.5-0.1-0.4-0.5-0.2-1C97.3,145.3,97.6,145.5,97.8,145.8z"/>
		<path class="st1" d="M93.3,142.3l0.5-0.5C93.8,142.1,93.9,142.6,93.3,142.3z"/>
		<path class="st1" d="M103.6,115.5c0,0-0.1,0-0.1-0.1C103.6,115.5,103.6,115.5,103.6,115.5L103.6,115.5z"/>
		<path class="st1" d="M130.8,169.9c-0.8-0.1-1.3-0.1-1.7-0.9C129.8,169,130.3,169,130.8,169.9z"/>
		<path class="st1" d="M126.4,170.5c0.3-0.3,0.5-0.5,0.8-0.8C127.4,170.6,127.4,170.6,126.4,170.5z"/>
		<path class="st1" d="M128.6,170.9c-0.1,0.2-0.3,0.4-0.4,0.6c-0.1-0.1-0.2-0.1-0.4-0.2c0.1-0.2,0.2-0.4,0.4-0.6
			C128.4,170.8,128.5,170.8,128.6,170.9z"/>
		<path class="st1" d="M125.9,167.1C125.9,167.1,125.9,167.1,125.9,167.1c0,0.1,0,0.2-0.1,0.3C125.9,167.3,125.9,167.2,125.9,167.1
			L125.9,167.1L125.9,167.1L125.9,167.1L125.9,167.1z"/>
		<path class="st1" d="M122.3,171.2c0,0-0.2,0.1-0.3,0.1c0-0.1-0.1-0.2-0.1-0.3c0-0.1,0.1-0.1,0.3-0.3
			C122.3,170.9,122.3,171,122.3,171.2z"/>
		<path class="st1" d="M121.1,167.9v0.5c-0.1-0.1-0.3-0.2-0.4-0.3C120.8,168,121,167.9,121.1,167.9z"/>
		<path class="st1" d="M121.7,170.1c0,0.1-0.1,0.1-0.1,0.2c-0.1,0-0.2,0-0.2-0.1c0-0.1,0.1-0.1,0.1-0.2
			C121.6,170,121.7,170,121.7,170.1z"/>
		<path class="st1" d="M127.3,172.1c0,0,0,0.1,0,0.1c0,0,0,0.1-0.1,0.1c-0.1,0-0.2,0-0.2-0.1c0,0,0-0.1,0.1-0.2
			C127.2,172,127.3,172.1,127.3,172.1z"/>
		<path class="st1" d="M123,173.7c-0.1,0-0.2,0.1-0.2,0.1c0,0-0.1-0.1-0.1-0.2c0.1,0,0.2-0.1,0.2-0.1C123,173.6,123,173.7,123,173.7
			z"/>
		<path class="st1" d="M113.5,136.7C113.5,136.7,113.5,136.7,113.5,136.7C113.5,136.7,113.5,136.7,113.5,136.7L113.5,136.7
			C113.5,136.7,113.5,136.7,113.5,136.7z"/>
		<path class="st1" d="M125.9,157.7c0,0,0-0.1,0.1-0.1C125.9,157.7,125.9,157.7,125.9,157.7L125.9,157.7z"/>
		<path class="st1" d="M124.6,162.5c0,0,0-0.1,0.1-0.1C124.7,162.5,124.7,162.5,124.6,162.5L124.6,162.5z"/>
		<path class="st16" d="M117,219.2c-0.1-0.1-0.1-0.2-0.2-0.3C116.9,219,117,219.1,117,219.2L117,219.2z"/>
		<path class="st9" d="M114.8,248.1c0,0,0-0.1,0.1-0.1C114.8,248,114.8,248,114.8,248.1C114.8,248,114.8,248.1,114.8,248.1z"/>
		<path class="st15" d="M113,207.3c0,0,0-0.1,0.1-0.1C113,207.3,113,207.3,113,207.3L113,207.3z"/>
		<path class="st1" d="M91.2,143c-0.1,0-0.3,0-0.3-0.1c-0.2-0.4-0.1-0.6,0.4-0.8C91.5,142.5,91.6,142.8,91.2,143z"/>
		<path class="st1" d="M91.2,141c0,0.1-0.1,0.3-0.1,0.4c-0.1,0-0.1,0-0.2,0c-0.1-0.3-0.1-0.6-0.2-0.8c0.1,0,0.1-0.1,0.2-0.1
			C91,140.7,91.1,140.8,91.2,141z"/>
		<path class="st1" d="M95.7,130C95.7,130,95.7,130,95.7,130c-0.1,0-0.1,0-0.1-0.1c0,0,0.1,0,0.1,0C95.7,129.9,95.7,129.9,95.7,130z
			"/>
		<path class="st1" d="M92.6,131.8c0,0,0,0.1-0.1,0.1h0C92.5,131.9,92.6,131.9,92.6,131.8z"/>
		<path class="st1" d="M96.1,131.2L96.1,131.2c0,0-0.1,0-0.1-0.1C96,131.1,96,131.2,96.1,131.2z"/>
		<path class="st1" d="M88.9,151.2C88.8,151.2,88.8,151.3,88.9,151.2c-0.2,0-0.3-0.2-0.4-0.3h0C88.6,151,88.7,151.1,88.9,151.2z"/>
		<path class="st1" d="M78.6,149.9c-0.2-0.2-0.3-0.3-0.5-0.5c0.3-0.4,0.6-0.3,0.9,0.1C79.1,149.7,79,149.8,78.6,149.9z"/>
		<path class="st1" d="M81.4,139.2c-0.1,0.1-0.1,0.3-0.2,0.4c0,0-0.1,0-0.2-0.1c0.1-0.1,0.1-0.3,0.2-0.4
			C81.2,139.2,81.3,139.2,81.4,139.2z"/>
		<path class="st1" d="M84.4,126.6c0,0-0.1,0-0.1-0.1C84.4,126.6,84.4,126.6,84.4,126.6L84.4,126.6z"/>
		<path class="st1" d="M80.9,145.6c0,0.1-0.2,0.4-0.2,0.4c-0.7-0.2-0.7,0.6-0.9,0.6c-0.8,0.2-0.3,0.7-0.5,1.1c0,0-0.1,0-0.1,0.1
			c-0.3-0.4-0.6-0.8-1-1.3c0.1-0.2,0.2-0.5,0.3-0.8h0.8v-2.4c0.9,0.6,0,1.5,0.9,2c0,0,0.2-0.1,0.4,0
			C80.7,145.3,80.8,145.5,80.9,145.6z"/>
		<path class="st1" d="M86.7,137.3c-0.1,0-0.1,0-0.2,0v-0.6h0.1C86.6,136.9,86.7,137.1,86.7,137.3z"/>
		<path class="st1" d="M86.1,131.4C86.1,131.5,86.1,131.5,86.1,131.4c-0.1,0.1-0.1,0-0.1,0s0-0.1,0.1-0.1
			C86.1,131.4,86.1,131.4,86.1,131.4z"/>
		<path class="st1" d="M100.4,111.7c0,0-0.1,0-0.1-0.1C100.3,111.7,100.3,111.7,100.4,111.7L100.4,111.7z"/>
		<path class="st13" d="M135,139c0,0-0.1,0-0.1-0.1C134.9,139,135,139,135,139L135,139z"/>
		<path class="st19" d="M129.4,86.7c0,0,0.1,0,0.1,0.1C129.5,86.7,129.5,86.7,129.4,86.7L129.4,86.7z"/>
		<path class="st19" d="M129.4,86.7c0,0-0.1,0-0.1-0.1C129.4,86.6,129.4,86.6,129.4,86.7L129.4,86.7z"/>
		<path class="st1" d="M88.5,110.9c-0.1,0.1-0.2,0.1-0.3,0.2C88.3,111.1,88.4,111,88.5,110.9L88.5,110.9z"/>
		<path class="st1" d="M92.8,102.8c0.1,0.1,0.1,0.2,0.2,0.3C92.9,103,92.8,102.9,92.8,102.8L92.8,102.8z"/>
		<path class="st20" d="M69,101.8c0,0,0-0.1,0.1-0.1C69,101.8,69,101.8,69,101.8L69,101.8z"/>
		<path class="st1" d="M81.4,97.8c0-0.1,0.1-0.2,0.1-0.3C81.5,97.6,81.4,97.7,81.4,97.8L81.4,97.8z"/>
		<path class="st17" d="M123.1,100.8c0,0,0.1,0,0.1,0.1C123.2,100.9,123.1,100.8,123.1,100.8L123.1,100.8z"/>
		<path class="st1" d="M110.5,105.1c0,0,0,0.1-0.1,0.1C110.4,105.2,110.5,105.2,110.5,105.1L110.5,105.1z"/>
		<path class="st21" d="M129.4,100.6c0,0-0.1,0-0.1-0.1C129.4,100.5,129.4,100.5,129.4,100.6L129.4,100.6z"/>
		<path class="st22" d="M67.7,120.6c0,0,0,0.1-0.1,0.1C67.7,120.6,67.7,120.6,67.7,120.6L67.7,120.6z"/>
	</g>
</g>
</svg>
