<?xml version="1.0" encoding="utf-8"?>
<!-- Generator: Adobe Illustrator 23.1.1, SVG Export Plug-In . SVG Version: 6.00 Build 0)  -->
<svg version="1.1" id="Layer_1" xmlns="http://www.w3.org/2000/svg" xmlns:xlink="http://www.w3.org/1999/xlink" x="0px" y="0px"
	 viewBox="0 0 200 300" style="enable-background:new 0 0 200 300;" xml:space="preserve">
<style type="text/css">
	.st0{display:none;fill:#FFFFFF;stroke:#000000;stroke-width:0.25;stroke-miterlimit:10;}
	.st1{fill:#FFFFFF;stroke:#000000;stroke-width:0.25;stroke-miterlimit:10;}
	.st2{fill:none;stroke:#000000;stroke-width:0.25;stroke-miterlimit:10;}
	.st3{font-family:'Baskerville';}
	.st4{font-size:7px;}
	.st5{font-size:25.1101px;}
	.st6{fill:none;stroke:#ED1C24;stroke-miterlimit:10;}
</style>
<rect x="7.5" y="87.5" class="st0" width="184" height="143.5"/>
<rect x="12.5" y="120.5" class="st1" width="173" height="105.5"/>
<line class="st2" x1="12.5" y1="162.5" x2="185.5" y2="162.5"/>
<line class="st2" x1="12.5" y1="184.5" x2="185.5" y2="184.5"/>
<line class="st2" x1="12.5" y1="141.5" x2="185.5" y2="141.5"/>
<line class="st2" x1="37.5" y1="120.5" x2="37.5" y2="204.5"/>
<line class="st2" x1="62.5" y1="120.5" x2="62.5" y2="204.5"/>
<line class="st2" x1="87.5" y1="120.5" x2="87.5" y2="204.5"/>
<line class="st2" x1="112.5" y1="120.5" x2="112.5" y2="204.5"/>
<line class="st2" x1="136.5" y1="120.5" x2="136.5" y2="204.5"/>
<line class="st2" x1="161.5" y1="120.5" x2="161.5" y2="204.5"/>
<text transform="matrix(1 0 0 1 12.9312 126.457)" class="st3 st4">1</text>
<text transform="matrix(1 0 0 1 38.8784 126.2993)" class="st3 st4">2</text>
<text transform="matrix(1 0 0 1 64.5098 126.0889)" class="st3 st4">3</text>
<text transform="matrix(1 0 0 1 89.0361 125.8257)" class="st3 st4">4</text>
<text transform="matrix(1 0 0 1 114.457 126.5625)" class="st3 st4">5</text>
<text transform="matrix(1 0 0 1 137.457 126.1416)" class="st3 st4">6</text>
<text transform="matrix(1 0 0 1 163.457 126.4048)" class="st3 st4">7</text>
<text transform="matrix(1 0 0 1 14.6152 147.4043)" class="st3 st4">8</text>
<text transform="matrix(1 0 0 1 38.8784 147.2993)" class="st3 st4">9</text>
<text transform="matrix(1 0 0 1 62.7202 147.5625)" class="st3 st4">10</text>
<text transform="matrix(1 0 0 1 88.5625 147.457)" class="st3 st4">11</text>
<text transform="matrix(1 0 0 1 114.2988 146.9307)" class="st3 st4">12</text>
<text transform="matrix(1 0 0 1 137.5098 146.7729)" class="st3 st4">13</text>
<text transform="matrix(1 0 0 1 161.8779 146.8784)" class="st3 st4">14</text>
<text transform="matrix(1 0 0 1 12.5625 168.8779)" class="st3 st4">15</text>
<text transform="matrix(1 0 0 1 39.0889 169.1943)" class="st3 st4">16</text>
<text transform="matrix(1 0 0 1 62.6152 168.8252)" class="st3 st4">17</text>
<text transform="matrix(1 0 0 1 88.6152 168.4043)" class="st3 st4">18</text>
<text transform="matrix(1 0 0 1 114.2988 168.0889)" class="st3 st4">19</text>
<text transform="matrix(1 0 0 1 137.1416 168.7207)" class="st3 st4">20</text>
<text transform="matrix(1 0 0 1 162.668 168.7725)" class="st3 st4">21</text>
<text transform="matrix(1 0 0 1 13.4575 190.8252)" class="st3 st4">22</text>
<text transform="matrix(1 0 0 1 38.4048 190.8252)" class="st3 st4">23</text>
<text transform="matrix(1 0 0 1 64.3521 190.9834)" class="st3 st4">24</text>
<text transform="matrix(1 0 0 1 89.2993 190.8252)" class="st3 st4">25</text>
<text transform="matrix(1 0 0 1 114.0889 190.9834)" class="st3 st4">26</text>
<text transform="matrix(1 0 0 1 137.7207 190.9834)" class="st3 st4">27</text>
<text transform="matrix(1 0 0 1 163.2988 190.3516)" class="st3 st4">28</text>
<line class="st2" x1="12.5" y1="204.5" x2="185.5" y2="204.5"/>
<line class="st2" x1="87.5" y1="204.5" x2="87.5" y2="226.5"/>
<line class="st2" x1="62.5" y1="204.5" x2="62.5" y2="226.5"/>
<line class="st2" x1="37.5" y1="204.5" x2="37.5" y2="226.5"/>
<line class="st2" x1="112.5" y1="204.5" x2="112.5" y2="226.5"/>
<line class="st2" x1="136.5" y1="204.5" x2="136.5" y2="226.5"/>
<line class="st2" x1="161.5" y1="204.5" x2="161.5" y2="226.5"/>
<text transform="matrix(1 0 0 1 13.0889 210.5098)" class="st3 st4">29</text>
<text transform="matrix(1 0 0 1 39.1416 210.5098)" class="st3 st4">30</text>
<text transform="matrix(1 0 0 1 64.0889 210.8252)" class="st3 st4">31</text>
<text transform="matrix(1.1103 0 0 1 11.4565 116.9531)" class="st3 st5">October 1995</text>
<circle class="st6" cx="154.5" cy="108.5" r="16"/>
</svg>
