<?xml version="1.0" encoding="utf-8"?>
<!-- Generator: Adobe Illustrator 23.1.1, SVG Export Plug-In . SVG Version: 6.00 Build 0)  -->
<svg version="1.1" id="Layer_1" xmlns="http://www.w3.org/2000/svg" xmlns:xlink="http://www.w3.org/1999/xlink" x="0px" y="0px"
	 viewBox="0 0 200 300" style="enable-background:new 0 0 200 300;" xml:space="preserve">
<style type="text/css">
	.st0{fill:#333333;}
	.st1{stroke:#FFFFFF;stroke-width:0.5;stroke-miterlimit:10;}
</style>
<g>
	<ellipse class="st0" cx="99.3" cy="87.3" rx="53.93" ry="16.49"/>
</g>
<path class="st0" d="M185.49,191.9c0.98,15.1-44.83,35-87.24,34.6c-40.9-0.39-85.21-19.72-84.24-34.6
	c0.99-15.19,49.16-25.32,84.24-25.57C135.15,166.07,184.5,176.56,185.49,191.9z"/>
<path class="st1" d="M45.36,95.54c12.39,5.55,30.34,11.36,52.14,11c22.8-0.39,41.37-7.4,53.93-13.73c0,32.05,0,64.11,0,96.16
	c-4.83,4.36-23.27,19.98-51.67,21c-29.47,1.07-49.5-14.27-54.39-18.26C45.36,159.65,45.36,127.6,45.36,95.54z"/>
</svg>
