<?xml version="1.0" encoding="utf-8"?>
<!-- Generator: Adobe Illustrator 23.1.1, SVG Export Plug-In . SVG Version: 6.00 Build 0)  -->
<svg version="1.1" id="flame06_Image" xmlns="http://www.w3.org/2000/svg" xmlns:xlink="http://www.w3.org/1999/xlink" x="0px"
	 y="0px" viewBox="0 0 200 300" style="enable-background:new 0 0 200 300;" xml:space="preserve">
<style type="text/css">
	.st0{fill:#FF0533;}
	.st1{fill:none;}
	.st2{fill:#FFFF66;}
	.st3{fill:#FFFFFF;}
</style>
<path class="st0" d="M80.33,160.93c-0.17-2.3-0.81-4.5-1.86-6.38c-0.91-1.54-2.14-2.91-5.78-5.37c-3.03-2.08-4.79-2.94-7.22-4.33
	c-3.42-1.97-3.91-2.27-4.96-2.96c-1.86-1.21-3.65-2.57-5.37-4.07c-2.93-2.59-5.54-5.72-7.72-9.3c-1.72-2.86-3.03-5.03-3.67-8.42
	c-0.64-3.61-0.42-7.37,0.63-10.82c1.14-4.06,2.1-3.41,4.1-8.93c1.25-3.3,2.04-6.85,2.34-10.49c0.22-1.83,0.18-3.69-0.12-5.5
	c-0.91-4.72-3.7-7.06-3.4-7.44s3.94,1.98,6.5,6.38c1.27,2.05,2.14,4.46,2.53,7.02c0.39,3.55-0.06,7.16-1.28,10.39
	c-0.86,2.63-1.42,2.94-2.37,6.24c-0.62,1.87-1,3.84-1.13,5.86c-0.11,2.28,0.17,4.56,0.82,6.69c0.61,2.08,1.59,3.96,2.86,5.49
	c1.44,1.67,3.17,2.87,5.05,3.52c2.76,0.99,5.67,0.99,8.43,0c2.16-0.69,4.96-1.58,6.89-4.66c0.43-0.71,0.79-1.47,1.08-2.28
	c0.48-1.4,0.76-2.88,0.84-4.4c0.15-2.28,0.32-4.52-0.61-6.7c-0.26-0.61-0.76-1.58-2.97-3.73c-2.06-1.86-4.2-3.56-6.42-5.1
	c-3.03-2.36-4.48-3.55-5.58-5.22c-2.25-3.45-2.52-7.32-2.75-10.76c-0.24-4.31,0.23-8.63,1.36-12.7c1.31-4.86,2.16-4.34,3.63-9.86
	c0.88-3.38,1.45-6.87,1.7-10.41c0.27-2.16,0.27-4.36,0-6.52c-0.88-5.47-4.04-8.27-3.68-8.66s4.17,2.44,6.76,7.38
	c1.26,2.44,2.14,5.16,2.59,8.01c0.53,3.14,0.57,6.38,0.12,9.53c-0.31,2.3-0.61,2.55-1.89,7.2c-1.66,6.07-2.49,9.19-2.6,13.02
	c-0.1,3.22-0.18,6.01,1.35,8.63s4.18,3.83,5.95,4.44c2.39,1.04,4.95,1.23,7.42,0.55c0.95-0.28,5.22-1.56,7.23-6.19
	c1.49-3.43,0.91-6.83,0.5-9.32c-0.38-2.28-1.01-3.83-3.74-9.66c-4.44-9.44-4.59-9.15-5.32-11.49c-1.21-3.85-1.81-7.96-1.78-12.1
	c0.01-2.4,0.3-4.78,0.84-7.08c0.75-3.09,3.09-6.38,3.6-6.25c0.51,0.13-2.02,4.63-1.01,10.76c0.57,2.89,1.45,5.67,2.61,8.27
	c0.71,1.74,1.52,3.42,2.41,5.03c1.36,2.3,2.83,4.5,4.4,6.58c1.89,2.51,3.54,5.3,4.92,8.29c1.1,2.55,2.41,5.69,2.27,9.8
	c-0.18,3.01-0.95,5.93-2.23,8.47c-1.47,3.27-2.12,3.02-4.42,7.43c-1.53,2.95-2.45,4.76-2.92,7.54c-0.36,2.23-0.36,4.53,0,6.76
	c0.18,1.84,0.72,3.59,1.57,5.1c1.07,1.75,2.36,2.55,4.23,3.61c2.05,1.44,4.34,2.25,6.68,2.36c2.02,0.06,4.02-0.56,5.79-1.8
	c2.51-1.84,4.32-4.91,4.98-8.49c0.71-4.25-0.71-7.66-1.9-10.58c-1.19-2.92-1.67-2.63-3.78-6.9c-1.91-3.83-2.87-5.79-3.24-8.45
	c-0.52-3.61,0.23-6.51,1.1-9.88c0.89-3.31,2.12-6.45,3.66-9.35c0.55-1.11,0.9-1.76,6.3-11.12c2.09-3.61,2.94-5.1,3.56-7.66
	c0.51-2.22,0.72-4.52,0.65-6.83c0-5.6-0.25-8.78,0.06-8.93c0.31-0.15,2.49,6.09,3.41,14.04c0.39,2.48,0.39,5.03,0,7.5
	c-0.49,2.69-1.25,3.83-4.28,9.67c-1.76,3.3-3.39,6.7-4.87,10.21c-1.91,4.63-2.44,6.95-2.4,9.49c0.03,1.77,0.35,3.5,0.94,5.1
	c0.89,2.21,2.24,4.07,3.91,5.39c1.58,1.22,3.35,1.99,5.2,2.26c2.47,0.48,6.15,1.21,8.99-1.35c2.84-2.57,3.26-7.22,3.44-9.58
	c0.17-2.36-0.14-3.36-1.48-10.63c-0.85-4.14-1.52-8.34-2.02-12.57c-0.62-6.51-0.14-9.56,0.36-11.55c0.51-2.09,1.33-4.03,2.41-5.74
	c0.56-0.78,1.17-1.51,1.83-2.16c1.01-1.14,3.19-3.38,3.63-2.95s-1.22,2.4-2.16,6.2c-0.57,2.45-0.77,5.02-0.61,7.57
	c0.18,2.77,0.63,5.51,1.33,8.14c1.01,4.34,1.6,6.61,2.51,10.21c1.67,6.71,2.51,10.11,2.65,12.52c0.18,3.43,0.39,7.29-1.47,10.9
	c-1.14,2.22-2.88,3.61-6.37,6.38c-4.78,3.83-5.5,3.15-7.27,5.45c-0.34,0.45-4.04,5.41-3.11,11.56c0.43,2.36,1.36,4.52,2.7,6.25
	c1.35,1.88,3.03,3.34,4.89,4.29c2.43,1.19,5.07,1.55,7.65,1.02c2.02-0.34,5.16-0.89,7.36-3.94c1.46-2.25,2.26-5.07,2.26-7.98
	c0.15-2.94-0.16-5.89-0.93-8.68c0,0-1.32-3.83-1.9-5.86l-0.28-1.05c-0.06-0.22-0.16-0.61-0.28-1.12l-0.17-0.74
	c-0.66-2.75-0.76-5.66-0.29-8.47c0.72-2.87,2.17-4.65,4.04-6.89c2.2-2.68,4.86-4.93,5.22-4.5c0.35,0.42-3.21,3.52-3.9,8.93
	c-0.27,2.12,0.12,4.21,0.92,8.42c0.52,2.66,1.17,5.27,1.94,7.82c1.76,5.81,2.43,5.81,3.33,9.7c0.73,3.16,1.38,6.16,0.58,9.71
	c-0.57,2.25-1.53,4.31-2.81,6.02c-0.84,1.28-2.13,2.94-6.37,6.38c-5.05,4.1-7.59,6.14-10.75,7.27c-3.69,1.28-4.77,0.56-7.24,2.44
	c-2.07,1.57-3.69,3.91-4.66,6.7c-0.77,2.37-0.61,4.76-0.27,9.55c0.33,4.79,0.52,7.11,2.02,9.07c1.05,1.26,2.34,2.17,3.74,2.64
	c2.19,0.86,4.53,0.98,6.77,0.36c0.96-0.26,5.98-1.63,7.84-6.5c0.55-1.43,0.6-2.99,0.69-6.07c0.15-4.75-0.48-6.02-0.32-8.93
	c0.27-3.35,1.25-6.55,2.82-9.28c3.61-6.92,9.46-10.13,9.76-9.69c0.3,0.45-2.53,2.16-4.25,6.66c-1.01,2.87-1.47,6-1.35,9.14
	c0,2.12,0.12,3.18,1.01,10.41c0.85,6.65,1.26,10,0.71,11.96c-0.89,2.74-2.35,5.12-4.23,6.9c-1.58,1.66-2.02,1.51-5.84,4.56
	c-2.72,2.19-2.64,2.42-4.62,3.94c-3.51,2.72-3.9,2.14-6.9,4.42c-2.74,1.85-5.11,4.47-6.92,7.66c-1.09,1.71-1.79,3.77-2.02,5.95
	c-0.09,2.43,0.42,4.83,1.47,6.87c1.51,3.34,3.81,6.02,6.57,7.66c2.32,1.47,4.91,2.09,7.49,1.79c0.78-0.1,5.95-0.79,8.09-5.27
	c0.84-1.74,0.8-4.54,0.67-10.08c-0.14-6.14-0.6-6.56-0.1-8.75c0.91-3.35,2.67-6.24,4.99-8.23c2.26-2.13,3.03-1.66,8.16-4.79
	c3.75-2.28,5.63-3.42,6.65-5.1c2.96-4.98,0.61-11.74,1.19-11.88c0.59-0.14,3.74,6.44,1.76,11.84c-0.65,1.77-2.41,3.46-5.92,6.83
	c-3.52,3.37-4.29,3.57-6.38,6.11c-2.09,2.54-3.41,4.12-3.83,6.62s0.19,4.5,1.09,7.66c0.96,3.36,1.63,3.74,2.02,6.32
	c0.36,2.08,0.36,4.24,0,6.32c-0.36,1.82-1.34,4.73-7.22,10.13c-3.11,2.85-6.42,5.35-9.89,7.45c-6.19,3.83-7.16,3.24-13.92,7.08
	c-6.55,3.7-10.86,7.17-11.21,6.56c-0.35-0.61,3.15-2.68,5.44-7.77c1.67-3.97,2.38-8.48,2.02-12.95c-0.07-1.63-1.01-5.69-2.93-13.74
	c-1.01-4.11-2.02-8.63-2.61-8.51c-0.59,0.11,0,2.79-1.29,6.64c-0.96,2.94-1.84,3.34-2.11,3.45c-1.11,0.3-2.26-0.16-3.03-1.21
	c-0.29-0.48-0.52-1.02-0.67-1.6l-0.06-0.23c-0.27-1.28,0-4.13,0-6.38c0.01-0.95-0.04-1.89-0.13-2.83c0-0.19,0-0.36,0-0.5
	c-0.09-1.88-0.57-3.71-1.38-5.28l-0.15-0.26c-0.87-1.28-2.35-2.55-2.94-2.21c-0.6,0.34,0,2.08,0.1,5.26
	c0.14,3.74-0.38,7.78-1.01,7.85c-0.32,0-0.66-0.98-1.01-2.16c-1.69-6.3-0.61-8.81-1.64-13.36c-0.83-3.62-1.73-2.99-3.73-9.42
	c-0.72-1.94-1.2-4-1.42-6.13c-0.39-5.28,1.59-8.66,0.93-9.1c-0.66-0.43-3.1,2.82-4.71,5.96c-1.5,2.56-2.41,5.59-2.64,8.75
	c-0.05,1.35,0.32,3.32,1.01,7.16c0.23,1.21,0.69,3.52,1.76,8.35c1.07,4.82,1.34,5.82,1.31,7.89c0,0.42-0.11,5.32-1.35,5.64
	c-1.07,0.27-2.69-2.95-3.5-5.68c-2.02-6.7,0.16-12.76-0.57-12.97c-0.58-0.19-2.1,3.59-3.03,6.55c-0.84,2.51-1.32,5.18-1.43,7.9
	c-0.14,5.82,1.85,8.93,0.61,10.21c-0.64,0.35-1.35,0.41-2.02,0.15c-0.4-0.12-0.78-0.32-1.13-0.6c-0.52-0.42-0.97-0.98-1.29-1.65
	c-1.01-2.05-1.54-4.42-1.53-6.84c0.07-1.37,0.07-2.74,0-4.11c-0.08-1.08-0.14-1.28-0.28-1.37c-0.92-0.54-3.52,4.76-3.68,5.6
	c-0.08,0.42-0.14,0.85-0.17,1.28c0,0.36,0,0.66,0,0.74c0,0.08,0,0.33,0,0.43c0,0.1,0,0.2,0,0.41c0.33,2.7,0.84,5.36,1.52,7.95
	l0.22,0.59l0.17,0.51c0.52,1.28,0.78,2.72,0.74,4.16c-0.54,1.74-1.22,3.01-1.73,2.91c-0.51-0.1-0.89-1.85-0.94-3.06
	c-0.05-1.21,0.23-1.93,0-2.09c-0.23-0.17-1.58,0.85-2.19,2.21c-1.01,2.22-0.52,4.7,0,6.76c1.85,7.66,4.04,10.31,3.41,11.19
	c-1.01,1.35-7.08-3.65-17.97-11.32c-2.08-1.47-2.27-1.56-3.1-2.16c-7.46-5.44-11.19-8.15-12.75-12.61
	c-0.16-0.47-2.2-6.38-0.07-11.77c1.01-2.55,2.29-3,3.03-5.79c1.19-4.56-0.69-8.93-1.01-9.66c-0.68-1.53-1.24-1.56-6.85-7.38
	c-0.21-0.23-0.86-0.91-1.71-1.84s-1.76-1.93-2.47-2.83c-0.98-1.28-1.84-2.68-2.59-4.19c-2.31-4.9-1.54-11.1-1.09-11.17
	s-0.04,4.52,2.64,8.35c0.79,1.15,1.34,1.51,6.2,4.93c5.48,3.83,6.29,4.47,7.08,5.1c3.69,2.96,5.53,4.44,6.51,6.65
	c1.2,2.98,1.56,6.39,1.01,9.66c-0.38,1.97-0.86,2.28-1.2,4.62c-0.42,2.23-0.35,4.56,0.19,6.75c0.86,2.82,2.5,5.15,4.61,6.57
	c2.5,1.56,5.33,2.08,8.09,1.48c2.24-0.15,4.43-0.96,6.38-2.37c3.41-2.63,6.41-8.05,5.55-13.04c-0.38-2.28-1.89-4.07-4.87-7.54
	c-3.24-3.83-4.54-4.36-9.4-9.12l-1.5-1.51c-2.73-2.77-4.75-4.96-6.38-6.76c-4.43-4.86-6.64-7.3-6.78-7.66
	c-2.02-4.73-1.29-10.21-0.82-13.69c0.54-3.83,1.17-4.05,1.63-8.17c0.52-3.38,0.45-6.86-0.19-10.21c-1.63-7.03-6.73-10.03-6.33-10.66
	c0.4-0.63,6.88,2.14,9.81,8.83c1.05,2.7,1.73,5.59,2.02,8.58c0.55,3.83,0.25,4.39,0.77,9.43c0.56,5.36,0.83,8.04,1.87,10.09
	c1.7,3.1,4.2,5.36,7.08,6.38c3.48,1.22,7.19,0.87,10.48-1c2.02-1.03,4.68-2.4,5.98-5.82C80.61,165.45,80.78,163.13,80.33,160.93z"/>
<path class="st1" d="M45.58,66.1c0.33-0.86,4.49,0,7.96,2.55c3.23,2.28,5.92,5.95,5.46,6.74c-0.46,0.79-5.81-2.32-9.04-4.82
	C48.32,69.26,45.26,66.9,45.58,66.1z"/>
<path class="st2" d="M75.34,117.72c-0.09-2.26-0.37-4.5-0.82-6.69c-0.57-2.69-0.82-3.97-1.71-5.24c-1.15-1.19-2.41-2.2-3.75-3
	c-1.47-0.98-2.89-2.06-4.27-3.24L64,98.81c-1.46-1.27-2.69-2.91-3.62-4.81c-0.89-2.14-1.41-4.51-1.51-6.93
	c-0.13-2.03-0.2-3.59-0.19-4.01c0-3.33,0.55-4.16,0.46-5.84c-0.17-3.13-2.21-5.33-3.29-6.5c-4.45-4.82-11.32-4.8-11.7-3.55
	c-0.3,1.03,3.95,2.14,6.14,7.43c0.49,1.17,0.46,1.58,1.53,4.36c0.51,1.28,0.74,1.99,1.01,2.55c0.49,0.89,1.01,1.74,1.58,2.55
	c0.91,1.74,1.52,3.69,1.79,5.74c0.13,0.81,0.21,1.64,0.24,2.46c0.04,2.26-0.2,4.5-0.73,6.66c-0.27,0.82-0.44,1.68-0.53,2.55
	c0,1.49,0.62,2.11,1.01,3.83c0.38,1.64,0.64,3.33,0.78,5.03c0.22,2.41,0.54,4.82,0.72,7.25c0.09,1.3,0.28,2.58,0.57,3.83
	c0,0,0.12,0.52,0.25,0.98c0.55,2.05,1.47,3.9,2.69,5.42c1.76,1.74,4.21,1.05,7.08,0.24c2.87-0.8,5.71-1.67,6.89-4.66
	C75.57,122.57,75.5,120.96,75.34,117.72z"/>
<path class="st1" d="M51.81,75.27c0.46,0.93,0.87,1.9,1.23,2.9c0.45,1.28,0.49,1.63,0.77,2.42c0.8,2.16,1.64,2.23,2.57,4.02
	c0.74,1.65,1.13,3.51,1.14,5.4c0.13,1.75,0.09,3.52-0.11,5.26c-0.09,1.46-0.29,2.9-0.59,4.31c-0.54,2.42-1.01,2.69-1.21,4.38
	c-0.17,1.58-0.07,3.19,0.28,4.72c1.01,7.08,0.72,5.86,1.08,7.66c1.25,6.19,1.88,9.28,4.04,10.64c1.2,0.77,2.39,0.71,4.46,0.57
	c1.32-0.09,2.25-0.46,6.21-2.09c1.33-0.44,2.63-0.98,3.91-1.62c1.46-1.94-1.94-10.97-21.34-40.27"/>
<path class="st2" d="M132.04,130.56c0.71,0,2.02-0.17,5.73-4.58c6.8-8.1,6.26-8.93,6.94-10.92c0.93-2.47,1.33-5.2,1.16-7.92
	c-0.11-0.97-0.28-1.93-0.49-2.87c-0.19-0.86-0.38-1.44-0.45-1.74c-0.44-1.67-0.68-3.42-0.73-5.18c0-3.08,0.83-6.07,2.36-8.47
	c1.97-3,3.6-2.55,4.55-5.26c0.65-1.9,0-2.4,0.71-5.03c0.6-1.82,1.43-3.5,2.45-4.99c0.87-1.53,1.84-2.96,2.91-4.28
	c2.45-3,4.34-3.94,4.16-4.4c-0.1-0.27-0.89-0.18-6.24,1.6c-1.82,0.49-3.61,1.16-5.36,2c-2.09,1.5-3.89,3.55-5.3,6.01
	c-0.98,1.38-1.74,2.98-2.25,4.72c-0.48,1.96-0.64,4.02-0.49,6.06c0,2.11,0,8.46-2.75,12.76c-1.08,1.68-2.93,3.02-6.67,5.67
	c-3.13,2.21-4.53,2.67-5.68,4.95c-0.66,1.28-0.91,2.76-1.41,5.67c-0.58,3.39-0.87,5.1-0.53,7.07c0.44,2.32,1.44,4.4,2.86,5.97
	C128.58,128.76,130.07,130.5,132.04,130.56z"/>
<path class="st3" d="M101.26,144.18c1.44,0.27,2.1,3,3.18,7.47c0.59,1.98,0.79,4.11,0.59,6.2c-0.14,1.27-0.48,2.5-1.01,3.6
	c-0.61,1.39-1.6,2.46-2.78,3.02c-1.27,0.51-2.64,0.36-3.82-0.4c-1.66-1.21-2.02-3.52-2.21-5.3c-0.33-2.86,0.08-5.77,1.15-8.32
	C96.65,149.68,99.03,143.76,101.26,144.18z"/>
<path class="st2" d="M170.32,184.11c0.52-0.33,2.89-1.19,8.43-2.26c2.64-0.63,5.31-1,8-1.12c4.17-0.08,10.63,0.54,10.71,1.98
	c0.06,0.92-2.53,1.28-8.09,4.53c-1.94,1.09-3.82,2.33-5.63,3.73c-2.96,1.9-5.71,4.27-8.19,7.06c-3.91,4.19-4.94,5.53-7.74,8.07
	c-2.02,1.6-4.17,2.94-6.41,3.98c-3.72,1.77-4.61,1.28-4.93,1.14c-1.91-1.2-2.02-5.39-1.61-7.87c0.55-3.43,2.31-5.68,3.94-7.72
	c2.1-2.65,2.69-2.34,6.38-6.11C168.66,185.93,168.42,185.35,170.32,184.11z"/>
<path class="st2" d="M158.19,219.52c0.57-1.08,1.64-0.87,5.05-1.76c1.44-0.26,2.85-0.78,4.18-1.52c1.67-1.05,2.35-2.14,2.57-1.94
	s-0.63,3.38-2.45,5.9c-1.33,1.59-2.8,2.99-4.39,4.15c-2.22,1.93-3.25,2.31-4.12,2.45c-0.14,0-2.31,0.36-2.66-0.59
	c-0.34-0.94,1.01-1.47,1.52-3.69C158.3,220.82,157.75,220.4,158.19,219.52z"/>
<path class="st2" d="M138.81,191.29c0.83,0,1.34,0.77,2.69,2.55c0.93,1.15,1.8,2.39,2.59,3.7c1.11,2.26,1.65,4.89,1.56,7.54
	c-0.15,2.46-0.76,4.85-1.8,6.94c-0.96,2.18-2.11,4.21-3.43,6.06c-1.06,1.12-1.94,2.47-2.61,3.99c-0.25,0.65-0.43,1.28-0.43,1.28
	c-0.23,0.77-0.22,0.89-0.29,1.02c-0.49,1.01-3.62,0-6.06-1.49c-1.59-1.04-3.02-2.42-4.23-4.08c-0.23-0.34-0.44-0.7-0.62-1.08
	c-0.31-0.57-0.57-0.94-1.01-1.72c-0.55-0.98-0.81-1.47-0.76-1.7c0.18-0.78,1.95-0.19,4.04-0.89c1.55-0.6,2.95-1.71,4.04-3.22
	c1.25-1.47,2.13-3.38,2.52-5.49c0.32-1.8,0.21-3.69-0.32-5.41c-0.88-2.73-2.38-3.39-1.95-4.39c0.09-0.22,0.17-0.22,1.94-1.28
	c1.24-0.77,1.38-0.88,2.02-1.28C137.35,191.86,138.06,191.5,138.81,191.29z"/>
<path class="st2" d="M143.94,238.39c0.72,0.13,1.01,0.8,1.84,1.72c1.02,1.06,2.13,1.96,3.33,2.68c2.06,1.12,4.33,1.49,6.55,1.07
	c4.56-0.4,6.62-2.49,7.18-1.62c0.56,0.87-1.18,4.53-3.88,6.57c-1.79,1.34-3.65,1.58-7.31,2c-3.26,0.55-6.56,0.55-9.82,0
	c-4.38-0.84-7.08-1.58-7.08-1.58c-2.29-0.63-3.74-1.15-4.29-0.34c-0.7,1.02,0.56,3.43,0.7,3.69c1.16,2.21,2.97,3.09,5.31,4.2
	c1.89,1.01,3.9,1.59,5.95,1.68c3.21,0.06,5.19-1.28,5.33-0.88s-3.09,2.97-6.68,4.76c-2.25,1.13-4.58,1.98-6.96,2.55
	c-2.83,0.88-5.75,1.15-8.65,0.82c-2.43-0.49-4.81-1.34-7.08-2.55c-1.79-0.79-3.49-1.89-5.05-3.27c-1.3-1.16-2.14-1.93-2.02-2.81
	c0.12-0.88,1.46-1.56,4.97-3.36c1.38-0.7,2.74-1.49,4.12-2.22c3.85-1.99,4.19-2.69,7.85-4.77c8.23-4.72,10.63-3.53,13.14-6.65
	C141.68,239.63,142.77,238.19,143.94,238.39z"/>
<path class="st2" d="M85.94,259.13c0,1.68-4.99,3.28-9.93,4.86h-0.2c-3.67,1.31-7.47,1.93-11.28,1.82c-3.1-0.01-6.17-0.67-9.1-1.95
	c-2.74-1.34-5.3-3.18-7.6-5.47c-2.5-2.26-5.24-5.22-4.93-5.73c0.3-0.51,3.03,2.37,7.45,2.86c2.44,0.25,4.9-0.21,7.18-1.37
	c0.87-0.42,4.99-2.39,4.81-4.21c-0.15-1.48-3.03-2.18-4.58-2.55c-2.05-0.45-4.13-0.57-6.2-0.36c-3.12,0.13-6.24-0.01-9.35-0.42
	c-3.15-0.28-6.22-1.33-9.05-3.09c-3.69-2.49-6.4-6.38-5.96-7.13c0.28-0.48,1.68,0.59,5.32,1.56c2.05,0.54,4.13,0.85,6.23,0.92
	c1.79,0.25,3.6,0.15,5.36-0.32c1.69-0.62,3.28-1.63,4.69-2.97c1.38-1.42,1.81-2.55,2.84-2.55s1.5,0.82,2.4,1.75s0.82,0.64,5.05,3.51
	c3.94,2.71,3.76,2.78,7.69,5.51c5.27,3.64,5.88,3.69,8.09,5.73c1.06,1.01,2.07,2.1,3.03,3.27c0.39,0.39,0.79,0.75,1.21,1.08
	C81.64,256.02,85.94,257.55,85.94,259.13z"/>
<path class="st2" d="M38.32,225.33c-1.55-0.86-3-1.97-4.32-3.32c-1.46-1.65-2.73-3.55-3.77-5.65c-1.82-3.36-4.25-8.58-3.7-9.03
	s1.91,2.96,5.85,5.27c1.87,1.1,3.95,2.32,6.43,1.82c0.9-0.18,1.26-0.46,1.74-0.17l0,0c0,0,0.36,1.95,1.68,8.73
	c0.26,0.8,0.6,1.56,1.01,2.26c1.01,1.68,2.02,2.17,1.87,2.45C44.94,228.2,41.57,227.25,38.32,225.33z"/>
<path class="st2" d="M42.16,209.39c-1.26,0.94-3.44-1.34-9.76-7.66c-4.69-4.72-5.59-5.86-6.78-7.66c-1.97-2.92-1.01-3.83-3.37-7.1
	c-1.6-2.23-3.37-4.26-5.27-6.07c-1.62-1.52-3.35-2.86-5.15-4.02c-5.56-3.57-9.35-3.73-9.3-4.75c0.05-1.02,4.67-1.84,8.09-1.89
	c3.76-0.23,7.51,0.5,11.04,2.14c2.65,1.29,5.01,3.38,6.88,6.07l1.09,1.28c1.25,1.49,2.02,2.26,3.18,3.57
	c1.46,1.6,1.25,1.49,2.47,2.87c0.6,0.68,1.48,1.63,4.04,4.24c3.72,3.75,3.55,3.43,3.81,3.83s3.03,4.61,2.02,8.56
	c-0.12,0.45-0.28,0.88-0.48,1.28c-0.31,0.73-0.7,1.93-1.28,3.16C43.12,208.07,42.69,208.8,42.16,209.39z"/>
<path class="st2" d="M59.28,187.21c-1.29,0.27-1.01,3.36-2.87,7.5c-0.68,1.5-1.15,3.12-1.42,4.81c0,0.07,0,0.14,0,0.2
	c-0.26,2.74,0.13,5.51,1.1,7.98c0.86,2.13,1.94,4.11,3.2,5.88c0.26,0.42,0.09,0.14,3.62,5.1c1.1,1.54,1.21,1.71,1.54,1.91
	c2.41,1.57,5.84-0.97,6.56-1.49c0.35-0.26,0.69-0.54,1.01-0.84c0.94-0.82,1.78-1.81,2.49-2.95c0.51-0.88,1.83-3.18,1.29-4.85
	c-0.62-1.9-2.95-0.88-6-3.37c-1.47-1.13-2.65-2.76-3.42-4.7c-0.77-1.81-1.06-3.9-0.82-5.93c0.18-1.14,0.49-1.61,0.31-2.55
	c-0.17-0.94-0.75-1.6-1.92-2.92c-0.74-0.82-1.52-1.58-2.35-2.26C60.31,187.67,59.67,187.13,59.28,187.21z"/>
<path class="st3" d="M99.46,259.97c-3.29,0.43-6.61,0.07-9.79-1.05c-1.89-0.57-3.74-1.36-5.52-2.36c-2.68-1.51-5.18-2.96-6.92-6.13
	c-0.19-0.34-0.56-1.28-1.28-3.15c-1.18-2.82-2.19-5.74-3.03-8.74c-1.3-5.03-0.84-6.65-0.67-7.16c0.65-2,2.14-3.43,2.53-3.18
	s-0.16,1.14,0.07,2.94c0.05,0.34,0.28,2.14,0.87,2.23c0.27,0,0.53-0.31,0.8-0.7c0.45-0.63,0.77-1.39,0.92-2.22
	c0.31-1.88-0.64-3.73-1.57-6.98c-0.69-1.96-1.06-4.07-1.07-6.21c0.03-1.52,0.32-3.02,0.84-4.39c0.79-2.04,2.36-4.39,3.03-4.06
	c0.68,0.33-0.13,2.72,0.44,7.47c0.13,1.6,0.55,3.14,1.23,4.49c0.58,1.25,1.51,2.18,2.61,2.62c0.38,0.13,1.48,0.48,2.02-0.15
	c0.55-0.64,0.25-2.03-0.1-4.47c-0.25-1.77-0.42-3.55-0.52-5.35c-0.02-2.87,0.47-5.7,1.44-8.29c1.01-3.23,2.53-6.73,2.98-6.53
	c0.45,0.19-0.48,2.68-0.3,7.13c0.1,1.98,0.39,3.94,0.87,5.83c0.36,1.59,1,3.06,1.86,4.3c0.52,0.73,1.09,1.51,1.64,1.37
	c0.83-0.2,1.09-2.36,1.21-3.34c0.23-2.02,0.14-4.08-0.27-6.06c-0.6-3.32-1.1-5.21-1.74-7.98c-0.7-2.61-1.23-5.29-1.59-8.01
	c-0.29-2.86-0.11-5.77,0.54-8.54c1.49-5.88,5.47-10.41,6.42-9.8s-1.57,4.31-0.8,10.32c0.51,3.05,1.4,5.97,2.64,8.66
	c1.37,3.36,2.02,3.83,2.49,6.21c0.08,0.37,0.22,2.46,0.52,6.66c0.14,2.09,0.48,4.14,1.01,6.13c0.5,1.85,0.78,2.18,1.01,2.17
	c0.4,0,0.65-1.58,0.78-2.45c0.29-2.24,0.34-4.52,0.14-6.78c-0.17-3.09-0.31-3.69,0-3.83c0.69-0.46,2.92,1.7,3.97,4.61
	c0.62,1.72,0.65,3.83,0.66,7.98s-0.2,5.44,0.74,6.69c0.76,1.07,1.91,1.56,3.03,1.28c0.35-0.13,1.18-0.56,2.12-3.46
	c1.27-3.92,0.86-6.53,1.29-6.64c0.43-0.1,1.5,4.48,3.7,13.13c1.15,4.5,1.64,6.18,1.84,9.12c0.24,2.68,0.1,5.4-0.43,8.01
	c-0.6,2.87-1.67,5.55-3.14,7.86c-1.18,1.82-2.6,3.37-4.19,4.58c-1.83,1.26-3.79,2.16-5.83,2.67
	C101.36,258.93,102.37,259.53,99.46,259.97z"/>
<path class="st2" d="M152.11,192.63c-0.45-1.03-6.6,2.82-7.18,4.72c-0.12,0.41-0.18,0.84-0.18,1.28c0.03,0.56,0.16,1.11,0.36,1.61
	c0.22,0.87,0.33,1.78,0.3,2.69c0.03,1.11-0.03,2.21-0.18,3.31c-0.11,1.26-0.33,2.51-0.65,3.71c-0.4,1.32-0.92,2.57-1.55,3.74
	c-0.16,0.33-0.76,1.56-1.7,3.13c-0.82,1.39-1.71,2.71-2.68,3.94c-2.02,2.49-3.03,2.99-2.92,3.59c0.21,0.88,2.72,0.71,4.32,0.36
	c2.08-0.31,4.02-1.5,5.49-3.38c0.81-1.19,1.37-2.62,1.62-4.16c0.15-0.8,0.19-1.42,0.09-5.1c-0.08-3.18-0.14-3.99-0.18-5.87
	c-0.11-1.75-0.11-3.51,0-5.26C147.94,195.58,152.48,193.51,152.11,192.63z"/>
<path class="st2" d="M58.88,141.64c-0.42,0.46-0.78,1-1.06,1.61c-0.36,0.64-0.62,1.15-0.76,1.44c-0.58,1.17-1.1,2.4-1.56,3.66
	c-0.45,1.21-0.77,2.5-0.93,3.83c-0.12,2.07,0.25,4.14,1.07,5.93c0.92,2.26,1.54,2.45,5.2,7.52c1.07,1.37,2.09,2.82,3.03,4.34
	c1.54,2.55,1.93,3.83,3.23,4.49c1.01,0.42,2.09,0.46,3.11,0.11c2.77-0.5,6.06-2.27,5.88-3.6c-0.07-0.7-1.01-0.54-2.26-1.82
	c-1.14-1.33-1.97-3.02-2.41-4.9c-0.56-1.9-0.91-3.9-1.01-5.92c-0.28-3.19-0.41-4.81,0.23-6.65c0.49-1.38,0.91-1.51,0.82-2.21
	c-0.14-1.21-1.47-1.63-5.85-4.13l-2.3-1.28C60.73,142.39,59.72,141.14,58.88,141.64z"/>
<path class="st2" d="M146.22,141.38c0.88,0.7-0.07,4.53-0.67,6.38c-0.65,1.99-1.57,3.82-2.74,5.4c-1.46,1.89-3.15,3.48-4.99,4.72
	c-3.03,2.28-4.6,3.43-4.64,3.45c-0.76,0.37-1.41,1-1.9,1.81c-0.25,0.48-0.43,1-0.54,1.56c-0.22,1.07-0.29,2.17-0.23,3.27
	c-0.01,1.28,0.06,2.56,0.23,3.83c0.12,0.96,0.32,1.91,0.59,2.82c0.66,2.14,1.41,2.85,1.16,3.23c-0.24,0.38-2.02-0.15-3.33-1.1
	c-1.28-0.91-2.35-2.23-3.09-3.83c-0.74-1.62-0.91-3.36-1.21-6.76c-0.26-2.03-0.35-4.1-0.24-6.15c-0.01-2.53,0.54-5.02,1.59-7.18
	c1.04-1.74,2.4-3.14,3.96-4.07c1.32-0.73,1.45-0.32,4.68-1.37c1.5-0.43,2.96-1.02,4.39-1.75c0.62-0.33,1.56-0.98,3.42-2.25
	C145.47,141.52,145.88,141.1,146.22,141.38z"/>
<path class="st2" d="M53.54,196.49c0.1,0,0.19,0,1.19,0.57c0.37,0.2,0.38,0.2,0.42,0.26c0.37,0.48-0.21,1.43-0.34,3.06
	c-0.02,0.86,0.04,1.71,0.17,2.55c0.07,0.83,0.19,1.66,0.36,2.46c0.27,1.14,0.68,2.21,1.23,3.16c4.36,8.1,6.2,10.06,6.63,10.48
	c1.14,1.1,1.55,1.42,1.55,1.42c0.75,0.6,1.11,0.75,1.08,0.93c-0.03,0.18-1.01,0.27-3.16,0.27c-1.15,0.04-2.29,0-3.44-0.11
	c-2.21-0.59-4.18-2.16-5.55-4.44c-1.09-1.79-1.77-3.93-1.94-6.18c-0.12-1.7,0.04-3.41,0.45-5.03c0.23-0.91,0.31-0.85,0.69-2.25
	c0.49-1.4,0.77-2.9,0.81-4.43C53.65,197.67,53.23,196.72,53.54,196.49z"/>
</svg>
