<?xml version="1.0" encoding="utf-8"?>
<!-- Generator: Adobe Illustrator 23.1.1, SVG Export Plug-In . SVG Version: 6.00 Build 0)  -->
<svg version="1.1" id="Layer_1" xmlns="http://www.w3.org/2000/svg" xmlns:xlink="http://www.w3.org/1999/xlink" x="0px" y="0px"
	 viewBox="0 0 200 300" style="enable-background:new 0 0 200 300;" xml:space="preserve">
<style type="text/css">
	.st0{fill:#FFFFFF;stroke:#666666;stroke-width:12;stroke-miterlimit:10;}
	.st1{fill:#4D4D4D;}
	.st2{fill:#ED1C24;}
	.st3{fill:none;stroke:#FFFFFF;stroke-width:6;stroke-miterlimit:10;}
</style>
<path class="st0" d="M142.7,123.6c-1.7-10.7-3.5-24.6-4.5-40.7c-0.8-12.2-0.6-15.8-3-21.1c-6.2-13.6-23.7-25-40.7-22.6
	c-18.8,2.7-28,21.3-34.7,34.7c-11,22.2-10.3,43.3-9,54.3C81.3,126.6,112.1,125.1,142.7,123.6z"/>
<path class="st1" d="M25.9,118.3c-0.2,18.1,0,36.9,0.8,56.5c1.2,31.2,3.6,60.6,6.8,88.2c44.8-1.1,89.4-2,134.2-3
	c3.9-19.4,5.6-36.5,6-49.7c0.3-9.2,0.9-34.4-4.5-66.3c-2.1-12.7-4.7-23.2-6.8-30.9c-35.9,3.2-73.3,5.1-112.3,5.3
	C41.8,118.4,33.9,118.4,25.9,118.3z"/>
<path d="M98.2,165c5-6.3,5.9-13.7,2.7-18.2c-1.8-2.6-6-5.3-9.6-3.9c-4.1,1.5-4.7,7.1-4.8,8c-0.8,6.9,5,12.1,5.7,12.7
	c-4.1,11-8,22.2-12.1,33.2c9,0,18.1,0,27.1,0C104.3,186.1,101.2,175.6,98.2,165z"/>
<circle class="st2" cx="99" cy="87.4" r="27.9"/>
<line class="st3" x1="69.6" y1="86.6" x2="127.6" y2="86.6"/>
</svg>
