<?xml version="1.0" encoding="utf-8"?>
<!-- Generator: Adobe Illustrator 23.1.1, SVG Export Plug-In . SVG Version: 6.00 Build 0)  -->
<svg version="1.1" id="Layer_1" xmlns="http://www.w3.org/2000/svg" xmlns:xlink="http://www.w3.org/1999/xlink" x="0px" y="0px"
	 viewBox="0 0 200 300" style="enable-background:new 0 0 200 300;" xml:space="preserve">
<style type="text/css">
	.st0{fill:#CB272D;}
</style>
<path class="st0" d="M174.15,103.68c-15.46-29.5-64.04-28.46-78.1-28.17c-18.37,0.39-53.87,1.14-69.13,25.61
	c-14.22,22.79-2.08,52.03,7.68,75.54c4.98,11.99,14.46,34,37.13,48.65c7.74,5,19.9,12.62,34.57,10.24
	c2.91-0.47,11.59-2.26,25.61-15.36c17.91-16.74,26.74-35.33,30.73-44.81C174.72,146.62,184.48,123.39,174.15,103.68z"/>
<circle cx="40.37" cy="165.78" r="2.56"/>
<circle cx="35.24" cy="113.29" r="2.56"/>
<circle cx="31.4" cy="129.93" r="2.56"/>
<circle cx="35.24" cy="149.13" r="2.56"/>
<circle cx="46.77" cy="182.42" r="2.56"/>
<circle cx="54.45" cy="196.5" r="2.56"/>
<circle cx="65.97" cy="210.59" r="2.56"/>
<circle cx="81.33" cy="220.83" r="2.56"/>
<circle cx="99.26" cy="225.95" r="2.56"/>
<circle cx="117.18" cy="218.27" r="2.56"/>
<circle cx="131.26" cy="205.47" r="2.56"/>
<circle cx="144.07" cy="191.38" r="2.56"/>
<circle cx="153.03" cy="173.46" r="2.56"/>
<circle cx="161.99" cy="154.25" r="2.56"/>
<circle cx="167.11" cy="135.05" r="2.56"/>
<circle cx="165.83" cy="115.85" r="2.56"/>
<circle cx="155.59" cy="97.92" r="2.56"/>
<circle cx="49.33" cy="96.64" r="2.56"/>
<circle cx="51.89" cy="118.41" r="2.56"/>
<circle cx="49.33" cy="137.61" r="2.56"/>
<circle cx="51.89" cy="154.25" r="2.56"/>
<circle cx="57.01" cy="168.34" r="2.56"/>
<circle cx="63.41" cy="182.42" r="2.56"/>
<circle cx="71.09" cy="196.5" r="2.56"/>
<circle cx="82.61" cy="205.47" r="2.56"/>
<circle cx="99.26" cy="210.59" r="2.56"/>
<circle cx="114.62" cy="200.34" r="2.56"/>
<circle cx="126.14" cy="188.82" r="2.56"/>
<circle cx="136.39" cy="176.02" r="2.56"/>
<circle cx="144.07" cy="160.66" r="2.56"/>
<circle cx="149.19" cy="142.73" r="2.56"/>
<circle cx="150.47" cy="124.81" r="2.56"/>
<circle cx="141.51" cy="110.73" r="2.56"/>
<circle cx="99.26" cy="191.38" r="2.56"/>
<circle cx="99.26" cy="168.34" r="2.56"/>
<circle cx="99.26" cy="149.13" r="2.56"/>
<circle cx="99.26" cy="129.93" r="2.56"/>
<circle cx="97.98" cy="110.73" r="2.56"/>
<circle cx="108.22" cy="158.1" r="2.56"/>
<circle cx="90.3" cy="158.1" r="2.56"/>
<circle cx="113.34" cy="141.45" r="2.56"/>
<circle cx="83.89" cy="141.45" r="2.56"/>
<circle cx="119.74" cy="120.97" r="2.56"/>
<circle cx="78.77" cy="120.97" r="2.56"/>
<circle cx="132.55" cy="133.77" r="2.56"/>
<circle cx="128.7" cy="151.69" r="2.56"/>
<circle cx="122.3" cy="165.78" r="2.56"/>
<circle cx="112.06" cy="179.86" r="2.56"/>
<circle cx="83.89" cy="178.58" r="2.56"/>
<circle cx="73.65" cy="165.78" r="2.56"/>
<circle cx="65.97" cy="151.69" r="2.56"/>
<circle cx="67.25" cy="132.49" r="2.56"/>
<circle cx="67.25" cy="108.17" r="2.56"/>
<circle cx="129.98" cy="105.6" r="2.56"/>
</svg>
