<?xml version="1.0" encoding="utf-8"?>
<!-- Generator: Adobe Illustrator 23.1.1, SVG Export Plug-In . SVG Version: 6.00 Build 0)  -->
<svg version="1.1" id="Layer_1" xmlns="http://www.w3.org/2000/svg" xmlns:xlink="http://www.w3.org/1999/xlink" x="0px" y="0px"
	 viewBox="0 0 200 300" style="enable-background:new 0 0 200 300;" xml:space="preserve">
<style type="text/css">
	.st0{fill:#2BAFEC;}
	.st1{fill:#33CCFF;}
	.st2{fill:#FFFFFF;}
	.st3{fill:#C1272D;}
	.st4{fill:#FF0000;}
</style>
<g>
	<rect x="91.9" y="84.6" class="st0" width="20.6" height="154.6"/>
</g>
<polygon class="st1" points="112.4,79.2 112.4,83.6 90.3,83.6 90.3,79.2 93.5,79.2 98.4,64.5 102.9,64.5 108.7,79.2 "/>
<rect x="90.3" y="94.4" class="st2" width="25" height="3.3"/>
<rect x="90.3" y="222.9" class="st2" width="25" height="4.4"/>
<g>
	<polygon class="st3" points="187,174 183.5,192.4 32.9,149.6 35.9,133 36.3,131.1 	"/>
</g>
<polygon class="st4" points="35.5,130.1 31.9,150 27.6,148.8 28.3,145.3 12.5,135.5 12.5,134.1 13.6,131.3 30.6,132.4 31.2,128.9 
	"/>
<polygon class="st2" points="44.4,153.3 46.6,153.8 49.2,135.1 47,134.6 "/>
<polygon class="st2" points="171.1,191 173.2,191.5 177.2,169.1 175.1,168.6 "/>
</svg>
