<?xml version="1.0" encoding="utf-8"?>
<!-- Generator: Adobe Illustrator 23.1.1, SVG Export Plug-In . SVG Version: 6.00 Build 0)  -->
<svg version="1.1" id="Layer_1" xmlns="http://www.w3.org/2000/svg" xmlns:xlink="http://www.w3.org/1999/xlink" x="0px" y="0px"
	 viewBox="0 0 200 300" style="enable-background:new 0 0 200 300;" xml:space="preserve">
<style type="text/css">
	.st0{display:none;fill:#B2A57F;}
	.st1{fill:#D5D6BA;}
	.st2{fill:#605242;}
	.st3{fill:#D39D8F;}
	.st4{fill:#FFFFFF;stroke:#2ACCFF;stroke-width:3;stroke-miterlimit:10;}
	.st5{display:none;fill:none;stroke:#000000;stroke-miterlimit:10;}
	.st6{fill:none;stroke:#000000;stroke-miterlimit:10;}
	.st7{fill:#6E6955;}
	.st8{fill:#787059;}
	.st9{fill:#8A003E;}
	.st10{fill:#887863;}
	.st11{fill:#C58E79;}
	.st12{fill:#FFFFFF;stroke:#15ACFF;stroke-width:3;stroke-miterlimit:10;}
</style>
<path class="st0" d="M160.64,81.47c-2.16,0.99-2.87,5.64-1.52,6.84c0.63,0.57,1.35,0.03,2.66,0.76c1.01,0.56,1.56,1.41,2.47,2.85
	c0.76,1.21,1.22,2.22,1.33,2.47c2.54,5.73,2.43,6.53,3.61,7.8c1.35,1.44,3.79,2.83,5.13,2.09c2.11-1.16,0.72-7.15,0.57-7.8
	C172.77,87.65,164.2,79.85,160.64,81.47z"/>
<path class="st1" d="M48.32,48.59c-4.3,0.3-12.83,1.01-21.29,6.46c-2.19,1.41-3.86,2.81-4.95,3.8c-5.24,21.27-4.46,36.73-2.66,47.14
	c0.58,3.37,1.33,6.5,3.04,15.97c3.42,18.88,3.13,21.24,4.95,30.79c2.62,13.78,6.28,33.02,17.86,50.56
	c2.28,3.44,3.77,5.19,8.36,12.16c8,12.18,8.77,15,14.06,21.29c3.97,4.72,7.39,8.69,13.31,12.16c8.44,4.95,16.32,5.58,18.63,5.7
	c3.29,0.18,10.6,0.17,18.63-3.42c8.29-3.71,12.9-9.24,17.86-15.2c6.17-7.4,5.72-9.46,15.58-23.56c5.11-7.31,4.89-6.26,8.36-11.4
	c5.74-8.5,11.61-17.19,14.83-28.51c1.53-5.4,1.91-13.61,2.66-30.03c0.4-8.79,0.19-10.54,0.76-20.15c0.7-11.7,1.18-11.88,1.52-20.53
	c0.35-8.83-0.3-5.08-0.38-23.56c-0.02-5.79,0.02-9.62-1.9-14.45c-0.76-1.9-2.27-5.59-5.7-8.74c-3.98-3.66-8.61-4.8-14.45-5.7
	c-13.71-2.13-23.56-1.52-23.56-1.52c-13.46,0.83-7.79-1.06-39.53-1.52C83.02,46.14,71.46,46.96,48.32,48.59z"/>
<path class="st2" d="M83.28,112.07c0.02-3.14-3.77-5.23-5.32-6.08c-3.61-1.99-6.58-1.94-11.79-2.28c-9.97-0.66-8.22-1.41-14.45-1.52
	c-8.64-0.15-13.41-0.23-17.86,3.04c-4.19,3.08-5.83,7.46-6.31,8.9c-0.86,2.61-1.16,5.7-0.53,5.93c0.57,0.2,1.92-1.95,3.8-4.95
	c1.68-2.68,1.83-3.32,2.92-4.18c0.38-0.31,1.32-0.99,4.69-1.77c2.72-0.63,5.19-0.91,7.47-1.01c2.67-0.12,4.84-0.23,7.61,0.25
	c0.45,0.07,0.86,0.19,1.07,0.24c2.85,0.7,4.87,1.58,5.64,1.91c5.59,2.39,5.69,1.71,9.88,3.8c2.29,1.14,4.09,2.26,6.97,2.54
	c1.94,0.18,2.92-0.16,3.55-0.51C82.18,115.52,83.28,113.74,83.28,112.07z"/>
<path class="st3" d="M80.88,130.7c-0.21-0.63-0.76-0.63-1.26-1.26c-0.71-0.88-0.62-1.58-1.01-2.66c-0.3-0.84-0.92-1.57-2.15-3.04
	c-0.77-0.91-1.72-2.04-3.17-3.29c-2.06-1.78-3.91-2.75-5.45-3.55c-2.44-1.26-3.89-2.01-5.83-2.41c-2.54-0.52-4.77-0.02-9.13,1.01
	c-3.53,0.83-6.29,1.5-9.63,3.29c-3.8,2.04-5.41,3.94-6.08,4.81c-0.93,1.21-1.94,2.58-2.03,4.56c-0.02,0.57-0.05,3.03,1.77,4.69
	c0.94,0.85,1.96,1.12,2.54,1.26c1.55,0.41,3.33,0.29,3.42-0.12c0.06-0.28-0.71-0.48-2.15-1.52c-1.3-0.93-2.11-1.51-2.41-2.41
	c-0.43-1.3,0.44-2.67,0.76-3.17c1.14-1.78,2.46-1.89,6.59-4.06c2.2-1.16,2.11-1.28,5.19-2.92c2.31-1.22,3.47-1.84,4.18-2.03
	c2.44-0.65,4.51-0.22,7.35,0.38c2.24,0.47,3.85,1.08,5.32,1.65c2.83,1.09,4.25,1.64,5.83,2.92c0.8,0.65,2.53,2.09,3.55,4.56
	c0.57,1.38,1.05,2.55,0.63,3.8c-0.57,1.71-2.37,2.25-2.15,3.42c0.08,0.47,0.47,0.9,0.89,1.01c0.81,0.23,1.65-0.68,2.66-1.77
	c0.07-0.07,0.19-0.11,0.34-0.21c0.24-0.17,0.83-0.58,1.18-1.31C80.77,132.03,81.1,131.36,80.88,130.7z"/>
<path class="st4" d="M74.55,135.13c-0.53,0.45-1.3,0.95-5.19,1.77c-3.71,0.78-5.56,1.18-7.98,1.14c-1.82-0.02-3.45-0.36-6.72-1.01
	c-2.22-0.45-4.1-0.97-7.85-2.03c-1.72-0.48-2.29-0.66-3.04-1.01c-1.42-0.66-4.36-2.02-4.56-4.18c-0.12-1.22,0.69-2.21,1.26-2.92
	c1.3-1.6,2.59-1.78,6.21-3.42c3.3-1.5,2.94-1.68,5.19-2.54c1.53-0.58,3.33-1.26,5.83-1.52c2.94-0.32,5.21,0.1,5.95,0.25
	c2.68,0.55,4.55,1.57,6.08,2.41c1.68,0.91,2.77,1.75,3.42,2.28c0.86,0.7,1.57,1.3,2.28,2.28c0.62,0.86,1.37,1.9,1.52,3.29
	C77.25,132.78,74.78,134.93,74.55,135.13z"/>
<path class="st5" d="M23.72,108.69c-0.22,0.09,0,1.85,0.91,3.35c0.43,0.71,0.79,0.98,1.84,2.6c0.23,0.36,0.32,0.49,0.6,0.91
	c0.67,1,1.02,1.51,1.52,2.02c0.49,0.5,0.92,0.81,1.22,1.02c1.62,1.14,3.84,1.97,4.02,1.67c0.24-0.41-3.65-2.04-6.92-6.39
	C24.85,111.12,24,108.57,23.72,108.69z"/>
<path class="st6" d="M37.42,113.96c-0.17,0.06,0.07,1.7,0.76,3.29c0.94,2.19,2.44,3.52,3.61,4.55c1.61,1.42,3.3,2.43,3.39,2.31
	c0.12-0.16-3.06-1.94-5.48-5.73C38.19,116.03,37.63,113.9,37.42,113.96z"/>
<path class="st6" d="M39.7,112.95c-0.2,0.06-0.1,2.75,1.26,5.32c1.94,3.66,5.55,5.38,5.7,5.19c0.13-0.17-2.62-1.8-4.81-5.58
	C40.26,115.17,39.89,112.9,39.7,112.95z"/>
<path class="st5" d="M30.42,106.71c-0.15,0.08,0.78,2.36,1.98,4.42c2.54,4.39,5.93,7.21,6.11,7.05c0.17-0.15-2.39-2.74-5.96-8.27
	C31.37,108.07,30.54,106.65,30.42,106.71z"/>
<path class="st6" d="M42.23,111.69c-0.07,0.04,0.22,0.62,0.81,1.8c0.08,0.17,0.76,1.52,1.34,2.51c1.47,2.5,4.26,5.96,4.44,5.83
	c0.13-0.09-1.14-2.06-3.42-5.58C44.56,114.95,42.38,111.6,42.23,111.69z"/>
<path class="st5" d="M34.54,103.2c-0.2,0.04-0.01,2.1,0.46,3.96c0,0,0.13,0.5,0.26,0.95c1.01,3.23,5.11,8.39,5.38,8.2
	c0.18-0.13-1.88-2.25-3.81-6.71C35.25,105.97,34.78,103.15,34.54,103.2z"/>
<path class="st6" d="M46.04,109.91c-0.14,0.04,0.32,2.54,1.4,5.19c1.33,3.3,3.15,5.78,3.29,5.7c0.12-0.07-0.96-1.92-2.66-5.95
	C46.69,111.6,46.16,109.88,46.04,109.91z"/>
<path class="st5" d="M38.66,103.51c-0.17,0.05,0.66,3.42,0.72,3.66c0.09,0.36,0.17,0.66,0.19,0.76c0.77,2.84,3.75,7.15,3.96,7.01
	c0.14-0.09-1.26-1.95-2.9-5.95C39.36,105.88,38.77,103.47,38.66,103.51z"/>
<path class="st6" d="M51.87,108.89c-0.12,0-0.39,2.4,0,5.07c0.47,3.26,1.75,5.75,1.9,5.7c0.15-0.05-0.94-2.74-1.52-7.22
	C51.97,110.27,51.96,108.89,51.87,108.89z"/>
<path class="st5" d="M45.97,105.49c0.01-1.39,0.15-3.07,0.15-3.05c0,1.98,0,2.16,0,2.16c0.01,0.91,0.02,1.93,0.15,3.18
	c0.07,0.64,0.12,0.91,0.46,2.74c0.49,2.65,0.73,3.98,0.72,3.98C47.39,114.51,45.94,110.49,45.97,105.49z"/>
<path class="st6" d="M55.92,110.29c-0.06-0.02-0.43,0.99-0.5,2.24c0,0-0.02,0.34-0.01,0.68c0.07,1.98,1.55,6.31,1.57,6.3
	c0.01-0.01-1.8-2.69-1.57-6.3C55.52,111.62,55.98,110.31,55.92,110.29z"/>
<path class="st5" d="M49.48,103.97c0,0-0.34,1.29-0.46,2.59c-0.33,3.78,1.37,6.71,1.37,6.71s-1.7-2.92-1.37-6.71
	C49.14,105.26,49.48,103.97,49.48,103.97z"/>
<path class="st6" d="M59.21,111.3c-0.01-0.01-0.37,0.67-0.63,1.52c-0.1,0.32-0.39,1.32-0.37,2.67c0,0.17,0.01,0.48,0.05,0.88
	c0.14,1.36,0.55,2.41,0.58,2.4c0.04-0.01-0.76-1.4-0.63-3.28c0.11-1.58,0.9-3.87,0.97-4.08C59.19,111.39,59.22,111.3,59.21,111.3z"
	/>
<path class="st6" d="M60.35,112.19c-0.05-0.02-0.42,0.54-0.63,1.01c-1.15,2.45,0.03,5.47,0.12,5.45c0.05-0.01-0.06-0.83-0.58-3.72
	C59.84,113.65,60.44,112.24,60.35,112.19z"/>
<path class="st5" d="M55.88,105.8c0.49,0.2-1.81,7.25-2.13,7.16c-0.06-0.02,0.11-1.13,0.46-3.35c0.16-1.05,0.28-1.7,0.68-2.49
	C55.16,106.58,55.7,105.72,55.88,105.8z"/>
<path class="st6" d="M64.79,112.95c0.12,0.04-0.29,1.77-0.78,3.16c-0.6,1.68-1.51,3.4-1.63,3.35
	C62.15,119.36,64.55,112.88,64.79,112.95z"/>
<path class="st5" d="M60.3,107.32c-0.07-0.02-1.52,3.96-1.52,3.96l0,0c0,0-0.46,3.27-0.36,3.28c0.08,0.01,0.38-2.02,1.23-5
	C60.02,108.25,60.34,107.33,60.3,107.32z"/>
<path class="st6" d="M70.23,115.49c-0.01-0.01-0.23,0.27-0.41,0.51c-0.79,1.02-1.3,1.92-1.5,2.29c-0.76,1.38-1.13,2.53-1.12,2.53
	s0.47-1.57,1.64-3.38C69.49,116.41,70.25,115.49,70.23,115.49z"/>
<path class="st5" d="M62.28,108.08c-0.04-0.02-0.63,1.03-1.14,2.23c-1.04,2.46-1.38,4.65-1.31,4.67c0.05,0.01,0.31-1.22,1.08-3.39
	C61.67,109.47,62.33,108.11,62.28,108.08z"/>
<path class="st5" d="M67.31,110.37c-0.02-0.01-1.07,1.74-2.13,3.66c-0.2,0.36-0.79,1.43-0.78,1.43
	C64.43,115.48,67.34,110.39,67.31,110.37z"/>
<path class="st5" d="M68.99,110.98c-0.21-0.1-3.63,6.61-3.4,6.74c0.14,0.08,1.7-2.18,2.79-4.91
	C68.45,112.63,69.09,111.02,68.99,110.98z"/>
<path class="st5" d="M71.28,112.5c-1.4,2.05-2.8,4.1-4.21,6.15C68.47,116.61,69.88,114.55,71.28,112.5z"/>
<path class="st5" d="M73.41,114.18c-0.07-0.07-5.36,5.15-5.29,5.23c0.04,0.05,1.99-1.67,3.92-3.7
	C72.38,115.34,73.44,114.21,73.41,114.18z"/>
<path class="st5" d="M75.09,115.86c-0.08-0.08-5.49,4.72-5.41,4.82c0.04,0.05,1.8-1.32,3.43-2.83
	C73.95,117.06,75.13,115.9,75.09,115.86z"/>
<path class="st7" d="M88.74,179.48c0.05-0.88-1.58-1.62-2.03-1.26s-0.1,2.14,0.76,2.28C88,180.58,88.7,180.02,88.74,179.48z"/>
<path class="st8" d="M110.53,178.97c-0.37-0.3-1.35,0.28-1.9,0.89c-0.28,0.31-0.86,1.06-0.63,1.4c0.27,0.38,1.64,0.21,2.28-0.63
	C110.69,180.07,110.84,179.22,110.53,178.97z"/>
<path class="st6" d="M74.55,135.13c-0.37,0.23,4.9,9.83,5.32,9.63c0.23-0.12-0.92-3.38-2.78-6.33
	C76.19,137,74.72,135.02,74.55,135.13z"/>
<path class="st5" d="M69.45,134.91c-0.12,0.05,0.39,1.18,1.65,4.89c1.64,4.81,2.14,6.89,2.31,6.85c0.19-0.04-0.1-2.63-0.91-5.34
	C71.4,137.7,69.64,134.83,69.45,134.91z"/>
<path class="st6" d="M75.06,145.13c-0.02,0.01-2.68-8.98-2.66-8.98c0.02-0.01,0.98,3.15,1.97,6.57
	C74.41,142.86,75.06,145.13,75.06,145.13z"/>
<path class="st5" d="M66.47,134.56c0.16-0.04,3.9,13.26,3.74,13.31c-0.08,0.02-1.25-3.53-2.13-6.71
	C67.23,138.14,66.39,134.58,66.47,134.56z"/>
<path class="st6" d="M69.35,136.9c0.22-0.06,4.01,12.72,3.8,12.8c-0.11,0.03-1.3-3.25-2.15-6.08
	C70.06,140.49,69.24,136.93,69.35,136.9z"/>
<path class="st5" d="M62.92,135.35c0.43-0.09,4.51,15.75,4.09,15.88c-0.22,0.07-1.76-4.17-2.74-8.08
	C63.38,139.63,62.7,135.4,62.92,135.35z"/>
<path class="st5" d="M61.52,136.59c0.23-0.03,0.54,3.58,1.98,9.15c1.17,4.53,2.14,6.64,1.98,6.71c-0.23,0.09-2.68-4.12-3.66-9.6
	C61.25,139.62,61.31,136.61,61.52,136.59z"/>
<path class="st6" d="M65.68,138.42c0.17,0.01-0.15,2.78,0.51,6.72c0.61,3.64,1.9,5.77,1.77,5.83c-0.15,0.07-2.12-2.81-2.66-6.72
	C64.86,141.08,65.51,138.41,65.68,138.42z"/>
<path class="st5" d="M58.02,137.2c0.01,0-0.51,3.27,0.15,7.32c0.78,4.76,2.73,7.93,2.74,7.93c0.01,0-2.22-3.69-2.89-9.04
	C57.59,139.92,58.01,137.2,58.02,137.2z"/>
<path class="st6" d="M62.51,138.67c0.22,0.01-0.05,3.51,0.63,7.22c0.66,3.57,1.88,5.66,1.77,5.7c-0.13,0.05-1.86-3.24-2.66-7.22
	c0,0-0.49-2.44,0.14-5.42C62.41,138.89,62.46,138.67,62.51,138.67z"/>
<path class="st5" d="M54.66,136.44c0.12,0.02-0.45,2.86-0.15,7.01c0.2,2.77,0.67,4.51,0.91,5.34c0.74,2.45,1.67,3.97,1.68,3.96
	c0.02-0.01-3.14-4.39-3.35-10.21C53.62,139.14,54.54,136.42,54.66,136.44z"/>
<path class="st5" d="M52.53,137.05c0.14,0.03-0.6,2.53-0.61,6.25c-0.02,5.19,1.4,8.64,1.22,8.69s-1.94-3.42-1.98-7.93
	C51.12,140.17,52.37,137.01,52.53,137.05z"/>
<path class="st6" d="M58.2,138.42c0.2,0.06-0.71,2.73-0.89,5.45c-0.27,4.09,1.16,6.92,1.01,6.97c-0.14,0.04-1.53-2.84-1.65-6.46
	c0,0-0.09-2.69,1.26-5.57C58.01,138.67,58.14,138.4,58.2,138.42z"/>
<path class="st5" d="M49.37,135.77c-0.25-0.06-1.29,2.52-1.87,5.24c-1.1,5.14-0.39,9.85-0.04,9.85c0.27,0,0.22-2.67,1.26-9.85
	C49.22,137.57,49.57,135.82,49.37,135.77z"/>
<path class="st6" d="M54.91,138.04c0.12,0.04-0.68,2.22-1.26,5.7c-0.62,3.63-0.52,5.83-0.63,5.83c-0.14,0-0.56-3.23,0.25-6.97
	C53.82,140.05,54.78,138,54.91,138.04z"/>
<path class="st5" d="M46.58,135.22c0.21,0.16-2.45,2.86-3.66,7.32c-1.09,4.02-0.34,7.01-0.46,7.01c-0.15,0.01-1.68-5.48,0.76-10.37
	C44.49,136.66,46.41,135.09,46.58,135.22z"/>
<path class="st6" d="M53.34,136.75c0,0-1.62,1.85-2.61,4.72c-1.25,3.62-0.76,6.72-0.76,6.72s-0.49-3.1,0.76-6.72
	C51.72,138.59,53.34,136.75,53.34,136.75z"/>
<path class="st5" d="M38.35,146.65c0.17,0.02,0.13-2.94,1.68-7.16c1.16-3.16,2.53-5.16,2.38-5.25c-0.15-0.09-1.63,1.63-2.68,3.88
	C37.72,142.38,38.15,146.63,38.35,146.65z"/>
<path class="st6" d="M49.58,135.77c0.13,0.08-1.38,2.26-2.53,5.81c-0.81,2.52-0.91,4.07-1.01,4.06c-0.14-0.02-0.22-3.2,1.26-6.46
	C48.22,137.17,49.46,135.71,49.58,135.77z"/>
<path class="st5" d="M37.59,134c0.18,0.09-0.6,1.71-1.52,4.73c-1.19,3.88-1.33,5.82-1.52,5.79c-0.26-0.03-0.49-3.51,0.91-7.01
	C36.24,135.55,37.4,133.91,37.59,134z"/>
<path class="st6" d="M45.67,134.68c0,0-1.13,1.67-1.99,4.06c-1.01,2.79-1.07,5-1.07,5c0.01,0,0.11-2.66,1.4-5.83
	C44.78,136,45.67,134.68,45.67,134.68z"/>
<path class="st9" d="M73.4,209.75c0.09-0.24,0.9,0.01,2.66,0c1.53-0.01,2.29-0.01,3.04-0.38c1.21-0.59,1.04-1.36,2.28-1.9
	c0.96-0.42,1.23-0.02,2.28-0.38c1.28-0.43,1.25-1.15,2.66-2.09c0.4-0.27,2.14-1.43,3.99-1.14c1.14,0.17,1.8,0.81,2.47,1.33
	c1.28,0.98,3.32,2.07,6.65,2.47c0.56-0.48,1.44-1.16,2.66-1.71c1.44-0.65,1.75-0.4,3.23-0.95c2.7-1.01,3.42-2.49,4.56-2.09
	c0.74,0.27,0.63,0.96,1.71,1.52c0.84,0.44,1.4,0.27,2.28,0.38c2.49,0.32,4.36,2.55,4.18,2.85c-0.14,0.25-1.9-0.38-1.9-0.38l0,0
	c0,0,2.79-0.24,5.13,0.76c1.73,0.74,2.38,1.8,3.8,2.09c1.26,0.26,2.1,0.09,2.1,0.09c0.32-0.06,0.53-0.14,0.56-0.09
	c0.07,0.14-1.55,0.96-2.85,1.9c-1.53,1.11-2.24,2.14-3.42,3.61c-1.57,1.96-3.27,4.09-5.13,5.7c-3.14,2.73-6.49,3.8-8.36,4.37
	c-1.09,0.33-3.57,1.02-6.84,1.14c-2.31,0.08-7.4,0.22-12.73-2.66c-1.6-0.86-3.66-1.97-5.51-4.18c-1.4-1.66-1.59-2.64-3.8-5.13
	c-1.03-1.16-1.72-1.94-2.85-2.85C74.61,210.7,73.28,210.08,73.4,209.75z"/>
<path class="st10" d="M118.54,104.56c-1.48,1.2-1.87,2.2-1.99,2.57c-0.35,1.03-0.2,1.95,0.09,3.8c0.32,1.99,0.74,2.46,0.95,2.66
	c0.15,0.14,0.71,0.63,1.9,0.76c1.92,0.21,3.37-0.75,4.85-1.52c2.45-1.28,2.53-0.78,5.89-2.19c5.18-2.17,5.38-3.52,11.31-6.56
	c3.4-1.75,5.92-2.62,7.98-3.32c3.43-1.18,5.39-1.54,7.31-1.61c1.75-0.07,3.24-0.12,4.95,0.57c1.72,0.7,2.5,1.69,4.65,3.9
	c1.21,1.25,3.01,3.03,5.32,5.13c0.24-0.73,0.52-1.9,0.38-3.32c-0.17-1.68-0.86-2.81-1.71-4.18c-1.38-2.22-2.93-3.66-4.56-5.13
	c-1.11-1.01-2.08-1.77-2.76-2.28c-1.41-0.06-3.48-0.12-5.98-0.09c-2.8,0.02-4.23,0.04-5.79,0.28c-2.61,0.42-3.83,1.15-6.65,2.28
	c-3.08,1.24-5.86,1.96-11.4,3.42c-2.95,0.77-5.85,1.75-8.84,2.38C123.01,102.39,120.69,102.83,118.54,104.56z"/>
<path class="st11" d="M117.4,133.16c-1.31-1.38-1.97-2.07-2.09-2.28c-1.09-1.88-0.84-3.86-0.76-4.37c0.22-1.4,0.81-2.34,1.99-4.18
	c1.55-2.39,2.32-3.59,3.32-4.27c2.15-1.46,3.37-0.32,7.51-1.24c1.56-0.35,1.23-0.47,6.75-2.66c3.74-1.48,5.61-2.22,7.12-2.57
	c2.25-0.51,4.99-1.13,8.36-0.38c1.46,0.32,4.43,1.03,6.84,3.61c1.82,1.94,2.46,4.04,2.94,5.61c0.51,1.65,0.92,3.05,0.57,4.85
	c-0.37,1.92-1.4,3.2-1.9,3.8c-0.52,0.62-0.98,1.18-1.8,1.52c-1.25,0.52-2.85,0.36-3.04-0.19c-0.14-0.42,0.63-0.77,2.09-2.47
	c0.96-1.12,1.45-1.68,1.61-2.38c0.4-1.65-0.72-3.22-1.14-3.8c-0.34-0.47-1.17-1.51-3.32-2.57c-1.46-0.71-2.83-1.1-6.18-1.61
	c-3.48-0.54-5.23-0.81-7.13-0.86c-3.47-0.07-6.07,0.39-8.08,0.76c-3.72,0.68-5.58,1.02-7.7,2.38c-1.9,1.21-3.05,2.58-3.9,3.61
	c-1.19,1.44-2.27,2.77-2.57,4.75c-0.12,0.81-0.34,2.27,0.47,3.04c0.7,0.66,1.48,0.42,2.47,1.14c0.83,0.61,1.22,1.5,1.42,2.19
	c-0.37,0.17-0.95,0.39-1.61,0.28C118.97,134.76,118.52,134.34,117.4,133.16z"/>
<path class="st12" d="M124.72,120.9c-1.74,0.57-2.63,0.85-3.23,1.24c-2.17,1.38-3.05,3.45-3.52,4.56c-0.61,1.43-1.1,2.59-0.57,3.52
	c0.44,0.77,1.19,0.68,2.57,1.61c1.22,0.83,1.56,1.55,2.28,2.28c1.31,1.35,2.86,1.72,5.7,2.38c2.11,0.48,5.16,1.16,9.22,0.76
	c2.56-0.25,4.43-0.78,4.99-0.95c2.45-0.74,4.3-1.73,5.37-2.38c0.82-0.5,0.96-0.73,1.8-1.51c0,0,0.04-0.04,0.22-0.21
	c0.8-0.74,2.95-2.43,3.68-3.03c1.92-1.59,2.89-2.38,3.04-3.61c0.15-1.26-0.54-2.29-0.86-2.76c-1.08-1.58-2.83-2.49-6.37-3.32
	c-5.51-1.31-9.93-1.19-11.12-1.14c-0.75,0.03-4.13,0.18-8.27,1.14C127.81,119.91,126.44,120.35,124.72,120.9z"/>
<path class="st5" d="M122.42,111.25c-0.16,0.11,0.68,2.01,2.4,3.54c0.09,0.08,0.47,0.42,1.03,0.8c1.07,0.73,2.26,1.26,2.33,1.15
	c0.07-0.11-1.09-0.77-2.56-2.06C123.43,112.74,122.56,111.15,122.42,111.25z"/>
<path class="st5" d="M124.82,109.3c-0.14,0.09,0.76,2.34,2.63,4.34c1.36,1.46,2.89,2.42,2.98,2.32c0.08-0.09-0.95-0.98-2.52-2.77
	C125.79,110.75,124.94,109.23,124.82,109.3z"/>
<path class="st5" d="M128.6,109.64c-0.4-0.8-0.99-1.53-1.11-1.46c-0.19,0.1,0.65,2.26,1.8,4.21c1.21,2.05,2.34,3.17,2.31,3.2
	c-0.04,0.03-1.75-1.16-2.31-3.2C129.01,111.4,129.16,110.78,128.6,109.64z"/>
<path class="st6" d="M123.96,113.68c-0.15,0.06,0.41,2.17,1.24,4.18c0.42,1,1.13,2.54,1.26,2.49c0.16-0.06-0.5-2.32-1.36-4.39
	C125.02,115.76,124.12,113.62,123.96,113.68z"/>
<path class="st5" d="M132.26,105.87c-0.13,0.04,0.23,2.11,0.8,4.12c0.68,2.41,1.65,4.67,1.79,4.62c0.18-0.06-0.82-3.51-1.34-5.19
	C133.24,108.51,132.41,105.83,132.26,105.87z"/>
<path class="st5" d="M134.89,105.53c-0.12,0.02,0.04,1.78,0.34,3.43c0.51,2.74,1.44,5.19,1.6,5.14c0.22-0.06-0.94-4.87-1.26-6.17
	C135,105.57,134.91,105.52,134.89,105.53z"/>
<path class="st6" d="M129.57,111.88c-0.08,0.03,0.15,0.75,0.43,2.16c0.21,1.03,0.32,1.82,0.42,2.59c0.29,2.04,0.25,2.62,0.32,2.62
	c0.15,0,0.69-2.82-0.32-5.66C130.12,112.73,129.66,111.85,129.57,111.88z"/>
<path class="st6" d="M131.37,110.74c-0.07,0.01,0.2,1.16,0.38,3.13c0.28,3.13,0.07,5.14,0.17,5.14c0.09,0.01,0.43-1.85,0.29-4.09
	C132.06,112.62,131.46,110.72,131.37,110.74z"/>
<path class="st5" d="M141.52,102.67c-0.2,0.01,0.09,10.52,0.29,10.52c0.1,0,0.18-2.49,0.17-4.35
	C141.95,105.78,141.63,102.66,141.52,102.67z"/>
<path class="st5" d="M143.23,104.96c0,0-0.02,1.85-0.04,3.65c-0.03,2.26-0.05,4.42-0.05,4.42
	C143.14,113.02,143.23,104.96,143.23,104.96z"/>
<path class="st6" d="M136.22,110.92c-0.17,0-0.31,2.24-0.28,4.09c0.02,1.4,0.14,3.43,0.31,3.43s0.37-1.97,0.36-3.81
	C136.59,112.88,136.39,110.92,136.22,110.92z"/>
<path class="st5" d="M147.01,103.36c-0.1,0.01-0.03,1.34-0.11,4.8c-0.08,3.35-0.21,4.56-0.11,4.57c0.13,0.01,0.64-2.22,0.69-4.8
	C147.51,105.49,147.14,103.35,147.01,103.36z"/>
<path class="st5" d="M149.75,105.76c-0.17,0.02,0.2,1.73-0.23,4.34c-0.23,1.42-0.55,2.19-0.46,2.22c0.14,0.05,1.07-1.42,1.26-3.25
	C150.5,107.29,149.91,105.74,149.75,105.76z"/>
<path class="st6" d="M141.92,109.78c-0.12,0.01,0.05,1.65-0.19,4.56c-0.22,2.58-0.57,4-0.46,4.01c0.12,0.02,0.84-1.84,1.03-4.11
	C142.5,111.84,142.05,109.78,141.92,109.78z"/>
<path class="st6" d="M142.78,107.98c-0.15,0.02,0.47,2.35,0.28,5.98c-0.14,2.73-0.65,4.45-0.52,4.48c0.14,0.03,1.06-2.15,1.19-4.86
	C143.87,110.48,142.93,107.96,142.78,107.98z"/>
<path class="st5" d="M154.78,101.18c-0.05,0.01,0.52,2.75,0,6.17c-0.06,0.38-0.13,0.8-0.22,1.28c-0.53,2.95-0.96,4.34-0.88,4.36
	c0.09,0.03,1.15-2.14,1.56-4.95C155.8,104.19,154.84,101.18,154.78,101.18z"/>
<path class="st5" d="M158.78,100.04c-0.1-0.01-0.25,2.96-1.47,6.88c-0.32,1.03-0.63,1.85-0.7,2.03c-0.99,2.62-1.92,4.13-1.87,4.16
	c0.07,0.04,1.86-2.19,3.01-5.42C159.2,103.63,158.89,100.05,158.78,100.04z"/>
<path class="st5" d="M156.37,113.35c-0.03-0.02,1.45-1.85,2.41-4.97c0.1-0.32,0.28-0.95,0.45-1.78c0.67-3.36,0.2-5.88,0.24-5.88
	c0.04,0,1.1,3.32,0,7.2C158.51,111.31,156.41,113.38,156.37,113.35z"/>
<path class="st6" d="M149.9,108.36c-0.16,0.02,0.99,3.39-0.38,7.13c-0.84,2.28-2.2,3.59-2.15,3.63c0.07,0.05,2.35-1.9,3.1-4.96
	C151.23,111.06,150.05,108.34,149.9,108.36z"/>
<path class="st5" d="M163.58,101.07c-0.15,0.01,0.78,3.34-0.57,7.09c-1.34,3.71-4.12,5.61-4.04,5.68c0.08,0.08,3.63-2.12,4.84-6.25
	C164.81,104.16,163.73,101.06,163.58,101.07z"/>
<path class="st6" d="M153.99,109.59c0,0,0.4,2.98-1.24,5.89c-0.79,1.4-4.94,3.52-3.32,3.52c1.35,0,2.01-1.17,3.32-3.52
	C154.39,112.58,153.99,109.59,153.99,109.59z"/>
<path class="st5" d="M167.47,103.01c-0.09-0.01,0.13,3.31-1.94,6.86c-1.72,2.94-4.09,4.47-3.98,4.59c0.09,0.11,2.1-0.96,3.64-2.99
	C168.01,107.76,167.58,103.03,167.47,103.01z"/>
<path class="st5" d="M169.07,104.61c-0.2-0.03-0.13,3.17-2.17,6.52c-1.61,2.63-3.59,3.82-3.51,3.91c0.1,0.11,3.28-1.47,4.88-4.82
	C169.6,107.44,169.26,104.64,169.07,104.61z"/>
<path class="st6" d="M157.79,112.35c-0.11-0.01,0.27,3.17-1.8,5.61c-1.39,1.62-3.2,2.14-3.13,2.28c0.07,0.13,1.95-0.19,3.32-1.52
	C158.58,116.38,157.91,112.36,157.79,112.35z"/>
<path class="st5" d="M172.84,107.24c-0.26-0.04-0.15,3.64-2.86,6.4c-1.93,1.96-4.21,2.36-4.14,2.57c0.09,0.24,3.24,0.09,5.28-1.99
	C173.7,111.59,173.12,107.29,172.84,107.24z"/>
<path class="st5" d="M175.59,110.22c-0.18-0.09-1.41,4.32-5.26,5.95c-1.88,0.79-3.64,0.61-3.64,0.68c0.01,0.09,2.65,0.57,5.01-0.68
	C175,114.4,175.75,110.3,175.59,110.22z"/>
<path class="st5" d="M175.93,113.19c-0.15-0.1-1.5,2.15-4,3.66c-0.09,0.05-0.19,0.11-0.33,0.19c-2.03,1.12-3.79,1-3.78,1.06
	c0,0.07,2.02,0.5,4.12-0.46c1.77-0.81,2.77-2.22,3.2-2.86C175.65,114.04,176.02,113.25,175.93,113.19z"/>
<path class="st5" d="M177.08,115.36c-0.09-0.1-2.81,2.31-5.15,3.09c-0.32,0.11-0.64,0.2-0.64,0.2c-1.72,0.48-2.88,0.42-2.88,0.48
	c0,0.08,1.85,0.54,3.86,0.01C175.45,118.29,177.16,115.46,177.08,115.36z"/>
<path class="st6" d="M122.25,134.11c-0.08-0.07-1.56,1.15-2.94,2.85c-1.78,2.19-2.77,4.41-2.66,4.46c0.09,0.05,0.91-1.38,2.85-3.9
	C121.23,135.3,122.32,134.18,122.25,134.11z"/>
<path class="st5" d="M123.22,143.6c-0.21-0.05,0.16-3.85,2.06-6.97c0.01-0.02,0.02-0.04,0.03-0.05c0,0,0.01-0.01,0.02-0.03
	c0.03-0.05,3.47-4.12,3.68-3.92c0.14,0.13-1.51,1.59-3.16,4.46C123.71,140.8,123.43,143.65,123.22,143.6z"/>
<path class="st5" d="M130.2,133.26c-0.13-0.1-2.26,1.83-3.77,4.62c-2.21,4.08-2.15,8.19-1.94,8.23c0.2,0.04,0.47-3.89,3.09-8.69
	C128.94,134.92,130.31,133.35,130.2,133.26z"/>
<path class="st6" d="M124.53,136.11c-0.12-0.04-1.07,2.43-1.71,4.28c-0.72,2.09-1.55,4.8-1.42,4.85c0.12,0.04,1.12-2.36,1.9-4.65
	C124,138.48,124.65,136.15,124.53,136.11z"/>
<path class="st5" d="M127.8,146.69c-0.1-0.04,0.87-2.2,2.17-6.52c1.18-3.9,1.68-6.38,1.79-6.36c0.1,0.02-0.2,2.4-0.87,4.98
	C129.73,143.29,127.92,146.74,127.8,146.69z"/>
<path class="st5" d="M132.94,134.14c-0.07-0.01-0.25,1.68-0.8,4.44c-0.36,1.83-0.68,3.42-1.26,5.26c-1.05,3.33-2.3,5.37-2.29,5.37
	c0.02,0.01,2.8-4.08,3.89-9.95C132.97,136.62,133.02,134.14,132.94,134.14z"/>
<path class="st6" d="M127.95,136.49c-0.11-0.02-0.38,2.71-1.33,6.56c-1.14,4.62-2.38,7.28-2.28,7.31c0.12,0.04,2.05-3.58,3.04-8.46
	C127.96,139.03,128.05,136.51,127.95,136.49z"/>
<path class="st5" d="M135.69,134.78c-0.15,0.01,0.07,1.69-0.12,3.91c-0.41,4.82-2.38,7.79-2.17,7.89s2.73-3.01,2.97-7.2
	C136.51,136.97,135.87,134.76,135.69,134.78z"/>
<path class="st6" d="M129.68,136.86c-0.16,0.01,0.26,3.19-0.58,7.32c-0.86,4.22-2.48,6.7-2.38,6.75c0.12,0.06,2.88-3.79,3.32-9.03
	C130.28,139.16,129.81,136.85,129.68,136.86z"/>
<path class="st5" d="M138.89,141.32c-0.45,5.35-3.08,9.2-3.2,9.15c-0.03-0.01,2.24-3.71,2.63-9.03c0.26-3.51-0.41-6.12-0.12-6.17
	c0.29-0.06,1.27,2.51,1.61,5.37c0.64,5.42-1.22,10.24-1.6,10.18c-0.57-0.1,1.69-15.33,1.63-15.34
	C139.8,135.46,139.17,137.96,138.89,141.32z"/>
<path class="st5" d="M140.48,135.53c-0.22,0.06,1.53,4,0.93,9.33c-0.51,4.52-2.43,7.37-2.29,7.43c0.17,0.07,3.15-3.78,3.32-9.03
	C142.57,138.89,140.69,135.47,140.48,135.53z"/>
<path class="st5" d="M142.43,135.63c-0.15,0.03,0.42,2.35,0.68,5c0.7,7.17-1.36,12.18-1.14,12.23c0.23,0.06,2.93-5.52,1.94-12.12
	C143.53,138.13,142.59,135.59,142.43,135.63z"/>
<path class="st6" d="M135.36,137.36c-0.01,0,1.26,2.67,1.62,6.26c0.47,4.62-0.85,8.08-0.86,8.08c-0.01,0,1.44-3.89,0.76-8.89
	C136.46,139.66,135.36,137.35,135.36,137.36z"/>
<path class="st5" d="M145.3,135.53c-0.12,0.03,0.84,3.4,1.24,8.41c0.38,4.75,0.01,7.77,0.11,7.77c0.12,0.01,0.89-4.33,0.23-9.6
	C146.43,138.43,145.42,135.51,145.3,135.53z"/>
<path class="st5" d="M146.41,135.43c-0.13,0.05,1.2,2.71,2.08,6.57c1.21,5.35,0.66,9.14,0.8,9.15c0.15,0,1.11-4.8-0.46-10.29
	C147.96,137.78,146.54,135.38,146.41,135.43z"/>
<path class="st5" d="M147.9,135.23c-0.16,0.08,1.46,2.85,2.54,7c1.34,5.17,0.87,8.8,1.03,8.8c0.18,0,1.14-5.09-0.8-10.63
	C149.63,137.44,148.04,135.16,147.9,135.23z"/>
<path class="st5" d="M149.85,134.87c-0.34,0.22,2.02,3.32,3.1,7.94s0.19,7.76,0.34,7.77c0.24,0.02,2.47-7.53-1.03-13.15
	C151.32,135.91,150.07,134.72,149.85,134.87z"/>
<path class="st6" d="M145.44,149.31c-0.07,0,0.74-3.18-0.57-7.31c-1.03-3.25-2.88-5.58-2.71-5.7c0.12-0.08,1.04,0.89,1.76,1.99
	C147.02,143.07,145.55,149.32,145.44,149.31z"/>
<path class="st5" d="M153.19,133.91c-0.22,0.17,2.97,3.31,4.22,8.44c0.79,3.24,0.37,5.49,0.46,5.49c0.13,0,1.25-5.34-1.26-10.06
	C155.27,135.25,153.35,133.78,153.19,133.91z"/>
<path class="st5" d="M154.83,133.27c-0.17,0.17,1.69,1.87,2.92,4.05c2.71,4.77,1.25,9.79,1.72,9.83c0.39,0.04,1.86-3.54,0.8-7.2
	c-0.78-2.7-2.64-4.43-3.66-5.37C155.93,133.94,154.95,133.15,154.83,133.27z"/>
<path class="st6" d="M145.84,134.84c-0.04,0.05,1.28,0.93,2.44,2.31c3.19,3.82,2.78,8.67,2.94,8.64c0.15-0.02,0.82-4.27-1.71-7.8
	C148.02,135.92,145.89,134.78,145.84,134.84z"/>
<path class="st6" d="M147.08,134.19c-0.06,0.11,2.13,0.86,3.96,2.97c2.44,2.83,2.54,6.11,2.66,6.08c0.13-0.03,0.25-3.74-2.19-6.46
	C149.68,134.72,147.14,134.07,147.08,134.19z"/>
<path class="st5" d="M159.57,130.55c-0.09,0.15,2.82,1.49,5.62,4.71c2.68,3.08,3.53,5.89,3.66,5.83c0.15-0.07-0.71-3.94-3.77-7.09
	C162.59,131.45,159.66,130.4,159.57,130.55z"/>
<path class="st6" d="M153.23,134.69c0.6,0.52,1.36,1.17,2.19,2.19c1.59,1.96,2.4,4.02,2.28,4.09c-0.12,0.07-1.15-2.31-3.61-4.95
	c-2.35-2.51-4.6-3.72-4.54-3.81C149.6,132.12,151.4,133.12,153.23,134.69z"/>
<path class="st5" d="M161.74,128.56c-0.11,0.23,2.99,1.36,5.73,3.84c3.02,2.73,4.07,5.69,4.23,5.6c0.16-0.09-0.74-2.89-2.97-5.37
	c-0.34-0.38-2.29-2.5-5.53-3.7C163.06,128.88,161.81,128.42,161.74,128.56z"/>
<path class="st5" d="M162.56,127.89c-0.01,0.11,2.97-0.21,6.06,1.54c3.64,2.06,4.98,5.59,5.15,5.49c0.16-0.1-0.8-3.45-3.77-5.49
	C166.63,127.12,162.57,127.76,162.56,127.89z"/>
</svg>
