<?xml version="1.0" encoding="utf-8"?>
<!-- Generator: Adobe Illustrator 23.1.1, SVG Export Plug-In . SVG Version: 6.00 Build 0)  -->
<svg version="1.1" id="Layer_1" xmlns="http://www.w3.org/2000/svg" xmlns:xlink="http://www.w3.org/1999/xlink" x="0px" y="0px"
	 viewBox="0 0 200 300" style="enable-background:new 0 0 200 300;" xml:space="preserve">
<style type="text/css">
	.st0{stroke:#000000;stroke-miterlimit:10;}
	.st1{fill:none;stroke:#000000;stroke-width:3;stroke-miterlimit:10;}
	.st2{fill:#808080;}
</style>
<polygon class="st0" points="65.6,216.2 52.4,237.6 147.5,237.6 134.3,216.2 "/>
<g>
	<circle class="st1" cx="99.9" cy="143.9" r="79.9"/>
</g>
<g>
	<path d="M100.7,171.8c-14.9,0-27.2-12.2-27.2-27.2c0-14.9,12.2-27.2,27.2-27.2s27.2,12.2,27.2,27.2
		C127.8,159.7,115.7,171.8,100.7,171.8z"/>
	<path d="M100.7,118c14.7,0,26.7,12,26.7,26.7c0,14.7-12,26.7-26.7,26.7S74,159.3,74,144.7S86,118,100.7,118 M100.7,116.9
		c-15.4,0-27.8,12.4-27.8,27.8s12.4,27.8,27.8,27.8s27.8-12.4,27.8-27.8S116,116.9,100.7,116.9L100.7,116.9z"/>
</g>
<g>
	<circle class="st2" cx="99.9" cy="143.9" r="16"/>
	<path d="M99.9,128.5c8.5,0,15.4,6.9,15.4,15.4c0,8.5-6.9,15.4-15.4,15.4s-15.4-6.9-15.4-15.4C84.5,135.4,91.5,128.5,99.9,128.5
		 M99.9,127.3c-9.2,0-16.6,7.5-16.6,16.6s7.5,16.7,16.6,16.7c9.2,0,16.6-7.5,16.6-16.6C116.5,134.9,109.1,127.3,99.9,127.3
		L99.9,127.3z"/>
</g>
<g>
	<path d="M100.1,111c18.3,0,33.2,14.9,33.2,33.2c0,10-3.3,18.4-9.7,24.4c-6,5.6-14.3,8.7-23.5,8.7C82,177.4,67,162.4,67,144.1
		S81.9,111,100.1,111 M100.1,109.9c-19,0-34.4,15.4-34.4,34.4s15.4,34.4,34.4,34.4s34.4-12.8,34.4-34.4
		C134.5,125.2,119.1,109.9,100.1,109.9L100.1,109.9z"/>
</g>
<g>
	<path d="M100.2,103.2c22.6,0,41.2,18.4,41.2,41.2s-18.4,41.2-41.2,41.2s-41.2-18.4-41.2-41.2S77.6,103.2,100.2,103.2 M100.2,102.1
		c-23.3,0-42.3,19-42.3,42.3s19,42.3,42.3,42.3s42.3-19,42.3-42.3S123.6,102.1,100.2,102.1L100.2,102.1z"/>
</g>
<circle class="st0" cx="99.9" cy="143.9" r="5.7"/>
</svg>
