<?xml version="1.0" encoding="utf-8"?>
<!-- Generator: Adobe Illustrator 23.1.1, SVG Export Plug-In . SVG Version: 6.00 Build 0)  -->
<svg version="1.1" id="Layer_1" xmlns="http://www.w3.org/2000/svg" xmlns:xlink="http://www.w3.org/1999/xlink" x="0px" y="0px"
	 viewBox="0 0 200 300" style="enable-background:new 0 0 200 300;" xml:space="preserve">
<style type="text/css">
	.st0{fill:#B3B3B3;}
	.st1{fill:#FFFFFF;}
	.st2{fill:#EEF0FF;}
	.st3{fill:#FFFFFF;stroke:#B3B3B3;stroke-miterlimit:10;}
</style>
<path class="st0" d="M17.4,143.1c5.1,32.1,31.4,55.9,61.4,57.1c33.2,1.3,63.5-25.4,67-61.4C103.1,140.3,60.3,141.7,17.4,143.1z"/>
<g>
	<path class="st1" d="M81.7,174.7c-35.9,0-65.2-15.8-65.2-35.2c0-19.4,29.2-35.2,65.2-35.2c35.9,0,65.2,15.8,65.2,35.2
		C146.8,159,117.6,174.7,81.7,174.7z"/>
	<path class="st0" d="M81.7,104.9c35.7,0,64.7,15.6,64.7,34.7s-29,34.7-64.7,34.7S17,158.7,17,139.6S46,104.9,81.7,104.9
		 M81.7,103.9c-36.3,0-65.7,16-65.7,35.7c0,19.7,29.4,35.7,65.7,35.7s65.7-16,65.7-35.7C147.3,119.8,117.9,103.9,81.7,103.9
		L81.7,103.9z"/>
</g>
<path class="st2" d="M62.4,167.4c-0.3-3.4,7.1-6.5,8.6-7.1c8-3.4,15.3-0.7,17.1,0c0.9,0.4,8.9,3.6,8.6,7.1
	c-0.4,3.7-9.7,5.4-11.4,5.7C75,174.8,62.8,171.6,62.4,167.4z"/>
<path class="st3" d="M167.3,213.8c0-10,0-20,0-30c-0.5-13.3-1-26.6-1.4-40c0-5.7,0-11.4,0-17.1c-1.7-1.2-5-3.9-7.1-8.6
	c-0.5-1.1-3.9-9,0-17.1c1.9-3.9,6.8-10.7,12.8-10c4.4,0.5,7,4.7,8.6,7.1c4.2,6.7,3.2,13.8,2.9,15.7c-1.3,7-5.5,11.4-7.1,12.8
	c0,11.9,0,23.8,0,35.7c0.7,8.6,1.2,17.7,1.4,27.1c0.2,8.4,0.2,16.5,0,24.3c-0.9,0.5-3,1.4-5.6,1.2
	C169.7,214.9,168.2,214.2,167.3,213.8z"/>
<path class="st2" d="M163,115.3c-0.9,2.8,1.1,5.3,1.4,5.7c2.3,3,6.2,2.9,6.4,2.9c2.6-0.2,5.5-1.7,6.4-4.3c0.1-0.3,0.8-2.2,0-4.3
	c-1.1-3-4.5-4.3-7.1-4.3C167.6,111,164,112.2,163,115.3z"/>
</svg>
