<?xml version="1.0" encoding="utf-8"?>
<!-- Generator: Adobe Illustrator 23.1.1, SVG Export Plug-In . SVG Version: 6.00 Build 0)  -->
<svg version="1.1" id="Layer_1" xmlns="http://www.w3.org/2000/svg" xmlns:xlink="http://www.w3.org/1999/xlink" x="0px" y="0px"
	 viewBox="0 0 200 300" style="enable-background:new 0 0 200 300;" xml:space="preserve">
<style type="text/css">
	.st0{fill:#4D4D4D;}
	.st1{fill:#009245;}
	.st2{fill:#FFFFFF;}
</style>
<g>
	<path class="st0" d="M147.7,246H46.8V140.7c6.9,0,13.9,0,20.8,0c26.8,0,53.4,0,80.1,0c1.6,15.1,2.8,31.7,2.9,49.7
		C150.7,210.8,149.6,229.5,147.7,246z"/>
</g>
<path class="st0" d="M54.8,146.6c-1.6-14.5-1.9-39.8,11.3-64.5c6.1-11.4,14.2-26.5,29.1-28.8c13.2-2.2,27.9,6,33.9,17
	c5.7,10.2,8.9,32.6,9.6,35.5c0.3,1.5,0.7,2.8,0.7,2.8l0,0c0.3,1,0.6,2.3,0.9,3.9c-4.2-0.6-8.6-1.2-12.9-1.8c0.1-7.2-0.7-12.9-1.6-17
	c-1.2-5.6-2.5-11.1-6.4-17c-2.2-3.2-5.3-7.7-11.3-10.2c-1.2-0.4-8.5-3.4-16.1,0c-3.7,1.6-8.3,5-12.9,15.2c-9.6,21.5-8.8,50.1-8,61
	C65.7,144.4,60.2,145.4,54.8,146.6z"/>
<path d="M99.4,183.1c0.9-1.3,1.9-3.2,2.9-5.8c1.2-3.2,2.2-5.8,1.5-8.8c-0.1-0.9-1.2-4.8-4.4-5.8c-2.9-0.9-5.8,1.2-7.3,2.9
	c-2.6,3.2-1.9,7.6-1.5,10.2c0.6,3.4,2,5.8,2.9,7.3c-2.5,7.7-4.8,15.6-7.3,23.4c6.3,0,12.7,0,19,0
	C103.4,198.8,101.3,190.9,99.4,183.1z"/>
<circle class="st1" cx="98" cy="114.4" r="20.5"/>
<rect x="93.6" y="91" class="st2" width="7.3" height="46.8"/>
</svg>
