<?xml version="1.0" encoding="utf-8"?>
<!-- Generator: Adobe Illustrator 23.1.1, SVG Export Plug-In . SVG Version: 6.00 Build 0)  -->
<svg version="1.1" id="Layer_1" xmlns="http://www.w3.org/2000/svg" xmlns:xlink="http://www.w3.org/1999/xlink" x="0px" y="0px"
	 viewBox="0 0 200 300" style="enable-background:new 0 0 200 300;" xml:space="preserve">
<style type="text/css">
	.st0{fill:#FFFFFF;stroke:#000000;stroke-width:0.75;stroke-miterlimit:10;}
	.st1{fill:#FFFFFF;stroke:#FF0000;stroke-miterlimit:10;}
	.st2{fill:#FF3333;}
	.st3{display:none;opacity:0.76;fill:#FFFF00;enable-background:new    ;}
</style>
<polygon class="st0" points="21.5,136.7 97.1,64.5 179.5,136.7 98.2,186.4 "/>
<path class="st1" d="M35,145.7c0-20.6,0-41.4,0-62.1h126.4v67.7l-60.9,37.2C78.7,174.3,56.8,160.1,35,145.7z"/>
<path class="st2" d="M91.7,200.1c-6.8-0.9-12-3.5-15-5.2c-1.4-0.7-4.4-2.4-7.9-5.1c-3.7-2.9-7.2-5.8-9-10.4c-0.2-0.6-0.5-1.8-1-4.4
	c-1.2-5.5-1.8-8.5-2-12.1c-0.5-6.8,0.8-8.6,1.1-9.1c1.7-2.3,4.4-3.4,5-2.9c0.3,0.3-0.6,1.4-0.8,3.7c0,0.5-0.2,2.8,0.7,3.2
	c0.5,0.1,0.9-0.2,1.5-0.6c0.2-0.1,1.5-1,2.1-2.4c1-2.3,0.1-4.9-0.3-9.4c-0.3-3.3-0.6-5.4,0.2-8.1c0.8-2.7,2.1-4.5,2.7-5.1
	c1.9-2.3,5.1-4.5,6.1-3.8c0.9,0.7-1,3.4-1.6,9.5c-0.2,2.7-0.1,4.4,0.6,6.1c0.5,1.1,1.2,3.2,3.3,4.3c0.6,0.3,2.1,1.2,3.3,0.6
	c1.1-0.6,1-2.4,1.2-5.6c0,0,0.2-3.7,0.9-6.9c0.8-4.1,2.7-6.8,4.9-9.7c2.6-3.6,6.1-7.3,6.8-7c0.6,0.3-1.6,3.2-2.7,8.8
	c-0.1,0.6-0.7,3.6-0.5,7.6c0.1,1.6,0.3,3.7,1.6,6.1c0.6,1.1,1.2,2.3,2.1,2.4c1.4,0.1,2.5-2.5,2.9-3.7c1.4-3.2,1.5-6,1.5-7.7
	c0.1-4.4-0.1-6.9-0.2-10.6c-0.2-5.5-0.3-8.2,0-10.6c0.3-2,0.9-6.3,3.5-10.4c4.2-6.8,11.8-10.8,13.1-9.7c1.1,1-3.8,4.7-4.5,12.5
	c-0.3,4.2,0.7,8.3,1.5,11.8c1.1,4.7,1.9,5.5,2,8.7c0,0.5-0.5,3.2-1.2,8.5c-0.1,1-0.7,4.1-0.3,8c0.2,2.5,0.6,3,0.9,3
	c0.7,0.1,1.5-1.7,2-2.7c1.1-2.6,1.8-5.1,2.4-8.3c0.7-3.9,0.7-4.7,1.1-4.9c1.2-0.3,4.1,3.3,4.9,7.3c0.5,2.4-0.2,5-1.5,10.2
	c-1.2,5.1-2,6.7-0.9,8.6c0.8,1.5,2.6,2.8,4.4,2.7c0.6,0,2-0.2,4.4-3.5c3.3-4.4,3.4-7.8,4.1-7.8c0.9,0.1,1,6.2,1.7,17.8
	c0.5,6.1,0.7,8.3,0,12.1c-0.3,2.3-1,5.8-3.2,9.8c-2.8,5.1-6.5,7.9-7.3,8.6c-1.7,1.2-4.4,2.9-8,4.1c-3.4,1-5.6,0.9-10,1
	C95.1,199.7,96.4,200.8,91.7,200.1z"/>
<path class="st3" d="M85.3,174.2c-0.1-0.8-0.4-2-1.3-3.1c-0.6-0.8-1.4-1.4-3.7-2.6c-1.9-1-3-1.4-4.6-2c-2.2-0.9-2.5-1-3.1-1.4
	c-0.8-0.4-2-1-3.4-1.9c-2.9-1.9-4.6-4-5-4.4c-1.1-1.4-2-2.4-2.4-4.1c-0.7-2.5,0-4.6,0.2-5.4c0.7-2,1.3-1.7,2.4-4.5
	c1-2.4,1.2-4.2,1.3-5.2c0.1-1,0.1-1.8-0.2-2.7c-0.6-2.3-2.4-3.4-2.2-3.6c0.2-0.2,2.5,0.9,4.2,3c0.5,0.6,1.3,1.7,1.7,3.4
	c0.5,2.2-0.3,4.2-0.6,5.2c-0.5,1.3-0.8,1.5-1.4,3.1c-0.3,1-0.6,1.8-0.6,2.9c0,1.6,0.4,2.9,0.6,3.3c0.2,0.5,0.7,1.6,1.9,2.7
	c1.3,1.1,2.6,1.5,3.2,1.6c2.4,0.6,4.3,0.1,5.3-0.2c1.3-0.4,3.1-0.9,4.2-2.4c0.4-0.5,0.6-1.1,0.6-1.1c0.1-0.2,0.4-1,0.5-2.2
	c0.1-1.1,0.1-2.2-0.5-3.3c-0.2-0.3-0.5-0.8-1.9-1.8c-1.6-1.2-2.5-1.5-4.1-2.4c-1.9-1.1-2.9-1.7-3.6-2.5c-1.5-1.7-1.7-3.6-1.9-5.3
	c-0.1-0.6-0.3-3.1,0.7-6.3c0.8-2.4,1.3-2.2,2.1-4.9c0.1-0.5,0.7-2.5,0.9-5.2c0.1-1.5,0.1-2.3-0.1-3.2c-0.6-2.7-2.6-4-2.4-4.2
	s2.6,1.1,4.3,3.5c1.2,1.6,1.6,3.2,1.7,3.9c0.2,0.9,0.5,2.6,0.2,4.7c-0.2,1.1-0.3,1.2-1.1,3.6c-0.9,3-1.4,4.6-1.4,6.5
	c0,1.6,0,3,1,4.2c1.1,1.4,2.7,1.8,3.8,2.1c0.9,0.2,2.6,0.7,4.6,0.1c0.6-0.2,3.2-0.9,4.4-3.2c0.9-1.7,0.5-3.4,0.2-4.6
	c-0.3-1.1-0.7-1.9-2.5-4.7c-2.9-4.6-3-4.4-3.5-5.6s-1.3-3.3-1.3-6c0-1.6,0.2-2.7,0.4-3.5c0.4-1.5,1.2-3.2,1.5-3.1
	c0.4,0.1-0.6,2.3,0.2,5.3c0.4,1.6,1.2,3,1.8,4c0.6,1.1,1.2,2,1.6,2.4c1,1.4,1.6,1.8,2.8,3.2c1.6,1.7,2.4,2.6,3.2,4
	c0.7,1.3,1.6,2.8,1.6,4.8c0,1.9-0.8,3.3-1.3,4.2c-0.9,1.6-1.3,1.5-2.6,3.8c-0.9,1.5-1.5,2.4-1.7,3.8c-0.1,0.4-0.3,1.7,0.1,3.3
	c0.2,0.9,0.4,1.7,1.1,2.5s1.5,1.2,2.7,1.7c1.3,0.6,2.5,1.1,4.2,1c0.6,0,2.1-0.1,3.6-1c2.4-1.5,2.9-4,3-4.3c0.4-2.1-0.6-3.8-1.3-5.2
	c-0.8-1.4-1.1-1.3-2.5-3.3c-1.3-1.9-1.9-2.8-2.2-4.1c-0.4-1.8,0-3.2,0.5-4.9c0.6-1.9,1.3-3.3,2.1-4.7c0.3-0.6,0.5-0.9,3.8-5.6
	c1.3-1.8,1.8-2.6,2.1-3.8c0.4-1.3,0.3-2.5,0.3-3.4c-0.1-2.8-0.9-4.3-0.7-4.4c0.3-0.1,2.3,2.9,3,6.9c0.2,1.3,0.4,2.3,0.1,3.7
	c-0.3,1.3-0.7,1.9-2.5,4.9c-1.8,3-2.5,4.3-2.9,5.2c-1.1,2.3-1.4,3.5-1.3,4.7c0.1,1.4,0.5,2.3,0.7,2.5c0.1,0.3,0.9,1.6,2.5,2.6
	c1.3,0.8,2.5,0.9,3.3,1c1.6,0.2,3.9,0.5,5.6-0.8c1.8-1.4,1.9-3.6,2-4.8s-0.1-1.7-1.1-5.2c-0.8-3-1.2-4.6-1.4-6.2
	c-0.5-3.2-0.2-4.7,0.1-5.7c0.1-0.5,0.5-1.7,1.4-2.9c0.4-0.6,0.8-0.9,1.1-1.2c0.6-0.6,1.9-1.7,2.2-1.5c0.2,0.2-0.7,1.2-1.3,3.1
	c-0.4,1.5-0.3,2.8-0.3,3.8c0.1,1,0.3,1.8,1,4c0.7,2.1,1.1,3.2,1.7,5c1.1,3.3,1.7,5,1.8,6.1c0.2,1.7,0.4,3.6-0.7,5.4
	c-0.7,1.1-1.7,1.8-3.9,3.3c-2.9,2-3.4,1.7-4.5,2.8c-0.2,0.2-2.5,2.8-1.8,5.8c0.4,1.5,1.3,2.6,1.8,3c1.1,1.2,2.4,1.8,3.1,2
	c2.2,0.8,4,0.5,4.8,0.4c1.3-0.2,3.2-0.5,4.5-2.1c1.1-1.3,1.2-2.8,1.3-4c0.1-1.7-0.3-3-0.7-4.3c0,0-0.9-1.9-1.3-2.9
	c-0.1-0.3-0.2-0.5-0.2-0.5c0-0.1-0.1-0.3-0.2-0.6c0,0-0.1-0.2-0.1-0.4c-0.8-2.4-0.3-4.2-0.3-4.2c0.4-1.4,1.3-2.3,2.4-3.5
	c1.3-1.4,3-2.5,3.2-2.3c0.3,0.2-2,1.8-2.3,4.5c-0.1,1.1,0.1,2.1,0.7,4.2c0.2,0.7,0.6,2,1.3,3.8c1.2,2.8,1.6,2.8,2.2,4.7
	c0.5,1.5,1,3,0.5,4.8c-0.3,1.3-1.1,2.3-1.7,3c-0.5,0.6-1.3,1.5-3.9,3.3c-3.1,2.1-4.7,3.2-6.6,3.8c-2.3,0.7-3,0.4-4.5,1.3
	c-0.5,0.3-2.1,1.4-2.8,3.4c-0.4,1.2-0.3,2.4,0,4.7s0.4,3.5,1.4,4.5c0.8,0.8,1.7,1,2.4,1.2c0.3,0.1,2.1,0.6,4.2,0
	c0.6-0.1,3.7-0.9,4.8-3.4c0.3-0.7,0.3-1.5,0.3-3c0-2.4-0.4-3-0.3-4.4c0.1-2.1,1.1-3.7,1.6-4.6c2.1-3.5,5.8-5.2,5.9-5
	s-1.5,1.1-2.5,3.4c-0.7,1.7-0.7,3.2-0.7,4.5c0,1,0.1,1.6,0.8,5.1c0.6,3.3,0.9,4.9,0.6,5.9c-0.6,1.8-1.9,3-2.5,3.5
	c-1,0.9-1.3,0.8-3.6,2.4c-1.7,1.1-1.6,1.2-2.8,2c-2.2,1.4-2.4,1.1-4.2,2.3c-1.2,0.8-2.9,1.9-4.2,3.9c-0.5,0.8-1.1,1.7-1.1,3
	c-0.1,1.5,0.6,2.6,1,3.4c1.4,2.4,3.6,3.4,4.2,3.7c0.8,0.3,2.5,1,4.7,0.7c0.5-0.1,3.7-0.5,5-2.8c0.5-0.9,0.4-2.3,0.3-5
	c-0.2-3-0.5-3.2-0.2-4.3c0.6-2.2,2.4-3.7,3-4.2c1.4-1.1,1.9-0.9,5-2.5c2.3-1.2,3.5-1.8,4.1-2.7c1.8-2.5,0.2-5.8,0.6-5.9
	c0.4-0.1,2.4,3.1,1.3,5.8c-0.4,0.9-1.5,1.8-3.6,3.5s-2.6,1.9-3.9,3.1c-1.3,1.3-2.1,2.1-2.3,3.3s0.2,2.2,0.8,3.8s1.1,1.8,1.4,3.1
	c0.1,0.2,0.4,1.7,0.1,3.1c-0.2,0.9-0.8,2.4-4.4,5.2c-2.5,1.9-4.7,3.1-6.1,3.9c-3.8,2-4.4,1.7-8.6,3.8c-4,2-6.7,3.8-6.9,3.5
	c-0.2-0.3,1.9-1.4,3.3-4s1.1-5.1,1-6.4c-0.1-0.8-0.7-2.8-2-6.7c-0.7-2-1.4-4.2-1.8-4.2c-0.3,0.1,0,1.4-0.7,3.3
	c-0.6,1.5-1.1,1.7-1.3,1.8c-0.7,0.2-1.6-0.2-1.9-0.5c-0.1-0.1-0.3-0.4-0.4-0.8v-0.1c-0.2-0.6-0.1-2-0.1-3.2c0-0.7-0.1-1.2-0.1-1.4
	c0-0.1,0-0.2,0-0.2c-0.2-1-0.3-1.8-0.9-2.6c0-0.1-0.1-0.1-0.1-0.1c-0.6-0.6-1.5-1.2-1.9-1s0,1,0.1,2.6c0.1,1.9-0.1,3.9-0.5,3.9
	c-0.2,0-0.4-0.5-0.6-1.1c-1.2-3.1-0.5-4.3-1.2-6.6c-0.6-1.8-1.1-1.4-2.5-4.6c-0.6-1.3-0.9-2-1-3c-0.3-2.6,0.9-4.3,0.4-4.5
	c-0.4-0.2-1.9,1.5-2.9,3c-0.6,1-1.5,2.5-1.5,4.4c0,0.7,0.2,1.6,0.8,3.5c0.2,0.6,0.5,1.7,1.2,4.1c0.7,2.3,0.9,2.9,0.9,3.9
	c0,0.2,0,2.6-0.8,2.8c-0.7,0.2-1.7-1.4-2.3-2.7c-1.4-3.3-0.1-6.3-0.5-6.4c-0.4-0.1-1.3,1.8-1.8,3.3c-0.3,1-0.8,2.3-0.8,3.9
	c0,2.9,1.3,4.4,0.5,5c-0.3,0.2-0.9,0.2-1.3,0.1c-0.1,0-0.4-0.1-0.7-0.3c-0.2-0.1-0.5-0.4-0.8-0.8c-1.1-1.5-1.1-3.4-1.1-3.4
	c0-0.3,0-1-0.1-2c-0.1-0.5-0.1-0.6-0.2-0.7c-0.6-0.2-2.1,2.4-2.2,2.8c-0.1,0.3-0.1,0.6-0.1,0.6c0,0.2,0,0.3,0,0.4c0,0.1,0,0.2,0,0.2
	s0,0.1,0,0.2c0,0.4,0.8,3.3,1.1,3.9c0,0,0.1,0.1,0.1,0.3c0,0,0.1,0.1,0.1,0.3c0.6,1.3,0.5,2,0.5,2c-0.3,0.9-0.7,1.5-1,1.5
	s-0.6-0.9-0.6-1.5s0.1-1,0-1c-0.2-0.1-1,0.5-1.3,1.1c-0.6,1.1-0.3,2.3,0.1,3.3c1.3,3.8,2.7,5,2.3,5.5c-0.6,0.7-4.4-1.7-11.4-5.3
	c-1.3-0.7-1.4-0.7-2-1c-4.7-2.5-7.1-3.8-8.2-6c-0.1-0.2-1.5-3.1-0.2-5.8c0.6-1.3,1.4-1.5,1.8-2.9c0.7-2.3-0.6-4.4-0.8-4.8
	c-0.4-0.7-0.8-0.7-4.4-3.5c-0.1-0.1-0.6-0.4-1.1-0.9c-0.6-0.5-1.1-0.9-1.6-1.4c0,0-1-0.9-1.7-2c-1.5-2.4-1.1-5.5-0.8-5.5
	c0.2,0,0,2.3,1.8,4.2c0.5,0.6,0.9,0.7,3.9,2.3c3.5,1.8,4,2.1,4.5,2.4c2.3,1.4,3.5,2.1,4.2,3.2c1.3,2.2,0.8,4.6,0.8,4.8
	c-0.2,1-0.5,1.1-0.7,2.3c-0.1,0.7-0.3,2,0.2,3.3c0.7,1.9,2.4,2.9,3,3.2c1.9,1,3.8,0.7,5.1,0.6c1-0.1,2.5-0.3,4-1.3
	c2.1-1.4,3.9-4.1,3.3-6.6c-0.3-1.1-1.2-2-3.2-3.6c-2.1-1.8-2.9-2.1-6-4.3c-0.2-0.1-0.5-0.4-1-0.7c-1.7-1.3-3-2.4-4.1-3.2
	c-2.8-2.3-4.3-3.5-4.4-3.6c-1.3-2.3-1-5-0.7-6.8c0.3-1.9,0.7-2,0.9-4.1c0.1-1.3,0.3-3.2-0.3-5.1c-1.1-3.5-4.4-4.8-4.1-5.2
	c0.3-0.3,4.3,0.9,6.3,4.2c0.7,1.2,1,2.5,1.4,4.2c0.4,1.9,0.2,2.2,0.6,4.7c0.4,2.6,0.6,4,1.3,5c1.5,2.1,3.9,2.8,4.5,3
	c3.1,0.8,5.7-0.3,6.5-0.7c1.2-0.5,2.9-1.3,3.6-3C85.7,176.1,85.5,174.8,85.3,174.2z"/>
<polygon class="st0" points="21.5,136.7 21.5,236 179.5,236 179.5,136.7 98.2,186.4 "/>
<path class="st0" d="M98.2,186.4c-25.6-16.6-51.1-33.1-76.7-49.6V236c6.8,0,13.5,0,20.3,0C60.7,219.4,79.4,202.9,98.2,186.4z"/>
<path class="st0" d="M176,138.9c-26,15.8-51.8,31.7-77.7,47.5c20.6,16.6,41.4,33.1,62.1,49.6c6.4,0,12.7,0,19.2,0
	c0-33.1,0-66.2,0-99.3L176,138.9z"/>
</svg>
