<?xml version="1.0" encoding="utf-8"?>
<!-- Generator: Adobe Illustrator 23.1.1, SVG Export Plug-In . SVG Version: 6.00 Build 0)  -->
<svg version="1.1" id="Layer_1" xmlns="http://www.w3.org/2000/svg" xmlns:xlink="http://www.w3.org/1999/xlink" x="0px" y="0px"
	 viewBox="0 0 200 300" style="enable-background:new 0 0 200 300;" xml:space="preserve">
<style type="text/css">
	.st0{fill:#33CCFF;}
	.st1{clip-path:url(#SVGID_2_);}
	.st2{clip-path:url(#SVGID_4_);fill:#999999;}
	.st3{clip-path:url(#SVGID_4_);fill:#FF0000;}
	.st4{clip-path:url(#SVGID_4_);fill:#FF99CC;}
	.st5{clip-path:url(#SVGID_4_);fill:#FF3366;}
</style>
<polygon class="st0" points="81.3,51.1 58.5,51.2 103.3,19.6 133.6,59 118.6,59.1 120.9,219.9 134.6,232.1 134.9,270.3 104.8,260.9 
	102.1,258.2 72.2,281.6 68.1,281.6 67.9,238 84.1,224.2 "/>
<g>
	<g>
		<defs>
			
				<rect id="SVGID_1_" x="15.6" y="52.2" transform="matrix(2.185894e-02 -0.9998 0.9998 2.185894e-02 -55.0845 243.698)" width="162.9" height="195.5"/>
		</defs>
		<clipPath id="SVGID_2_">
			<use xlink:href="#SVGID_1_"  style="overflow:visible;"/>
		</clipPath>
		<g class="st1">
			<defs>
				
					<rect id="SVGID_3_" x="15.6" y="52.2" transform="matrix(2.185894e-02 -0.9998 0.9998 2.185894e-02 -55.0845 243.698)" width="162.9" height="195.5"/>
			</defs>
			<clipPath id="SVGID_4_">
				<use xlink:href="#SVGID_3_"  style="overflow:visible;"/>
			</clipPath>
			<path class="st2" d="M107.7,221.2c2.1-0.3,4-0.7,5.2-2.2c1-1.2,1-2.6,1.1-4.1c0.2-3.7-1.3-5.1-0.4-7c0.5-1,1.3-1.5,2.9-2.3
				c4-1.9,6.6-2.4,9.9-3.4c5.9-1.8,3.7-2.2,10.5-4.7c1.2-0.4,3.2-1.1,3.7-2.8c0.4-1.2-0.2-2.4-0.5-2.9c-0.6-1.2-1.6-2.2-3.6-3.2
				c-2.1-1.1-3.8-1.4-6.4-2c-6.8-1.3-10.2-2-10.6-2c-2.9-0.3-4.2-0.3-5.2-1.4c-1.3-1.4-1.1-3.6-0.9-5.2c0.4-4.2,0.5-8.5,1.1-12.7
				c1.5-10.9-1.8-16,1.5-21.8c1.3-2.3,2.9-3.2,3.4-3.6c2.5-1.4,5.1-1,6-0.9c3.8,0.4,1.2-0.8,20.3-1.9c11.5-0.7,17.2-1,21-0.8
				c4.3,0.2,7.1-0.1,12.7-0.8c4.2-0.5,5.8-0.9,7.1-2.2c1.3-1.3,1.6-2.8,1.8-9.8c0.3-11.7-0.5-13.2-1.5-14.3
				c-1.7-1.9-3.9-2.5-6.7-3.3c-4-1.1-7.2-0.8-9.1-0.7c-7.8,0.5,1.5-0.7-17.4,0.4c-12.2,0.7-18.3,1-20,1.4
				c-5.3,1.1-10.8,0.6-16.1,1.5c-0.6,0.1-2.4,0.4-3.6-0.6c-0.8-0.7-1-1.6-1.2-3.4c-0.6-5,0.3-6.4-0.6-8.3c-0.8-1.6-2.5-3-4.3-3.2
				c-0.6-0.1-1.7,0-3.9,0.2c-0.9,0.1-1.5,0.1-1.7,0.2c-3.1,0.3-4.6-0.2-8.1-0.1c-2.8,0.1-4.2,0.1-5.7,0.9c-0.7,0.4-2.2,1.2-2.9,2.8
				c-1.1,2.5,0.9,4.1,0.3,8.3c-0.2,1.3-0.4,2.6-1.4,3.6c-1.7,1.7-4.6,1.3-5.5,1.2c-6.4-0.8-12.8,1.3-19.2,1.4
				c-13.8,0.2-20.7,0.3-24.8,0.1c-3.4-0.2-6.8,0.5-10.2,0c-0.9-0.1-1.8-0.3-2.7,0.2c-2,1-2.4,3.9-2.9,8.3c-0.4,3.3-0.3,5.7-0.2,8.9
				c0.1,3.9,0.2,5.8,1,6.7c1.4,1.7,3.6,1.4,10.2,1.4c9.6-0.1,7.3,0.3,13.7,0c5.9-0.3,6.4-0.6,12.4-1.1c0,0,9.8-0.7,28.4,2
				c1.2,0.2,3.6,0.6,5.2,2.5c1.4,1.7,1.4,3.9,1.4,4.9c-0.1,6.9-1.2,12.3-1.4,16.6c-0.4,9.1,1,12-1.6,16c-1.3,2-3,3.2-4.5,4.3
				c-3.9,2.8-5.5,2.1-12.3,5.4c-4.1,2-2.6,1.9-6.8,4c-2.2,1.1-3.5,1.6-4,3c-0.5,1.8,1,3.7,1.2,3.9c1.7,2,4.2,2.1,7.2,2.5
				c5.9,0.8,4.3,1.7,12.1,3.1c7.1,1.3,9.9,0.9,11.1,3.1c0.5,1,0.5,2.6,0.4,5.7c-0.1,4.3-0.8,4.9-0.1,6c0.7,1.2,3.3,1.5,8.5,2
				C105,221.4,106.3,221.4,107.7,221.2"/>
			<path class="st3" d="M102.9,86.4c0.4,0.7-0.1,1.1-0.1,2.9c0,1.9,0.5,2.2,0.2,2.9c-0.8,1.4-4.5,1.4-5.4-0.1
				c-0.3-0.5,0-0.7,0.1-2.9c0.1-2.2-0.2-2.8,0.3-3.4c0.7-0.8,1.8-0.7,2.3-0.7C100.5,85.1,102.3,85.2,102.9,86.4"/>
			<path class="st4" d="M100.4,83.7c0.1,0.5,0.8,0.8,5.6,1c3.8,0.2,4.4,0.6,5.7,0c0.3-0.2,2.1-1,2.1-2.3c0-1.3-1.8-2.2-2-2.4
				c-2-1-4.1-0.4-5.6,0C103.4,80.8,100.1,82.7,100.4,83.7"/>
			<path class="st5" d="M87.1,85.3c2.7,0.4,3.7-0.1,7.8-0.3c2.8-0.2,4.7-0.1,4.8-0.7c0.1-0.3-0.3-0.6-0.6-0.8
				c-2.2-1.7-4.9-2.4-5.8-2.6c-4.5-1.1-5.8-1-6.3-0.9c-1.3,0.1-2.9,0.3-3.5,1.5c-0.4,0.7-0.3,1.7,0.1,2.3
				C83.8,84.3,84.5,84.9,87.1,85.3"/>
		</g>
	</g>
</g>
</svg>
