<?xml version="1.0" encoding="utf-8"?>
<!-- Generator: Adobe Illustrator 23.1.1, SVG Export Plug-In . SVG Version: 6.00 Build 0)  -->
<svg version="1.1" id="Layer_1" xmlns="http://www.w3.org/2000/svg" xmlns:xlink="http://www.w3.org/1999/xlink" x="0px" y="0px"
	 viewBox="0 0 200 300" style="enable-background:new 0 0 200 300;" xml:space="preserve">
<style type="text/css">
	.st0{fill:none;stroke:#C1272D;stroke-width:7;stroke-miterlimit:10;}
	.st1{fill:none;stroke:#662D91;stroke-width:7;stroke-miterlimit:10;}
	.st2{display:none;fill:#C1272D;}
	.st3{display:none;fill:none;stroke:#000000;stroke-miterlimit:10;}
	.st4{stroke:#C1272D;stroke-width:7;stroke-miterlimit:10;}
	.st5{fill:#B3B3B3;}
	.st6{fill:none;stroke:#C1272D;stroke-width:6;stroke-miterlimit:10;}
</style>
<path class="st0" d="M112.2,116.9c3.2,19.6,6.3,35.3,8.8,46.6"/>
<path class="st0" d="M93.2,239.3c-0.3,0.1-0.6,0.1-0.8,0.2"/>
<path class="st0" d="M123.2,174.3c-6.4-0.3-16-0.2-27.1,2.7c-19.2,5-26.7,14.1-43.4,21.2c-9.5,4.1-23.8,8.3-43.7,7.7"/>
<path class="st0" d="M118.6,147.1c-21.6-0.5-36.3,4.7-45.8,9.5c-10.6,5.5-20.1,13.4-38.4,18.5c-6.5,1.8-11.9,2.7-15.6,3.2"/>
<path class="st0" d="M149.9,159.4c1.6-0.3,3.2-0.7,4.8-1.1c5.5-1.3,10.7-2.6,15.6-4.1"/>
<path class="st1" d="M121.1,163.6c-0.1,0-0.2,0-0.3,0"/>
<path class="st1" d="M149.9,159.4c0-0.1,0-0.2,0-0.3"/>
<polygon class="st2" points="191,98 191,100.2 9.2,100.2 9.2,95.8 101.8,48.9 "/>
<path class="st0" d="M124.4,107.6c-2.5,2.5-6.7,6.1-12.4,9.5c-15.2,8.9-23.1,4.9-41.8,12.5c-11,4.5-10.6,6.8-24.7,12.4
	c-8.8,3.5-16.3,5.6-21.5,6.8"/>
<line class="st3" x1="188" y1="110" x2="188" y2="100.7"/>
<line class="st3" x1="15.2" y1="110" x2="15.2" y2="100.7"/>
<path class="st3" d="M103.3,39.5c0,4.1,0,8.3,0,12.4"/>
<line class="st0" x1="22.5" y1="103.1" x2="172.4" y2="109.8"/>
<path class="st4" d="M181.6,239.3l-88.5,0c6.9-1.4,21.4-5.4,28.9-17.8c6-10,4.7-20.7,3.3-30.7c-0.9-6.4-1.6-11.9-2.3-16.5
	c-0.5-3.3-1-6.2-1.6-8.8c-0.1-0.6-0.3-1.3-0.4-1.9c8.9-0.7,18.6-2,28.9-4.2c0.8,13.9,2.3,25.4,3.7,33.6c3.3,19.1,6.2,24.7,7.8,27.4
	C167.5,230.6,176.1,236.3,181.6,239.3z"/>
<line class="st0" x1="93.2" y1="239.3" x2="92.6" y2="239.3"/>
<path class="st5" d="M146.4,164.2c-4.3,2.6-8.6,5.3-12.9,7.9c0.2,14.2,0.4,28.4,0.6,42.6c11.7,6.9,23.4,13.7,35.1,20.6
	c-4.3-4.1-10.1-10.9-14.1-20.6c-1.8-4.5-2.7-8.4-4.2-17.2C149.6,189.2,147.9,177.9,146.4,164.2z"/>
<path class="st6" d="M15,111V90h169c0,6.7,0,13.3,0,20"/>
<line class="st6" x1="100" y1="90" x2="100" y2="70"/>
</svg>
