<?xml version="1.0" encoding="utf-8"?>
<!-- Generator: Adobe Illustrator 23.1.1, SVG Export Plug-In . SVG Version: 6.00 Build 0)  -->
<svg version="1.1" id="Layer_1" xmlns="http://www.w3.org/2000/svg" xmlns:xlink="http://www.w3.org/1999/xlink" x="0px" y="0px"
	 viewBox="0 0 200 300" style="enable-background:new 0 0 200 300;" xml:space="preserve">
<style type="text/css">
	.st0{fill:#009245;}
	.st1{fill:#009245;stroke:#009245;stroke-miterlimit:10;}
	.st2{fill:none;stroke:#000000;stroke-miterlimit:10;}
</style>
<g>
	<path class="st0" d="M53,149.4c-2.7,0-4.8-2.2-4.8-4.8c0-2.7,2.2-4.8,4.8-4.8s4.8,2.2,4.8,4.8C57.8,147.2,55.7,149.4,53,149.4z"/>
	<path class="st0" d="M53,140.2c2.4,0,4.3,1.9,4.3,4.3s-1.9,4.3-4.3,4.3s-4.3-1.9-4.3-4.3S50.6,140.2,53,140.2 M53,139.2
		c-2.9,0-5.3,2.4-5.3,5.3s2.4,5.3,5.3,5.3s5.3-2.4,5.3-5.3S55.9,139.2,53,139.2L53,139.2z"/>
</g>
<line class="st1" x1="53" y1="139.2" x2="53" y2="95.9"/>
<line class="st1" x1="53" y1="149.9" x2="53" y2="191.7"/>
<line class="st1" x1="57.9" y1="142.7" x2="96.7" y2="117.6"/>
<line class="st1" x1="48" y1="142.7" x2="8.5" y2="114.5"/>
<line class="st1" x1="57.2" y1="148" x2="96" y2="178.4"/>
<line class="st1" x1="49.6" y1="147.2" x2="9.3" y2="174.6"/>
<line class="st1" x1="8.5" y1="114.5" x2="53.4" y2="95.5"/>
<line class="st1" x1="96.7" y1="117.6" x2="53.4" y2="95.5"/>
<line class="st1" x1="96" y1="178.4" x2="96.7" y2="117.6"/>
<line class="st1" x1="8.5" y1="114.5" x2="9.3" y2="174.6"/>
<line class="st1" x1="53.4" y1="191.3" x2="9.3" y2="174.6"/>
<line class="st1" x1="96" y1="178.4" x2="53.4" y2="191.3"/>
<line class="st1" x1="151.6" y1="159.9" x2="190.4" y2="134.8"/>
<line class="st2" x1="53.2" y1="95.5" x2="147.4" y2="113.2"/>
<line class="st2" x1="96.8" y1="117.9" x2="191" y2="134.4"/>
<line class="st2" x1="8.5" y1="114.3" x2="102.7" y2="132"/>
<line class="st2" x1="95.6" y1="177.9" x2="189.8" y2="195.6"/>
<line class="st2" x1="9.7" y1="174.4" x2="102.7" y2="192"/>
<line class="st2" x1="53.2" y1="190.9" x2="146.3" y2="208.5"/>
<g>
	<path class="st0" d="M146.7,166.6c-2.7,0-4.8-2.2-4.8-4.8c0-2.7,2.2-4.8,4.8-4.8c2.7,0,4.8,2.2,4.8,4.8
		C151.5,164.5,149.3,166.6,146.7,166.6z"/>
	<path class="st0" d="M146.7,157.5c2.4,0,4.3,1.9,4.3,4.3s-1.9,4.3-4.3,4.3s-4.3-1.9-4.3-4.3S144.3,157.5,146.7,157.5 M146.7,156.5
		c-2.9,0-5.3,2.4-5.3,5.3s2.4,5.3,5.3,5.3s5.3-2.4,5.3-5.3S149.6,156.5,146.7,156.5L146.7,156.5z"/>
</g>
<line class="st1" x1="146.7" y1="156.5" x2="146.7" y2="113.1"/>
<line class="st1" x1="146.7" y1="167.1" x2="146.7" y2="209"/>
<line class="st1" x1="141.7" y1="159.9" x2="102.2" y2="131.8"/>
<line class="st1" x1="150.9" y1="165.2" x2="189.7" y2="195.7"/>
<line class="st1" x1="143.3" y1="164.5" x2="103" y2="191.9"/>
<line class="st1" x1="102.2" y1="131.8" x2="147.1" y2="112.8"/>
<line class="st1" x1="190.4" y1="134.8" x2="147.1" y2="112.8"/>
<line class="st1" x1="189.7" y1="195.7" x2="190.4" y2="134.8"/>
<line class="st1" x1="102.2" y1="131.8" x2="103" y2="191.9"/>
<line class="st1" x1="147.1" y1="208.6" x2="103" y2="191.9"/>
<line class="st1" x1="189.7" y1="195.7" x2="147.1" y2="208.6"/>
</svg>
