<?xml version="1.0" encoding="utf-8"?>
<!-- Generator: Adobe Illustrator 23.1.1, SVG Export Plug-In . SVG Version: 6.00 Build 0)  -->
<svg version="1.1" id="Layer_1" xmlns="http://www.w3.org/2000/svg" xmlns:xlink="http://www.w3.org/1999/xlink" x="0px" y="0px"
	 viewBox="0 0 200 300" style="enable-background:new 0 0 200 300;" xml:space="preserve">
<style type="text/css">
	.st0{fill:#000066;}
	.st1{fill:#99CCFF;}
	.st2{fill:#846659;}
	.st3{fill:#380A0A;}
	.st4{fill:#663300;}
	.st5{fill:#CC9933;}
	.st6{fill:#993333;}
	.st7{fill:#CC9900;}
	.st8{fill:#333300;}
	.st9{fill:#003300;}
	.st10{fill:#006600;}
	.st11{fill:#336600;}
	.st12{fill:#996600;}
	.st13{fill:#993300;}
	.st14{fill:#999900;}
	.st15{fill:#CC6600;}
</style>
<path class="st0" d="M127.6,99.9l55.5,31c-7.6,7.2-14.2,16.3-23.1,21.2c-10.2,5.4-21.3,8.9-32.7,10.3c-36.2,5.4-70.6,0.4-101-21.7
	c-0.4-0.3-0.3-1.9,0-2.5c1.1-1.4,3.3-3.6,3.7-3.4c44.1,29.4,88.9,27.6,134.5,3.9c3.9-2,7.8-4.2,11.6-6.3
	c-7.4-5.9-14.1-13.5-22.4-17.4c-37.4-17.4-75.4-21.7-112.4,1.2c-7.4,5.3-14.5,11.1-21.2,17.3c-0.9,0.8-2.7,0.5-4,0.8
	c0.3-1.5,0.7-2.9,1.4-4.2c15.6-22.3,64.2-40.2,90.9-33.6c6,1.5,12.1,2.3,18.2,3.4l0,0H127.6L127.6,99.9z M131.4,155.4
	c0,1.1-0.2,1.3-0.2,1.4c0,0.1,0,0.2,0,0.3v-1C131.2,156.1,131.1,156.2,131.4,155.4z M173.3,140.2c0.3,0.2,0.6,0.5,0.9,0.6
	c0,0,0.6,0,0.8-0.3c-0.3-0.2-0.7-0.4-1.1-0.6C173.8,140,173.6,140.1,173.3,140.2z"/>
<path class="st1" d="M128.6,147.9l55.5,31c-7.6,7.3-14.2,16.3-23.1,21.2c-10.2,5.4-21.3,8.9-32.7,10.4c-36.2,5.3-70.5,0.4-101-21.7
	c-0.4-0.3-0.3-1.9,0.2-2.5c1.1-1.4,3.3-3.6,3.7-3.4c44,29.6,88.9,27.6,134.5,4c3.9-2,7.7-4.2,11.6-6.3c-7.5-5.9-14.1-13.6-22.4-17.4
	c-37.4-17.4-75.5-21.7-112.8,1.1c-7.4,5.3-14.5,11.1-21.2,17.4c-0.9,0.8-2.7,0.6-4,0.8c0.3-1.5,0.7-2.9,1.4-4.2
	c15.8-22.4,64.5-40.3,91.2-33.6c6,1.5,12.1,2.3,18.1,3.4l0,0h1.1L128.6,147.9z M132.4,203.4c0,1.1,0,1.3-0.2,1.5c-0.2,0.2,0,0,0,0.3
	v-1C132.2,204.2,132.1,204.2,132.4,203.4z M174.4,188.3c0.3,0.3,0.6,0.5,0.9,0.7c0,0,0.5,0,0.8-0.3c-0.3-0.2-0.7-0.4-1.1-0.5
	C174.8,188.2,174.6,188.2,174.4,188.3z"/>
<path class="st2" d="M86.1,180.6c14.1-12.7,22.5-25.4,33.1-27.6c6.8-1.5,23.3,11.8,24.3,19.9c2.5,19.3-9.5,32.8-30.7,29.6
	C105.4,201.2,99.3,191.7,86.1,180.6z M127.1,167.9l1.2,2.2l0.6-0.6L127.1,167.9L127.1,167.9L127.1,167.9z M129.8,180.6l3,0.3
	c0-1.6-0.3-3.2-0.6-4.8c0,0-1.4,0-1.5,0c-0.3,1.4-0.6,2.9-0.8,4.2l-6.3,4.8l3.5,1.8L129.8,180.6z M117.1,187.5l-0.9,0.8l0.3,0.3
	L117.1,187.5c2.4-4.3,4.9-8.3,7.4-12.5l2.3-0.3l-0.8-1l-1.5,1.4l-14.1,2.7c2.4,2.2,5,4.2,7.2,6.6c0.3,0.5-0.5,2-0.6,3.1L117.1,187.5
	z M115.7,170.5c-1.3-1-2.7-1.9-4.2-2.5c-0.8,0-1.8,1.1-2.8,1.7c1.7,0.6,3.5,1.3,5.2,1.8c0.1,0.2,0.7-0.5,1.6-0.9L115.7,170.5z
	 M107.2,194.5c0.3-1.6,0.6-2.1,0.5-2.4c-0.4-0.6-0.9-1.3-1.4-1.8c-0.2,0.4-0.7,0.9-0.6,1.3c0.3,1,0.7,2,1.2,3L107.2,194.5z
	 M119.9,167.6l1.2-0.8c-0.7-0.7-1.5-1.3-2.3-1.8c-0.3,0-0.9,0.6-1.4,0.8L119.9,167.6z M121.8,190.4c-0.2,0-0.5,0-0.7,0h-0.8
	c0.2,0.1,0.4,0.2,0.6,0.3C121.3,190.6,121.6,190.5,121.8,190.4z M113.7,190.9h-0.9c0,0,0,0-0.3-0.2h0.8L113.7,190.9z M104.6,176.5
	c-0.5-0.4-0.8-0.8-1.2-0.8c-0.4,0-0.8,0.4-1.1,0.6c0.3,0.4,0.8,0.7,1.2,0.9C103.7,177.3,104.1,176.8,104.6,176.5z M104.3,186.4h0.3
	V186L104.3,186.4z M105.1,170.7h0.5c0,0-0.3-0.3-0.4-0.3c-0.1,0-0.3,0-0.4,0L105.1,170.7z M121,193.8c0,0-0.3,0-0.3,0.3
	c0.1,0.3,0.2,0.5,0.3,0.8c0.2-0.2,0.3-0.4,0.4-0.7C121.3,194.1,121.1,193.9,121,193.8z M136.3,173.7c0,0-0.3,0-0.3,0s0,0.3,0,0.4
	h0.5L136.3,173.7z"/>
<path class="st3" d="M150.8,126.1c-13.7,13-21.8,26-32.3,28.6c-6.8,1.7-23.6-11.2-24.9-19.3c-3-19.3,8.5-33,29.8-30.3
	C131,106.1,137.4,115.5,150.8,126.1z M110.2,139.8l-1.3-2.4l-0.6,0.6L110.2,139.8L110.2,139.8L110.2,139.8z M107.1,127.4l-3-0.3
	c0.2,1.6,0.4,3.2,0.7,4.8c0,0,1.4,0,1.4,0C106.7,130.4,106.8,129,107.1,127.4l6.2-5.1l-3.7-1.7L107.1,127.4z M119.8,120.2l0.9-0.9
	l-0.3-0.3L119.8,120.2l-7,12.8l-2.3,0.3l0.8,1l1.5-1.4l14-3.1c-2.5-2.1-5-4.2-7.3-6.4C119,122.8,119.7,121.2,119.8,120.2z
	 M121.7,137.1c1.4,1,2.9,1.8,4.4,2.5c0.8,0,1.8-1.2,2.7-1.8c-1.8-0.6-3.5-1.2-5.3-1.7c-0.4-0.2-1,0.4-1.7,0.9L121.7,137.1z
	 M129.7,112.9c-0.3,1.6-0.6,2.1-0.4,2.4c0.4,0.6,0.9,1.2,1.4,1.8c0.2-0.4,0.6-0.9,0.6-1.3c-0.4-1.1-0.9-2.1-1.6-3V112.9z M117.6,140
	l-1.2,0.9c0.7,0.7,1.5,1.2,2.4,1.7c0.3,0,0.9-0.6,1.4-0.9L117.6,140z M115,117.3h0.6h0.8c-0.2-0.1-0.4-0.2-0.6-0.3
	C115.5,117.1,115.1,117.2,115,117.3L115,117.3z M123.1,116.6h0.8c0,0,0,0,0.3,0.3h-0.8L123.1,116.6z M132.6,130.8
	c0.5,0.3,0.8,0.8,1.2,0.8c0.3,0,0.8-0.5,1.2-0.7c-0.4-0.4-0.8-0.7-1.3-0.9C133.3,129.9,132.9,130.4,132.6,130.8L132.6,130.8z
	 M132.6,120.9h-0.3v0.4L132.6,120.9z M132.2,136.6h-0.5c0,0,0.2,0.3,0.3,0.3h0.4L132.2,136.6z M115.6,113.9c0,0,0.3,0,0.3-0.3
	c-0.1-0.3-0.2-0.5-0.3-0.8c-0.1,0.2-0.3,0.4-0.4,0.7C115.3,113.6,115.5,113.8,115.6,113.9z M100.7,134.5c0,0,0.3,0,0.3,0
	c0-0.1,0-0.3,0-0.4h-0.5L100.7,134.5z"/>
<polygon class="st4" points="109.1,119.7 105.9,128 113.5,121.7 "/>
<polygon class="st5" points="104.4,127.3 107.3,127.2 106.7,132.1 104.9,132.1 "/>
<polygon class="st6" points="100.6,133.7 101.2,134.7 101.4,134.1 "/>
<polygon class="st7" points="108.3,137.7 110.2,139.9 108.9,136.8 "/>
<polygon class="st5" points="115.7,116.9 114.3,117.3 115.9,117.5 "/>
<polygon class="st8" points="116.3,112.9 114.9,113.8 115.3,114.4 116.1,114 "/>
<polygon points="119,123.6 125.4,129.3 113.4,133.2 119,123 "/>
<polygon class="st9" points="110.5,133.2 111.3,134.7 112.3,133.2 "/>
<polygon class="st10" points="114.9,141.3 118.2,143.2 119.4,142.3 117.5,140 "/>
<polygon class="st4" points="120.7,136.4 127.2,140.1 129.9,138.2 123.2,135.1 "/>
<polyline class="st9" points="132,130.8 133.2,131.9 134.9,130.9 133.6,130 132,130 "/>
<polygon class="st11" points="129.6,112.4 129.2,115.2 130.7,117.2 131.2,115.7 129.2,111.9 "/>
<polygon class="st7" points="110.1,178.1 124,174.6 117.2,187.5 "/>
<polygon class="st9" points="108.4,169.8 113.6,171.6 115.5,170.6 110.2,167.7 107.6,169.6 "/>
<polygon class="st8" points="117.7,165.9 119.5,167.7 121.4,166.8 119.1,165 117.7,165 "/>
<polygon class="st12" points="127.5,168 127.5,170.3 128.9,170.3 "/>
<polygon class="st13" points="130.9,176.3 130,180.6 133,180.9 132.4,176.1 "/>
<polygon class="st12" points="129.6,180.9 124.3,185.5 126.9,187.3 "/>
<polygon points="125.8,173.7 124.3,175 126.6,174.7 "/>
<polygon class="st7" points="120.7,190.7 119.4,192.1 122.1,190.3 "/>
<polygon class="st9" points="105.6,190.4 105,192.5 107.4,194.6 107.8,192.2 "/>
<polygon class="st9" points="120.5,194 121.1,193.1 121.3,194.1 120.5,195.1 "/>
<polygon class="st14" points="104.4,185.8 104.1,186.5 104.4,186.6 "/>
<polygon class="st14" points="103,175.3 101.7,176.5 103.2,177.5 104.1,176.7 "/>
<polygon class="st15" points="105.1,170.3 104.9,170.9 105.4,171.1 105.5,170.7 "/>
<polygon class="st15" points="103.7,175.9 103.7,177 104.8,176.3 "/>
</svg>
