<?xml version="1.0" encoding="utf-8"?>
<!-- Generator: Adobe Illustrator 23.1.1, SVG Export Plug-In . SVG Version: 6.00 Build 0)  -->
<svg version="1.1" id="Layer_1" xmlns="http://www.w3.org/2000/svg" xmlns:xlink="http://www.w3.org/1999/xlink" x="0px" y="0px"
	 viewBox="0 0 200 300" style="enable-background:new 0 0 200 300;" xml:space="preserve">
<style type="text/css">
	.st0{fill:#D51920;}
	.st1{display:none;fill:#687BA0;}
	.st2{fill:#ECE190;}
	.st3{display:none;}
	.st4{display:none;fill:#6D3521;}
</style>
<g>
	<g>
		<path class="st0" d="M159.1,219.4c-12.5-0.3-22.1,4.4-29.6,14.7c-11.6,15.8-29.8,16.4-44.1,2.8c-5.6-5.4-11.7-10.5-18.3-14.5
			c-7.2-4.3-15.1-5.9-22.9,0c-1.5,1.1-4.5,0.3-6.9,0.3c0.2-2.3,0-4.8,0.9-6.8c1.1-2.3,3.3-4,4.8-6.2c3.6-5.2,5.9-17.5,12.7-1.9
			c0.4,0.9,4,1.1,5.9,0.6c4.6-1.3,9.4-2.7,13.6-5c6.2-3.4,11.1-4,17.2,1c2.2,1.9,8.7,0.9,11.8-1.1c7.8-4.8,13.9-4.5,21.2,1.3
			c11.1,8.8,19.6,7.5,28.4-3.9c3.9-5,5.8-3.6,7.5,1c1.2,3.1,1.4,6.6,2.7,9.6C167.1,219.3,167.2,219.3,159.1,219.4z"/>
		<path class="st1" d="M42.6,124.6c-8.7-3.8-17.4-7.5-26-11.4c-2.9-1.4-5.5-3.6-8.4-5c-6.2-3-7.9-14.4-1.6-16.5
			c7.2-2.4,11.2-8.4,18.1-11.3c14.4-6.2,25.5,0.1,37.4,4.8c5.3,2.1,10,6,14.6,9.5c5.9,4.5,2.9,9.8-0.7,13.4
			c-8.8,8.8-18.6,16.4-32.7,13.8C43.1,122.8,42.8,123.7,42.6,124.6z M49.9,100.4c2.3,4.2,4.1,7.4,6,10.6c3.9-3.2,7.8-6.4,11.6-9.6
			c-4.1-3.5-8.2-7-12.3-10.5C53.6,93.8,51.9,96.8,49.9,100.4z M31.4,98.8c0.2,0,0.3,0,0.5,0c-0.2-2.5-0.5-4.9-0.7-7.4
			c-3.4,1.8-7.4,3.1-10.1,5.7c-1.8,1.7-3,7.1-2.1,7.7c3.7,2.8,8.2,4.4,12.5,6.5c0-3.4,0-6.9,0-10.3C31.4,100.3,31.4,99.5,31.4,98.8z
			"/>
		<path class="st1" d="M167.2,81.8c5.9,2.4,11.7,4.8,17.6,7.2c2,0.8,3.9,2,6,2.2c8.7,0.8,9,1.8,6,9.5c-3.3,8.5-9.1,13.4-17.6,15.2
			c-16.9,3.6-32.8,4.8-45.9-10.6c-5.5-6.5-3.6-9.8,1.6-13.4C144.3,85.3,154.8,81.8,167.2,81.8z M159.4,103.2
			c-5.4-2.8,2.1-10.9-6.9-9.6c-4.2,0.6-8,4.2-12,6.5c4.4,2.9,8.6,5.9,13.2,8.4C154.3,108.8,156.7,105.7,159.4,103.2z"/>
		<path class="st2" d="M105,168.9c-16.2,0.2-27.4-13.7-23.6-29.2c4-16.3,7.6-32.6,11.7-48.8c0.6-2.4,2.7-4.3,4.1-6.5
			c1.1,2.6,3.4,5.4,3,7.7c-2.4,13.5-5.5,27-8.4,40.4c-0.8,3.6-2.2,7.1-2.9,10.8c-2.4,12.1,6.3,20.6,18.3,16.8
			c6.5-2,12.3-6.5,18.5-9.6c2-1,4.4-1.1,6.6-1.6c-0.2,2.6,0.6,5.8-0.7,7.5C126.5,163.2,113.9,168.7,105,168.9z"/>
		<path class="st3" d="M197.8,82.1c-2.6,0.7-5.8,2.7-7.2,1.8c-3.7-2.3-6.7-5.8-9.9-8.9c-10.6-10.2-17-11.4-30.1-5.4
			c-5.1,2.3-9.9,5.2-15.1,7.3c-1.6,0.7-3.8-0.2-5.7-0.4c0.3-2.1,0-5.6,1.1-6.1c12-5.4,22.5-15.7,36.8-14
			c12.9,1.6,19.7,12.5,28.3,20.6C196.6,77.7,196.7,79.1,197.8,82.1z"/>
		<path class="st3" d="M22.5,66.3c14.8,0,29.6-0.1,44.4,0.1c1.3,0,3.4,1.8,3.6,3c0.2,1.4-0.9,4.1-2,4.5c-3.4,1.3-7.2,2.5-10.7,2.4
			c-10-0.4-20-1.9-30-2c-7.2-0.1-14.4,1.2-21.7,1.8c-1.7,0.1-3.4,0-5,0c0.2-2-0.2-5.4,0.7-5.8c6.5-2.8,13.3-4.9,20-7.3
			C22,64.1,22.2,65.2,22.5,66.3z"/>
	</g>
</g>
<circle class="st4" cx="61.8" cy="135.6" r="6.1"/>
<circle class="st4" cx="138.3" cy="135" r="5.5"/>
</svg>
