<?xml version="1.0" encoding="utf-8"?>
<!-- Generator: Adobe Illustrator 23.1.1, SVG Export Plug-In . SVG Version: 6.00 Build 0)  -->
<svg version="1.1" id="Layer_1" xmlns="http://www.w3.org/2000/svg" xmlns:xlink="http://www.w3.org/1999/xlink" x="0px" y="0px"
	 viewBox="0 0 200 300" style="enable-background:new 0 0 200 300;" xml:space="preserve">
<style type="text/css">
	.st0{fill:#FF0000;}
	.st1{fill:#FCEE21;}
</style>
<path d="M37.8,90.7c0.3-0.8,4-9.5,12.4-11.2C59.2,77.8,67.3,85,70.1,92c1.2,3,1.3,5.7,1.2,7.4c4.8,1,12.5,3.1,21.1,7.4
	c30,15.4,33.7,40.7,60.8,53.4c6.2,2.9,15.9,6.2,29.8,6.2c-7.4,2-18.3,4.6-31.6,6.8c-38.3,6.3-54.8,4-62,2.5
	c-3.5-0.7-7.4-1.6-12.5-3.5c-7.3-2.8-23.4-9-32.2-25c-8.1-14.9-5.5-30.1-4.3-35.4c-1.7-3.3-3.3-6.6-5-9.9c-6.6,0-13.2,0-19.9,0
	C22.9,98.2,30.4,94.4,37.8,90.7z"/>
<path d="M84.4,173.2c-3.8,3.8-1.9,10.4,0,13.6c1.5,2.6,3.6,4.2,5,5c-0.8,9.5-1.7,19-2.5,28.5c-11.6,1.7-23.2,3.3-34.7,5
	c15.7,0.8,31.4,1.7,47.1,2.5c-2.1-2.1-4.1-4.1-6.2-6.2c-0.4-9.9-0.8-19.9-1.2-29.8c1.1-0.1,2.4-0.4,3.7-1.2
	c4.6-2.8,7.9-10.9,3.7-16.1C95.7,170.1,88.1,169.4,84.4,173.2z"/>
<path d="M104.9,172.7c-1.6,4,0.2,10.4,1.6,13.6c1.1,2.5,2.4,3.9,3.2,4.6c0.7,9.5,1.4,19,2,28.5c-6,2.4-12,4.8-18,7.1
	c8.5-0.2,17-0.4,25.5-0.5c-1.4-1.9-2.7-3.8-4.1-5.8c-1.4-9.8-2.8-19.7-4.2-29.5c0.6-0.2,1.2-0.6,1.8-1.5c2.1-3.1,2.9-11.4,0.1-16.3
	C110.6,168.8,106.4,168.7,104.9,172.7z"/>
<path class="st0" d="M60.8,116.2c1.7-5.9,8.4-8.2,9.9-8.7c7.6-2.6,18.1-0.3,21.1,6.2c1.7,3.8,0.3,7.8-1.2,12.4
	c-1.6,4.7-3.2,9.5-7.4,11.2c-6.2,2.5-13.3-3.6-14.9-5C66.8,131,58.5,123.9,60.8,116.2z"/>
<path class="st1" d="M68.2,132.3c-0.1,0.3,8.3,8.6,18.6,6.2c4.5-1,11.3-4.6,12.4-11.2c1.2-7.3-5.3-14.3-7.4-13.6
	c-1.9,0.6,0.6,7.4-3.7,14.9c-1,1.7-2.8,4.8-6.2,6.2C75.5,137.4,68.4,132,68.2,132.3z"/>
</svg>
