<?xml version="1.0" encoding="utf-8"?>
<!-- Generator: Adobe Illustrator 23.1.1, SVG Export Plug-In . SVG Version: 6.00 Build 0)  -->
<svg version="1.1" id="Layer_1" xmlns="http://www.w3.org/2000/svg" xmlns:xlink="http://www.w3.org/1999/xlink" x="0px" y="0px"
	 viewBox="0 0 200 300" style="enable-background:new 0 0 200 300;" xml:space="preserve">
<style type="text/css">
	.st0{fill:none;stroke:#000000;stroke-width:4;stroke-miterlimit:10;}
	.st1{fill:#FFFFFF;}
	.st2{fill:#808080;stroke:#808080;stroke-width:0.75;stroke-miterlimit:10;}
	.st3{fill:#FFFFFF;stroke:#FFFFFF;stroke-width:0.75;stroke-miterlimit:10;}
</style>
<g>
	<path class="st0" d="M103.3,175.6c0,3.7-0.1,7.5-0.2,11.2"/>
</g>
<g>
	<path class="st0" d="M103.5,156.1c0,4-0.1,8-0.1,12"/>
</g>
<g>
	<path class="st0" d="M103.6,133.7c0,5,0,10,0,15"/>
</g>
<g>
	<path class="st0" d="M103.5,113.5c0,4.2,0.1,8.5,0.1,12.7"/>
</g>
<g>
	<path class="st0" d="M103.2,91.3c0.1,4.7,0.1,9.4,0.2,14"/>
</g>
<g>
	<path class="st0" d="M103.2,73.2c0,3.5,0,7.1,0,10.6"/>
</g>
<g>
	<g>
		<path d="M101.8,193.3c-0.5,6.3,5,9.5,10.3,10.9c7.7,2.1,15.8,1,23.5-0.1c6.6-0.9,12.8-4.7,16.7-10.1c1.8-2.6,3-5.6,3.1-8.8
			c0.1-1.6-0.2-3.2-0.6-4.7c-0.3-0.9-0.5-1.7-1.4-2.1c-0.8-0.4-1.7-0.6-2.6-0.8c-7.1-1.1-12.8,4.3-17.9,8.4
			c-5.8,4.8-10.3,11.1-16.7,15.2c-0.6,0.4-1.3,1-2,1.2c-0.7,0.2-1.5,0-2.2,0.1c-1.7,0.3-3.2,1.8-4.7,2.6c-3.4,1.9-7,3.3-10.8,4.2
			c-3.7,0.9-7.5,1.3-11.3,1.4c-3.6,0.1-7.4,0.1-10.9-0.7c-6.3-1.4-12.6-4-17.4-8.5c-2.3-2.2-4.3-4.8-5.5-7.7
			c-0.6-1.3-1.5-3.3-0.1-4.5c1.5-1.2,3.6-1.7,5.5-1.5c7.7,0.7,11.7,8.2,16.6,13.2c2.8,2.8,6,5.2,9.2,7.5c3.2,2.3,6.7,4.4,10.2,6.2
			c3.9,1.9,8,3.5,12.1,5c4.1,1.4,8.2,2.6,12.6,2.6c4.1-0.1,8.3-1,12.4-0.5c1.8,0.2,3.8,0.7,5.2,1.8c0.6,0.5,1.1,1.1,1.4,1.7
			c0.1,0.2,0.2,0.5,0.3,0.7c0.1,0.1,0,0.2,0,0.3c-0.1-0.3,0.4-0.4,0-0.2c-0.3,0.1-0.7,0.5-1,0.7c-0.5,0.3-1.1,0.5-1.7,0.8
			c-1.4,0.5-2.9,0.9-4.4,1.2c-3.8,0.7-7.6,0.9-11.4,0.7c-3.5-0.1-7-0.6-10.4-1.5c-2.5-0.7-4.8-1.7-7.3-2.5
			c-12.8-4.2-26.8-6.1-40.1-3.9c-4.2,0.7-8.4,1.7-12.3,3.4c-2.3,1-4.4,2.3-6.7,3.2c-7.3,2.8-15.8,2.3-23.3,0.4
			c-3.2-0.8-6.4-2-9.4-3.3c-1.7-0.8-3.3,1.8-1.5,2.6c5.7,2.6,11.7,4.4,18,5c6.2,0.6,13.1,0.1,18.8-2.6c2-0.9,3.9-2.1,5.9-2.9
			c3.3-1.3,6.9-2.2,10.4-2.8c6.8-1.2,13.8-1.2,20.7-0.4c4.7,0.6,9.4,1.6,14,2.8c2.6,0.7,5.2,1.5,7.8,2.4c1.9,0.7,3.8,1.4,5.8,1.9
			c6.4,1.5,13.2,1.7,19.7,0.8c2.7-0.4,5.3-0.9,7.8-2c1.7-0.8,3.9-1.9,3.7-4.1c-0.2-2.6-2.7-4.9-5-5.9c-3-1.3-6.4-1.4-9.6-1.2
			c-3.6,0.2-7.3,0.8-10.9,0.4c-3.8-0.4-7.6-1.9-11.1-3.3c-6.7-2.5-13-5.6-18.9-9.8c-2.8-2-5.6-4.1-8.1-6.4c-2.2-2.1-4.1-4.5-6-6.8
			c-4-4.6-9.6-9-16.1-7.8c-3.2,0.6-6.3,2.5-6.5,5.9c-0.1,1.3,0.5,2.6,1,3.7c0.6,1.4,1.3,2.8,2.1,4c6.2,9.5,18.2,14.5,29.2,15
			c6.5,0.3,13.1-0.2,19.3-2c3.1-0.9,6.2-2.1,9-3.7c0.7-0.4,1.4-0.8,2-1.2c0.7-0.4,1.4-1.2,2.1-1.4c1.1-0.4,2.4,0.1,3.5-0.5
			c5.7-3,10-8,14.5-12.5c2.2-2.2,4.6-4.2,7-6.2c2.3-1.9,4.6-3.8,7.4-4.9c2.6-1.1,5.3-1.2,8-0.1c-0.3-0.3-0.7-0.7-1-1
			c3.3,8.5-3.6,16.1-11.1,19.4c-2.2,1-4.5,1.4-6.8,1.7c-2.8,0.4-5.5,0.8-8.3,0.9c-4.7,0.3-9.3,0.1-13.8-1.4c-3.6-1.2-7-3.3-6.7-7.6
			C104.9,191.3,101.9,191.4,101.8,193.3L101.8,193.3z"/>
	</g>
</g>
<rect x="93" y="188.4" class="st1" width="19.3" height="4.3"/>
<path class="st2" d="M192.7,214.1c0-0.1-10.4,1.9-22,4.8c-4.4,1.1-8.7,2.2-15,3.2c-3.2,0.5-5.4,0.9-8.6,1.1
	c-8.2,0.6-12.2-0.4-18.8,1.6c-2.5,0.8-4.3,1.3-4.3,2.1c0,2,10.7,5.8,18.2,2.1c1.5-0.7,2-1.3,4.8-2.7c3.8-1.9,7-2.8,8.6-3.2
	c7.4-2.1,14.9-3.6,18.2-4.3C184.5,216.7,192.7,214.3,192.7,214.1z"/>
<path class="st3" d="M128.9,226.5c1.9-0.5,4-0.8,6.4-1.1c3.3-0.3,6.2-0.2,8.6,0c-0.6,0.6-4.4,3.9-9.6,3.2
	C131.7,228.3,129.9,227.2,128.9,226.5z"/>
<g>
	<g>
		<path d="M130,232.8c3.8-0.2,7.1-2.8,8.3-6.4c0.2-0.7-0.3-1.7-1-1.8c-0.8-0.2-1.6,0.3-1.8,1c0,0.1-0.1,0.2-0.1,0.3
			c0,0-0.1,0.3,0,0.1c0.1-0.2,0,0.1-0.1,0.1c0,0.1-0.1,0.1-0.1,0.2c-0.2,0.3-0.4,0.6-0.6,0.9c0,0-0.1,0.1-0.1,0.1
			c-0.1,0.1,0,0.1,0.1-0.1c0,0-0.1,0.2-0.2,0.2c-0.1,0.1-0.2,0.3-0.4,0.4c-0.1,0.1-0.3,0.3-0.4,0.4c-0.1,0.1-0.1,0.1-0.2,0.2
			c0,0-0.1,0.1-0.1,0.1c-0.1,0.1-0.1,0,0.1-0.1c-0.1,0.1-0.3,0.2-0.4,0.3c-0.2,0.1-0.3,0.2-0.5,0.3c-0.1,0.1-0.3,0.2-0.4,0.2
			c-0.1,0-0.2,0.1-0.3,0.1c0.1,0,0.1,0,0.2-0.1c-0.1,0-0.1,0-0.2,0.1c-0.3,0.1-0.7,0.2-1,0.3c-0.2,0-0.4,0.1-0.5,0.1
			c-0.3,0.1,0.4,0,0,0c-0.1,0-0.2,0-0.3,0c-0.8,0-1.5,0.7-1.5,1.5C128.6,232.1,129.2,232.9,130,232.8L130,232.8z"/>
	</g>
</g>
</svg>
