<?xml version="1.0" encoding="utf-8"?>
<!-- Generator: Adobe Illustrator 23.1.1, SVG Export Plug-In . SVG Version: 6.00 Build 0)  -->
<svg version="1.1" id="Layer_1" xmlns="http://www.w3.org/2000/svg" xmlns:xlink="http://www.w3.org/1999/xlink" x="0px" y="0px"
	 viewBox="0 0 200 300" style="enable-background:new 0 0 200 300;" xml:space="preserve">
<style type="text/css">
	.st0{stroke:url(#SVGID_1_);stroke-width:25;stroke-miterlimit:10;}
	.st1{display:none;fill:#999999;}
	.st2{display:none;fill:#CCCCCC;}
	.st3{display:none;fill:#669999;}
	.st4{display:none;fill:#99CCFF;}
	.st5{display:none;fill:#6699FF;}
	.st6{fill:none;}
</style>
<radialGradient id="SVGID_1_" cx="100.25" cy="150.25" r="96.75" gradientUnits="userSpaceOnUse">
	<stop  offset="0" style="stop-color:#0066D4"/>
	<stop  offset="4.477942e-02" style="stop-color:#1372D7"/>
	<stop  offset="0.1981" style="stop-color:#5197E2"/>
	<stop  offset="0.3502" style="stop-color:#86B6EB"/>
	<stop  offset="0.4975" style="stop-color:#B1D0F2"/>
	<stop  offset="0.6389" style="stop-color:#D3E5F8"/>
	<stop  offset="0.773" style="stop-color:#EBF3FC"/>
	<stop  offset="0.8966" style="stop-color:#FAFCFE"/>
	<stop  offset="1" style="stop-color:#FFFFFF"/>
</radialGradient>
<polygon class="st0" points="184.5,129.5 184.5,172.8 121,172.8 121,234.5 77.8,234.5 77.8,172.8 16,172.8 16,129.5 77.8,129.5 
	77.8,66 121,66 121,129.5 "/>
<path class="st1" d="M86.1,123.7c-6.6,2.1-13.8,0.6-20.7,1c-16,1-13.9,0.2-19.3,1c-4.7,0.7-8.6,1.6-12.7,1c-1.4-0.2-2.8-0.2-5.7-0.3
	c-2.2,0-3.1,0-4,0.6c-1.1,0.8-1.5,2-2,3.7c-0.2,0.8-0.9,3.1-0.7,6.7c0.1,2.9,0.2,4.4,1.3,6c0.9,1.2,2.2,2.2,3.7,2.7
	c3.5,0.7,7.1,1.1,10.7,1.3c3.2,0.2,6.5,0.2,9.7,0c3.5-0.2,4.2-0.4,9-0.7c1-0.1,4.4-0.3,8-0.3c7.6-0.1,9.1,0.5,14,0.3
	c4.2-0.1,8.3-0.7,12.3-1.7c0-4.5,0.2-8.2,0.3-10.6c0.4-6,1.1-9.5-0.7-10.7C88.3,122.9,86.8,123.5,86.1,123.7z"/>
<path class="st2" d="M95.6,112.1c-0.9,0.2-3.6,0.8-5,3c-0.9,1.5-0.8,2.9-0.7,5.8c0.2,5.7-0.3,1.7,0,9.4c0.1,2.9,0.3,6.6,0.7,11.1
	c-0.1,2.2-0.1,5.5,0.1,9.6c0.2,4.3,0.6,6.8,1.2,11.9c0.3,2.8,1,8.6,1.5,15.5c0.3,4.5,0.7,10.1,0.8,16.5c-0.2,0.6-0.3,1.2-0.5,1.8
	c-0.6,0.4-1.4,0.9-2.4,1.5c-1.2,0.8-3.8,2.3-7,4.1c-2.8,1.5-5.4,3.5-8.3,4.8c-0.6,0.3-2.3,1-2.8,2.6c-0.2,0.5-0.2,1,0,1.5
	c0.3,0.8,1.2,1.1,2.6,1.5s2.9,0.7,4.3,0.9c2.2,0.4,2.1,0.8,4.7,1.4c2.8,0.7,6.4,1.1,9.6,2.1c0.6,0.2,1.2,0.5,1.6,1.1
	c0.5,0.7,0.5,1.4,0.5,2.6c-0.1,3.9-0.4,4.8,0.2,6.1c0.3,0.6,0.7,1,1.2,1.4c0.8,0.6,1.6,0.6,3.3,0.6c1.4,0,2.2,0,3.2-0.5
	c0.6-0.2,1.1-0.7,1.4-1.3s0.3-1.2,0.1-1.9c0.2-1.9,0.2-3.7,0-5.6c-0.1-0.8-0.3-1.7,0.2-2.4c0.4-0.6,1.1-0.9,2.3-1.3
	c1.3-0.4,2.7-0.8,4.1-1.1s0.9-0.3,5.2-1.5c0.6-0.2,6.5-1.8,7.8-3.2c0.3-0.4,0.6-0.8,0.8-1.3c0.1-0.3,0.2-0.6,0.2-0.9
	c0.1-1.5-4.6-3.4-5.1-3.6c-4.8-1.9-8.1-2.9-8.1-2.9c-5.2-1.6-6.6-1.9-8.2-3.5c-2-2.1-2.9-5-2.4-7.8c0.9-7.5,0.2-15.1,0.6-22.6
	c0.1-0.9,0.2-4.2,0.8-8.5c0.2-1.7,0.8-5.1,2.7-8.4c0.6-1.1,1.2-1.9,2.2-2.4c1.1-0.6,2-0.6,4.5-0.6c2.1,0,4.1-0.2,6.2-0.2
	c2.3-0.1,2.2-0.1,5-0.2c3.6-0.1,6.5-0.2,8.3-0.2c4.1-0.1,7.2,0,8.1,0c5,0.1,5.8,0.2,9.7,0.3c9.6,0.2,11.4-0.7,17.7-0.5
	c2.6,0.1,5.1-0.5,7.7-0.5c0.4,0,0.9-0.1,1.3-0.2c1.4-0.6,2-2.1,2.3-3c1-2.8,0.9-5,1.4-10.6c0.2-2.5-0.4-5.1,0-7.6
	c0-0.2,0.2-0.9-0.2-1.4s-1.3-0.4-2.1-0.3c-2.3,0.2-3.9,0.6-4.5,0.7c-1.8,0.3-2.9,0.1-4.5-0.1c-4.5-0.5-7.4,0.1-15.5-0.1
	c-8.5-0.2-7.1-0.8-14.2-0.8c-5.7,0-10.8,0.4-13.9,0.6c-3.2,0.2-6,0.5-7.9,0.7c-2,0.3-4.1,0.5-6.2,0.4c-1.7,0-2.8-0.1-3.5-0.9
	c-0.4-0.5-0.5-1-0.7-1.9c-0.4-2,0.2-2.8,0-4.7c-0.1-1-0.2-2-1-2.9c-0.7-0.8-1.7-1.1-4.7-1.4C98.4,112.1,96.5,111.9,95.6,112.1z"/>
<path class="st3" d="M100.1,111.3c0.4-0.4,0.4-1,0.3-3.2s0-1.7-0.1-2.7c-0.2-2.4-0.3-3.7-1-4.2c-0.5-0.3-1.2-0.3-1.5,0
	c-0.5,0.4-0.4,1.3-0.1,3c0.2,1.4,0.4,1.7,0.4,2.7c0,0.8-0.1,0.8-0.2,1.7c-0.1,1.4-0.1,2.2,0.5,2.6
	C98.8,111.7,99.5,111.7,100.1,111.3z"/>
<path class="st4" d="M98.8,100.9c0.1,0.7,3.4,0.8,5.1,0.8c3.2,0.1,3.7-0.4,7.5-0.6c4.4-0.2,5.9,0.2,7.3-1.1c0.7-0.6,1.4-1.8,1.2-2.8
	c-0.4-1.7-3.5-2.1-4.1-2.2c-2.7-0.4-4.2,0.6-10,2.8C100.7,99.8,98.7,100.4,98.8,100.9z"/>
<path class="st5" d="M98.8,100.9c0-0.3-1.1-0.6-4.9-1.6c-4.8-1.3-5.5-1.6-7.2-1.9c-5.2-0.9-6.3-0.1-6.8,0.3c-0.1,0.1-1,1-0.8,2
	c0.2,1.1,1.5,1.8,2,2c1.7,0.8,2.9,0.4,5.9,0.1c2.8-0.2,2.4,0.1,6.8-0.2C97,101.4,98.7,101.3,98.8,100.9z"/>
<polygon class="st6" points="118.7,146.2 118.7,155.7 104.5,155.7 104.5,169.2 94.8,169.2 94.8,155.7 81,155.7 81,146.2 94.8,146.2 
	94.8,132.2 104.5,132.2 104.5,146.2 "/>
</svg>
