<?xml version="1.0" encoding="utf-8"?>
<!-- Generator: Adobe Illustrator 23.1.1, SVG Export Plug-In . SVG Version: 6.00 Build 0)  -->
<svg version="1.1" id="biplane01_xA0_Image_1_" xmlns="http://www.w3.org/2000/svg" xmlns:xlink="http://www.w3.org/1999/xlink"
	 x="0px" y="0px" viewBox="0 0 200 300" style="enable-background:new 0 0 200 300;" xml:space="preserve">
<style type="text/css">
	.st0{fill:#999999;}
	.st1{fill:#FF0000;}
	.st2{fill:#FF99CC;}
	.st3{fill:#FF3366;}
	.st4{fill:#333333;}
	.st5{fill:#666666;}
	.st6{fill:#FFFF66;}
</style>
<path class="st0" d="M90.4,77.6c-2.2,0.4-4.3,0.8-5.6,2.5c-1,1.3-1.1,2.9-1.1,4.5c-0.1,4,1.5,5.5,0.6,7.6c-0.5,1.1-1.4,1.7-3.1,2.5
	c-4.3,2.2-7.1,2.7-10.7,3.9c-6.3,2.1-4,2.5-11.3,5.3c-1.3,0.5-3.4,1.3-3.9,3.1c-0.4,1.3,0.3,2.6,0.6,3.1c0.7,1.3,1.8,2.3,3.9,3.4
	c2.3,1.1,4.2,1.5,7,2c7.4,1.3,11.1,1.9,11.5,2c3.1,0.3,4.5,0.2,5.6,1.4c1.4,1.5,1.3,3.7,1.1,5.6c-0.3,4-0.5,8.3-0.8,13.8
	c0.4,6.5,0.9,12.9,1.3,19.4c-1.7,0.4-3.3,0.8-5,1.2c-3.5,0.2-8.9,0.6-15.5,0.9c-8.1,0.4-8.5,0.3-14.9,0.6
	c-16.6,0.8-15.2,1.7-20.1,1.2c-1.7-0.2-6.7-0.8-13.1-0.3c-4.1,0.3-4.9,0.7-5.5,1.2c-5.2,3.9-1.3,16-0.6,18.1
	c0.8,2.4,1.6,3.8,2.9,4.7c2.1,1.4,4.3,0.8,7.6,0.6c6-0.4,6.7,1.3,12.8,1.5c4.3,0.1,4.6-0.7,12.2-1.7c2.6-0.4,2-0.2,21.3-1.5
	c4.2-0.3,7.5-0.5,12.2-0.3c2.9,0.1,5.3,0.4,7,0.6c1.8,9.1,1.4,15.6,0.6,19.9c-0.7,3.7-1.2,7.2,0.8,9c1.9,1.7,4.2-0.2,9.9,0.6
	c5.4,0.7,6.1,2.7,9.8,2.2c3-0.4,6.1-2.2,7.7-4.9c1.7-2.8,1.1-5.8,1-8.4c-0.1-4.5,0-10.8,0.2-19.1c2.1,0.2,5.3,0.5,9,0.6
	c7.3,0.3,12.2,0,19.8-0.3c5.8-0.3,15.9-0.7,24.5-0.9c8.1-0.2,14.7-0.1,19,0c0.6-1.5,1.3-3.7,1.5-6.4c0.1-2.3-0.3-3.3-0.9-6.7
	c-1.2-7.3-0.2-8.2-1.5-9.6c-1.6-1.9-4.1-1.6-11.7-1.5c0,0-2.4,0-16,0c-6.6,0-10.3-0.5-15.7-0.9c-7.1-0.5-17.6-1-31.7-0.5
	c-0.4-1-0.8-2.4-1.3-4.2c-0.5-1.8-1.1-4.2-1.2-7.1c-0.1-2.5,0.3-4.3,0.3-4.9c0.5-3.2,0.4-9.4-1.8-22.8c3.8-1.3,6.9-2.1,9-2.6
	c6.8-1.6,8.3-1.2,12.2-3c3.1-1.5,2.3-1.8,7.3-4.5c2.3-1.2,3.8-1.9,4.2-3.4c0.5-2-1.2-4-1.4-4.2c-1.9-2.1-4.6-2.2-7.9-2.5
	c-6.5-0.8-4.7-1.7-13.2-3.1c-7.7-1.3-10.7-0.8-12.1-3.1c-0.6-1-0.6-2.8-0.6-6.2c0-4.6,0.8-5.3,0-6.5c-0.8-1.2-3.7-1.5-9.3-2
	C93.4,77.2,91.9,77.3,90.4,77.6z"/>
<path class="st1" d="M98.6,217.6c-0.4-0.8,0-1.2,0-3.1c-0.1-2-0.6-2.4-0.3-3.1c0.8-1.5,4.9-1.6,5.9,0c0.3,0.5,0,0.8,0,3.1
	c0,2.4,0.3,3-0.3,3.7c-0.7,0.8-2,0.8-2.5,0.8C101.2,219,99.3,218.9,98.6,217.6z"/>
<path class="st2" d="M101.2,222.7c-0.1-0.5-0.9-0.8-6.1-0.9c-4.1-0.1-4.7-0.6-6.2,0.1c-0.4,0.2-2.2,1.1-2.3,2.5c0,1.4,2,2.4,2.3,2.5
	c2.2,1,4.4,0.4,6-0.1C97.9,225.9,101.5,223.8,101.2,222.7z"/>
<path class="st3" d="M115.5,221.7c-3-0.4-4,0.2-8.4,0.6c-3.1,0.2-5.1,0.2-5.2,0.8c-0.1,0.3,0.4,0.6,0.6,0.9c2.5,1.8,5.3,2.4,6.4,2.7
	c5,1,6.3,0.9,6.9,0.8c1.4-0.2,3.1-0.4,3.8-1.7c0.4-0.8,0.3-1.8-0.1-2.5C119.1,222.7,118.4,222,115.5,221.7z"/>
<path class="st4" d="M117.9,193.6c1.9,0.2,4.6,0.4,8,0.5c5.5,0.2,9.4,0.1,12.5,0c0,0,8.8-0.2,18.1,0c9.8,0.2,17.1,0.8,22.7-0.3
	c0,0,0,0,5.8-1.2c2-1.3,2.4-2.2,2.3-2.8c-0.5-4-22.4-5.2-37.3-4.6c-5.4,0.2-11.5,0.8-21.2,0.4c-4.5-0.2-8.2-0.5-10.7-0.8
	C118,187.8,117.9,190.7,117.9,193.6z"/>
<path class="st5" d="M85.9,185.3c0.3,2.2,0.6,4.5,0.8,6.7c-10.5,0.2-18.8,1.1-24.4,1.8c-17.4,2.3-34.9,6.8-42.7,0.7
	c-0.7-0.5-2.8-1.9-2.6-3.4c0.2-2.1,4.5-3.5,7.7-3.9c4.5-0.5,5.3,1.2,10.7,1.1c2.6,0,2.8-0.4,8.6-1.3c3.2-0.5,5.4-0.7,9.6-1.1
	c9.5-1,15-1.5,22.1-1.3C78.2,184.6,81.7,184.8,85.9,185.3z"/>
</svg>
