<?xml version="1.0" encoding="utf-8"?>
<!-- Generator: Adobe Illustrator 23.1.1, SVG Export Plug-In . SVG Version: 6.00 Build 0)  -->
<svg version="1.1" id="Layer_1" xmlns="http://www.w3.org/2000/svg" xmlns:xlink="http://www.w3.org/1999/xlink" x="0px" y="0px"
	 viewBox="0 0 200 300" style="enable-background:new 0 0 200 300;" xml:space="preserve">
<style type="text/css">
	.st0{fill:#2E3192;}
</style>
<g>
	<path class="st0" d="M187.9,209.8c-2.2,9.2-5.9,16.4-7,18.5c-2.7,5.1-5.5,9.1-7.6,11.9c-15.7,0.3-31.4,0.5-47.1,0.8
		c-0.4-1.5-0.9-3.5-1.5-6c-3.8-14.6-5.4-16.6-4.4-20.3c1.7-6.3,7.4-6,7.9-11c0.5-5.8-6.6-14.6-15.3-13.4
		c-6.4,0.8-11.3,6.8-11.4,11.9c-0.1,4.2,3.2,4.5,4.7,11c1.3,5.5-1,5.7,0,14.1c0.4,3.8,1.2,6.2,0,9.4c-0.8,2.2-2.1,3.7-3.1,4.7h0.2
		c-5.2,0.7-11.7,1-19,0c-18.5-2.4-31.5-11.4-38-16.6c4.3-9.2,11.1-27.1,9.5-49.9c-0.8-12-3.7-21.9-6.5-29.1
		c-0.2-0.6-0.4-1.2-0.6-1.8c0,0,0,0,0,0c0,0,0,0,0,0c-0.8-0.7-2-1.5-3.5-2.4c-0.5-0.3-4.3-2.2-7.1-2.4c-5.7-0.3-7.2,6.9-12.5,7.7
		c-5.8,0.9-15.4-5.7-15.4-15.4c0-8.8,7.8-15.8,15.4-15.4c5.4,0.2,9,4.1,10.1,5.3c1.6,0.7,4.6,1.6,8.3,1.2c1.9-0.2,3.5-0.7,4.7-1.2
		c-0.1-2.7,0-6.5,1.2-10.7c2.3-8,7-13.1,9.5-15.4c5.1,3.2,15,8.3,28.5,9.5c9.9,0.9,18.1-0.8,23.4-2.3c0.1-0.9,0.3-2.2,0.4-3.7
		c0,0,0.3-3.7,0-7.1c-0.5-6.7-6.5-10.1-7.1-15.4c-0.8-7.1,7.9-18.4,19-17.8c9.1,0.5,15.1,8.8,16.6,15.4c0.2,1,2,9.2-2.4,15.4
		c-2,2.9-5,4.8-5.2,8.6c-0.1,1.8,0.5,3.4,1,4.5h0.6c4,0.6,9.8,1,16.6,0c7.9-1.2,13.9-3.9,17.8-5.9c3.5,5.1,7.9,12.2,11.9,21.4
		c2.3,5.3,7,12.3,7.1,22.2c-2.1,0.5-5.1,1.2-8.6,2.2c-16.8,4.4-22.5,9.2-28.6,6.1c-3.5-1.7-3.7-4.2-6.7-4.4
		c-4.8-0.3-8.9,5.7-10.7,9.5c-3.1,6.7-3.1,16.6,1.2,19c2.7,1.5,4.7-1.3,14-4.2c11.4-3.6,19.6-3.1,21.7-2.9c6.2,0.5,9.9,2.1,11.5,2.9
		c3,1.4,5.2,3.1,6.6,4.4C189.5,180.1,191.7,194.1,187.9,209.8z"/>
</g>
</svg>
