<?xml version="1.0" encoding="utf-8"?>
<!-- Generator: Adobe Illustrator 23.1.1, SVG Export Plug-In . SVG Version: 6.00 Build 0)  -->
<svg version="1.1" id="Layer_1" xmlns="http://www.w3.org/2000/svg" xmlns:xlink="http://www.w3.org/1999/xlink" x="0px" y="0px"
	 viewBox="0 0 200 300" style="enable-background:new 0 0 200 300;" xml:space="preserve">
<style type="text/css">
	.st0{fill:#FFFFFF;}
	.st1{font-family:'Arial-Black';}
	.st2{font-size:103.023px;}
	.st3{font-size:103.0232px;}
	.st4{font-size:103.3054px;}
</style>
<g>
	<rect x="38.6" y="81.7" transform="matrix(0.4566 -0.8897 0.8897 0.4566 -79.9713 129.1782)" width="54.3" height="96.8"/>
</g>
<text transform="matrix(0.3582 -0.6899 0.8875 0.4608 85.5539 172.1957)" class="st0 st1 st2">S</text>
<g>
	<rect x="95.8" y="119.9" transform="matrix(0.5 -0.866 0.866 0.5 -55.2787 198.4158)" width="96.8" height="54.3"/>
</g>
<text transform="matrix(0.6439 0.3748 -0.5031 0.8642 98.6966 160.7686)" class="st0 st1 st3">N</text>
<g>
	<rect x="71.6" y="45.7" transform="matrix(0.9474 -0.3201 0.3201 0.9474 -24.9273 36.5528)" width="54.3" height="96.8"/>
</g>
<text transform="matrix(0.7082 -0.2347 0.3146 0.9492 79.3959 138.1396)" class="st0 st1 st4">R</text>
<g>
	<rect x="76.9" y="69.2" transform="matrix(0.1342 -0.991 0.991 0.1342 13.0261 207.5928)" width="96.8" height="54.3"/>
</g>
<text transform="matrix(0.6751 6.852904e-02 -0.101 0.9949 92.7817 129.7697)" class="st0 st1 st3">O</text>
<g>
	<rect x="15.8" y="128" transform="matrix(0.94 -0.3413 0.3413 0.94 -49.1067 31.2396)" width="96.8" height="54.3"/>
</g>
<text transform="matrix(-0.3191 -0.8612 0.9377 -0.3474 110.0541 172.8311)" class="st0 st1 st3">F</text>
<g>
	<rect x="72.9" y="161.3" transform="matrix(0.8334 -0.5527 0.5527 0.8334 -99.2451 90.2342)" width="54.3" height="96.8"/>
</g>
<text transform="matrix(-0.6345 0.4228 -0.5545 -0.8322 105.6624 161.3718)" class="st0 st1 st3">B</text>
</svg>
