<?xml version="1.0" encoding="utf-8"?>
<!-- Generator: Adobe Illustrator 23.1.1, SVG Export Plug-In . SVG Version: 6.00 Build 0)  -->
<svg version="1.1" id="Layer_1" xmlns="http://www.w3.org/2000/svg" xmlns:xlink="http://www.w3.org/1999/xlink" x="0px" y="0px"
	 viewBox="0 0 200 300" style="enable-background:new 0 0 200 300;" xml:space="preserve">
<style type="text/css">
	.st0{fill:#FFFFFF;stroke:#999999;stroke-miterlimit:10;}
	.st1{fill:#999999;stroke:#999999;stroke-width:0.75;stroke-miterlimit:10;}
	.st2{fill:url(#SVGID_1_);}
</style>
<g>
	<path class="st0" d="M100.1,243.1c-7.9,0-16-1-23.6-3.1c-12.6-3.3-24.1-9.2-34.1-17.2C3,190.9-3.1,132.8,28.8,93.3
		C40.2,79.1,55.5,68.9,73,63.5c8.9-2.8,18.2-4.2,27.6-4.2c21,0,41.5,7.2,57.8,20.3c18.9,15.4,30.9,37.4,33.5,61.9
		c2.6,24.6-4.4,48.6-19.8,67.5C154.3,230.6,128.2,243.1,100.1,243.1z"/>
	<path class="st1" d="M100.5,59.1v0.2l0,0c21,0,41.4,7.2,57.7,20.3c18.9,15.4,30.8,37.3,33.5,61.8c2.6,24.6-4.4,48.5-19.8,67.4
		c-17.5,21.6-43.6,34-71.7,34c-7.9,0-15.9-1-23.6-3.1c-12.6-3.3-23.9-9-34.1-17.2C3,190.7-3.1,132.8,28.8,93.3
		c11.4-14,26.6-24.4,44.1-29.8c8.9-2.8,18.2-4.2,27.6-4.2V59.1 M100.5,59.1c-9.4,0-18.7,1.3-27.6,4.2c-17,5.3-32.5,15.3-44.3,29.9
		c-32,39.6-25.9,97.7,13.7,129.7c10.4,8.3,22,14,34.2,17.3c7.8,2.1,15.8,3.1,23.7,3.1c27,0,53.7-11.6,71.8-34.1
		c31.9-39.3,25.7-97.8-13.7-129.7C141.4,65.7,120.9,59.1,100.5,59.1L100.5,59.1z"/>
</g>
<radialGradient id="SVGID_1_" cx="160.9187" cy="163.4451" r="216.5033" gradientTransform="matrix(1 0 0 -1 0 300)" gradientUnits="userSpaceOnUse">
	<stop  offset="0" style="stop-color:#000000"/>
	<stop  offset="0.2526" style="stop-color:#020202"/>
	<stop  offset="0.3436" style="stop-color:#090909"/>
	<stop  offset="0.4084" style="stop-color:#141414"/>
	<stop  offset="0.4609" style="stop-color:#252525"/>
	<stop  offset="0.5058" style="stop-color:#3B3B3B"/>
	<stop  offset="0.5456" style="stop-color:#575757"/>
	<stop  offset="0.5816" style="stop-color:#777777"/>
	<stop  offset="0.6147" style="stop-color:#9D9D9D"/>
	<stop  offset="0.6454" style="stop-color:#C8C8C8"/>
	<stop  offset="0.6728" style="stop-color:#F6F6F6"/>
	<stop  offset="0.6778" style="stop-color:#FFFFFF"/>
</radialGradient>
<path class="st2" d="M72.7,63.3c28.5-8.8,60.7-3.8,85.5,16.2c39.3,31.8,45.6,90.4,13.7,129.7c-23.5,28.9-61.4,39.9-95.5,31
	c-10-8.7-18.8-19.3-25.8-31.5C23.1,159.9,33.6,99.9,72.7,63.3z"/>
</svg>
