<?xml version="1.0" encoding="utf-8"?>
<!-- Generator: Adobe Illustrator 23.1.1, SVG Export Plug-In . SVG Version: 6.00 Build 0)  -->
<svg version="1.1" id="Layer_1" xmlns="http://www.w3.org/2000/svg" xmlns:xlink="http://www.w3.org/1999/xlink" x="0px" y="0px"
	 viewBox="0 0 200 300" style="enable-background:new 0 0 200 300;" xml:space="preserve">
<style type="text/css">
	.st0{fill:#2E3192;}
	.st1{fill:#FF7BAC;}
</style>
<path class="st0" d="M104.5,252.7c0.1,1.6,0.7,8.4-3.5,11.6c-4.8,3.6-13.5,1.2-16.2-3.5c-2.6-4.6,1.2-10.4,3.5-16.2
	c5.1-12.8,1.2-20.7-1.2-42.8c-4-38,4.4-43.3-2.3-70.6c-3-12.4-7.4-21.9-10.4-27.8c-2.2-1-5.3-2.7-8.1-5.8c-4.3-4.7-6-10.5-6.9-20.8
	c0,0-1.3-14.1,1.2-40.5l0,0c1.2,0,2.3,0,3.5,0c0,10.4,0,20.8,0,31.3l0,0c1.2,0.4,2.3,0.8,3.5,1.2c0-10.8,0-21.6,0-32.4
	c1.5,0,3.1,0,4.6,0c0.4,10.8,0.8,21.6,1.2,32.4c1.2-0.4,2.3-0.8,3.5-1.2C76.3,56.6,76,45.8,75.6,35c1.2,0.4,2.3,0.8,3.5,1.2
	c0,10.4,0,20.8,0,31.3c1.2,0.4,2.3,0.8,3.5,1.2c0-10.8,0-21.6,0-32.4c1.2,0,2.3,0,3.5,0c0,10.8,0,21.6,0,32.4
	c0.2,4.7,0.2,9.7,0,15.1C85.8,89,85.4,94,84.8,98.7c2.5,5.7,5.7,14,8.1,24.3c1.5,6.3,2.4,12.2,3.5,25.5c1.8,21.8,2.2,39.7,2.3,45.2
	c0.2,12,1.5,23.9,1.2,35.9c-0.1,3.6-0.3,7.6,1.2,12.7C102.5,247.2,104.1,248.4,104.5,252.7z"/>
<path class="st1" d="M26.9,190.1c-10.9,4.5-12.6,7-13.3,8.7c-2.7,6,0.4,15.2,5.8,17.4c5.7,2.3,11.8-4.4,25.5-15.1
	c0,0,17.9-14,45.7-29.5c8.1-4.5,20.1-10.6,35.9-16.2c3.9,1.2,9.9,2.5,17.4,2.3c5.3-0.1,19.2-0.5,30.1-10.4
	c6.1-5.5,16.2-18.4,11.6-27.8c-5.2-10.6-25.1-8.5-28.9-8.1c-4.4,0.5-17,2-26.6,12.7c-6.8,7.6-8.7,15.9-9.3,19.7
	c-14.4,5.4-25.5,11.2-33,15.6c-22,12.8-27.6,21.4-43.4,24.9C36.9,186,33.6,187.4,26.9,190.1z"/>
</svg>
