<svg id="Layer_1" data-name="Layer 1" xmlns="http://www.w3.org/2000/svg" viewBox="0 0 200 300"><defs><style>.cls-1{fill:#00c5e9;}.cls-2{fill:#b82615;}.cls-3{fill:#a82615;}.cls-4{fill:#b72615;}.cls-5{fill:#b02615;}.cls-6{fill:#d42615;}.cls-7{fill:#c62615;}.cls-8{fill:#cf2615;}.cls-9{fill:#be2615;}</style></defs><title>snack 15-03</title><path class="cls-1" d="M197.34,99.39a8.79,8.79,0,0,0-.91-3.35,1.1,1.1,0,0,0-.39-.44c-1-.63-2.06-1.25-3.14-1.9-.51.39-1,.79-1.45,1.12a5.33,5.33,0,0,0-2.73,4.59,44.43,44.43,0,0,1-.74,5.37c-.09.56-.19,1.11-.28,1.67-.16.89-.33,1.79-.49,2.67-.31,1.86-.64,3.71-1,5.57L186,115.9h0c-.13.49-.28,1-.37,1.49-.29,1.69-.55,3.36-.83,5a.12.12,0,0,0,0,.17c-.08.35-.15.69-.23,1-.23.67-.47,1.33-.71,2-.49,0-.39-.42-.44-.71-.12-.75-.22-1.5-.34-2.26,0-.16,0-.33,0-.49-.07-2.72-.12-5.44-.21-8.16,0-.76-.11-1.51-.18-2.27.09-4.63.17-9.26.29-13.87.07-2.06.2-4.12.36-6.16.24-3.16.58-6.33.77-9.51.07-1.35-.13-2.72-.19-4.08a3.83,3.83,0,0,1,0-.47c0-.17,0-.33,0-.49A11.67,11.67,0,0,0,182.47,72a9.79,9.79,0,0,0-1.92-2.29l-2.26.38a1.77,1.77,0,0,0-.46.08,3.36,3.36,0,0,0-.89.56,15.6,15.6,0,0,0-3.06,5,6.4,6.4,0,0,0-.64,1.51c-.17,1.25-.21,2.52-.31,3.8q-.74,6.39-1.46,12.8c-.38,3.3-.73,6.62-1.1,9.92-.21,2-.41,3.91-.63,5.87,0,.16-.06.33-.09.49-.11,1-.22,1.93-.34,2.9-.16,1.21-.31,2.42-.48,3.65-.34,2.13-.68,4.26-1,6.4-.26,1.74-.48,3.5-.74,5.24,0,.26,0,.63-.46.44,0-.32,0-.65,0-1,0-.8-.05-1.6-.12-2.4a83.16,83.16,0,0,1-.67-10.47c.09-2.08,0-4.18,0-6.26l.06-1.44c0-.11,0-.23,0-.33a1.67,1.67,0,0,0,0-.31c0-.19.06-.38.08-.57,0-.49.06-1,.08-1.49s.08-1.29.11-1.94c0-.24.05-.48.08-.72.13-2.5.32-5,.34-7.48,0-4.23.43-8.45,0-12.68a15.76,15.76,0,0,0-1.42-6.18c-.48-.88-.8-1.84-1.2-2.76a3.1,3.1,0,0,0-.48-.83,10,10,0,0,0-4.89-3.14,1.4,1.4,0,0,0-1.45.26,11.51,11.51,0,0,0-3.18,4,13.12,13.12,0,0,0-1.24,5.73c0,.2,0,.4-.06.61-.13,2.64-.27,5.31-.39,7.95a3.89,3.89,0,0,0-.22.81c-.24,3.7-.5,7.38-.66,11.08-.24,5.37-.4,10.75-.62,16.14-.07,1.44-.22,2.89-.42,4.31-.29,2-.67,4-1,6.06-.07.35-.15.69-.21,1h0c-.31,1.09-.61,2.16-.94,3.23a2.75,2.75,0,0,1-.34.63,1.84,1.84,0,0,1-.34-1c-.21-3.95-.4-7.9-.61-11.83,0-.48-.13-1-.19-1.43,0-.65,0-1.31-.05-2,0-.32,0-.65,0-1-.08-3.79-.19-7.56-.29-11.34,0-.59-.1-1.19-.15-1.79,0-.28,0-.56,0-.83-.09-4.42-.14-8.85-.32-13.26a43,43,0,0,0-.7-4.74l-.72-3.13h0c-.07-.17-.15-.32-.22-.47l0,0c-.06-.12-.13-.23-.21-.36l0-.06-.07,0c-.58-.09-.45-.54-.49-.91l0-.06c-.47-.06-.45-.4-.43-.73h0a16.29,16.29,0,0,0-3.89-5.41,3.41,3.41,0,0,0-3.45-.71c-.51.14-1.21.31-1.45.69-.94,1.52-1.75,3.11-2.6,4.67a0,0,0,0,1,0,0c-.05.09-.11.18-.17.27s-.09.07-.07.12a6.38,6.38,0,0,0-.59,1.28c-.37,2.09-.74,4.17-1,6.28-.18,1.7-.15,3.43-.22,5.14,0,1.47,0,2.92,0,4.38V93.9c.08,1,.17,2,.23,3,0,0-.13.09-.19.13,0,.33,0,.64,0,1s-.06.56-.07.84q0,9.26,0,18.5c0,3.06-.1,6.13,0,9.19.25,6.15.53,12.31.53,18.49,0,2.91-1.11,5.43-1.72,8.34-.3-.37-.48-.58-.63-.79-.68-1-1.35-2-2-3a20.36,20.36,0,0,1-2.54-5.45c-.55-1.81-1.13-3.61-1.68-5.41v0l-.23-.74c-.15-.57-.31-1.13-.45-1.68-.57-2.51-1.12-5-1.69-7.52-.47-1.45-.91-2.91-1.39-4.36a8.39,8.39,0,0,0-3.54-4.72,2.67,2.67,0,0,0-2.74-.1,19.45,19.45,0,0,0-2.06,1.48c-.12.25-.22.51-.36.75a8.56,8.56,0,0,0-.93,5.16c.12-.39.23-.65.29-.91.17-.94.34-1.89.49-2.83a.86.86,0,0,1,.91-.79c.71-.05,1.42-.15,2.14-.22a2.45,2.45,0,0,1,2.81,2.2,13.81,13.81,0,0,1,.19,2,14,14,0,0,1-.28,1.76c0,.25,0,.53-.06.79s0,.36,0,.53a.67.67,0,0,1-.11.95,1.86,1.86,0,0,0,0,.34l-.23.36c-1.84,2.43-4.3,2.31-6.73-.41-.34,2.63-.67,5.16-1,7.68,0,.23-.06.45-.1.68s-.09.35-.13.54h-.23a42.07,42.07,0,0,0-.45,8.24,63.61,63.61,0,0,0,.72,11.62,3.38,3.38,0,0,1,.28,2.89c0,.24.06.48.1.72.14,1.38.27,2.74.41,4.11,0,.33.08.66.13,1a21.45,21.45,0,0,0,2.16,9.28,4.67,4.67,0,0,0,.17.92c.58,1.27,1.18,2.53,1.79,3.8.33.68.7,1.33,1,2l.27.62.18.28a52.79,52.79,0,0,0,4.36,7.49c.36.61.71,1.2,1.08,1.8v0c.72,1.28,1.44,2.55,2.17,3.82l0,0,.26.45v0c.19.57.39,1.12.57,1.7a91.51,91.51,0,0,1,2.31,10.22,58.39,58.39,0,0,1,1.12,10.3c0,1,.14,1.92.21,2.88,0,.32,0,.65,0,1a50.45,50.45,0,0,0-.19,7.81l5.67.41,7.38.71,1.81.18c.27,0,.55.05.84.06.69.08,1.38.14,2.07.2l.53,0,4.55.44h0c.17,0,.35,0,.51,0l1.93.19.49,0,2.14.22h0l.5,0,7.58.74,12.17,1.15c1.88.17,3.76.31,5.6.46a3.14,3.14,0,0,0,.29-.34c1-1.4,1-3,1-4.64l.15-1.45a1,1,0,0,1-.07-.18s.06,0,.08-.06c0-.24,0-.48,0-.73,0-1.13-.09-2.28-.12-3.43,0-.06.18-.14.28-.21,0-.32,0-.65.06-1a4.49,4.49,0,0,0,.15-.71c.39-4.93.77-9.87,1.18-14.82.25-2.92.51-5.85.83-8.78.49-4.64,1-9.28,1.56-13.92a37.24,37.24,0,0,1,.42-3.95c.69-3.1,1.49-6.18,2.29-9.26,1.27-4.74,2.34-9.56,4.19-14.11a81.53,81.53,0,0,0,4.2-16,50.42,50.42,0,0,0,.63-6.73c.18-3.18.25-6.36.37-9.54.06-.55.15-1.11.17-1.67.18-3.48.36-7,.51-10.46.1-2.57.16-5.13.25-7.7,0-.33,0-.66,0-1s0-.64,0-1c.05-.51.15-1,.15-1.54C197.35,102.77,197.29,101.08,197.34,99.39Zm-87.23,78.13v-.1a.63.63,0,0,1,.11.12ZM131.2,78.21l-.09-.09s0-.05.06-.06,0,0,.07.08Zm10.52-1c0,.45,0,.89-.05,1.35-.08.26-.15.54-.23.81l-.31.46c-.07,0-.11,0-.13.09-.18.14-.35.28-.53.4l-.24.24-.44.27,0,0-.25.21a7.21,7.21,0,0,0-.7.25h0a2.09,2.09,0,0,1-2.18,0l0,0h-.07c-.45.08-.87.06-1.07-.44h0l-.72-.26c-.16-.07-.32-.16-.48-.25h0l-.25-.22-.24-.24c-.07-.09-.15-.17-.22-.25l0,0c-.17-.15-.41-.27-.49-.48a3.5,3.5,0,0,1,0-2.87,7.63,7.63,0,0,0,.47-1.69,3.82,3.82,0,0,1,1.3-2.59,1.63,1.63,0,0,1,.92-.49c1-.14,2-.21,3-.26a1.11,1.11,0,0,1,.64.26,5.59,5.59,0,0,1,2.16,3.07c.19.47.32,1,.49,1.46,0,.26,0,.53,0,.78S141.79,77.05,141.72,77.19Zm21,3.16a2.41,2.41,0,0,0-.23.67v0c-.08.16-.16.32-.25.48h0l-.25.25-.46.45-.27.27v0l-.65.3,0,0c0,.1-.09.29-.15.3-1,.18-1.93.44-2.76-.35h0a11.21,11.21,0,0,0-1.28-.58,2.23,2.23,0,0,1-1.58-1.83A13.42,13.42,0,0,1,155,74a1.93,1.93,0,0,1,1.27-1.34c1-.34,2-.65,3-1a2,2,0,0,1,2.56.77,10.5,10.5,0,0,1,1.69,3.42A5.29,5.29,0,0,1,162.72,80.35Zm19.41-1.27-.19.28a.23.23,0,0,0-.08.16,3.37,3.37,0,0,0-.21.31l-.29.23a2.17,2.17,0,0,0-.56.18c-1.86,1.36-3.57,1-4.7-1a4.37,4.37,0,0,1-.25-.4c0-1.76-.27-3.55.33-5.25a4.55,4.55,0,0,1,1.26-2,2,2,0,0,1,2.35-.1c1.51.93,2.6,2.11,2.35,4.11a20.54,20.54,0,0,0,0,3.23A.17.17,0,0,0,182.13,79.08Zm14.1,21.85a3.92,3.92,0,0,0-.48,2.08,2.45,2.45,0,0,1-1.61,2.42.12.12,0,0,0-.13,0c-.57.54-.64.54-1.73,0l-.05,0h-.08l-2.14-.76a7.22,7.22,0,0,1,.73-6.45,6.77,6.77,0,0,1,1.33-1.54,2.92,2.92,0,0,1,4,.93A3.15,3.15,0,0,1,196.23,100.93Z"/><path class="cls-1" d="M94,127.36a33.38,33.38,0,0,0-.44-4.68,3,3,0,0,0-1-1.88,4.84,4.84,0,0,0-4.2-1,11.68,11.68,0,0,0-2.67,1.08,5.1,5.1,0,0,0-2.07,1.6c-1,1.73-1.73,3.62-2.56,5.44a1.48,1.48,0,0,0,.11.14.79.79,0,0,0-.14-.11c-.13.34-.27.68-.41,1l-.27.65-.22.55-.23.49a34.61,34.61,0,0,0-2.35,8.47q-.91,5.21-1.85,10.4l-2,2.64-.63.74c-1.24,1.32-2.43,2.69-3.7,4A25.28,25.28,0,0,1,67,158.77a2.78,2.78,0,0,1-.15-.5,32.37,32.37,0,0,1-.53-10c.53-3.71.75-7.46,1.33-11.15s1.48-7.52,2.22-11.27a30.05,30.05,0,0,0,1.62-7.95c.18-.94.36-1.87.53-2.8A72.12,72.12,0,0,0,73,104.76c0-.24,0-.47,0-.71s0-.46.06-.69,0-.33,0-.49l.3-4.39,0-1.21c0-.23.11-.47.12-.71A67.85,67.85,0,0,0,73.6,85c-.29-3-.2-6-.9-9a13.55,13.55,0,0,0-1.84-5.17,3.7,3.7,0,0,0-4-1.55,1.31,1.31,0,0,0-.66.44c-.21.19-.29.48-.5.66a10.41,10.41,0,0,0-3.22,5.92c-.14.79-.37,1.57-.58,2.34-.66,2.41-1.42,4.79-2,7.21-.77,3.29-1.43,6.6-2.11,9.91-.45,2.2-.86,4.42-1.29,6.63,0,.15-.05.3-.07.44-.36,1.61-.77,3.2-1.06,4.81-.6,3.25-1.12,6.5-1.63,9.77-.24,1.51-.36,3-.57,4.76-.34-.7-.58-1.19-.82-1.7s-.35-1.1-.53-1.64c-.06-.16-.12-.34-.19-.5v0c-.47-2-.94-4-1.42-6.06a.14.14,0,0,0,0-.19c0-.56-.06-1.12-.12-1.68a37.78,37.78,0,0,1-.53-4.07c-.07-2.74,0-5.48.06-8.23,0-2.13.09-4.26.14-6.39,0-.45,0-.92,0-1.37a6.2,6.2,0,0,0,.13-1c-.07-4.14-.1-8.29-.21-12.42a19.66,19.66,0,0,0-1.36-7.19,1.78,1.78,0,0,0-.75-1A21.86,21.86,0,0,0,44.67,68a.92.92,0,0,0-.66.21,8.71,8.71,0,0,0-3.08,4.91c-.58,3.19-1,6.42-1.53,9.63,0,.23-.07.47-.11.71l-.49,2.91c-.25,1.34-.56,2.68-.73,4-.4,3.3-.81,6.62-1.11,9.94-.34,3.84-.58,7.69-.87,11.54-.24,1.58-.48,3.17-.73,4.78a4.93,4.93,0,0,1-.23.46l.15.72H35a1,1,0,0,1,.09-.72c-.07-.4-.16-.79-.25-1.2-.26-1.81-.5-3.63-.81-5.43-.24-1.45-.54-2.89-.82-4.33a.14.14,0,0,0,0-.17c-.08-.43-.15-.85-.22-1.28l-.51-3.09a.75.75,0,0,1-.1-.17s.05-.06.07-.08l-.18-1.44c0-.44,0-.88,0-1.32-.21-3.32-.43-6.64-.68-9.94-.17-2.11-.37-4.23-.59-6.33-.11-1.07-.29-2.13-.45-3.21l0-.49c-.23-1.79-.34-3.59-.72-5.36A3.39,3.39,0,0,0,26.27,71a3.73,3.73,0,0,0-3,2.45c-1.2,3-1.24,6.2-1.6,9.34-.08.35-.17.71-.22,1.06-.44,4.09-1,8.16-1.31,12.25-.4,4.85-.63,9.72-.94,14.59-.13,1.85-.31,3.71-.48,5.8-.26-.42-.36-.59-.46-.77l-.72-2h0c-.13-.46-.24-.93-.37-1.38a20.32,20.32,0,0,1-.61-2c-1.17-6.29-2.29-12.59-3.49-18.88a11.36,11.36,0,0,0-1.12-3.67,7.08,7.08,0,0,0-4.49-3.43c-.78-.17-1.68-.39-2.26.52a4.84,4.84,0,0,1,4.67,4.3,7.12,7.12,0,0,1-1,4.57,2.16,2.16,0,0,1-3.63.34,6.13,6.13,0,0,1-.81-2.37,13.93,13.93,0,0,1,0-5.15,2.93,2.93,0,0,0,0-.72,1.62,1.62,0,0,0-.25.39,20.6,20.6,0,0,0-1,8.46c.23,4.06.64,8.11,1,12.16.17,1.75.45,3.5.67,5.24,0,.38,0,.75.09,1.13l.15.87c0,.19,0,.38,0,.57.26,2.49.53,5,.79,7.51.07.39.12.8.17,1.2.2,2.23.37,4.48.6,6.72.19,1.83.44,3.66.67,5.49a7.78,7.78,0,0,0,0,.84c.39,3.62.81,7.26,1.21,10.88.08.59.14,1.18.22,1.79.09.88.17,1.78.26,2.67,0,.39.1.8.14,1.19.41,2.32.77,4.65,1.21,7,.58,3,1.23,6,1.84,8.93l.41,1.84A66.63,66.63,0,0,0,15,179.93c.05.15.12.31.17.47.3,1,.61,2,.92,3,.09.28.16.56.25.85L19.09,197l.15,1.09.42,2.51c0,.37.06.75.1,1.12.07.58.16,1.16.24,1.73s.16,1.05.25,1.58c.39,2.94.77,5.89,1.2,8.83.23,1.59.57,3.16.86,4.73,0,.25.05.51.07.75.17.94.32,1.89.48,2.83.23,3.66.45,7.31.69,11.1l5.31-.27,1.47,0,2.91-.15a1,1,0,0,1,.24,0h.23l1.47,0c.39,0,.8,0,1.2,0l11.71-.46c5.1-.18,10.22-.37,15.33-.58a10.06,10.06,0,0,0,1.07-.13l1.44,0a.4.4,0,0,1,.71,0l.49,0,6.36-.17c.3-1.62.68-3.14.85-4.7.33-2.88.53-5.77.81-8.66a34.72,34.72,0,0,1,.58-5,97.63,97.63,0,0,1,3-11.19,56.6,56.6,0,0,1,2.8-6.67c2-3.71,3.76-7.49,5.62-11.24a46,46,0,0,0,4.06-14c.24-1.68.34-3.37.53-5.05.25-2.37.51-4.72.78-7.08,0-.61.11-1.21.17-1.83a3.75,3.75,0,0,0,.13-.58c.23-2.65.48-5.3.68-8,.18-2.29.32-4.59.48-6.87,0-.62,0-1.25,0-1.87a3.5,3.5,0,0,0,.06-.48C94,134.61,94.08,131,94,127.36Zm-66.35-49c-.14.58-.31,1.16-.47,1.74a.13.13,0,0,0-.05.14l-.23.31v0a2.73,2.73,0,0,0-.23.25.43.43,0,0,1-.52.47.21.21,0,0,0-.19,0,.65.65,0,0,1-1,0l-.27,0-1.16-.74,0,0-.24-.24c-.08-.21-.17-.42-.27-.64s-.05-.2-.08-.29c0-1.16,0-2.32,0-3.47a3.92,3.92,0,0,1,2-3.59,1,1,0,0,1,1.59.21,1.75,1.75,0,0,1,.42.58c.34,1.24.7,2.47.93,3.72A4.21,4.21,0,0,1,27.67,78.35ZM47.2,77c-.65,1.19-1.71,1.45-3.39,1.06-1.39-.32-2.13-1.12-2-3.47a15,15,0,0,1,1.3-4.3,2.27,2.27,0,0,1,.82-.84,1,1,0,0,1,1.58.23c.82,1.18,1.83,2.27,1.81,3.85a2.45,2.45,0,0,0,.22.81A3,3,0,0,1,47.2,77Zm17.62,1.65a1.08,1.08,0,0,1-.81-1.3A42,42,0,0,1,64.75,73a3.2,3.2,0,0,1,2.4-2.29,2.82,2.82,0,0,1,3.12,2.06c.15.64.19,1.28.32,2.22a22.32,22.32,0,0,1-1,3A2.49,2.49,0,0,1,67,79.23,9.74,9.74,0,0,1,64.82,78.65ZM92,125.59c-.61,1.29-1,2.69-2.46,3.46a3.64,3.64,0,0,1-5.37-2.37,6.66,6.66,0,0,1,1.17-5,19.28,19.28,0,0,1,5.16,1.84A5.93,5.93,0,0,1,92,125.14.46.46,0,0,1,92,125.59Z"/><path class="cls-2" d="M114.75,128.17c0,.25,0,.53-.06.79s0,.36,0,.53-.07.63-.11.95a1.86,1.86,0,0,0,0,.34l-.23.36c-1.84,2.43-4.3,2.31-6.73-.41-.34,2.63-.67,5.16-1,7.68,0,.23-.06.45-.1.68s-.09.35-.13.54h-.23c.27-2.76.55-5.52.81-8.29.14-1.4.34-2.8.39-4.21A17.41,17.41,0,0,1,108.5,122a1.67,1.67,0,0,1,1-1c-.12.25-.22.51-.36.75a8.56,8.56,0,0,0-.93,5.16c.12-.39.23-.65.29-.91.17-.94.34-1.89.49-2.83a.86.86,0,0,1,.91-.79c.71-.05,1.42-.15,2.14-.22a2.45,2.45,0,0,1,2.81,2.2,13.81,13.81,0,0,1,.19,2A14,14,0,0,1,114.75,128.17Z"/><path class="cls-3" d="M8.82,93.77a2.16,2.16,0,0,1-3.63.34,6.13,6.13,0,0,1-.81-2.37,13.93,13.93,0,0,1,0-5.15,2.93,2.93,0,0,0,0-.72v0a1.24,1.24,0,0,0,.14-.18l.67-.75a4.84,4.84,0,0,1,4.67,4.3A7.12,7.12,0,0,1,8.82,93.77Z"/><path class="cls-4" d="M162.72,80.35a2.41,2.41,0,0,0-.23.67v0c-.08.16-.16.32-.25.48h0l-.25.25-.46.45-.27.27v0l-.65.3,0,0a5.33,5.33,0,0,1-2.91-.05h0a11.21,11.21,0,0,0-1.28-.58,2.23,2.23,0,0,1-1.58-1.83A13.42,13.42,0,0,1,155,74a1.93,1.93,0,0,1,1.27-1.34c1-.34,2-.65,3-1a2,2,0,0,1,2.56.77,10.5,10.5,0,0,1,1.69,3.42A5.29,5.29,0,0,1,162.72,80.35Z"/><path class="cls-5" d="M142,76.76c-.09.15-.18.29-.25.43,0,.45,0,.89-.05,1.35-.08.26-.15.54-.23.81l-.31.46c-.07,0-.11,0-.13.09-.18.14-.35.28-.53.4l-.24.24-.44.27,0,0-.25.21a7.21,7.21,0,0,0-.7.25H136.6l0,0h-.07l-1.07-.44h0l-.72-.26c-.16-.07-.32-.16-.48-.25h0l-.25-.22-.24-.24c-.07-.09-.15-.17-.22-.25-.17-1.13-.33-2.25-.51-3.37a7.63,7.63,0,0,0,.47-1.69,3.82,3.82,0,0,1,1.3-2.59,1.63,1.63,0,0,1,.92-.49c1-.14,2-.21,3-.26a1.11,1.11,0,0,1,.64.26,5.59,5.59,0,0,1,2.16,3.07c.19.47.32,1,.49,1.46C142,76.24,142,76.51,142,76.76Z"/><path class="cls-6" d="M182.13,79.08l-.19.28a.23.23,0,0,0-.08.16,3.37,3.37,0,0,0-.21.31l-.29.23a2.17,2.17,0,0,0-.56.18c-1.86,1.36-3.57,1-4.7-1a4.37,4.37,0,0,1-.25-.4c0-1.76-.27-3.55.33-5.25a4.55,4.55,0,0,1,1.26-2,2,2,0,0,1,2.35-.1c1.51.93,2.6,2.11,2.35,4.11a20.54,20.54,0,0,0,0,3.23A.17.17,0,0,0,182.13,79.08Z"/><path class="cls-7" d="M196.23,100.93a3.92,3.92,0,0,0-.48,2.08,2.45,2.45,0,0,1-1.61,2.42.12.12,0,0,0-.13,0h-1.73l-.05,0h-.08l-2.14-.76a7.22,7.22,0,0,1,.73-6.45,6.77,6.77,0,0,1,1.33-1.54,2.92,2.92,0,0,1,4,.93A3.15,3.15,0,0,1,196.23,100.93Z"/><path class="cls-8" d="M27.67,78.35c-.14.58-.31,1.16-.47,1.74a.13.13,0,0,0-.05.14l-.23.31v0a2.73,2.73,0,0,0-.23.25l-.52.47a.21.21,0,0,0-.19,0H25l-.27,0c-.18-.59-.7-.63-1.18-.76l-.24-.24c-.08-.21-.17-.42-.27-.64s-.05-.2-.08-.29c0-1.16,0-2.32,0-3.47a3.92,3.92,0,0,1,2-3.59,1,1,0,0,1,1.59.21,1.75,1.75,0,0,1,.42.58c.34,1.24.7,2.47.93,3.72A4.21,4.21,0,0,1,27.67,78.35Z"/><path class="cls-2" d="M92,125.59c-.61,1.29-1,2.69-2.46,3.46a3.64,3.64,0,0,1-5.37-2.37,6.66,6.66,0,0,1,1.17-5,19.28,19.28,0,0,1,5.16,1.84A5.93,5.93,0,0,1,92,125.14.46.46,0,0,1,92,125.59Z"/><path class="cls-9" d="M70.59,75a22.32,22.32,0,0,1-1,3A2.49,2.49,0,0,1,67,79.23a9.74,9.74,0,0,1-2.21-.58,1.08,1.08,0,0,1-.81-1.3A42,42,0,0,1,64.75,73a3.2,3.2,0,0,1,2.4-2.29,2.82,2.82,0,0,1,3.12,2.06C70.42,73.41,70.46,74.05,70.59,75Z"/><path class="cls-6" d="M47.2,77c-.65,1.19-1.71,1.45-3.39,1.06-1.39-.32-2.13-1.12-2-3.47a15,15,0,0,1,1.3-4.3,2.27,2.27,0,0,1,.82-.84,1,1,0,0,1,1.58.23c.82,1.18,1.83,2.27,1.81,3.85a2.45,2.45,0,0,0,.22.81A3,3,0,0,1,47.2,77Z"/></svg>