<?xml version="1.0" encoding="utf-8"?>
<!-- Generator: Adobe Illustrator 23.1.1, SVG Export Plug-In . SVG Version: 6.00 Build 0)  -->
<svg version="1.1" id="Layer_1" xmlns="http://www.w3.org/2000/svg" xmlns:xlink="http://www.w3.org/1999/xlink" x="0px" y="0px"
	 viewBox="0 0 200 300" style="enable-background:new 0 0 200 300;" xml:space="preserve">
<style type="text/css">
	.st0{fill:#FFFFFF;}
	.st1{fill:none;stroke:#FFFFFF;stroke-miterlimit:10;}
</style>
<path d="M176.5,90c-6.4-7.4-15.2-10.6-31.1-16.3C138,71,120.8,65.5,98,65.5c-12.3,0-30.4,0.2-50.7,9.8c-10.7,5.1-19.9,9.4-26.1,18
	c-24.3,33.6,21.1,99.4,44.1,125.8c14.1,16.2,24.6,22.9,36,22.9c11.1,0,21.3-6.5,34.3-21.2C166,186.4,201.5,119,176.5,90z"/>
<g>
	<g>
		<path class="st0" d="M50.6,107.8c1.5,7,3,14,4.5,21c0.2,0.9,1.6,0.5,1.4-0.4c-1.5-7-3-14-4.5-21C51.9,106.5,50.4,106.9,50.6,107.8
			L50.6,107.8z"/>
	</g>
</g>
<g>
	<g>
		<path class="st0" d="M50.5,111.7c2.8-2.6,6.7-3.8,10.5-3.3c0.8,0.1,1.8,0.3,2.1,1.1c0.3,0.8,0,1.8-0.3,2.5c-0.7,1.6-2,3.1-3.3,4.3
			c-1.6,1.4-3.4,2.4-5.4,3c-0.9,0.3-0.5,1.7,0.4,1.4c4.1-1.2,8.1-4.2,9.8-8.2c0.8-1.9,0.7-4.3-1.5-5.2c-2-0.8-4.6-0.6-6.6-0.1
			c-2.5,0.6-4.8,1.8-6.7,3.5C48.7,111.3,49.8,112.3,50.5,111.7L50.5,111.7z"/>
	</g>
</g>
<g>
	<g>
		<path class="st0" d="M83.8,120.8c1.4-5.9,4.3-11.5,8.3-16.1c0.6-0.6,1.1-1,1.7-0.3c0.5,0.6,0.8,1.4,1.1,2.1
			c0.8,1.6,1.5,3.2,2.3,4.8c1.5,3.2,3.1,6.4,4.6,9.6c0.4,0.9,1.7,0.1,1.3-0.8c-1.4-2.9-2.7-5.7-4.1-8.6c-0.7-1.4-1.4-2.9-2-4.3
			c-0.6-1.2-1.1-2.6-1.9-3.7c-0.6-0.8-1.5-1.4-2.6-1c-1.1,0.4-2,1.7-2.7,2.6c-1.7,2.1-3.1,4.3-4.3,6.7c-1.4,2.7-2.4,5.6-3.1,8.5
			C82.1,121.4,83.5,121.8,83.8,120.8L83.8,120.8z"/>
	</g>
</g>
<g>
	<g>
		<path class="st0" d="M98.8,115.6c-5,0-9.9,0-14.9,0c-1,0-1,1.5,0,1.5c5,0,9.9,0,14.9,0C99.8,117.1,99.8,115.6,98.8,115.6
			L98.8,115.6z"/>
	</g>
</g>
<g>
	<g>
		<path class="st0" d="M128.8,103.9c-1,6.4-1.9,12.8-2.9,19.2c-0.1,0.9,1.3,1.4,1.4,0.4c1-6.4,1.9-12.8,2.9-19.2
			C130.3,103.4,128.9,102.9,128.8,103.9L128.8,103.9z"/>
	</g>
</g>
<g>
	<g>
		<path class="st0" d="M122.2,102.9c5.2,1.2,10.5,2.4,15.7,3.7c0.9,0.2,1.3-1.2,0.4-1.4c-5.2-1.2-10.5-2.4-15.7-3.7
			C121.7,101.2,121.3,102.7,122.2,102.9L122.2,102.9z"/>
	</g>
</g>
<ellipse class="st1" cx="99.7" cy="117" rx="71.9" ry="38.4"/>
</svg>
