<?xml version="1.0" encoding="utf-8"?>
<!-- Generator: Adobe Illustrator 23.1.1, SVG Export Plug-In . SVG Version: 6.00 Build 0)  -->
<svg version="1.1" id="Layer_1" xmlns="http://www.w3.org/2000/svg" xmlns:xlink="http://www.w3.org/1999/xlink" x="0px" y="0px"
	 viewBox="0 0 200 300" style="enable-background:new 0 0 200 300;" xml:space="preserve">
<style type="text/css">
	.st0{fill:#D8BB7C;}
	.st1{fill:#FFFFFF;}
	.st2{font-family:'Baskerville';}
	.st3{font-size:9.553px;}
	.st4{font-size:9.2752px;}
	.st5{font-size:9.687px;}
</style>
<g>
	<g>
		<path d="M47.2,191.4c-2.9,1.3-5.2,2.3-7.4,3.4c-2.2,1.1-4.4,2.2-6.5,3.4c-1.9,1.1-3.6,1.5-5.6,0.4c-4.4-2.5-8.8-5-13.2-7.6
			c-1.7-1-3.1-2.5-2.9-4.6c0.7-10.3,1.5-20.6,2.3-30.9c0-0.2,0.1-0.4,0.3-0.8c0.5,0.2,1.1,0.2,1.5,0.5c3.5,2.2,7,4.4,10.3,6.8
			c2.5,1.8,5,2.9,8.1,2c1.9-0.5,3.9-0.6,5.9-0.8c1.5-0.1,2-0.9,2.2-2.3c1-6.9,1.8-13.9,3.3-20.7c2.1-9.1,5.9-17.6,12.2-24.8
			c3.5-4,6.7-8.6,10.9-11.9c8.8-7,18.6-12.4,29.5-15.7c8.5-2.6,17.1-2.6,25.9-1.9c11.5,0.9,21.2,6.4,30.6,12
			c7.2,4.3,13.3,10.1,18.1,17.1c2.4,3.6,4,7.7,6.1,11.6c0.4,0.8,0.9,1.5,1.3,2.2c3.1,5.8,4,12.2,4.9,18.5c0.8,5.8,1.2,11.8,1,17.7
			c-0.3,7.6-2.3,15.1-4.8,22.3c-1.8,5.3-2.8,10.9-4.9,16.1c-1.3,3.4-3.8,6.3-5.9,9.4c-1.7,2.6-3.7,5-5.3,7.7c-1.3,2.3-3,1.8-4.8,1.2
			c-4.5-1.4-8.5-3.9-12.1-7c-3.8-3.2-7.8-6.2-10.9-10c-1.8-2.2-4.8-4.1-4.6-7.8c0-0.8-1.1-1.7-1.6-2.6c-0.4-0.8-0.5-1.7-0.9-2.6
			c-0.8-2.1-1.8-4.2-2.4-6.3c-1.2-4.2-2.9-8.3-3-12.8c-0.1-4.4-1.1-8.8-1-13.1c0-3.6-0.1-7.1-0.5-10.7c-0.4-4.1-2.7-7.2-5.8-9.7
			c-0.6-0.5-1.2-1-1.8-1.6c-0.2,0.3-0.4,0.7-0.7,0.7c-5.3,1.8-5.7,6.1-5.5,10.7c0.2,4.5,0.5,9.1,0.9,13.6c0.4,4.5-1,8.7-2.6,12.6
			c-2.5,6.3-5.4,12.6-8.7,18.5c-1.7,3.1-4.7,5.6-7.2,8.3c-4.5,5-9,10-13.6,14.9c-1.9,2-3.7,4.2-6.7,4.8c-2.1,0.4-3.6,0-5.2-1.3
			c-7.5-6.3-11.9-14.7-16.3-23.2C49.1,195.1,48.1,193.1,47.2,191.4z M162.6,218.5c2.4-4.2,5.1-8.3,7.4-12.7
			c2.2-4.3,4.2-8.7,5.7-13.2c1.8-5.5,3-11.2,4.2-16.8c0.9-4.4,2.1-9,2-13.5c-0.1-6.7-0.9-13.4-1.8-20c-0.6-4.1-1.4-8.3-3.4-12.1
			c-2.3-4.3-4.3-8.8-6.5-13.2c-2.4-4.8-6.1-8.5-9.9-12c-3-2.7-6.7-4.9-10.2-7.1c-2-1.3-4-2.5-6.2-3.3c-3.8-1.3-7.7-2.1-11.5-3.4
			c-7.4-2.5-15-2.2-22.6-1.7c-3.8,0.2-7.6,1.3-11.2,2.6c-5.4,2-10.8,4.3-15.8,7c-3.7,2-6.9,4.8-10.2,7.4c-1.8,1.4-3.3,3.2-4.9,4.8
			c-1.8,1.8-3.7,3.6-5.2,5.6c-1.5,2.1-2.7,4.6-3.9,7c-1.1,2.2-2.1,4.5-2.8,6.8c-0.8,2.8-1.2,5.8-2,8.6c-0.6,2.1-1.8,4.1-2.1,6.3
			c-0.6,3.3-0.9,6.6-1,9.9c-0.1,2.3,0.1,4.5,0.2,6.8c0,1.6-0.2,3.1,0,4.7c0.4,2.9,1.4,5.8,1.3,8.7c-0.1,2.6,1.1,4.7,1.2,7.2
			c0.1,2.8,1.5,5.6,2.7,8.3c1.6,3.6,3.1,7.5,5.5,10.6c2.5,3.2,6.1,5.4,9.1,8.2c1.1,1.1,2,2.5,2.9,3.8c0.5,0.7,0.7,1.6,1.1,2.6
			c2.1-2,4.2-3.9,6-5.9c2.3-2.6,4.2-5.6,6.7-8.1c5.3-5.4,9-11.8,12.7-18.3c1.5-2.5,2.6-5.2,3.9-7.8c1-2.1,2.3-4.1,2.8-6.3
			c1.3-6.1,0.8-12.2,0.2-18.3c-0.6-5.8-0.9-11.7,5.4-15.3c1.9-1.1,6.3-1.3,8.1-0.1c4.5,3.1,6.3,7.8,6.7,12.9
			c0.5,5.9,0,11.8,0.4,17.7c0.6,9.7,3.1,18.8,7.9,27.3c3.2,5.8,8,10.2,12.3,15C151.6,213.8,156.4,217,162.6,218.5z M15.6,155.8
			c-0.6,5.9-1.3,11-1.7,16.2c-0.3,4.4-0.1,8.8-0.5,13.2c-0.2,2.3,0.5,3.6,2.4,4.6c4.1,2.3,8.2,4.5,12,7.1c1.6,1.1,2.9,1.1,4.4,0.3
			c6.3-3.4,12.4-7.4,19.2-9c-1.2-8.7-2.3-17.2-3.4-25.7c-4.6,0.9-9.5,1.7-14.2,2.7c-3.2,0.7-5.9,0-8.4-2.1
			C22.4,160.6,19.1,158.4,15.6,155.8z"/>
		<path class="st0" d="M162.6,218.5c-6.2-1.5-11-4.7-14.9-9c-4.3-4.8-9.1-9.2-12.3-15c-4.8-8.5-7.4-17.6-7.9-27.3
			c-0.3-5.9,0.1-11.8-0.4-17.7c-0.4-5.1-2.2-9.8-6.7-12.9c-1.8-1.3-6.2-1-8.1,0.1c-6.3,3.5-6,9.5-5.4,15.3
			c0.6,6.1,1.1,12.3-0.2,18.3c-0.5,2.2-1.8,4.2-2.8,6.3c-1.3,2.6-2.4,5.3-3.9,7.8c-3.8,6.4-7.5,12.9-12.7,18.3
			c-2.4,2.5-4.4,5.5-6.7,8.1c-1.8,2-3.9,3.8-6,5.9c-0.4-0.9-0.6-1.8-1.1-2.6c-0.9-1.3-1.7-2.7-2.9-3.8c-3-2.8-6.6-5.1-9.1-8.2
			c-2.4-3.1-3.9-7-5.5-10.6c-1.2-2.7-2.6-5.5-2.7-8.3c-0.1-2.5-1.3-4.7-1.2-7.2c0.1-2.9-0.9-5.8-1.3-8.7c-0.2-1.5,0-3.1,0-4.7
			c0-2.3-0.3-4.5-0.2-6.8c0.2-3.3,0.4-6.6,1-9.9c0.4-2.2,1.6-4.2,2.1-6.3c0.8-2.8,1.1-5.8,2-8.6c0.7-2.3,1.8-4.6,2.8-6.8
			c1.2-2.4,2.3-4.8,3.9-7c1.5-2.1,3.4-3.8,5.2-5.6c1.6-1.6,3.1-3.4,4.9-4.8c3.3-2.6,6.5-5.5,10.2-7.4c5.1-2.7,10.4-5,15.8-7
			c3.6-1.3,7.4-2.4,11.2-2.6c7.6-0.5,15.2-0.8,22.6,1.7c3.8,1.3,7.7,2.1,11.5,3.4c2.2,0.8,4.3,2,6.2,3.3c3.5,2.2,7.1,4.4,10.2,7.1
			c3.9,3.5,7.6,7.2,9.9,12c2.2,4.4,4.2,8.8,6.5,13.2c2,3.8,2.9,7.9,3.4,12.1c0.9,6.6,1.7,13.3,1.8,20c0,4.5-1.1,9-2,13.5
			c-1.2,5.7-2.5,11.3-4.2,16.8c-1.5,4.6-3.5,9-5.7,13.2C167.7,210.2,165,214.4,162.6,218.5z"/>
		<path class="st1" d="M15.6,155.8c3.6,2.6,6.8,4.7,9.7,7.2c2.6,2.2,5.2,2.8,8.4,2.1c4.8-1,9.6-1.8,14.2-2.7
			c1.1,8.6,2.3,17.1,3.4,25.7c-6.8,1.6-12.9,5.6-19.2,9c-1.6,0.8-2.8,0.8-4.4-0.3c-3.9-2.6-8-4.8-12-7.1c-1.9-1.1-2.6-2.4-2.4-4.6
			c0.4-4.4,0.1-8.8,0.5-13.2C14.2,166.9,14.9,161.7,15.6,155.8z"/>
	</g>
</g>
<text transform="matrix(1.0195 0.1794 -0.1733 0.9849 20.5451 174.6679)" class="st2 st3">Be</text>
<text transform="matrix(1 0 0 1 30.5605 176.2168)" class="st2 st4">i</text>
<text transform="matrix(0.9926 -0.1216 0.1216 0.9926 33.1298 176.1996)"><tspan x="0" y="0" class="st2 st5">ng b</tspan><tspan x="0" y="11.6" class="st2 st5">   Ta</tspan></text>
</svg>
