<?xml version="1.0" encoding="utf-8"?>
<!-- Generator: Adobe Illustrator 23.1.1, SVG Export Plug-In . SVG Version: 6.00 Build 0)  -->
<svg version="1.1" id="Layer_1" xmlns="http://www.w3.org/2000/svg" xmlns:xlink="http://www.w3.org/1999/xlink" x="0px" y="0px"
	 viewBox="0 0 200 300" style="enable-background:new 0 0 200 300;" xml:space="preserve">
<style type="text/css">
	.st0{fill:#29ABE2;}
	.st1{fill:#ED1C24;}
	.st2{fill:#F2F2F2;}
</style>
<path class="st0" d="M4.1,137c8.3-9.5,22-23,42.4-33.6C59.1,96.9,70.7,93.2,80.1,91c7.1,4.7,14.1,9.4,21.2,14.1
	c8.2-4.7,16.5-9.4,24.7-14.1c9.1,3,19.3,7,30,12.4c15.9,7.9,28.8,16.8,38.9,24.7c-2.3,8.8-6.8,21.8-15.9,35.3
	c-5.7,8.4-23.4,34.8-56.6,44.2c-38.6,10.9-82.4-5.9-104.3-37.1C9.3,157.8,5.7,145.1,4.1,137z"/>
<path class="st1" d="M10.3,137.8c8.4,7.7,23.8,19.7,46,26.5c37.4,11.5,69.1,0.8,81.3-3.5c22.6-8,39-20.3,49.5-30
	c-19.4-6.4-51-14.1-90.1-12.4C58.9,120.1,28.9,130,10.3,137.8z"/>
<path class="st2" d="M61.6,123.7c1.8,5.3,3.5,10.6,5.3,15.9c9.4-1.2,18.9-2.4,28.3-3.5c1.2-5.3,2.4-10.6,3.5-15.9
	c0,5.3,0,10.6,0,15.9c10.6,0.6,21.2,1.2,31.8,1.8c1.2-5.3,2.4-10.6,3.5-15.9c-10.3-1.2-22.2-2-35.3-1.8
	C84.7,120.5,72.2,121.9,61.6,123.7z"/>
<rect x="134" y="121.9" transform="matrix(0.9957 9.312686e-02 -9.312686e-02 0.9957 12.6343 -12.7434)" class="st2" width="17.7" height="14.1"/>
<rect x="153" y="124.4" transform="matrix(0.9756 0.2194 -0.2194 0.9756 32.3227 -31.7647)" class="st2" width="12.4" height="10.4"/>
<rect x="166.4" y="128.9" transform="matrix(0.9756 0.2194 -0.2194 0.9756 32.9359 -34.8823)" class="st2" width="14.1" height="3.9"/>
<polygon class="st2" points="45.6,141.2 63.9,138.4 61.5,125.1 43.2,127.9 "/>
<polygon class="st2" points="31.9,141.4 44.3,137.9 41.2,128.5 28.8,131.9 "/>
<polygon class="st2" points="15.2,140.8 29.3,136.9 28.2,133.3 14,137.3 "/>
</svg>
