<?xml version="1.0" encoding="utf-8"?>
<!-- Generator: Adobe Illustrator 23.1.1, SVG Export Plug-In . SVG Version: 6.00 Build 0)  -->
<svg version="1.1" id="Layer_1" xmlns="http://www.w3.org/2000/svg" xmlns:xlink="http://www.w3.org/1999/xlink" x="0px" y="0px"
	 viewBox="0 0 200 300" style="enable-background:new 0 0 200 300;" xml:space="preserve">
<style type="text/css">
	.st0{fill:#8CC63F;}
	.st1{fill:#006837;}
	.st2{fill:#FFFFFF;}
</style>
<g>
	<g>
		<path class="st0" d="M98.3,87.2c0.6-0.3,1-0.5,1.6-0.8c0.6,1.7,1.3,3.2,1.8,4.8c0.1,0.3-0.5,0.8-0.9,1.3c0.7,1.7,0.4,2.2-1.3,2.8
			c-0.3,0.9-0.3,1.6-0.7,2c-1.8,1.8-3.8,3.6-5.7,5.4c-3.1,3-6.3,5.9-9.4,8.9c-2.9,2.9-5.6,5.9-8.3,8.9c-0.9,1-1.5,2.3-2.3,3.4
			c-1.5,1.9-3.2,3.7-4.8,5.6c-0.2,0.3-0.4,0.5-0.6,0.8c-1.3,2-2.6,3.9-3.8,5.9c-0.3,0.4-0.5,0.8-0.8,1.3c-1.3,1.9-2.5,3.9-3.9,5.8
			c-0.7,0.9-1.8,1.6-2.6,2.3c1.9,0.9-0.2,2.2-0.2,3.7c0.8-1.3,1.5-2.3,2.1-3.3c1.1-1.8,2.2-3.6,3.4-5.3c0.3-0.4,1-0.7,1.5-1
			c0.1-0.4,0.2-1.1,0.6-1.6c4.5-6.1,8.7-12.3,13.6-18c4.3-5.1,9.4-9.6,14.3-14.2c2.8-2.6,5.7-5.1,8.6-7.6c0.6-0.6,1.4-1,2.5-1.7
			c0.3,1.5,0.5,2.8,0.6,4c0.3,1.6,0.6,3.2,0.7,4.8c0.1,0.9-0.2,1.8-0.3,2.7c0,0.2-0.2,0.4-0.2,0.5c1.3,4,0.3,8,0.2,12.1
			c-0.2,3.7-0.3,7.4-0.5,11c0,0.4,0.1,0.8,0.5,1.2c1.6-12.1,2.6-24.3,1.6-36.5c0.2-0.1,0.3-0.1,0.5-0.2c0.6,0.4,1.4,0.8,1.9,1.3
			c2.3,2.2,4.6,4.4,6.8,6.7c3,3.1,6.1,6.2,9,9.5c1.7,2,3.2,4.2,4.7,6.3c1.3,1.8,2.5,3.7,3.8,5.6c0.1,0,0.2-0.1,0.4-0.1
			c-0.1-0.4-0.2-0.9-0.4-1.2c-3.9-6.2-8.3-12.1-13.5-17.4c-3.6-3.7-7-7.5-10.5-11.2c-0.2-0.2-0.3-0.4-0.8-1
			c6.4-0.2,12.4-0.4,18.2-0.6c-1.2-0.1-2.8-0.4-4.4-0.4c-4.5,0-9,0.1-13.5,0.1c-1.8,0-2.1-0.6-1.2-2c2.5-4.2,5.7-7.7,11.3-8.5
			c4.1-0.6,8.2-1.5,12.2-2.3c3-0.6,5.9-1.5,8.9-2.1c0.6-0.1,1.3,0.1,2,0.1c1.2,0,2.5,0.2,3.6,0c1.8-0.4,3.3,0.1,4.2,1.5
			c0.2,0.2,0.3,0.6,0.5,0.7c2.1,0.4,4.2,1,6.4,1c1.9,0,3.5-0.2,5.1,1.3c1.1,1.1,2.6,2.2,4.6,1.9c0.4-0.1,0.9,0.3,1.2,0.6
			c1.8,1.9,3.9,3.3,6.6,4.2c1.3,0.4,2.7,1.1,3.3,2.5c0.1,0.3,0.6,0.5,0.8,0.8c0.6,0.6,1.2,1.2,1.7,1.8c0.6,0.7,1.1,1.5,1.6,2.3
			c0.4,0.6,0.7,1.1,1.1,1.7c0.7,1.1,1.3,2.1,2,3.2c0.3,0.5,0.8,1,1,1.6c0.7,3.1,1.3,6.1,2,9.2c0.3,1.1,0.1,2-0.8,2.9
			c-5.2,5-11.4,6.8-18.7,5.8c-2.5-0.4-4.9-0.9-7.4-1.2c-0.9-0.1-2,0-2.9,0.2c-1.6,0.5-2.4,2.4-1.4,4c1.4,2.6,2.9,5.2,4.7,7.6
			c3,3.9,6.8,7,11.4,9.3c2.4,1.2,4.5,2.8,5,5.8c0.2,1.1,1.6,2.1,2.3,3.2c0.4,0.6,1,1.3,1,2c0,1.8,0.7,3.4,1.9,4.8
			c0.8,1,1.6,2,2.4,3.1c1,1.4,1.6,2.9,1.2,4.7c-0.2,0.8,0.2,1.7,0.4,2.5c0.3,1.3,0.6,2.6,1,3.9c0.4,1.3,0.1,2.5-0.4,3.8
			c-0.4,1.2-0.5,2.5-1,3.6c-0.5,1.4-1.2,2.6-1.7,4c-0.8,2.3-1.5,4.6-2.3,6.9c-0.2,0.5-0.1,1.1-0.3,1.6c-1.7,3.6-3.3,7.3-6.4,10.2
			c-2.4,2.2-4.4,4.8-6.9,6.9c-1.4,1.2-3.4,1.9-5.2,2.8c-0.9,0.4-1.8,0.8-2.7,1.2c-4,2-8.2,1.3-11.9-0.4c-3-1.4-5.4-3.8-8.1-5.8
			c-1.1-0.8-2-1.8-3-2.8c-0.3-0.2-0.6-0.5-0.7-0.8c-1.6-2.6-3.1-5.3-4.7-8c-0.6-1-1.4-1.9-2-2.9c-1.3-2.2-2.6-4.5-2.3-7.2
			c0.2-1.4,0.6-2.9,0.9-4.3c0.7-3.2,1.8-6.4,2.1-9.7c0.3-3.1-0.4-6.2-2.7-8.8c-1.6-1.8-4.9-1.1-6.1,1.5c-0.9,1.9-1.3,4.1-1.4,6.2
			c-0.4,8.8,0.9,17.3,5.4,25.2c2.5,4.5,4.4,9.3,6.6,14c0.1,0.1,0.2,0.3,0.1,0.4c-0.2,2.8,0,5.6-1.2,8.3c-1,2.4-1.7,4.9-1.2,7.5
			c0.5,2.5,1.1,5,1.5,7.6c0.1,0.9-0.3,1.9-0.7,2.7c-0.5,1.1-1.1,2.1-1.7,3.1c-1.8,3.5-4.1,6.7-6.5,9.8c-2.8,3.6-6.4,6.4-9.8,9.3
			c-6.6,5.6-12.2,5.2-18.5,0.8c-2.7-1.9-5.5-3.7-8.2-5.6c-0.5-0.4-0.9-0.9-1.4-1.4c-2.9-2.8-4.7-6.2-7.1-9.2
			c-1.9-2.4-3.7-4.8-5.5-7.2c-0.3-0.4-0.6-0.8-0.7-1.3c-0.7-2.7-1.5-5.4-2.1-8.1c-0.4-2-2.1-3.1-3.2-4.5c-0.4-0.6-0.8-1.2-1.1-1.8
			c-0.2-0.5-0.3-1.1-0.6-1.5c-1-1.3-1.6-2.8-1.8-4.4c-0.2-1.1-1.2-2.1-1.6-3.3c-0.2-0.7-0.2-1.5-0.1-2.2c0.1-1.1,0.5-2.2,0.4-3.3
			c-0.2-1.9-0.3-3.6,1.5-4.9c0.3-0.2,0.6-0.5,0.7-0.8c0.8-3.2,3.9-4.5,6.1-6.6c2.3-2.2,4.7-4.4,6.9-6.7c3-3.2,4.3-7,5-11.1
			c0.6-3.6,1.1-7.3,1.3-11c0.1-1.4-0.5-3.1-1.3-4.4c-1.3-2-4.2-2.1-5.7-0.2c-1.8,2.2-3,4.7-3.6,7.5c-0.4,1.8-1.1,3.5-1.6,5.3
			c-1.1,3.3-0.4,6.7-0.5,10c0,1.6,0,3.2,0.2,4.8s-0.5,2.6-1.8,3.6c-1.6,1.1-3,2.5-4.5,3.7c-1.3,1.1-2.7,2.1-4.1,3
			c-1,0.7-2.1,1.2-3.2,1.8c-1.1,0.6-2.1,1.3-3.1,1.9c-1,0.6-2,1.2-3.1,1.6c-2,0.8-4,1.4-6,2.1c-0.4,0.1-0.8,0.1-1.2,0.1
			c-2.6-0.2-5.2-0.4-7.8-0.8c-3.1-0.4-5.8-1.4-7.6-4c-2.1-2.9-4.5-5.5-6.5-8.4c-0.9-1.4-1.2-3.2-1.7-4.8c-0.3-0.8-0.6-1.6-1-2.3
			c-0.8-1.5-1.2-2.9-1.2-4.6c0-1.6-0.8-3.3-1-4.9c-0.3-2.1-0.5-4.3-0.7-6.5c-0.1-1.2-0.2-2.5-0.3-3.7c-0.1-1.1-0.3-2.2-0.3-3.3
			c0-2.5-0.6-4.9-1.3-7.3c-0.2-0.7,0.3-1.6,0.5-2.4c0.2-1.5,0.4-3,0.6-4.5c0.1-0.7,0.1-1.3,1-1.9c1.1-0.6,2-1.8,2.4-3
			c0.8-2.2,2.7-3,4.7-3.6c7.1-2.1,13.1-5.7,18-10.9c2.7-2.9,5.9-5.5,8.7-8.3c1-1,1.8-2.2,2.5-3.5c0.8-1.7,0.1-3-1.8-3.7
			c-0.6-0.2-1.1-0.5-1.6-0.9c-1.1-1-4.1-1.3-5.5-0.9c-2.3,0.6-4.6,1.1-6.9,1.5c-0.8,0.1-1.6,0.2-2.3,0.1c-1-0.2-2-0.4-3-0.8
			c-1.3-0.5-2.4-1.3-3.7-1.8c-1.5-0.5-2.8-1.1-3.5-2.6c-0.4-0.8-1.3-1.4-1.9-2.1c-1.1-1.1-1.8-2.3-0.8-3.9c1-1.6,2-3.3,3-4.9
			c0.6-0.9,1.3-1.9,1.5-2.9c0.5-2,1.7-3.5,3.3-4.9c1.1-1,2.2-2,3.2-3.1c0.5-0.6,0.8-1.4,1.4-1.9c0.8-0.6,1.7-1.3,2.7-1.5
			c1.7-0.3,2.9-1,3.9-2.3c0.6-0.8,1.8-1.7,2.7-1.7c2-0.1,3.4-1.1,4.5-2.3c1.6-1.7,3.4-2.4,5.8-2.3c0.7,0,1.7-0.4,2.2-1
			c1-1.2,2.1-1.6,3.7-1.1c1.7,0.5,3.4,0.8,5.1-0.3c0.5-0.3,1.6,0,2.3,0.3c2.9,1.2,5.6,2.7,8.6,3.8c5.3,2,10.5,4.2,15.3,7.1
			c0.2,0.1,0.4,0.2,0.5,0.3C93.8,82.6,96.3,84.5,98.3,87.2z M103.9,134.3c-0.6,1.3-1.2,2.6-1.8,3.9c0.9,0.1,1,0.1,0.9,1.4
			c-0.3,3.9-0.9,7.7-0.6,11.6c0.1,2-0.1,4,0,5.9c0,3.9-0.1,7.8,0.1,11.6c0.3,4.9,1,9.8-0.2,14.7c0,0.2,0,0.4,0,0.5
			c0.2,1.5,0.6,2.9,0.6,4.4c0,2.1-0.3,4.2-0.4,6.4c0.3-0.4,0.4-0.9,0.5-1.3c0.8-2.6-0.2-5.5,1.4-8.1c0.1-0.2-0.1-0.6-0.2-0.8
			c-0.2-0.9-0.5-1.9-0.5-2.8c-0.1-3,0-6.1,0-9.1c-0.1-4.5-0.4-9-0.4-13.5c0-3-0.2-6.1,0.3-9c0.4-2,0.2-4,0.3-6
			c0-1.3-0.2-2.7,0.3-3.7C105.1,138.2,104,136.3,103.9,134.3z M51.3,92.6c0,0.2,0,0.3,0,0.5c2.6-0.2,5.3-0.1,7.8-0.6
			c3-0.6,5.8-2,9.1-2.1c3.1-0.1,6.2-1,9.4,0.1c0.8,0.3,1.7,0.3,2.5,0.5c0-0.1,0-0.2,0.1-0.4c-3.5-1.2-7.1-1.4-10.8-1
			c-1.5,0.2-3,0-4.6,0c-1.6,1.8-4.2,1.8-6.4,2.4C56.2,92.7,53.7,92.4,51.3,92.6z M85.1,91.9c0,0.1-0.1,0.2-0.1,0.4
			c3.7,1.1,7.1,3.2,11.1,3.4C92.4,94.4,88.8,93.1,85.1,91.9z M139.5,140.7c0.1-2.7-1.9-4.7-2.5-7.1c-0.1,0-0.3,0.1-0.4,0.1
			C137.6,136.1,138.5,138.4,139.5,140.7z M101.9,202.1c-0.1,0-0.2,0-0.3,0c0,1,0,2,0,3c0.1,0,0.2,0,0.3,0
			C101.9,204.1,101.9,203.1,101.9,202.1z"/>
		<path class="st1" d="M101.4,82.4c-0.5-1.8-1-3.6-1.3-5.4c-0.3-1.7-0.3-3.5-0.9-5.1c-1.1-3.1-0.6-6.3-1.2-9.5
			c-1-5.6-1.7-11.2-2.6-16.8c-0.2-1-0.7-1.9-1-2.9c-0.4-1.4,0-1.7,2.3-2c1.4-0.2,1.4,0.5,1.5,1.4c1.1,12.8,2.3,25.5,3.5,38.3
			c0.1,0.6,0.2,1.3,0.2,1.9C101.7,82.3,101.5,82.3,101.4,82.4z"/>
		<path class="st2" d="M103.9,134.3c0.2,2,1.3,3.9,0.2,6.1c-0.5,1-0.3,2.5-0.3,3.7c0,2,0.1,4-0.3,6c-0.5,2.9-0.4,6-0.3,9
			c0.1,4.5,0.3,9,0.4,13.5c0.1,3,0,6.1,0,9.1c0,0.9,0.3,1.9,0.5,2.8c0.1,0.3,0.3,0.7,0.2,0.8c-1.6,2.5-0.6,5.4-1.4,8.1
			c-0.1,0.5-0.2,0.9-0.5,1.3c0.2-2.1,0.4-4.2,0.4-6.4c0-1.5-0.4-2.9-0.6-4.4c0-0.2-0.1-0.4,0-0.5c1.2-4.9,0.5-9.8,0.2-14.7
			c-0.2-3.9-0.1-7.7-0.1-11.6c0-2,0.2-4,0-5.9c-0.2-3.9,0.4-7.8,0.6-11.6c0.1-1.2,0-1.3-0.9-1.4
			C102.6,136.9,103.2,135.6,103.9,134.3z"/>
		<path class="st2" d="M51.3,92.6c2.4-0.1,4.8,0.1,7.1-0.5c2.2-0.6,4.9-0.6,6.4-2.4c1.6,0,3.1,0.1,4.6,0c3.7-0.4,7.3-0.2,10.8,1
			c0,0.1,0,0.2-0.1,0.4c-0.8-0.2-1.7-0.3-2.5-0.5c-3.1-1-6.3-0.1-9.4-0.1c-3.3,0.1-6.1,1.4-9.1,2.1c-2.5,0.5-5.2,0.5-7.8,0.6
			C51.4,92.9,51.4,92.8,51.3,92.6z"/>
		<path class="st2" d="M85.1,91.9c3.7,1.2,7.3,2.5,11,3.7c-4-0.2-7.4-2.2-11.1-3.4C85,92.1,85.1,92,85.1,91.9z"/>
		<path class="st2" d="M139.5,140.7c-1-2.3-1.9-4.6-2.9-7c0.1,0,0.3-0.1,0.4-0.1C137.6,136.1,139.7,138,139.5,140.7z"/>
		<path class="st2" d="M101.9,202.1c0,1,0,2,0,3c-0.1,0-0.2,0-0.3,0c0-1,0-2,0-3C101.7,202.1,101.8,202.1,101.9,202.1z"/>
	</g>
</g>
</svg>
