<?xml version="1.0" encoding="utf-8"?>
<!-- Generator: Adobe Illustrator 23.1.1, SVG Export Plug-In . SVG Version: 6.00 Build 0)  -->
<svg version="1.1" id="Layer_1" xmlns="http://www.w3.org/2000/svg" xmlns:xlink="http://www.w3.org/1999/xlink" x="0px" y="0px"
	 viewBox="0 0 200 300" style="enable-background:new 0 0 200 300;" xml:space="preserve">
<g>
	<g>
		<path d="M92.5,85.6c0.3,1.7,0.7,3.3,1,5c0.9,6.6,1.9,13.1,2.7,19.7c0.7,6.4-0.5,12.3-5.2,17.1c-0.8,0.9-2.1,1.4-3.1,2
			c-0.2-0.2-0.5-0.3-0.7-0.5c0.3-0.9,0.4-2,0.9-2.8c3.9-5.7,5.6-11.7,3.7-18.7c-1.2-4.3-1.2-8.9-1.9-13.4c-0.4-3-0.9-6-1.3-9
			C89.9,85.3,91.2,85.5,92.5,85.6z"/>
		<path d="M185.5,167c-1.5-2.8-2.8-5.8-3.6-8.8c-1-3.8-2.3-7.4-4.9-10.5c-2.5-2.9-5-6-6.8-9.4c-3.3-6.2-6.3-12.6-11.5-17.6
			c-4.6-4.5-9.6-8.3-16.5-8.2c-3.3,0.1-6.6,0.6-9.9,0.9c-1.4,0.1-2.8,0.1-4.2,0.5c-3.2,0.8-6.9,3.3-9.4,2.5
			c-5.1-1.7-4.8,4.3-8.2,4.3c-0.4,0-0.9,0.4-1.3,0.6c-2.1,1.2-4.2,2.2-6.2,3.5c-4,2.7-7.8,5.8-11.9,8.3c-5.8,3.5-11.9,6.5-17.7,9.8
			C66,147.4,58.6,152,51,156.4c-8.1,4.6-16.3,8.9-25.3,11.6c-2.6,0.8-5,1.9-7.5,2.8c0,0.4,0,0.7,0,1.1c1.7,0.3,3.4,1.1,5,0.7
			c5.5-1.1,10.9-2.5,16.3-4.1c3.7-1.1,7.4-2.4,10.9-4.1c10.8-5.4,21.5-11.1,32.3-16.6c3.6-1.8,7.3-3.2,10.9-4.9
			c6.5-3.2,12.9-6.8,19.5-9.7c8.8-3.8,17.9-6.1,27.6-4.8c6,0.8,11.9,2,16.3,6.5c2.4,2.5,4.5,5.4,6.5,8.2c0.5,0.7,0.1,1.9,0.1,2.9
			c-0.8-0.2-1.8-0.2-2.5-0.6c-2.1-1.3-4.1-2.7-6.1-4.2c-4.6-3.5-10-5.1-15.6-5.6c-9.2-0.9-17.8,2.7-26.2,5.8
			c-8.1,3-15.7,7.6-23.5,11.5c-1.7,0.8-3.6,1.3-5.2,2.1c-5.8,3-11.4,6.5-17.4,9.2c-8,3.6-16.3,6.7-24.4,10c-7.7,3.2-15.7,4.4-24,2.9
			c-1.5-0.3-3.1,0.2-4.7,0.3c0.7,5.3,0.7,5.3,5.2,4.8c1.8-0.2,3.6-0.2,5.4-0.3c5.2-0.2,10.5-0.1,15.7-0.9c3.7-0.5,7.3-2.2,10.9-3.4
			c7.4-2.4,14.8-4.7,22.2-7.1c7.7-2.5,15.3-5.2,23-7.7c3.4-1.1,6.9-2,10.3-3.1c4.4-1.4,8.7-3.4,13.2-4.4c6.3-1.4,12.8-2.7,19.2-3.2
			c6.1-0.5,12.3-0.4,18.4,0.2c3,0.3,6.4,1.8,8.6,3.8c2.9,2.6,5,6.1,7,9.5c7.5,12.4,8,25.2,1.5,38.6c0.1-4.9,0.4-9.4,0.3-13.8
			c-0.1-4.2,0.3-8.6-0.9-12.5c-1.8-6-6.1-10.7-10.5-15c-3.2-3.1-7.8-1.7-11.6-3.1c-0.9-0.3-2.1-0.2-3.1-0.1c-3,0.2-6.1,0.6-9.1,0.9
			c-3.3,0.3-6.6,0.2-9.8,1c-6.4,1.7-12.7,3.8-19.1,5.8c-5.8,1.8-11.6,3.6-17.3,5.6c-7.2,2.5-14.2,5.5-21.4,8
			c-3.7,1.3-7.7,2.1-11.6,2.8c-9.7,1.9-19.1,4.9-29.1,5.1c-3.5,0.1-7,0.4-10.5,0.9c-1,0.2-1.9,1.5-2.8,2.4c0.8,0.7,1.4,1.9,2.4,2.2
			c7.7,2.1,15.7,1.8,23.5,0.9c10.5-1.3,21-3,31.5-4.8c6.8-1.2,13.4-2.7,20.2-4.2c1.1-0.2,2-1.1,3.1-1.4c4-0.9,8.1-1.5,12.1-2.5
			c6.9-1.8,13.7-3.8,20.6-5.6c1.9-0.5,3.9-1.2,5.8-1.3c6.3-0.5,12.6-0.8,18.9-1c1.2-0.1,2.6,0,3.6,0.6c6.2,3.6,11.3,8,12.3,15.8
			c0.5,4,1.4,8-0.4,12.8c-0.6-2.1-1-3.4-1.3-4.8c-2.3-10.7-10.6-18.4-23.3-15c-6,1.6-12.2,2.6-18.3,3.8c-3,0.6-6.2,0.8-9.1,1.6
			c-8,2.1-15.8,4.6-23.8,6.7c-4,1-8.2,1.3-12.2,2.3c-7.6,1.9-15.3,3.6-23.2,3.7c-1.9,0-3.9,0.7-5.8,0.9c-5.2,0.6-10.3,1.3-15.5,1.7
			c-4.1,0.3-8.2,0-12.3,0c0.4,5.5,1.2,6.1,6.1,5.4c1.7-0.2,3.4-0.2,5.1,0.1c1,0.2,2.6,0.9,2.7,1.6c0.1,1-0.6,2.3-1.4,3.1
			c-1.1,1.1-2.5,1.7-4,2.6c3.2,1.3,5.6,0.9,7.6-1.4c0.4-0.5,1.1-0.8,1.8-0.9c5.9-1.2,11.7-2.7,17.6-3.3c9.4-0.9,18.8-1.1,28.2-1.8
			c4.7-0.3,9.4-0.9,14-1.7c1.7-0.3,3.2-0.4,4.6,0c5-0.8,10-2,15.1-2.2c0,0,0.1,0,0.1-0.1c0.1-0.1,0.3-0.1,0.5-0.1
			c3.9-2.2,8.3-3.1,12.6-4.3c1.6-0.5,3.2-1,4.8-1.4l0-0.1c0.9-0.2,1.7-0.3,2.6-0.4c0,0,0,0,0,0c1.2-0.2,2.3-0.3,3.5-0.2
			c0.1-0.2,0.1-0.3,0.3-0.3c1.7-0.5,3.5-0.9,5.3-1.1c5.1-0.7,9.5,1.8,11.9,6.3c2.2,4.3,2.7,4.4,7.4,2.9c0.7-0.2,1.5-0.4,2.2-0.6
			c0.2-0.1,0.5-0.1,0.7-0.2c0.1-0.2,0.3-0.3,0.5-0.5c0.6-1.1,1.1-2.3,1.5-3.4c0-0.7,0.2-1.4,0.4-2c0-0.8,0-1.5,0.3-2
			c2.4-5.5,4.5-11.2,7.4-16.4C189.1,176.5,188.2,171.9,185.5,167z"/>
		<path d="M88.1,109.9c0.5,0.8,1.3,1.6,1.4,2.4c0.1,4.8-2.3,8.8-4.2,13c-2,4.3-6.1,5.9-9.8,7.9c-6.8,3.7-13,8-19.2,12.5
			c-4,2.9-8.7,4.9-13.2,7c-7.6,3.6-15.2,7.1-22.8,10.7c-1.9,0.9-3.9,1.7-5.9,2.5c-0.5-4.2,0.1-4.6,4.7-6.8
			c7.8-3.9,14.8-8.8,20.9-15.2c5.1-5.4,10.6-10.5,16-15.7c4.9-4.6,10.5-8.6,14.8-13.6c3.6-4.3,5.7-9.8,5.2-15.8c0-0.5-0.1-1-0.1-1.5
			c0.1-2.5,0.2-5.1,0.4-7.9c0.6,0.7,1.7,1.5,1.9,2.5c0.6,3.4,1.1,6.8,1.4,10.3c0.4,5.8-3.2,10.3-5.9,14.9c-1.7,2.8-3.7,5.5-5.9,7.8
			c-3,3-6.3,5.6-9.6,8.3c-5.5,4.4-11.1,8.7-16.7,13.1c-1.5,1.2-3,2.3-4.3,3.6c-0.6,0.6-1,1.4-1.4,2.1c0.2,0.3,0.4,0.6,0.6,0.8
			c1.8-0.9,3.7-1.6,5.4-2.7c5.1-3.4,10.2-7,15.2-10.6c4.1-3,8.1-6.2,12.3-9.2c1.2-0.9,2.7-1.8,4.1-2c4.3-0.7,7.3-2.7,9.7-6.4
			C85.3,118.2,87.8,114.5,88.1,109.9C88.1,109.8,88.1,109.9,88.1,109.9z"/>
		<path d="M47.8,96.3c3.6,1.3,2.2,3.7,1.4,5.5c-2.8,6-5.6,12.1-8.9,17.7c-1.8,3-4.8,5.3-7.3,7.9c-1.6,1.7-3.3,3.5-4.8,5.3
			c-0.6,0.7-0.7,1.6-1.1,2.5c0.2,0.2,0.5,0.4,0.7,0.6c1.5-1.1,3-2.3,4.5-3.4c5-3.8,9.4-8.5,15.1-11.4c5.6-2.8,9.7-7.2,12.4-12.9
			c1.1-2.3,2.7-4.3,3.8-6.5c1.2-2.4,2-5,2.9-7.5c0.3-0.8,0.5-1.6,0.8-2.4c0.2,0,0.4,0,0.7,0.1c0.2,0.9,0.1,2,0.6,2.7
			c0.6,0.9,1.7,1.5,2.5,2.2c0.2-0.8,0.6-1.6,0.7-2.5c0.1-1.1,0-2.2,0.2-3.4c1.7,1.3,1.7,2.9,1.2,4.7c-0.3,0.9-0.6,1.9-0.6,2.8
			c-0.1,5.5-1.5,10.6-4.7,15.1c-0.8,1.1-2.1,1.8-3.1,2.8c-0.3-0.2-0.5-0.5-0.8-0.7c0.7-1.3,1.2-2.8,2.2-3.9c3.3-3.6,4-8,4.6-12.5
			c0.1-0.5-0.7-1.1-1-1.7c-0.5,0.3-1.3,0.6-1.5,1c-2.3,4.9-5.2,9.7-6.4,14.9c-1.2,5.4-5.8,7.2-8.8,10.7c-4.7,5.6-10.1,10.6-15,16
			c-5.7,6.2-12.3,10.9-19.8,14.5c-0.9,0.4-1.8,1.1-3,1.8c-0.1-2.3,0.1-3.8,2.1-4.9c7.1-3.7,12.9-9.1,18.5-14.7c2-2,4-3.9,5.7-6
			c0.6-0.8,0.5-2.1,0.8-3.2c-1.1,0.3-2.4,0.4-3.2,1c-7.4,6.1-14.8,12.4-22.1,18.6c-0.1,0.1-0.3,0.1-1.1,0.3c0.6-1.8,0.9-3.4,1.7-4.6
			c3.5-4.9,7.1-9.6,10.8-14.4c3.9-5.1,8.1-9.9,11.7-15.2c2.2-3.3,3.6-7.2,5.2-10.8C46.2,100.3,47,98.3,47.8,96.3z M49.2,125.8
			c-0.6-0.7-0.9-1.1-1.3-1.5c-0.7,0.7-1.5,1.4-2.1,2.2c-0.1,0.2,0.5,0.8,0.8,1.3C47.5,127.2,48.2,126.6,49.2,125.8z"/>
		<path d="M88.1,109.8c-1.3-2.2-2.1-0.7-2.7,0.5c-1.5,2.7-2.6,5.6-4.3,8c-1.7,2.4-3.9,4.4-6,6.4c-0.5,0.5-1.7,0.4-2.5,0.5
			c0.2-0.9,0.2-1.9,0.7-2.6c2.1-2.9,4.4-5.8,6.5-8.7c3.6-5,3.8-10.5,2.8-16.3c-0.6-3.9-1.2-7.7-1.9-12c3.4,1.7,4.2,4.6,4.9,7.4
			c0.8,3.2,1.1,6.5,1.6,9.8C87.5,105.2,87.8,107.5,88.1,109.8C88.1,109.9,88.1,109.8,88.1,109.8z"/>
		<path d="M36.5,102.3c0.7,0.3,1.3,0.5,2,0.8c-3.4,12.6-13.3,21-20.2,31.9c-0.3-4.7,0.2-6.3,2.8-9.4c3.6-4.5,7.3-8.9,10.6-13.6
			c1.7-2.4,2.7-5.4,4-8.1C35.9,103.5,36.2,103,36.5,102.3z"/>
		<path d="M45.8,117.8c0.8-1.4,1.5-2.7,2.3-4.1c2.7-4.8,5.3-9.7,8.1-14.4c1-1.7,2.5-3.2,4-4.7c0.3-0.3,1.2-0.2,1.8-0.3
			c0,0.5,0.3,1.2,0.1,1.6c-3.2,5.3-6.4,10.7-9.7,16c-1,1.5-2.1,3-3.3,4.3c-0.7,0.8-1.6,1.4-2.5,2.1C46.2,118.2,46,118,45.8,117.8z"
			/>
	</g>
</g>
</svg>
