<?xml version="1.0" encoding="utf-8"?>
<!-- Generator: Adobe Illustrator 23.1.1, SVG Export Plug-In . SVG Version: 6.00 Build 0)  -->
<svg version="1.1" id="Layer_1" xmlns="http://www.w3.org/2000/svg" xmlns:xlink="http://www.w3.org/1999/xlink" x="0px" y="0px"
	 viewBox="0 0 200 300" style="enable-background:new 0 0 200 300;" xml:space="preserve">
<style type="text/css">
	.st0{fill:#333333;}
	.st1{fill:#FFFFFF;}
	.st2{fill:none;stroke:#FFFFFF;stroke-width:2;stroke-miterlimit:10;}
	.st3{stroke:#000000;stroke-miterlimit:10;}
</style>
<g>
	<circle class="st0" cx="100.5" cy="151.5" r="91.5"/>
</g>
<g>
	<polygon class="st1" points="100.7,81.4 98.1,77.2 93.1,76.9 96.4,73.2 95.1,68.4 99.7,70.3 103.8,67.6 103.4,72.5 107.3,75.7 
		102.4,76.8 	"/>
</g>
<g>
	<polygon class="st1" points="102.1,237.2 98,234.2 93.3,235.9 94.8,231.2 91.7,227.2 96.7,227.2 99.5,223 101.1,227.8 105.9,229.2 
		101.9,232.2 	"/>
</g>
<g>
	<polygon class="st1" points="183.9,152.7 178.6,153 175.8,157.6 173.8,152.5 168.6,151.3 172.8,147.9 172.3,142.5 176.9,145.5 
		181.8,143.4 180.4,148.6 	"/>
</g>
<g>
	<polygon class="st1" points="30.6,159.4 24.3,157.4 19.1,161.4 19.1,154.8 13.7,151.1 20,149.1 21.8,142.8 25.7,148.1 32.2,147.9 
		28.4,153.2 	"/>
</g>
<g>
	<polygon class="st1" points="143.7,88.7 139.7,86.8 135.8,89.1 136.4,84.7 133,81.7 137.4,80.9 139.2,76.8 141.3,80.7 145.8,81.1 
		142.7,84.4 	"/>
</g>
<g>
	<polygon class="st1" points="170,121.1 164.8,117.3 158.8,119.5 160.7,113.3 156.8,108.2 163.2,108.2 166.9,102.9 168.9,109 
		175,110.8 169.9,114.6 	"/>
</g>
<g>
	<polygon class="st1" points="172.9,191.5 168.2,188.6 163.2,190.8 164.5,185.5 160.8,181.4 166.3,181 169.1,176.2 171.2,181.3 
		176.5,182.5 172.3,186.1 	"/>
</g>
<g>
	<polygon class="st1" points="148.5,216.7 143.4,218.4 141.8,223.5 138.7,219.1 133.3,219.2 136.5,214.9 134.7,209.8 139.9,211.5 
		144.2,208.3 144.1,213.6 	"/>
</g>
<g>
	<polygon class="st1" points="62.3,220.7 58.2,218.2 53.8,220.1 54.9,215.4 51.7,211.7 56.6,211.4 59.1,207.2 60.9,211.7 
		65.6,212.8 61.9,215.9 	"/>
</g>
<g>
	<polygon class="st1" points="37.4,188.3 33.2,187.9 30.6,191.2 29.6,187.1 25.7,185.6 29.3,183.4 29.5,179.2 32.7,181.9 
		36.8,180.8 35.2,184.7 	"/>
</g>
<g>
	<polygon class="st1" points="39.3,120.8 33.8,120.7 30.6,125.1 29.1,119.9 23.9,118.2 28.4,115.1 28.3,109.6 32.7,112.9 
		37.9,111.2 36.1,116.4 	"/>
</g>
<g>
	<polygon class="st1" points="65.2,90.7 60.1,91.2 57.7,95.7 55.6,91 50.6,90.1 54.4,86.7 53.7,81.6 58.1,84.2 62.8,81.9 61.7,86.9 
			"/>
</g>
<g>
	<line class="st2" x1="100.5" y1="151.5" x2="46.5" y2="89.5"/>
	<line class="st1" x1="100.5" y1="151.5" x2="46.5" y2="89.5"/>
</g>
<g>
	<line class="st2" x1="114.5" y1="191.5" x2="102.1" y2="153.1"/>
	<line class="st1" x1="114.5" y1="191.5" x2="102.1" y2="153.1"/>
</g>
<circle class="st3" cx="101.5" cy="152.5" r="3"/>
</svg>
