<?xml version="1.0" encoding="utf-8"?>
<!-- Generator: Adobe Illustrator 23.1.1, SVG Export Plug-In . SVG Version: 6.00 Build 0)  -->
<svg version="1.1" id="Layer_1" xmlns="http://www.w3.org/2000/svg" xmlns:xlink="http://www.w3.org/1999/xlink" x="0px" y="0px"
	 viewBox="0 0 200 300" style="enable-background:new 0 0 200 300;" xml:space="preserve">
<style type="text/css">
	.st0{fill:#808080;}
	.st1{fill:none;stroke:#000000;stroke-miterlimit:10;}
	.st2{fill:#B3B3B3;}
	.st3{fill:#0000FF;}
	.st4{fill:url(#SVGID_1_);}
</style>
<path class="st0" d="M54.1,70c7.9,4.8,22.7,12.4,43.4,15c36.4,4.5,64-10,71.2-14c0.4,43,0.8,86,1.2,129c-3.2,2.5-27.9,21-64,17
	c-36.6-4.1-54.5-28-56.7-31C50.9,147.3,52.5,108.7,54.1,70z"/>
<path d="M96.4,215c-8.4-4-16.9-8-25.3-12c0.8-11.3,1.6-22.7,2.4-34c8,1,16.1,2,24.1,3C97.2,186.3,96.8,200.7,96.4,215z"/>
<line class="st1" x1="127.8" y1="85" x2="126.6" y2="218"/>
<line class="st1" x1="145.9" y1="81" x2="144.7" y2="218"/>
<line class="st1" x1="127.2" y1="92.5" x2="145.3" y2="88.5"/>
<line class="st1" x1="127.2" y1="109.5" x2="145.3" y2="107.5"/>
<line class="st1" x1="127.2" y1="121.5" x2="145.3" y2="119.5"/>
<line class="st1" x1="127.2" y1="137.5" x2="145.3" y2="137.5"/>
<line class="st1" x1="127.2" y1="151.5" x2="145.3" y2="151.5"/>
<line class="st1" x1="127.2" y1="162.5" x2="145.3" y2="162.5"/>
<line class="st1" x1="127.2" y1="183.5" x2="145.3" y2="183.5"/>
<line class="st1" x1="127.2" y1="199.5" x2="145.3" y2="198.5"/>
<line class="st1" x1="127.2" y1="211.5" x2="145.3" y2="215.5"/>
<line class="st1" x1="127.2" y1="85.5" x2="145.3" y2="81.5"/>
<path class="st2" d="M53.5,70.5c18.5-9,37-18,55.5-27c20.1,9,40.2,18,60.3,27c-4.1,2.6-10.1,6.1-18.1,9c-15.4,5.6-28.8,5.9-37.4,6
	c-7.7,0.1-23.2,0.2-41-6C64.5,76.6,58,73.2,53.5,70.5z"/>
<polygon class="st3" points="75.9,171 95.2,174 95.2,211 75.9,201 "/>
<linearGradient id="SVGID_1_" gradientUnits="userSpaceOnUse" x1="50.972" y1="240.6679" x2="88.0168" y2="206.7101">
	<stop  offset="0.1668" style="stop-color:#FFFFFF"/>
	<stop  offset="1" style="stop-color:#0000FF"/>
</linearGradient>
<polygon class="st4" points="71,203 30,211 84.3,259 95.2,215 "/>
</svg>
