<?xml version="1.0" encoding="utf-8"?>
<!-- Generator: Adobe Illustrator 23.1.1, SVG Export Plug-In . SVG Version: 6.00 Build 0)  -->
<svg version="1.1" id="Layer_1" xmlns="http://www.w3.org/2000/svg" xmlns:xlink="http://www.w3.org/1999/xlink" x="0px" y="0px"
	 viewBox="0 0 200 300" style="enable-background:new 0 0 200 300;" xml:space="preserve">
<style type="text/css">
	.st0{fill:#1B1464;}
</style>
<path class="st0" d="M190,133c-0.2,3.4-3.2,5.1-3.8,5.4c-2.5,1.5-5,0.9-5.7,0.7c0.1,0.6,0.7,3-0.6,5.4c-1.2,2.2-3.7,3.9-6.3,3.4
	c-3.7-0.7-4.9-5.4-5-6.1c-0.4-1.7-0.2-3.2,0-4.1c-23-1.1-46.1-2.3-69.1-3.4c-0.4,33.6-0.8,67.2-1.3,100.9c0.5-0.1,3.2-1,5.7,0.7
	c2.8,1.9,3.5,5.9,2.5,8.8c-1.1,3.1-4,4.3-5,4.7c-1.8,0.8-3.4,0.8-4.4,0.7c0.1,0.2,1.6,5.2-1.3,8.8c-3.3,4.1-8.9,2.2-9.4,2
	c-0.8-0.3-4.3-1.5-5.7-5.4c-1-2.8-0.3-5.3,0-6.1c-0.6,0.1-3.6,0.7-6.3-1.4c-1.9-1.5-4-4.6-3.1-8.1c0.7-3,3.3-5.2,6.3-5.4h3.8
	c3.1-33.4,6.3-66.8,9.4-100.2c-20.6,1.1-41.1,2.3-61.6,3.4c0.2,0.9,0.3,2.4,0,4.1c-0.2,0.7-1.2,5.4-4.5,6.1
	c-2.3,0.5-4.5-1.1-5.6-3.4c-1.2-2.4-0.7-4.9-0.6-5.4c-0.6,0.2-2.8,0.8-5-0.7c-0.5-0.3-3.2-2-3.4-5.4c-0.2-3.7,2.6-5.9,2.8-6.1
	c2-1.5,4.6-1.5,6.7,0c-0.2-0.5-1.2-2.7-0.6-5.4c0.8-3.4,3.5-4.6,3.9-4.7c2.3-0.9,5.9-0.6,7.3,2.7c1.1,2.5,0.4,6-1.7,8.1
	c20.5-0.7,41.1-1.4,61.6-2V110c-12.7,0.5-25.4,0.9-38.1,1.4c0.2,0.8,0.4,2.3,0,4.1c-0.5,2.5-2.2,5.5-5,6.1c-2.1,0.4-5.2-0.5-6.2-3.4
	c-0.9-2.5,0.4-5.1,0.6-5.4c-0.5,0.3-2.9,1.8-5.6,0.7c-2.3-0.9-4.5-3.6-4.5-6.8c0.1-4,3.7-6.7,6.7-6.8c1.8-0.1,3.2,0.8,3.9,1.4
	c-0.4-0.7-1.3-2.4-1.1-4.7c0.2-3.2,2.4-6.6,5.6-6.8c3.1-0.2,5.9,2.6,6.2,6.1c0.3,3.5-2,5.9-2.2,6.1c13.2-0.2,26.4-0.5,39.6-0.7
	l-0.4-16.9H74.5c0.2,0.7,0.5,2.3,0,4.1c-0.7,2.6-2.7,4.5-5,4.7c-3.1,0.3-5-2.6-5-2.7c-1.5-2.3-1.2-5-1.1-5.4
	c-0.3,0.3-2.2,1.9-4.5,1.4c-2.3-0.5-4.5-2.9-4.5-6.1c0-3.4,2.6-5.8,5-6.1c2.4-0.3,4.2,1.7,4.5,2c0-0.8-0.1-4,1.7-6.8
	c0.5-0.7,2.6-3.9,5.6-3.4c3,0.5,4.3,4.3,4.5,4.7c1,2.8,0.2,5.4,0,6.1h13.8l-0.3-12.6c-3.3,0.7-6.2-0.5-7.4-3c-0.7-1.4-1-3.8,0-5.4
	c0.7-1.1,1.7-1.5,3.4-2c0.9-0.3,2.2-0.6,3.8-0.7l0-0.7c-0.8-3.5,0.9-6.9,3.8-8.1c2.7-1.1,6.1-0.1,7.5,2.7c1.4,2.6,0.3,5.5,0,6
	c0,0,0,0.1,0,0.1c0,0,0,0,0,0c2.4-0.1,4.3,0.3,5.6,0.7c1.9,0.6,3,0.9,3.8,2c1.1,1.6,0.7,4,0,5.4c-1.4,2.7-5.2,4-9.4,2.7v12.9h16.3
	c-0.2-0.7-1.1-3.2,0-6.1c0.2-0.5,1.7-4.2,5-4.7c3.4-0.5,5.8,2.7,6.3,3.4c2.1,2.8,1.9,5.9,1.9,6.8c0.3-0.3,2.3-2.3,5-2
	c2.7,0.3,5.6,2.7,5.6,6.1c0,3.2-2.5,5.6-5,6.1c-2.6,0.5-4.6-1-5-1.4c0.1,0.5,0.4,3.1-1.2,5.4c-0.1,0.1-2.2,3-5.7,2.7
	c-2.6-0.2-4.9-2.2-5.7-4.7c-0.5-1.8-0.2-3.4,0-4.1h-17.6v16.9c14.9,0.2,29.7,0.5,44.6,0.7c-0.2-0.2-2.8-2.6-2.5-6.1
	c0.3-3.5,3.5-6.3,6.9-6.1c3.6,0.2,6,3.6,6.3,6.8c0.2,2.3-0.8,4.1-1.2,4.7c0.8-0.5,2.4-1.4,4.4-1.4c3.3,0.1,7.5,2.8,7.5,6.8
	c0.1,3.2-2.5,5.8-5,6.8c-3.1,1.1-5.8-0.4-6.3-0.7c0.2,0.4,1.6,2.9,0.6,5.4c-1.1,2.9-4.5,3.8-6.9,3.4c-3.2-0.6-5.1-3.6-5.7-6.1
	c-0.4-1.7-0.2-3.2,0-4.1l-42.7-1.4v15.6c23,0.7,46.1,1.4,69.1,2c-2.3-2.2-3.1-5.6-1.9-8.1c1.5-3.3,5.6-3.6,8.2-2.7
	c0.5,0.2,3.5,1.3,4.4,4.7c0.7,2.7-0.4,4.9-0.6,5.4c2.4-1.5,5.3-1.5,7.5,0C187.1,127,190.2,129.3,190,133z"/>
<path class="st0" d="M100.2,53L100.2,53C100.2,53.1,100.2,53.1,100.2,53C100.2,53.1,100.2,53,100.2,53z"/>
</svg>
