<?xml version="1.0" encoding="utf-8"?>
<!-- Generator: Adobe Illustrator 23.1.1, SVG Export Plug-In . SVG Version: 6.00 Build 0)  -->
<svg version="1.1" id="Layer_1" xmlns="http://www.w3.org/2000/svg" xmlns:xlink="http://www.w3.org/1999/xlink" x="0px" y="0px"
	 viewBox="0 0 200 300" style="enable-background:new 0 0 200 300;" xml:space="preserve">
<style type="text/css">
	.st0{fill:#ED1C24;}
	.st1{fill:#C1272D;}
	.st2{fill:#FFFFFF;stroke:#000000;stroke-width:0.75;stroke-miterlimit:10;}
	.st3{fill:#CCCCCC;}
</style>
<path class="st0" d="M94.2,88.1c-3.5,0-5.9,5.2-6.7,7.8c-1.9,6.3,1.4,11.9,2.2,13.3c-2.3,5.9-4.2,12.6-5.5,20
	c-5.9,33.2,5.2,61.2,12.2,75.4c3.8-10.1,7.8-24.5,8.9-42.1c1.4-22.9-2.9-41.5-6.7-53.2c0.9-1.4,4.1-7,2.2-13.3
	C100.1,93.3,97.7,88.1,94.2,88.1z"/>
<ellipse class="st0" cx="93.7" cy="80.4" rx="6.1" ry="7.8"/>
<polygon class="st1" points="91.8,72.6 93.3,46 95.2,72.6 "/>
<path class="st2" d="M100.9,105.9c3-1,8-3.1,12.2-7.8c10.2-11.4,5.9-27.4,5.5-28.8c5.4-1.8,13.3-5.3,21.1-12.2
	c3.8-3.4,6.7-6.9,8.9-10"/>
<path class="st2" d="M87.6,105.9c-3-1-8-3.1-12.2-7.8c-10.2-11.4-6-27.4-5.5-28.8c-5.4-1.8-13.4-5.3-21.1-12.2
	c-3.8-3.4-6.7-6.9-8.9-10"/>
<path class="st2" d="M86.5,105.9c-8.9,2.5-19.5,6.8-29.9,14.4c-2,1.5-3.8,2.9-5.5,4.4c-0.5,4.8-1.5,10.5-3.3,16.6
	c-2.5,8.6-5.8,15.7-8.9,21.1c-3.7,2.6-7.4,5.2-11.1,7.8"/>
<path class="st2" d="M101.5,105.5c8.7,2.5,19,6.8,29.1,14.4c1.9,1.5,3.7,2.9,5.4,4.4c0.5,4.8,1.5,10.5,3.2,16.6
	c2.4,8.6,5.7,15.7,8.6,21.1c3.6,2.6,7.2,5.2,10.8,7.8"/>
<path class="st3" d="M87.6,113.6c-12.1-2.5-63.3-13-73.2-5.5c-1.3,1-4.7,3.6-4.4,6.7c0.3,3,4.1,4.8,5.5,5.5
	C26.7,125.7,77.3,115.7,87.6,113.6z"/>
<path class="st3" d="M100.7,113.8c13.8-2.5,72.5-13,83.8-5.5c1.5,1,5.4,3.6,5.1,6.7c-0.4,3-4.7,4.8-6.3,5.5
	C170.4,125.9,112.5,115.9,100.7,113.8z"/>
<path class="st2" d="M100.9,113.6c8.5,13.7,17,27.3,25.5,41c-2,10.3-3.6,24.9-1.1,42.1c4.5,30.9,19.6,52.2,27.7,62.1"/>
<path class="st2" d="M87,113.8c-8.2,13.7-16.4,27.3-24.6,41c2,10.3,3.5,24.9,1.1,42.1c-4.4,30.9-19,52.2-26.8,62.1"/>
</svg>
